<svg id="burn" xmlns="http://www.w3.org/2000/svg" width="42.766" height="42.766" viewBox="0 0 42.766 42.766">
  <circle id="Oval" cx="21.383" cy="21.383" r="21.383" fill="#00861a"/>
  <g id="noun_calories_1180285" transform="translate(14.673 11.761)">
    <path id="Path_5436" data-name="Path 5436" d="M40.694,28.26c-4.384-2.909-2.4-5.74-2.4-5.74-4.262,2.454-5.205,6.2-4.161,10.935-1.535-1.245-1.758-2.719-1.708-4.664a8.349,8.349,0,0,0-2.178,6.7,7.114,7.114,0,0,0,14.213-.079A7.643,7.643,0,0,0,40.694,28.26ZM37.824,40.6a4.925,4.925,0,0,1-2.752-.829q.291.029.581.029a6.357,6.357,0,0,0,6.328-6.346q0-.291-.029-.581a4.922,4.922,0,0,1,.839,2.734A4.987,4.987,0,0,1,37.813,40.6Z" transform="translate(-30.224 -22.52)" fill="#fff"/>
  </g>
</svg>
