<svg id="cart" xmlns="http://www.w3.org/2000/svg" width="18.897" height="23.811" viewBox="0 0 18.897 23.811">
  <path id="Path_30" data-name="Path 30" d="M71.906,19.635l-1.064-13.4A1.676,1.676,0,0,0,69.178,4.7h-2.1V4.6a4.607,4.607,0,0,0-9.214,0V4.7h-2.1A1.675,1.675,0,0,0,54.1,6.235l-1.065,13.4A3.879,3.879,0,0,0,56.9,23.811H68.037a3.879,3.879,0,0,0,3.869-4.175ZM59.258,4.6a3.211,3.211,0,0,1,6.422,0V4.7H59.258ZM69.86,21.62a2.46,2.46,0,0,1-1.823.8H56.9a2.483,2.483,0,0,1-2.477-2.67l1.065-13.4a.274.274,0,0,1,.272-.251h2.1V7.809a.7.7,0,0,0,1.4,0V6.092H65.68V7.809a.7.7,0,0,0,1.4,0V6.092h2.1a.274.274,0,0,1,.272.253l1.064,13.4A2.455,2.455,0,0,1,69.86,21.62Z" transform="translate(-53.02)" fill="#02911c"/>
  <path id="Path_31" data-name="Path 31" d="M191.638,250.132a.816.816,0,0,0-1.153,0l-3.641,3.637-1.4-1.4a.815.815,0,0,0-1.153,1.152l1.977,1.975a.816.816,0,0,0,1.153,0l4.217-4.213A.814.814,0,0,0,191.638,250.132Z" transform="translate(-178.516 -238.791)" fill="#02911c"/>
</svg>
