<svg id="chart" xmlns="http://www.w3.org/2000/svg" width="173" height="108.253" viewBox="0 0 173 108.253">
  <g id="Group_142" data-name="Group 142">
    <g id="Group_134" data-name="Group 134" transform="translate(89.012 37.506) rotate(18)">
      <path id="Path_26" data-name="Path 26" d="M14.5,38.276A7.9,7.9,0,0,0,5.364,50.024L0,55.587l5.5,4.241,4.027-6.544a7.9,7.9,0,0,0,9.041-11.949L44.813,0ZM12.034,49.828a4.04,4.04,0,1,1,4.04-4.04A4.04,4.04,0,0,1,12.034,49.828Z" fill="#2e2e2e"/>
    </g>
    <g id="Group_141" data-name="Group 141">
      <g id="Group_135" data-name="Group 135" transform="translate(89.094)">
        <path id="Path_27" data-name="Path 27" d="M1066.937,392.755a86.008,86.008,0,0,0-41.912-12.729l-.8,36.424a49.749,49.749,0,0,1,22.823,6.871Z" transform="translate(-1024.224 -380.026)" fill="#ffd800"/>
      </g>
      <g id="Group_136" data-name="Group 136" transform="translate(116.254 16.526)">
        <path id="Path_28" data-name="Path 28" d="M1089.583,449.432a50.261,50.261,0,0,1,15.071,17.972l33.489-14.46a86.822,86.822,0,0,0-27.365-33.148Z" transform="translate(-1089.583 -419.796)" fill="#006417"/>
      </g>
      <g id="Group_137" data-name="Group 137" transform="translate(43.616)">
        <path id="Path_29" data-name="Path 29" d="M934.714,421.96a49.747,49.747,0,0,1,20.358-5.51l-.8-36.424a86,86,0,0,0-39.488,11.3Z" transform="translate(-914.782 -380.026)" fill="#ffd800"/>
      </g>
      <g id="Group_138" data-name="Group 138" transform="translate(133.41 55.963)">
        <path id="Path_30" data-name="Path 30" d="M1130.869,527.661a49.942,49.942,0,0,1,3.147,17.49h36.442a86.275,86.275,0,0,0-5.529-30.452Z" transform="translate(-1130.869 -514.699)" fill="#006417"/>
      </g>
      <g id="Group_139" data-name="Group 139" transform="translate(0 54.854)">
        <path id="Path_31" data-name="Path 31" d="M815.786,512.03a86.236,86.236,0,0,0-5.966,31.561h36.442a49.9,49.9,0,0,1,3.585-18.6Z" transform="translate(-809.82 -512.03)" fill="#e23744"/>
      </g>
      <g id="Group_140" data-name="Group 140" transform="translate(8.755 14.947)">
        <path id="Path_32" data-name="Path 32" d="M864.416,464a50.279,50.279,0,0,1,16.7-18.345L859.906,416a86.861,86.861,0,0,0-29.017,33.527Z" transform="translate(-830.889 -415.995)" fill="#e23744"/>
      </g>
    </g>
  </g>
  <text id="_892" data-name="892" transform="translate(143.707 102.246)" fill="#02911c" font-size="13" font-family="Metropolis-Regular, Metropolis"><tspan x="0" y="0">892</tspan></text>
  <text id="_0" data-name="0" transform="translate(13.83 102.246)" fill="#e23744" font-size="13" font-family="Metropolis-Regular, Metropolis"><tspan x="0" y="0">0</tspan></text>
</svg>
