<svg id="chat-comment-oval-speech-bubble-with-text-lines" xmlns="http://www.w3.org/2000/svg" width="12.427" height="12.427" viewBox="0 0 12.427 12.427">
  <g id="_x32__26_" transform="translate(0)">
    <g id="Group_812" data-name="Group 812">
      <path id="Path_866" data-name="Path 866" d="M8.155,6.6H4.272a.388.388,0,0,0,0,.777H8.155a.388.388,0,1,0,0-.777Zm.777-2.33H3.5a.388.388,0,1,0,0,.777H8.932a.388.388,0,0,0,0-.777ZM6.214,0C2.782,0,0,2.434,0,5.437a5.2,5.2,0,0,0,2.33,4.24v2.75l2.722-1.652a7.125,7.125,0,0,0,1.162.1c3.432,0,6.214-2.434,6.214-5.437S9.646,0,6.214,0Zm0,10.1A6.284,6.284,0,0,1,4.9,9.955l-1.828,1.1.024-1.8A4.5,4.5,0,0,1,.777,5.437c0-2.574,2.434-4.66,5.437-4.66s5.437,2.087,5.437,4.66S9.216,10.1,6.214,10.1Z" transform="translate(0)" fill="#c7c7c7"/>
    </g>
  </g>
</svg>
