<svg id="ciconr9" xmlns="http://www.w3.org/2000/svg" width="43.74" height="43.211" viewBox="0 0 43.74 43.211">
  <g id="Group_11197" data-name="Group 11197" transform="translate(5.249 0.016)">
    <path id="Path_7777" data-name="Path 7777" d="M25.123,19.748c-2.853,0-6.3-.65-7.432-2.475-1.325-2.144-.03-6.526,1.735-9.69C21.2,4.4,23.331,2.5,25.123,2.5s3.922,1.9,5.7,5.083c1.764,3.165,3.06,7.547,1.735,9.691C31.427,19.1,27.976,19.748,25.123,19.748Zm0-16.22c-1.372,0-3.256,1.789-4.8,4.557-1.92,3.444-2.677,7.162-1.758,8.648.735,1.188,3.37,1.987,6.557,1.987s5.822-.8,6.557-1.987c.918-1.486.163-5.2-1.758-8.649C28.378,5.317,26.495,3.528,25.123,3.528Z" transform="translate(-17.147 -2.5)" fill="#e50010"/>
  </g>
  <g id="Group_11198" data-name="Group 11198" transform="translate(12.711 4.778)">
    <path id="Path_7778" data-name="Path 7778" d="M24.916,19.669a.514.514,0,0,1-.514-.514V7.645a.514.514,0,0,1,1.028,0v11.51A.514.514,0,0,1,24.916,19.669Z" transform="translate(-24.402 -7.13)" fill="#e50010"/>
  </g>
  <g id="Group_11199" data-name="Group 11199" transform="translate(10.117 9.663)">
    <path id="Path_7779" data-name="Path 7779" d="M24.988,15.5a.513.513,0,0,1-.364-.151l-2.594-2.593a.514.514,0,0,1,.727-.727l2.23,2.23,2.23-2.23a.514.514,0,1,1,.727.727L25.352,15.35A.512.512,0,0,1,24.988,15.5Z" transform="translate(-21.88 -11.879)" fill="#e50010"/>
  </g>
  <g id="Group_11200" data-name="Group 11200" transform="translate(5.543 28.312)">
    <path id="Path_7780" data-name="Path 7780" d="M10.506,49.913a3.471,3.471,0,0,1-2.542-.631A2.037,2.037,0,0,1,7.43,47.76a3.7,3.7,0,0,1,3.694-3.694h6.621A2.765,2.765,0,0,1,19.5,40.872l11.038-4.857a16.391,16.391,0,0,1,5.638-1h4.175a.514.514,0,0,1,.514.514V44.46a.514.514,0,0,1-.514.514h-3.1l-4.9,3.292c-2.907,1.644-6.219,1.644-9.141,1.644h-12.7Zm.618-4.818A2.669,2.669,0,0,0,8.458,47.76a1.089,1.089,0,0,0,.232.792c.339.338,1.2.332,2.115.33H23.2c2.932,0,5.964,0,8.6-1.49l5-3.359a.513.513,0,0,1,.287-.087h2.747v-7.9H36.176a15.333,15.333,0,0,0-5.255.926L19.882,41.826a1.748,1.748,0,0,0-1.011.91,1.72,1.72,0,0,0-.059,1.324.49.49,0,0,1,.031.07c.085.235.344.952,2.227.267l5.764-2.1a.514.514,0,1,1,.352.966l-5.764,2.1c-1.779.649-2.711.311-3.2-.268h-7.1Z" transform="translate(-7.43 -35.014)" fill="#e50010"/>
  </g>
  <g id="Group_11201" data-name="Group 11201" transform="translate(37.95 26.098)">
    <path id="Path_7781" data-name="Path 7781" d="M44.216,47.659H39.454a.514.514,0,0,1-.514-.514V33.375a.514.514,0,0,1,.514-.514h4.762a.514.514,0,0,1,.514.514v13.77A.514.514,0,0,1,44.216,47.659Zm-4.247-1.028H43.7V33.889H39.969Z" transform="translate(-38.94 -32.861)" fill="#e50010"/>
  </g>
  <g id="Group_11204" data-name="Group 11204" transform="translate(12.711 19.837)">
    <g id="Group_11202" data-name="Group 11202" transform="translate(4.335)">
      <path id="Path_7782" data-name="Path 7782" d="M31.976,31.062a2.285,2.285,0,0,1-1.647-.642l-1.07-1.07c-1.006-1.005-.808-2.842.45-4.181q.142-.151.313-.322a12.163,12.163,0,0,1,7.349-3.075.541.541,0,0,1,.386.151.514.514,0,0,1,.15.386,12.157,12.157,0,0,1-3.074,7.349q-.172.172-.323.313A3.789,3.789,0,0,1,31.976,31.062Zm4.844-8.2a10.9,10.9,0,0,0-6.071,2.715c-.106.106-.2.206-.291.3-.861.916-1.073,2.149-.473,2.75l1.07,1.07c.6.6,1.832.388,2.749-.472.094-.088.193-.185.3-.291A10.869,10.869,0,0,0,36.82,22.86Z" transform="translate(-28.617 -21.772)" fill="#e50010"/>
    </g>
    <g id="Group_11203" data-name="Group 11203" transform="translate(0 7.244)">
      <path id="Path_7783" data-name="Path 7783" d="M24.915,34.095a.492.492,0,0,1-.172-.03.509.509,0,0,1-.311-.648c.4-1.154,4.831-4.268,5.681-4.572a.514.514,0,0,1,.347.968c-.9.32-4.809,3.283-5.057,3.944A.522.522,0,0,1,24.915,34.095Z" transform="translate(-24.402 -28.815)" fill="#e50010"/>
    </g>
  </g>
  <g id="Group_11208" data-name="Group 11208" transform="translate(0 17.007)">
    <g id="Group_11206" data-name="Group 11206">
      <g id="Group_11205" data-name="Group 11205">
        <path id="Path_7784" data-name="Path 7784" d="M17.967,28.3a3.79,3.79,0,0,1-2.53-1.09c-.1-.094-.208-.2-.322-.313a12.144,12.144,0,0,1-3.071-7.341.514.514,0,0,1,.15-.386.557.557,0,0,1,.386-.151,12.155,12.155,0,0,1,7.341,3.071q.172.172.314.323c1.255,1.337,1.452,3.171.449,4.176l-1.07,1.069A2.281,2.281,0,0,1,17.967,28.3ZM13.13,20.109a10.882,10.882,0,0,0,2.711,6.062c.106.106.205.2.3.291.915.859,2.146,1.07,2.745.471l1.069-1.069c.6-.6.387-1.831-.471-2.745-.088-.094-.185-.194-.291-.3A10.888,10.888,0,0,0,13.13,20.109Z" transform="translate(-12.043 -19.021)" fill="#e50010"/>
      </g>
    </g>
    <g id="Group_11207" data-name="Group 11207" transform="translate(7.169 7.279)">
      <path id="Path_7785" data-name="Path 7785" d="M25.069,30.488a.515.515,0,0,1-.5-.39c-.175-.7-1.731-1.387-3.1-1.993-.741-.326-1.506-.664-2.188-1.045a.514.514,0,1,1,.5-.9c.641.357,1.384.684,2.1,1,1.819.8,3.39,1.5,3.687,2.685a.515.515,0,0,1-.375.624A.535.535,0,0,1,25.069,30.488Z" transform="translate(-19.014 -26.099)" fill="#e50010"/>
    </g>
  </g>
  <g id="Group_11209" data-name="Group 11209" transform="translate(12.711 16.288)">
    <path id="Path_7786" data-name="Path 7786" d="M24.916,39.826a.514.514,0,0,1-.514-.514V18.836a.514.514,0,0,1,1.028,0V39.312A.514.514,0,0,1,24.916,39.826Z" transform="translate(-24.402 -18.322)" fill="#e50010"/>
  </g>
  <g id="Group_11210" data-name="Group 11210" transform="translate(10.307 6.247)">
    <path id="Path_7787" data-name="Path 7787" d="M22.578,9.59a.648.648,0,0,1-.2-.041.579.579,0,0,1-.165-.112.6.6,0,0,1-.113-.165.659.659,0,0,1-.041-.2.725.725,0,0,1,.041-.2.587.587,0,0,1,.113-.165.527.527,0,0,1,.73,0,.92.92,0,0,1,.113.165.706.706,0,0,1,.031.2.643.643,0,0,1-.031.2.957.957,0,0,1-.113.165.57.57,0,0,1-.164.112A.715.715,0,0,1,22.578,9.59Z" transform="translate(-22.064 -8.559)" fill="#e50010"/>
  </g>
  <g id="Group_11211" data-name="Group 11211" transform="translate(16.025 7.178)">
    <path id="Path_7788" data-name="Path 7788" d="M28.139,10.49a.52.52,0,0,1-.37-.155.521.521,0,0,1,0-.719.448.448,0,0,1,.175-.113.516.516,0,0,1,.391,0,.357.357,0,0,1,.165.113.5.5,0,0,1,0,.719.42.42,0,0,1-.165.113A.441.441,0,0,1,28.139,10.49Z" transform="translate(-27.624 -9.464)" fill="#e50010"/>
  </g>
  <path id="Path_7789" data-name="Path 7789" d="M.364,13.418c.157-.272,3.108-4.9,4.624-2.158A8.707,8.707,0,0,1,8.02,13.767c2.023,2.722,4.439,8.141,3.441,11.138-.881,2.649-9.9.848-11.1,2.181C-.455,28-2,26.666-2.942,24.264c-.395-1-.316-3.152-.516-3.375C-3.983,20.321,1.935,12.179.364,13.418Z" transform="translate(9.135 -10.395)" fill="#e50010" opacity="0.18"/>
</svg>
