<svg xmlns="http://www.w3.org/2000/svg" width="41.495" height="44.191" viewBox="0 0 41.495 44.191">
  <g id="cicong6" transform="translate(0.244 0.222)">
    <g id="Group_11167" data-name="Group 11167" transform="translate(0 0)">
      <g id="Group_11166" data-name="Group 11166">
        <path id="Path_7723" data-name="Path 7723" d="M118.746,65.964a1.018,1.018,0,0,0-.772-.914,28.484,28.484,0,0,0-15.65.436,28.221,28.221,0,0,0-7.153-14.177A1.018,1.018,0,0,0,94,51.069C80.987,56.982,75.172,70.056,78.9,82.53a28.639,28.639,0,0,0,6.311,11.027,1.026,1.026,0,0,0,.508.3,30.19,30.19,0,0,0,7.2.888C108.563,94.747,119.931,82.118,118.746,65.964ZM94.165,53.24a25.956,25.956,0,0,1,6.216,12.976c-9.018,3.81-15.253,12.627-15.509,23.73C75.68,77.535,79.2,60.5,94.165,53.24ZM88.214,92.3l3.55-3,8.666-.892a1.018,1.018,0,1,0-.209-2.025l-5.7.587,2.845-2.406,4.285-.074a1.018,1.018,0,0,0-.035-2.035l-1.792.031,1.206-1.02,3.173-.45a1.017,1.017,0,0,0-.253-2.018l4.909-4.152a1.018,1.018,0,1,0-1.314-1.554l-5.25,4.44.062-.266A1.018,1.018,0,1,0,100.373,77l-.693,2.941-1.354,1.145.262-2.037a1.018,1.018,0,0,0-2.019-.259l-.545,4.244-3.061,2.589L94.2,79.8a1.018,1.018,0,1,0-1.991-.425l-1.789,8.386L86.9,90.744c-.05-16.386,13.688-27.427,29.86-23.886C117.551,83.294,104.465,95.105,88.214,92.3Z" transform="translate(-77.79 -50.978)" fill="#02911c" stroke="#fff" stroke-width="0.4"/>
        <path id="Path_7724" data-name="Path 7724" d="M10.734-.687c3.892,0,6.256,7.012,7.072,11.773,0,2.359-2.142,3.043-4.055,4.551-1.148.938-2.336,1.977-4.3,1.977-.651,0-3.6,5.147-5.471,10.769-1.073,3.226-.893,6.985-2.347,8.609-1.667,1.865-4.05-6.872-4.655-7.547-.639-.691-1.921-7.276-.781-13.025.679-3.427,3.3-6.968,3.3-8.05C1.9,5.183,6.843-.687,10.734-.687Z" transform="translate(5.75 2.666)" fill="#02911c" opacity="0.18"/>
      </g>
    </g>
  </g>
</svg>
