<svg xmlns="http://www.w3.org/2000/svg" width="39.273" height="43.528" viewBox="0 0 39.273 43.528">
  <g id="ciconr8" transform="translate(0.2 0.2)">
    <g id="Group_11168" data-name="Group 11168" transform="translate(0 0)">
      <path id="Path_7725" data-name="Path 7725" d="M21.3,14.491a3.143,3.143,0,0,0-3.3,2.954v36.93a2.954,2.954,0,0,0,.636,1.817,3.082,3.082,0,0,0,.206.238c.086.085.155.169.24.238a2.394,2.394,0,0,0,.533.39,3.93,3.93,0,0,0,2.047.561h1.41V57.6H53.2a3.47,3.47,0,0,0,3.664-3.226V17.445a3.165,3.165,0,0,0-3.337-2.954H21.3Zm.361.951h1.617V28.074a1.49,1.49,0,0,0,.654,1.324,1.556,1.556,0,0,0,1.5.017l5.091-2.377,5.092,2.377a1.591,1.591,0,0,0,1.513-.017,1.491,1.491,0,0,0,.653-1.324V15.442H53.2a2.5,2.5,0,0,1,2.684,2.275v31.6a2.2,2.2,0,0,1-2.357,2.021H23.068a3.027,3.027,0,0,0-2.373,1,3.06,3.06,0,0,0-.705,2.156,3.362,3.362,0,0,0,.757,2,2.559,2.559,0,0,1-1.015-.561,1.758,1.758,0,0,1-.31-.305.689.689,0,0,0-.086-.118,1.278,1.278,0,0,0-.12-.2c-.035-.067-.086-.153-.12-.238v-.034a.827.827,0,0,1-.1-.289v-.085a1.677,1.677,0,0,1-.035-.289V17.734a2.515,2.515,0,0,1,2.7-2.292Zm2.58,0H36.811V28.074c0,.322-.1.458-.206.527s-.275.085-.568-.051l-5.178-2.411c-.017,0-.035-.017-.086-.051l-.258-.136-.24.136a.28.28,0,0,1-.1.051h-.017l-5.16,2.411a.593.593,0,0,1-.55.051c-.1-.068-.206-.2-.206-.527V15.442Zm31.65,35.979v2.954A2.485,2.485,0,0,1,53.2,56.65H22.827a2.016,2.016,0,0,1-1.29-.663,2.6,2.6,0,0,1-.585-1.545,2.237,2.237,0,0,1,.482-1.494,2.031,2.031,0,0,1,1.634-.662H53.53a3.523,3.523,0,0,0,2.357-.865Z" transform="translate(-17.994 -14.491)" fill="#e50010" stroke="#e50010" stroke-width="0.4"/>
    </g>
    <path id="Path_7726" data-name="Path 7726" d="M-.208,1.135H12.558l.234,13.928L6.079,12.577.086,15.063Z" transform="translate(15.162 13.545)" fill="#e50010" opacity="0.18"/>
  </g>
</svg>
