<svg xmlns="http://www.w3.org/2000/svg" width="32.994" height="47.305" viewBox="0 0 32.994 47.305">
  <g id="cicong4" transform="translate(32.994 47.305) rotate(180)">
    <path id="Path_7737" data-name="Path 7737" d="M9.461,1.577A1.577,1.577,0,0,0,7.884,0H1.577a1.577,1.577,0,1,0,0,3.154H7.884A1.577,1.577,0,0,0,9.461,1.577Zm0,0" transform="translate(11.766 3.942)" fill="#02911c" opacity="0.18"/>
    <path id="Path_7738" data-name="Path 7738" d="M9.461,1.577A1.577,1.577,0,0,0,7.884,0H1.577a1.577,1.577,0,1,0,0,3.154H7.884A1.577,1.577,0,0,0,9.461,1.577Zm0,0" transform="translate(11.766 7.095)" fill="#02911c" opacity="0.18"/>
    <path id="Path_7739" data-name="Path 7739" d="M0,1.577V3.154H9.461V1.577A1.577,1.577,0,0,0,7.884,0H1.577A1.577,1.577,0,0,0,0,1.577Zm0,0" transform="translate(11.766 10.249)" fill="#02911c" opacity="0.18"/>
    <path id="Path_7740" data-name="Path 7740" d="M3.154,0A3.154,3.154,0,0,0,0,3.154H6.307A3.154,3.154,0,0,0,3.154,0Zm0,0" transform="translate(13.343 0.788)" fill="#02911c" opacity="0.18"/>
    <g id="Group_11178" data-name="Group 11178" transform="translate(0)">
      <path id="Path_7741" data-name="Path 7741" d="M3.913,37.513A12.5,12.5,0,0,0,12.608,41c.206,0,.413,0,.621-.015a12.761,12.761,0,0,0,12-12.521,12.543,12.543,0,0,0-4.683-9.881,2.365,2.365,0,0,1-.836-1.844V14.98a2.366,2.366,0,0,0-1.577-2.22v-.934a2.352,2.352,0,0,0-.615-1.577,2.329,2.329,0,0,0,0-3.154A2.342,2.342,0,0,0,16.5,3.278a3.93,3.93,0,0,0-7.75,0A2.342,2.342,0,0,0,7.712,7.1a2.329,2.329,0,0,0,0,3.154A2.349,2.349,0,0,0,7.1,11.826v.934a2.365,2.365,0,0,0-1.577,2.22v1.849a2.35,2.35,0,0,1-.9,1.8,12.607,12.607,0,0,0-.71,18.882ZM8.674,11.826a.788.788,0,0,1,.788-.788H15.77a.788.788,0,0,1,.788.788v.788H8.674Zm0-3.154a.788.788,0,0,1,.788-.788H15.77a.788.788,0,1,1,0,1.577H9.463A.788.788,0,0,1,8.674,8.672Zm3.942-7.1a2.369,2.369,0,0,1,2.23,1.577H10.386A2.37,2.37,0,0,1,12.616,1.576ZM9.463,4.73H15.77a.788.788,0,1,1,0,1.577H9.463a.788.788,0,1,1,0-1.577ZM5.619,19.852A3.92,3.92,0,0,0,7.1,16.829V14.98a.788.788,0,0,1,.788-.788h9.461a.788.788,0,0,1,.788.788v1.757a3.909,3.909,0,0,0,1.419,3.069,10.973,10.973,0,0,1,4.1,8.643,11.165,11.165,0,0,1-10.5,10.959A11.034,11.034,0,0,1,5.619,19.856Zm0,0" transform="translate(3.881)" fill="#02911c"/>
      <path id="Path_7742" data-name="Path 7742" d="M.788,0A.788.788,0,0,0,0,.788V3.942a.788.788,0,0,0,1.577,0V.788A.788.788,0,0,0,.788,0Zm0,0" transform="translate(15.709 42.575)" fill="#02911c"/>
      <path id="Path_7743" data-name="Path 7743" d="M2.762.105A.789.789,0,0,0,1.685.395L.108,3.125a.788.788,0,1,0,1.366.788l1.577-2.73A.788.788,0,0,0,2.762.105Zm0,0" transform="translate(6.639 40.568)" fill="#02911c"/>
      <path id="Path_7744" data-name="Path 7744" d="M3.129.108.4,1.685a.789.789,0,1,0,.788,1.366L3.918,1.474A.789.789,0,1,0,3.129.108Zm0,0" transform="translate(0 35.082)" fill="#02911c"/>
      <path id="Path_7749" data-name="Path 7749" d="M3.918,1.685,1.187.108A.789.789,0,1,0,.4,1.474L3.129,3.051a.789.789,0,1,0,.788-1.366Zm0,0" transform="translate(28.678 35.082)" fill="#02911c"/>
      <path id="Path_7750" data-name="Path 7750" d="M1.474.4a.788.788,0,1,0-1.366.788l1.577,2.73a.788.788,0,1,0,1.366-.788Zm0,0" transform="translate(23.196 40.564)" fill="#02911c"/>
    </g>
  </g>
</svg>
