<svg xmlns="http://www.w3.org/2000/svg" width="37.14" height="44.069" viewBox="0 0 37.14 44.069">
  <g id="ciconr5" transform="translate(0.163 0.15)">
    <path id="Path_7760" data-name="Path 7760" d="M34.276,2.784,28.736.066A.651.651,0,0,0,28.448,0H8.368A.652.652,0,0,0,8.08.066L2.54,2.784A4.543,4.543,0,0,0,.464,8.855L6.586,21.336A14.342,14.342,0,0,0,4.767,33.853a.653.653,0,0,0,1.243-.4,13.035,13.035,0,1,1,.94,2.191.653.653,0,1,0-1.148.623A14.334,14.334,0,1,0,30.23,21.336l2.54-5.18a.653.653,0,0,0-1.173-.575l-2.254,4.6a14.359,14.359,0,0,0-7.463-4.652l6.865-14L33.7,3.956A3.236,3.236,0,0,1,35.179,8.28l-2.423,4.94a.653.653,0,0,0,1.172.575l2.423-4.94a4.543,4.543,0,0,0-2.076-6.072ZM9.415,1.306H27.4L23.212,9.845H13.6ZM7.471,20.177,1.637,8.28A3.236,3.236,0,0,1,3.115,3.956l4.954-2.43,6.866,14a14.357,14.357,0,0,0-7.463,4.652ZM18.408,15.1a14.383,14.383,0,0,0-2.149.161l-2.015-4.108h8.328L20.557,15.26a14.347,14.347,0,0,0-2.149-.161Zm0,0" transform="translate(-0.001 0)" fill="#e50010" stroke="#e50010" stroke-width="0.3"/>
    <path id="Path_7761" data-name="Path 7761" d="M144.207,277.594a.8.8,0,0,1,.229.706l-.227,1.327a2.1,2.1,0,0,0,3.051,2.217l1.191-.626a.8.8,0,0,1,.742,0l1.191.626a2.1,2.1,0,0,0,3.051-2.217l-.228-1.327a.8.8,0,0,1,.229-.706l.964-.94a2.1,2.1,0,0,0-1.165-3.587l-1.332-.194a.8.8,0,0,1-.6-.436l-.6-1.207a2.1,2.1,0,0,0-3.771,0l-.6,1.207a.8.8,0,0,1-.6.436l-1.332.194a2.1,2.1,0,0,0-1.165,3.587Zm-.254-2.692a.782.782,0,0,1,.643-.542l1.332-.194a2.1,2.1,0,0,0,1.583-1.15l.6-1.207a.8.8,0,0,1,1.429,0l.6,1.207a2.1,2.1,0,0,0,1.583,1.15l1.332.194a.8.8,0,0,1,.442,1.359l-.964.94a2.1,2.1,0,0,0-.6,1.861l.227,1.327a.8.8,0,0,1-1.156.84l-1.191-.626a2.1,2.1,0,0,0-1.957,0l-1.192.626a.8.8,0,0,1-1.156-.84l.227-1.327a2.1,2.1,0,0,0-.6-1.862l-.964-.939A.783.783,0,0,1,143.953,274.9Zm0,0" transform="translate(-130.416 -246.972)" fill="#e50010" stroke="#e50010" stroke-width="0.3"/>
    <path id="Path_7762" data-name="Path 7762" d="M6.236.549c1.721,0,1.576,1.332,2.8,1.773,1.594.513,2.52.753,2.52,2.206,0,.6-.82,1.539-1.379,2.954A9.674,9.674,0,0,1,9.506,10a2.127,2.127,0,0,1-3.27.394c-.576-.44-2.011.755-2.876,0-.653-.563-.827-1.547-1.339-2.915a12.21,12.21,0,0,1-.963-3.621c0-.8,1.111-.609,2.5-1.539C4.718,1.508,2.545.549,6.236.549Z" transform="translate(12.238 23.621)" fill="#e50010" opacity="0.18"/>
  </g>
</svg>
