<svg id="ciconr3" xmlns="http://www.w3.org/2000/svg" width="43.751" height="43.751" viewBox="0 0 43.751 43.751">
  <g id="noun_laugh_1633251" transform="translate(0 0)">
    <g id="Group_11177" data-name="Group 11177">
      <path id="Path_7735" data-name="Path 7735" d="M27.876,6A21.876,21.876,0,1,0,49.751,27.876,21.891,21.891,0,0,0,27.876,6Zm0,1.989A19.887,19.887,0,1,1,7.989,27.876,19.872,19.872,0,0,1,27.876,7.989ZM20.418,18.927A2.486,2.486,0,1,0,22.9,21.412,2.486,2.486,0,0,0,20.418,18.927Zm14.915,0a2.486,2.486,0,1,0,2.486,2.486A2.486,2.486,0,0,0,35.333,18.927ZM16.845,30.361a.994.994,0,0,0-.9.994c.039,6.1,5.411,10.938,11.932,10.938s11.893-4.836,11.932-10.938a.994.994,0,0,0-.994-.994H16.938Q16.891,30.359,16.845,30.361Zm1.2,1.989H37.71c-.579,4.46-4.673,7.955-9.835,7.955S18.62,36.81,18.041,32.35Z" transform="translate(-6 -6)" fill="#e50010"/>
    </g>
  </g>
  <path id="Path_7736" data-name="Path 7736" d="M7.081.007c4.009,0,7.484-.326,7.484,1.546,0,.79,0,4.5-1.249,5.233-1.047.632-4.993,2.77-7.31,2.77C2,9.556-5.489,7.587-5.489,5.715c0-.5-.357-4.13.809-4.777C-2.526-.274,4.142.007,7.081.007Z" transform="translate(17.088 25.025)" fill="#e50010" opacity="0.18"/>
</svg>
