<svg id="cicong13" xmlns="http://www.w3.org/2000/svg" width="37.885" height="43.364" viewBox="0 0 37.885 43.364">
  <g id="Group_11212" data-name="Group 11212" transform="translate(0 0)">
    <path id="Path_7794" data-name="Path 7794" d="M43.663,20.1a10.3,10.3,0,0,0-6.34-5.021,11.123,11.123,0,0,0-9.636,2.333A26.789,26.789,0,0,1,31.9,7.976l-1.217-.913a28.224,28.224,0,0,0-4.007,8.267A25.619,25.619,0,0,0,20.738,5.187a16.425,16.425,0,0,0-3.2-2.536c-.406-.2-1.268-.406-2.181.811a5.876,5.876,0,0,0-.152,6.745c1.166,1.674,3.7,3.55,9.129,3.4a37.789,37.789,0,0,1,1.217,3.6,11.1,11.1,0,0,0-9.433-2.181,10.337,10.337,0,0,0-6.34,5.021A17.26,17.26,0,0,0,8.516,33.081C10.8,41.348,17.9,46.724,24.39,45.05a8.416,8.416,0,0,0,2.333-.964,13.3,13.3,0,0,0,2.333.964,10,10,0,0,0,2.434.3,11.144,11.144,0,0,0,6.289-2.029.811.811,0,0,0,.2-1.116h0a.8.8,0,0,0-1.014-.2,9.413,9.413,0,0,1-7.557,1.522,7.669,7.669,0,0,1-2.282-1.014l-.406-.254-.406.254a7.669,7.669,0,0,1-2.282,1.014c-5.68,1.471-11.969-3.4-14-10.9a15.715,15.715,0,0,1,1.116-11.868,8.867,8.867,0,0,1,5.427-4.311c3.246-.811,6.745.355,9.636,3.246l.558.507.558-.507c2.891-2.891,6.39-4.057,9.636-3.246a8.867,8.867,0,0,1,5.427,4.311A15.715,15.715,0,0,1,43.51,32.625a17.387,17.387,0,0,1-2.739,5.782.732.732,0,0,0,.152,1.014h0a.8.8,0,0,0,1.116-.152,20.3,20.3,0,0,0,2.992-6.238A17.06,17.06,0,0,0,43.663,20.1ZM16.529,9.346a4.351,4.351,0,0,1,.1-4.97,3.036,3.036,0,0,1,.3-.355A18.45,18.45,0,0,1,19.673,6.2a20.441,20.441,0,0,1,4.057,5.883C20.282,12.084,17.8,11.171,16.529,9.346Z" transform="translate(-7.811 -2.498)" fill="#02911c"/>
    <path id="Path_7795" data-name="Path 7795" d="M54.358,52.329a9.14,9.14,0,1,0-3.4,7.1L57,65.921l1.116-1.014-6.086-6.492A9,9,0,0,0,54.358,52.329Zm-16.737,0a7.608,7.608,0,1,1,7.608,7.608A7.6,7.6,0,0,1,37.622,52.329Z" transform="translate(-21.753 -22.557)" fill="#02911c"/>
    <path id="Path_7796" data-name="Path 7796" d="M-3.826-.752c1.26,0,3.82,1.391,4.085,2.933C.258,2.946,3.3,4.3,2.676,4.789c-.372.3-.866,7.863-1.5,7.863-.211,0-4.4,3.991-5.965,2.722-.347,1.045-6.475-2.408-6.946-1.882-.54.6-1.273-5.565-1.469-5.783s.7-3.664,1.071-5.526C-11.915,1.071-8.1.255-8.1-.1-7.317-1.127-5.087-.752-3.826-.752Z" transform="translate(28.935 22.212)" fill="#02911c" opacity="0.18"/>
  </g>
</svg>
