<svg id="cicong15" xmlns="http://www.w3.org/2000/svg" width="47.449" height="43.56" viewBox="0 0 47.449 43.56">
  <path id="Path_7804" data-name="Path 7804" d="M47.232,2.84a.741.741,0,0,0-1.048,0l-3.4,3.4a14,14,0,0,0-19.293.5c-.028.028-.059.063-.087.092a14.023,14.023,0,0,0-19.3,20.341l18.794,18.8a.741.741,0,0,0,1.048,0l18.8-18.8a.715.715,0,0,0,.053-.08c.191-.173.372-.344.535-.506a14,14,0,0,0,.5-19.3l3.4-3.4a.741.741,0,0,0,0-1.048ZM5.16,8.369a12.522,12.522,0,0,1,17.26-.44c-4.287,5.144-11.3,17.721-10.5,24.954L5.16,26.118a12.547,12.547,0,0,1,0-17.749ZM23.43,44.393,17.2,38.162a10.482,10.482,0,0,0,1.22.073c5.035,0,11.893-2.958,17.323-6.158ZM45.966,16.658a12.47,12.47,0,0,1-3.677,8.874c-3.941,3.941-16.437,11.22-23.869,11.22a5.3,5.3,0,0,1-3.864-1.237C9.9,30.86,19.261,13.065,24.544,7.783a12.525,12.525,0,0,1,17.2-.5L37.221,11.8H27.047a.741.741,0,1,0,0,1.483h8.692l-4.391,4.392H24.7a.741.741,0,1,0,0,1.483h5.163l-4.391,4.392H22.352a.741.741,0,1,0,0,1.483h2.687v2.781a.741.741,0,1,0,1.483,0V24.6l4.393-4.393v5.264a.741.741,0,1,0,1.483,0V18.726l4.388-4.388v8.789a.741.741,0,0,0,1.483,0V12.854l4.52-4.521a12.446,12.446,0,0,1,3.178,8.325Z" transform="translate(0 -2.623)" fill="#02911c"/>
  <path id="Path_7805" data-name="Path 7805" d="M12.7,1.731c3.241,0,9.295,1.609,9.975,5.31,0,1.834,3.709,4.139,3.558,7.39,1.285,2.57-6.531,13.91-8.165,13.91-.542,0-14.961,10.381-18.975,7.333-.893,2.508-6.047-2.749-7.258-1.487C-9.556,35.637-6.6,23.574-7.109,23.049c-.532-.537,5.931-8.231,6.88-12.7C.336,7.685,4.458,5.6,4.458,4.755,6.46,2.277,9.457,1.731,12.7,1.731Z" transform="translate(20.675 -1.282)" fill="#02911c" opacity="0.18"/>
</svg>
