<svg id="crown" xmlns="http://www.w3.org/2000/svg" width="24.944" height="19.499" viewBox="0 0 24.944 19.499">
  <path id="Union_2" data-name="Union 2" d="M-4381.961-1362.616H-4390V-1366h16.078v3.385Z" transform="translate(4394.433 1381.615)" fill="none" stroke="#02911c" stroke-width="1"/>
  <path id="Path_8359" data-name="Path 8359" d="M105.723,93.858l-1.184,2.309H90.684L89.5,93.858a10.456,10.456,0,0,1,16.223,0Zm0,0" transform="translate(-85.14 -85.615)" fill="#02911c" opacity="0.18"/>
  <path id="Path_8360" data-name="Path 8360" d="M264.112,93.858l-1.184,2.309H256V90a9.9,9.9,0,0,1,8.112,3.858Zm0,0" transform="translate(-243.528 -85.615)" fill="#02911c" opacity="0.18"/>
  <path id="Path_8361" data-name="Path 8361" d="M56.442,74.7,53.709,84H37.632L34.9,74.7,36.74,74a5.151,5.151,0,0,0,3.727,2.689h.76c1.681-.263,2.938-2.835,3.449-5.291h1.988c.512,2.455,1.769,5.028,3.449,5.291h.76A5.151,5.151,0,0,0,54.6,74Zm0,0" transform="translate(-33.199 -67.919)" fill="#fff" stroke="#02911c" stroke-linecap="round" stroke-width="1"/>
  <path id="Path_8363" data-name="Path 8363" d="M2.241,64.385a2.193,2.193,0,1,1,0-4.385,2.192,2.192,0,1,1,0,4.385Zm0,0" transform="translate(0 -57.077)" fill="#02911c"/>
  <path id="Path_8364" data-name="Path 8364" d="M423.192,64.385a2.192,2.192,0,1,1,0-4.385,2.193,2.193,0,1,1,0,4.385Zm0,0" transform="translate(-400.49 -57.077)" fill="#02911c"/>
  <path id="Path_8365" data-name="Path 8365" d="M213.192,0a2.192,2.192,0,1,0,2.192,2.192A2.189,2.189,0,0,0,213.192,0Zm0,0" transform="translate(-200.721)" fill="#02911c"/>
  <path id="Path_8366" data-name="Path 8366" d="M207.2,173.7l-2.5,2.5,2.5,2.5,2.5-2.5Zm0,0" transform="translate(-194.727 -165.237)" fill="#02911c" opacity="0.27"/>
  <path id="Path_8367" data-name="Path 8367" d="M325.822,233.785l1.033,1.033-1.033,1.033-1.033-1.033Zm0,0" transform="translate(-308.966 -222.395)" fill="#02911c" opacity="0.27"/>
  <path id="Path_8368" data-name="Path 8368" d="M145.822,233.785l1.033,1.033-1.033,1.033-1.033-1.033Zm0,0" transform="translate(-137.735 -222.395)" fill="#02911c" opacity="0.27"/>
</svg>
