<svg xmlns="http://www.w3.org/2000/svg" width="13.578" height="27.3" viewBox="0 0 13.578 27.3"><path d="M76.252,690.729H79.2v12.32a.437.437,0,0,0,.434.44h5a.437.437,0,0,0,.434-.44V690.787h3.387a.436.436,0,0,0,.431-.39l.514-4.535a.445.445,0,0,0-.107-.344.431.431,0,0,0-.324-.147h-3.9v-2.843c0-.857.454-1.292,1.351-1.292h2.551a.437.437,0,0,0,.434-.44v-4.163a.437.437,0,0,0-.434-.441H85.447c-.025,0-.08,0-.161,0a6.672,6.672,0,0,0-4.405,1.687,4.739,4.739,0,0,0-1.536,4.171v3.325H76.252a.437.437,0,0,0-.433.44v4.478A.437.437,0,0,0,76.252,690.729Z" transform="translate(-75.819 -676.189)" fill="#385c8e"/></svg>