<svg xmlns="http://www.w3.org/2000/svg" width="21.999" height="22" viewBox="0 0 21.999 22">
  <g id="find" transform="translate(-0.001 0.174)">
    <g id="Subtraction_5" data-name="Subtraction 5" transform="translate(-9814 1534)" fill="none">
      <path d="M9825-1512.174h-8a3,3,0,0,1-3-3v-12a3,3,0,0,1,3-3h1v15a2,2,0,0,0,2,2h7.237A3.006,3.006,0,0,1,9825-1512.174Z" stroke="none"/>
      <path d="M 9817.7646484375 -1513.174072265625 C 9817.2890625 -1513.705322265625 9817 -1514.406494140625 9817 -1515.174194335938 L 9817 -1529.172729492188 C 9815.8974609375 -1529.172241210938 9815.0009765625 -1528.276123046875 9815.0009765625 -1527.174926757813 L 9815.0009765625 -1515.174194335938 C 9815.0009765625 -1514.0712890625 9815.8984375 -1513.174072265625 9817.0009765625 -1513.174072265625 L 9817.7646484375 -1513.174072265625 M 9825 -1512.174072265625 L 9817.0009765625 -1512.174072265625 C 9815.3466796875 -1512.174072265625 9814.0009765625 -1513.519897460938 9814.0009765625 -1515.174194335938 L 9814.0009765625 -1527.174926757813 C 9814.0009765625 -1528.827880859375 9815.3466796875 -1530.172729492188 9817.0009765625 -1530.172729492188 L 9818 -1530.172729492188 L 9818 -1515.174194335938 C 9818 -1514.070922851563 9818.896484375 -1513.17333984375 9819.9990234375 -1513.17333984375 L 9827.236328125 -1513.17333984375 C 9826.6669921875 -1512.537719726563 9825.8515625 -1512.174072265625 9825 -1512.174072265625 Z" stroke="none" fill="#02911c"/>
    </g>
    <g id="Rectangle_17621" data-name="Rectangle 17621" transform="translate(3 -0.174)" fill="none" stroke="#02911c" stroke-width="1">
      <rect width="19" height="22" rx="3" stroke="none"/>
      <rect x="0.5" y="0.5" width="18" height="21" rx="2.5" fill="none"/>
    </g>
    <path id="Path_7705" data-name="Path 7705" d="M11.782,96.077a2.781,2.781,0,1,1,2.941,2.776H14.4A2.785,2.785,0,0,1,11.782,96.077Zm8.371,9.477a1.814,1.814,0,0,1-1.812,1.812H10.793a1.814,1.814,0,0,1-1.812-1.812v-.331a5.594,5.594,0,0,1,5.42-5.586c.054,0,.112,0,.166,0s.112,0,.166,0a5.594,5.594,0,0,1,5.42,5.586Z" transform="translate(-2 -89.27)" fill="#02911c" opacity="0.18"/>
  </g>
</svg>
