<svg xmlns="http://www.w3.org/2000/svg" width="19" height="22" viewBox="0 0 19 22">
  <g id="findmeet" transform="translate(-3 0.174)">
    <g id="Rectangle_17621" data-name="Rectangle 17621" transform="translate(3 -0.174)" fill="none" stroke="#02911c" stroke-width="1">
      <rect width="19" height="22" rx="3" stroke="none"/>
      <rect x="0.5" y="0.5" width="18" height="21" rx="2.5" fill="none"/>
    </g>
    <path id="Path_7705" data-name="Path 7705" d="M11.782,96.077a2.781,2.781,0,1,1,2.941,2.776H14.4A2.785,2.785,0,0,1,11.782,96.077Zm8.371,9.477a1.814,1.814,0,0,1-1.812,1.812H10.793a1.814,1.814,0,0,1-1.812-1.812v-.331a5.594,5.594,0,0,1,5.42-5.586c.054,0,.112,0,.166,0s.112,0,.166,0a5.594,5.594,0,0,1,5.42,5.586Z" transform="translate(-2 -89.27)" fill="#02911c" opacity="0.18"/>
  </g>
</svg>
