<svg id="footer-social3" xmlns="http://www.w3.org/2000/svg" width="43" height="43" viewBox="0 0 43 43">
  <circle id="Ellipse_183" data-name="Ellipse 183" cx="21.5" cy="21.5" r="21.5" fill="#007ab9"/>
  <g id="Group_12275" data-name="Group 12275" transform="translate(10.374 9.187)">
    <path id="Path_4971" data-name="Path 4971" d="M51.04,38.012v8.864H45.9v-8.27c0-2.076-.742-3.495-2.6-3.495a2.811,2.811,0,0,0-2.636,1.879,3.517,3.517,0,0,0-.17,1.252v8.633H35.353s.069-14.007,0-15.456h5.14v2.19c-.01.017-.025.034-.034.051h.034V33.61a5.1,5.1,0,0,1,4.632-2.553c3.381,0,5.916,2.209,5.916,6.956ZM29.976,23.969a2.678,2.678,0,1,0-.067,5.341h.033a2.679,2.679,0,1,0,.034-5.341Zm-2.6,22.907h5.138V31.42H27.373Z" transform="translate(-27.068 -23.969)" fill="#f1f2f2"/>
  </g>
</svg>
