<svg xmlns="http://www.w3.org/2000/svg" width="29.105" height="29.157" viewBox="0 0 29.105 29.157">
  <path id="footer-phone" d="M19.891,6.67A6.463,6.463,0,0,1,25,11.776M19.891,1.5A11.633,11.633,0,0,1,30.166,11.763M28.874,22.077v3.878a2.585,2.585,0,0,1-2.818,2.585A25.579,25.579,0,0,1,14.9,24.571a25.2,25.2,0,0,1-7.755-7.755A25.579,25.579,0,0,1,3.178,5.61,2.585,2.585,0,0,1,5.75,2.793H9.628a2.585,2.585,0,0,1,2.585,2.223,16.6,16.6,0,0,0,.9,3.632,2.585,2.585,0,0,1-.582,2.727l-1.642,1.641a20.68,20.68,0,0,0,7.755,7.755l1.641-1.642a2.585,2.585,0,0,1,2.727-.582,16.6,16.6,0,0,0,3.632.9A2.585,2.585,0,0,1,28.874,22.077Z" transform="translate(-2.167 -0.396)" fill="none" stroke="#02911c" stroke-linecap="round" stroke-linejoin="round" stroke-width="2"/>
</svg>
