<svg xmlns="http://www.w3.org/2000/svg" width="33.037" height="20.977" viewBox="0 0 33.037 20.977">
  <g id="friend" transform="translate(-19 -20.843)">
    <ellipse id="Ellipse_112" data-name="Ellipse 112" cx="4.5" cy="4" rx="4.5" ry="4" transform="translate(31 22)" fill="#02911c" opacity="0.18"/>
    <path id="friend-2" data-name="friend" d="M28.572,101.48a3.772,3.772,0,1,0-4.327,0,6.535,6.535,0,0,0-2.229,1.307,8.456,8.456,0,0,0-3.059-1.667,4.778,4.778,0,1,0-4.942,0,8.527,8.527,0,0,0-3.027,1.647,6.588,6.588,0,0,0-2.2-1.281,3.772,3.772,0,1,0-4.327,0A6.621,6.621,0,0,0,0,107.742v.431a.028.028,0,0,0,.026.026H8.021a8.792,8.792,0,0,0-.072,1.1v.445a3.476,3.476,0,0,0,3.478,3.478H21.558a3.476,3.476,0,0,0,3.478-3.478V109.3a8.792,8.792,0,0,0-.072-1.1h8.047c.013,0,.026-.026.026-.026v-.431A6.646,6.646,0,0,0,28.572,101.48Zm-4.89-3.092a2.726,2.726,0,1,1,2.778,2.726h-.1A2.722,2.722,0,0,1,23.683,98.388ZM12.74,97.028a3.733,3.733,0,1,1,3.948,3.726h-.431A3.738,3.738,0,0,1,12.74,97.028Zm-8.864,1.36a2.726,2.726,0,1,1,2.778,2.726h-.1A2.726,2.726,0,0,1,3.876,98.388ZM8.2,107.147H1.059a5.585,5.585,0,0,1,5.5-4.988h.078a5.527,5.527,0,0,1,3.563,1.327A8.583,8.583,0,0,0,8.2,107.147Zm15.773,2.6a2.435,2.435,0,0,1-2.432,2.432H11.413a2.435,2.435,0,0,1-2.432-2.432V109.3a7.509,7.509,0,0,1,7.275-7.5c.072.007.15.007.222.007s.15,0,.222-.007a7.509,7.509,0,0,1,7.275,7.5Zm.778-2.6a8.56,8.56,0,0,0-1.981-3.634,5.554,5.554,0,0,1,3.6-1.353h.078a5.585,5.585,0,0,1,5.5,4.988Z" transform="translate(19 -71.407)" fill="#02911c"/>
  </g>
</svg>
