<svg xmlns="http://www.w3.org/2000/svg" width="30.752" height="30.752" viewBox="0 0 30.752 30.752"><g transform="translate(0)"><g transform="translate(0 0)"><path d="M47.72,338.531a9.357,9.357,0,0,1-8.1-4.684l-5.214,3.005a15.364,15.364,0,0,0,21,5.635v-.007L52.4,337.266A9.289,9.289,0,0,1,47.72,338.531Z" transform="translate(-32.344 -313.795)" fill="#12b347"/><path d="M263.688,396v-.007l-3.012-5.214A9.29,9.29,0,0,1,256,392.043v6.017A15.35,15.35,0,0,0,263.688,396Z" transform="translate(-240.624 -367.308)" fill="#0f993e"/><path d="M6.017,135.8a9.29,9.29,0,0,1,1.264-4.676l-5.214-3.005a15.305,15.305,0,0,0,0,15.362l5.214-3.005A9.29,9.29,0,0,1,6.017,135.8Z" transform="translate(0 -120.424)" fill="#ffd500"/><path d="M47.72,6.017A9.316,9.316,0,0,1,53.662,8.15a1,1,0,0,0,1.344-.061L57.846,5.25a1.01,1.01,0,0,0-.058-1.478A15.342,15.342,0,0,0,34.411,7.7L39.625,10.7A9.358,9.358,0,0,1,47.72,6.017Z" transform="translate(-32.344)" fill="#ff4b26"/><path d="M261.942,8.15a1,1,0,0,0,1.344-.061l2.839-2.839a1.01,1.01,0,0,0-.058-1.478A15.33,15.33,0,0,0,256,0V6.017A9.316,9.316,0,0,1,261.942,8.15Z" transform="translate(-240.624)" fill="#d93f21"/><path d="M280.677,211.48H268.134a1,1,0,0,0-1,1v4.007a1,1,0,0,0,1,1H275.2a9.43,9.43,0,0,1-4.059,4.757l3.012,5.214a15.077,15.077,0,0,0,7.688-13.185,10.163,10.163,0,0,0-.173-1.969A1.007,1.007,0,0,0,280.677,211.48Z" transform="translate(-251.087 -198.777)" fill="#167ee6"/></g></g></svg>