<svg xmlns="http://www.w3.org/2000/svg" width="85" height="85" viewBox="0 0 85 85">
  <g id="Group_11453" data-name="Group 11453" transform="translate(-0.001 -0.002)">
    <path id="Path_7872" data-name="Path 7872" d="M82.5,45.306l4.781.994V57.11H101.2l1.367,3.231-2.236,6.213L99.084,71.9l-1.118,4.97-.746,2.982H73.489v-17.4l6.958-6.088L83.3,49.034Z" transform="translate(-39.999 -30.688)" fill="#e50010" opacity="0.25"/>
    <path id="Path_7873" data-name="Path 7873" d="M11.314,53.789l7.455,1.864.87,9.07,8.946-.87,3.479,3.728L20.508,82.242,16.781,69.2,1.126,71.93Z" fill="#e50010" opacity="0.25"/>
    <path id="Path_7874" data-name="Path 7874" d="M72.694,53.789l-6.585,1.242L64.99,65.22,55.8,64.226l-2.112,3.355L64.99,83.236,68.469,69.32l14.537,1.615Z" fill="#e50010" opacity="0.25"/>
    <g id="Group_11450" data-name="Group 11450" transform="translate(0.001 0.002)">
      <g id="Group_11449" data-name="Group 11449" transform="translate(0 0)">
        <path id="Path_7870" data-name="Path 7870" d="M84.762,70.055,74.409,54.519l1.815-.567a1.417,1.417,0,0,0,.93-1.775q-.014-.046-.032-.091L73.939,43.9l6.483-6.028a1.417,1.417,0,0,0,.072-2c-.023-.025-.047-.049-.072-.072l-6.483-6.026,3.185-8.187a1.417,1.417,0,0,0-.807-1.834q-.045-.018-.091-.032L67.7,17.062l-.745-8.741a1.425,1.425,0,0,0-.528-.992,1.405,1.405,0,0,0-1.078-.3l-8.87,1.228L51.94.691A1.417,1.417,0,0,0,50,.2l-.051.032L42.5,5.136,35.058.236a1.417,1.417,0,0,0-1.962.4l-.032.051L28.521,8.264,19.653,7.036a1.417,1.417,0,0,0-1.6,1.208c0,.025-.006.05-.008.075L17.3,17.06,8.785,19.718a1.417,1.417,0,0,0-.93,1.775q.014.046.032.091L11.07,29.77,4.58,35.8a1.417,1.417,0,0,0-.072,2c.023.025.047.049.072.072L11.063,43.9,7.878,52.086a1.417,1.417,0,0,0,.807,1.834q.045.018.091.032l1.88.585L.211,71.509a1.417,1.417,0,0,0,1.461,2.136l14.213-2.584,2.561,12.807a1.417,1.417,0,0,0,1.113,1.112,1.4,1.4,0,0,0,.275.021,1.417,1.417,0,0,0,1.179-.63l9.939-14.909,2.109,3.518a1.417,1.417,0,0,0,.9.653,1.394,1.394,0,0,0,.322.035,1.416,1.416,0,0,0,.779-.234l7.437-4.9,7.443,4.9a1.417,1.417,0,0,0,1.962-.4l.032-.051,2.111-3.519,9.939,14.91a1.417,1.417,0,0,0,1.179.63,1.39,1.39,0,0,0,.275-.027,1.417,1.417,0,0,0,1.113-1.112l2.578-12.919,14.322,1.308a1.417,1.417,0,0,0,1.306-2.2Zm-64.205,9.9L18.389,69.135a1.417,1.417,0,0,0-1.642-1.116L4.288,70.285l9.159-14.878,3.852,1.2.745,8.741a1.417,1.417,0,0,0,1.606,1.288l8.87-1.228.82,1.368Zm33.976-16.8-4.264,7.109L43.28,65.654a1.417,1.417,0,0,0-1.558,0l-6.99,4.6-4.264-7.11a1.417,1.417,0,0,0-1.214-.688,1.311,1.311,0,0,0-.2.014l-8.317,1.15-.7-8.2a1.417,1.417,0,0,0-.992-1.232L11.07,51.7l2.975-7.667a1.417,1.417,0,0,0-.356-1.551L7.626,36.835l6.07-5.644a1.417,1.417,0,0,0,.356-1.551l-2.975-7.67,7.983-2.489a1.417,1.417,0,0,0,.992-1.232l.7-8.2L29.068,11.2a1.417,1.417,0,0,0,1.417-.676l4.264-7.109,6.973,4.6a1.417,1.417,0,0,0,1.558,0l6.99-4.6,4.264,7.11a1.426,1.426,0,0,0,1.41.674l8.317-1.15.7,8.2a1.417,1.417,0,0,0,.992,1.232l7.983,2.49L70.951,29.64a1.417,1.417,0,0,0,.356,1.551l6.069,5.644-6.07,5.644a1.417,1.417,0,0,0-.356,1.551l2.975,7.67-7.976,2.489a1.417,1.417,0,0,0-.992,1.232l-.7,8.2-8.316-1.146A1.426,1.426,0,0,0,54.532,63.153ZM68.128,68a1.436,1.436,0,0,0-1.516,1.133L64.449,79.948,55.666,66.774l.819-1.366,8.868,1.228a1.417,1.417,0,0,0,1.6-1.208c0-.025.006-.05.008-.075l.747-8.741L71.595,55.4l9.167,13.757Z" transform="translate(-0.001 -0.002)" fill="#e50010"/>
      </g>
    </g>
    <g id="Group_11452" data-name="Group 11452" transform="translate(21.103 12.675)">
      <g id="Group_11451" data-name="Group 11451">
        <path id="Path_7871" data-name="Path 7871" d="M162.8,89.121a4.279,4.279,0,0,0-4.279-4.279h-9.985V79.135A7.125,7.125,0,0,0,141.416,72H141.4a1.427,1.427,0,0,0-1.426,1.426v6.8l-2.568,5.124-4.59,3.673a1.416,1.416,0,0,0-1.4-1.328H121.43A1.427,1.427,0,0,0,120,89.121v21.4a1.427,1.427,0,0,0,1.426,1.426h9.985a1.427,1.427,0,0,0,1.426-1.426h21.4a4.3,4.3,0,0,0,4.279-4.279,4.23,4.23,0,0,0-.571-2.094,3.993,3.993,0,0,0,.725-.579,4.2,4.2,0,0,0,.7-5.127,3.994,3.994,0,0,0,.725-.579,4.2,4.2,0,0,0,.7-5.127,3.993,3.993,0,0,0,.725-.579A4.2,4.2,0,0,0,162.8,89.121ZM129.99,109.092h-7.132V90.547h7.132Zm29.52-18.955a1.365,1.365,0,0,1-.99.411h-5.706V93.4h4.279a1.427,1.427,0,0,1,1.427,1.426,1.389,1.389,0,0,1-.437,1.016,1.365,1.365,0,0,1-.99.411h-5.706v2.853h4.279a1.427,1.427,0,0,1,1.426,1.426,1.389,1.389,0,0,1-.436,1.016,1.365,1.365,0,0,1-.99.411H149.96v2.853h4.279a1.427,1.427,0,0,1,1.426,1.426,1.389,1.389,0,0,1-.437,1.016,1.365,1.365,0,0,1-.99.411h-21.4V92.659l6.6-5.277a1.434,1.434,0,0,0,.385-.476l2.853-5.706a1.426,1.426,0,0,0,.15-.638V75.1a4.265,4.265,0,0,1,2.853,4.036v7.132a1.427,1.427,0,0,0,1.426,1.426h11.412a1.427,1.427,0,0,1,1.426,1.426A1.389,1.389,0,0,1,159.509,90.137Z" transform="translate(-120.004 -72.003)" fill="#e50010"/>
      </g>
    </g>
  </g>
</svg>
