<svg xmlns="http://www.w3.org/2000/svg" width="37" height="37" viewBox="0 0 37 37">
  <g id="home-iconr3" transform="translate(-63 -309)">
    <g id="Group_10741" data-name="Group 10741" transform="translate(9 -204)">
      <g id="CARDIO" transform="translate(90.777 49.604)">
        <g id="_1694114" data-name="1694114" transform="translate(-27.267 473.5)">
          <g id="_2446672" data-name="2446672">
            <path id="Path_6263" data-name="Path 6263" d="M15.6,16H2.269A2.271,2.271,0,0,0,0,18.269V30.484a2.271,2.271,0,0,0,2.269,2.269H15.6a2.271,2.271,0,0,0,2.269-2.269V18.269A2.271,2.271,0,0,0,15.6,16ZM5.793,29.611a.524.524,0,1,1,.524-.524.524.524,0,0,1-.524.524Zm3.141,1.047a1.571,1.571,0,1,1,1.571-1.571,1.571,1.571,0,0,1-1.571,1.571Zm3.141-1.047a.524.524,0,1,1,.524-.524.524.524,0,0,1-.524.524Zm3.665-3.665a.524.524,0,0,1-.524.524H2.652a.524.524,0,0,1-.524-.524v-7.4a.524.524,0,0,1,.524-.524H15.217a.524.524,0,0,1,.524.524Z" transform="translate(0 -16)" fill="#e23744"/>
            <ellipse id="Ellipse_102" data-name="Ellipse 102" cx="0.988" cy="0.494" rx="0.988" ry="0.494" transform="translate(7.947 12.327)" fill="#e23744"/>
            <path id="Path_6264" data-name="Path 6264" d="M100.92,183.539a.524.524,0,0,1-.9.17L98,181.29l-.226.679a.523.523,0,0,1-.5.358h-.67l-.4,1.213a.524.524,0,0,1-.9.17l-2.016-2.419-.226.679a.524.524,0,0,1-.5.358H91v2.618h11.517v-2.618h-1.193Z" transform="translate(-87.824 -175.521)" fill="#e23744"/>
            <path id="Path_6265" data-name="Path 6265" d="M91,106.687h1.193l.4-1.213a.524.524,0,0,1,.9-.17l2.016,2.419.226-.679a.524.524,0,0,1,.5-.358h.67l.4-1.213a.524.524,0,0,1,.9-.17l2.016,2.419.226-.679a.524.524,0,0,1,.5-.358h1.571V104H91Z" transform="translate(-87.824 -100.929)" fill="#e23744"/>
          </g>
        </g>
      </g>
    </g>
    <g id="Rectangle_17666" data-name="Rectangle 17666" transform="translate(63 309)">
      <path id="Path_8391" data-name="Path 8391" d="M0,0H18.5A18.5,18.5,0,0,1,37,18.5h0A18.5,18.5,0,0,1,18.5,37h0A18.5,18.5,0,0,1,0,18.5Z" fill="none"/>
      <path id="Path_8392" data-name="Path 8392" d="M.986.5H18.5a18,18,0,0,1,18,18h0a18,18,0,0,1-18,18h0a18,18,0,0,1-18-18V.986A.486.486,0,0,1,.986.5Z" fill="none" stroke="#e23744" stroke-width="1"/>
    </g>
  </g>
</svg>
