<svg xmlns="http://www.w3.org/2000/svg" width="37" height="37" viewBox="0 0 37 37">
  <g id="home-iconr2" transform="translate(-31 -342)">
    <g id="Group_10740" data-name="Group 10740" transform="translate(-146 -220)">
      <g id="spiritual" transform="translate(147.77 100.275)">
        <g id="Group_10697" data-name="Group 10697" transform="translate(37.23 468.725)">
          <path id="Path_6274" data-name="Path 6274" d="M192.375,145.18c.824,1.343.539,2.244-1.018,2.722a11.3,11.3,0,0,1-3.025.481,24.367,24.367,0,0,1-4.036-.238,15.448,15.448,0,0,0-3.843.087,17.442,17.442,0,0,1-5.477-.058,5.966,5.966,0,0,1-1.261-.4c-1.252-.583-1.465-1.45-.634-2.587l-1.024-.168a3.251,3.251,0,0,1-.254-.621,3.61,3.61,0,0,1,.021-.67l.365.256c-.081-.516.188-.543.57-.516a5.983,5.983,0,0,0,1.384-.04.97.97,0,0,0,.588-.435,9.493,9.493,0,0,1,2.191-2.552,2.644,2.644,0,0,0,.7-1.1c.41-1.114.778-2.244,1.115-3.381a2.236,2.236,0,0,1,1.836-1.77,2.019,2.019,0,0,0,.969-.55c.295-.29.362-.607-.017-1.026a5.118,5.118,0,0,1-1.152-1.859,4.993,4.993,0,0,1,.061-1.944,1.941,1.941,0,0,1,1.166-1.516c.128-.065.172-.278.287-.391.254-.251.5-.616.8-.687.434-.1.708.256.866.677a.936.936,0,0,0,.378.458,2.036,2.036,0,0,1,1.1,1.7c.038.434.1.867.116,1.3a.952.952,0,0,1-.107.522c-.4.638-.84,1.252-1.241,1.889a.727.727,0,0,0-.106.515,1.372,1.372,0,0,0,1.221.943,2.084,2.084,0,0,1,1.737,1.627c.353,1.174.713,2.352,1.171,3.487a5.652,5.652,0,0,0,1,1.39,8.527,8.527,0,0,1,1.382,1.575,2.063,2.063,0,0,0,2.465,1.175c.443-.053.7.033.618.6l.183-.376.22.114c-.074.261-.16.52-.216.784a1.519,1.519,0,0,0,.035.4Zm-12.343-7.165c-.775,2.823-2.885,4.548-5.037,6.2,1.076-.141,2.145-.322,3.222-.408a1.767,1.767,0,0,0,1.635-1.15,5.457,5.457,0,0,0,.181-4.642Zm10.417,6.2c-2.166-1.639-4.257-3.383-5.057-6.2-.464,1.472-.78,2.9.093,4.308a2.382,2.382,0,0,1,.338.77c.086.446.359.566.758.615,1.293.162,2.583.342,3.868.512Z" transform="translate(-171.792 -126.197)" fill="#e23744"/>
        </g>
      </g>
    </g>
    <g id="Rectangle_17665" data-name="Rectangle 17665" transform="translate(31 342)">
      <path id="Path_8389" data-name="Path 8389" d="M0,0H18.5A18.5,18.5,0,0,1,37,18.5h0A18.5,18.5,0,0,1,18.5,37h0A18.5,18.5,0,0,1,0,18.5Z" fill="none"/>
      <path id="Path_8390" data-name="Path 8390" d="M.986.5H18.5a18,18,0,0,1,18,18h0a18,18,0,0,1-18,18h0a18,18,0,0,1-18-18V.986A.486.486,0,0,1,.986.5Z" fill="none" stroke="#e23744" stroke-width="1"/>
    </g>
  </g>
</svg>
