<svg xmlns="http://www.w3.org/2000/svg" width="452" height="204" viewBox="0 0 452 204">
  <g id="icons" transform="translate(-106 -466)">
    <g id="Group_10742" data-name="Group 10742" transform="translate(244.257 497.607)">
      <g id="WELLNESS" transform="translate(0 0)">
        <g id="_684262" data-name="684262" transform="translate(0 0)">
          <g id="Group_10594" data-name="Group 10594" transform="translate(0 0)">
            <path id="_1077086" data-name="1077086" d="M25.808,2.441A7.538,7.538,0,0,0,20.2,0a7.052,7.052,0,0,0-4.4,1.52A9.011,9.011,0,0,0,14.016,3.38,9.006,9.006,0,0,0,12.235,1.52,7.051,7.051,0,0,0,7.831,0,7.538,7.538,0,0,0,2.224,2.441,8.762,8.762,0,0,0,0,8.424a10.433,10.433,0,0,0,2.78,6.829,59.285,59.285,0,0,0,6.96,6.532c.964.822,2.057,1.753,3.192,2.746a1.646,1.646,0,0,0,2.167,0c1.135-.993,2.229-1.925,3.193-2.747a59.251,59.251,0,0,0,6.959-6.532,10.432,10.432,0,0,0,2.78-6.829,8.761,8.761,0,0,0-2.224-5.983Zm0,0" transform="translate(0 0)" fill="#02911c"/>
          </g>
        </g>
      </g>
    </g>
    <g id="Group_10744" data-name="Group 10744" transform="translate(114.292 626.285)">
      <g id="medical" transform="translate(0 0)">
        <g id="_119059" data-name="119059" transform="translate(0 0)">
          <path id="Path_6045" data-name="Path 6045" d="M26.569,10.045H20.407V3.882A3.882,3.882,0,0,0,16.525,0h-2.6a3.882,3.882,0,0,0-3.882,3.882v6.163H3.883A3.882,3.882,0,0,0,0,13.927v2.6A3.882,3.882,0,0,0,3.883,20.4h6.163v6.163a3.883,3.883,0,0,0,3.882,3.883h2.6a3.882,3.882,0,0,0,3.882-3.883V20.4h6.163a3.882,3.882,0,0,0,3.883-3.881v-2.6A3.882,3.882,0,0,0,26.569,10.045Z" transform="translate(-0.002 0)" fill="#02911c"/>
        </g>
      </g>
    </g>
    <g id="Group_10740" data-name="Group 10740" transform="translate(142.601 572.24)">
      <g id="spiritual" transform="translate(0)">
        <g id="Group_10697" data-name="Group 10697" transform="translate(0)">
          <path id="Path_6274" data-name="Path 6274" d="M198.278,150.624c1.061,1.728.694,2.887-1.309,3.5a14.542,14.542,0,0,1-3.892.619,31.356,31.356,0,0,1-5.194-.307,19.878,19.878,0,0,0-4.945.112,22.444,22.444,0,0,1-7.048-.074,7.677,7.677,0,0,1-1.623-.516c-1.611-.75-1.886-1.866-.816-3.329l-1.317-.216a4.184,4.184,0,0,1-.327-.8,4.644,4.644,0,0,1,.027-.862l.469.33c-.1-.664.242-.7.733-.664a7.7,7.7,0,0,0,1.781-.051,1.248,1.248,0,0,0,.757-.559,12.215,12.215,0,0,1,2.82-3.284,3.4,3.4,0,0,0,.9-1.418c.527-1.433,1-2.887,1.435-4.351a2.877,2.877,0,0,1,2.362-2.278,2.6,2.6,0,0,0,1.247-.708c.38-.374.466-.781-.022-1.32a6.586,6.586,0,0,1-1.483-2.393,6.426,6.426,0,0,1,.079-2.5,2.5,2.5,0,0,1,1.5-1.95c.165-.084.222-.358.369-.5.327-.323.638-.792,1.03-.884.559-.131.91.33,1.114.872a1.2,1.2,0,0,0,.487.59,2.62,2.62,0,0,1,1.411,2.184c.049.559.124,1.115.149,1.675a1.225,1.225,0,0,1-.137.672c-.516.821-1.081,1.611-1.6,2.431a.936.936,0,0,0-.136.662,1.765,1.765,0,0,0,1.571,1.214,2.682,2.682,0,0,1,2.235,2.094c.455,1.511.918,3.026,1.507,4.488a7.272,7.272,0,0,0,1.293,1.789,10.973,10.973,0,0,1,1.778,2.027c.686,1.475,1.808,1.675,3.172,1.512.57-.069.894.042.8.775l.236-.484.283.146c-.1.336-.206.669-.277,1.009a1.954,1.954,0,0,0,.045.514ZM182.4,141.4c-1,3.633-3.713,5.853-6.482,7.98,1.384-.181,2.76-.414,4.146-.525a2.273,2.273,0,0,0,2.1-1.479A7.022,7.022,0,0,0,182.4,141.4Zm13.4,7.984c-2.788-2.109-5.478-4.353-6.508-7.979-.6,1.894-1,3.735.12,5.544a3.065,3.065,0,0,1,.435.991c.111.574.462.729.975.791C192.486,148.939,194.146,149.169,195.8,149.389Z" transform="translate(-171.792 -126.197)" fill="#02911c"/>
        </g>
      </g>
    </g>
    <g id="Rectangle_17672" data-name="Rectangle 17672" transform="translate(298 466)" fill="none" stroke="#e23744" stroke-width="1">
      <path d="M0,0H35A30,30,0,0,1,65,30v5A30,30,0,0,1,35,65H30A30,30,0,0,1,0,35V0A0,0,0,0,1,0,0Z" stroke="none"/>
      <path d="M1,.5H35A29.5,29.5,0,0,1,64.5,30v5A29.5,29.5,0,0,1,35,64.5H30A29.5,29.5,0,0,1,.5,35V1A.5.5,0,0,1,1,.5Z" fill="none"/>
    </g>
    <g id="Group_10739" data-name="Group 10739" transform="translate(311.826 477.616)">
      <g id="spiritual-2" data-name="spiritual" transform="translate(0)">
        <g id="_348885" data-name="348885" transform="translate(0)">
          <g id="Group_10699" data-name="Group 10699" transform="translate(0)">
            <g id="Group_10698" data-name="Group 10698">
              <path id="Path_6281" data-name="Path 6281" d="M44.406,20.625H42.865A16.242,16.242,0,0,0,30.686,6.383a4.42,4.42,0,1,0-7.917,0A16.243,16.243,0,0,0,10.59,20.625H9.049a1.473,1.473,0,0,0,0,2.946H44.406a1.473,1.473,0,0,0,0-2.947ZM34.3,17.3a1.473,1.473,0,0,1-2.08-.115,7.378,7.378,0,0,0-5.491-2.456,1.473,1.473,0,0,1,0-2.946,10.327,10.327,0,0,1,7.686,3.437A1.473,1.473,0,0,1,34.3,17.3Z" transform="translate(-7.576)" fill="#e23744"/>
            </g>
          </g>
          <g id="Group_10701" data-name="Group 10701" transform="translate(4.317 26.518)">
            <g id="Group_10700" data-name="Group 10700">
              <path id="Path_6282" data-name="Path 6282" d="M87.581,344.023H77.2a2.382,2.382,0,1,0,0,4.764h3.7a.737.737,0,0,1,0,1.473h-7.35a.738.738,0,0,1-.521-.216l-5.377-5.377a2.382,2.382,0,1,0-3.368,3.369l6.988,6.987H87.129a.737.737,0,0,1,.521.216l1.684,1.684,5.574-5.574Z" transform="translate(-63.579 -343.97)" fill="#e23744"/>
            </g>
          </g>
        </g>
      </g>
    </g>
    <g id="Group_10737" data-name="Group 10737" transform="translate(450.112 528.489)">
      <g id="spiritual-3" data-name="spiritual" transform="translate(0 0)">
        <g id="_686348" data-name="686348" transform="translate(0)">
          <g id="Group_10704" data-name="Group 10704" transform="translate(13.256)">
            <g id="Group_10703" data-name="Group 10703">
              <path id="Path_6287" data-name="Path 6287" d="M213.4,0a3.416,3.416,0,0,0-3.373,3.373A3.416,3.416,0,0,0,213.4,6.746,3.374,3.374,0,0,0,213.4,0Z" transform="translate(-210.029)" fill="#02911c"/>
            </g>
          </g>
          <g id="Group_10706" data-name="Group 10706" transform="translate(11.597 6.746)">
            <g id="Group_10705" data-name="Group 10705">
              <path id="Path_6288" data-name="Path 6288" d="M188.743,122a4.947,4.947,0,0,1-3.682,1.659A5.068,5.068,0,0,1,181.323,122a4.939,4.939,0,0,0-1.294,3.318v.829a.829.829,0,0,0,.829.829h8.35a.829.829,0,0,0,.829-.829v-.829A4.939,4.939,0,0,0,188.743,122Z" transform="translate(-180.029 -122)" fill="#02911c"/>
            </g>
          </g>
          <g id="Group_10708" data-name="Group 10708" transform="translate(0 16.066)">
            <g id="Group_10707" data-name="Group 10707" transform="translate(0)">
              <path id="Path_6289" data-name="Path 6289" d="M8.038,299.925,3.811,291.45A1.659,1.659,0,0,0,1.59,290.7l-1.1.547a.83.83,0,0,0-.373,1.115l4.977,9.954a.83.83,0,0,0,1.111.373l1.091-.54A1.659,1.659,0,0,0,8.038,299.925Z" transform="translate(-0.024 -290.532)" fill="#02911c"/>
            </g>
          </g>
          <g id="Group_10710" data-name="Group 10710" transform="translate(4.921 13.077)">
            <g id="Group_10709" data-name="Group 10709">
              <path id="Path_6290" data-name="Path 6290" d="M111.727,237.1a1.654,1.654,0,0,0-2.19.216L105,242.889a2.005,2.005,0,0,1-1.228.531H99.91a.829.829,0,0,1,0-1.659h3.318a1.659,1.659,0,1,0,0-3.318H98.882c-.413,0-.62-.262-.946-.548a5.772,5.772,0,0,0-5.149-1.26,6.051,6.051,0,0,0-2.547,1.271l-.025-.02-1.2,1.056,4.715,9.454h9.5a5,5,0,0,0,3.981-1.991l4.866-6.968A1.672,1.672,0,0,0,111.727,237.1Z" transform="translate(-89.016 -236.479)" fill="#02911c"/>
            </g>
          </g>
        </g>
      </g>
    </g>
    <g id="Group_10741" data-name="Group 10741" transform="translate(185.722 533.77)">
      <g id="CARDIO" transform="translate(0 0)">
        <g id="_1694114" data-name="1694114" transform="translate(0)">
          <g id="_2446672" data-name="2446672">
            <path id="Path_6263" data-name="Path 6263" d="M20.075,16H2.919A2.922,2.922,0,0,0,0,18.919V34.637a2.922,2.922,0,0,0,2.919,2.919H20.075a2.922,2.922,0,0,0,2.919-2.919V18.919A2.922,2.922,0,0,0,20.075,16ZM7.455,33.515a.674.674,0,1,1,.674-.674A.674.674,0,0,1,7.455,33.515ZM11.5,34.862a2.021,2.021,0,1,1,2.021-2.021A2.023,2.023,0,0,1,11.5,34.862Zm4.042-1.347a.674.674,0,1,1,.674-.674A.674.674,0,0,1,15.539,33.515ZM20.254,28.8a.674.674,0,0,1-.674.674H3.413a.674.674,0,0,1-.674-.674V19.278a.674.674,0,0,1,.674-.674H19.581a.674.674,0,0,1,.674.674Z" transform="translate(0 -16)" fill="#02911c"/>
            <ellipse id="Ellipse_102" data-name="Ellipse 102" cx="1.271" cy="0.636" rx="1.271" ry="0.636" transform="translate(10.226 15.862)" fill="#02911c"/>
            <path id="Path_6264" data-name="Path 6264" d="M103.765,184.185a.674.674,0,0,1-1.157.218l-2.594-3.113-.291.874a.674.674,0,0,1-.639.461h-.862l-.52,1.56a.674.674,0,0,1-1.157.218l-2.594-3.113-.291.874a.674.674,0,0,1-.639.461H91v3.368h14.82v-3.368h-1.535Z" transform="translate(-86.913 -173.867)" fill="#02911c"/>
            <path id="Path_6265" data-name="Path 6265" d="M91,107.458h1.535l.52-1.56a.674.674,0,0,1,1.157-.218l2.594,3.113.291-.874a.674.674,0,0,1,.639-.461H98.6l.52-1.56a.674.674,0,0,1,1.157-.218l2.594,3.113.291-.874a.674.674,0,0,1,.639-.461h2.021V104H91Z" transform="translate(-86.913 -100.048)" fill="#02911c"/>
          </g>
        </g>
      </g>
    </g>
    <g id="Group_10743" data-name="Group 10743" transform="translate(521.511 633.265)">
      <g id="social" transform="translate(0)">
        <g id="_1170653" data-name="1170653" transform="translate(0)">
          <path id="Path_6279" data-name="Path 6279" d="M199.027,301A3.031,3.031,0,0,0,196,304.027v2.449a8.214,8.214,0,0,0,6.055,0v-2.449A3.031,3.031,0,0,0,199.027,301Zm0,0" transform="translate(-186.111 -285.813)" fill="#02911c"/>
          <path id="Path_6280" data-name="Path 6280" d="M22.806,19.778a2.993,2.993,0,0,0-1.528.429l-1.98-1.98A8.264,8.264,0,0,0,19.31,7.592l1.968-1.967a2.993,2.993,0,0,0,1.528.429,3.027,3.027,0,1,0-3.027-3.027,2.991,2.991,0,0,0,.429,1.528L18.24,6.522a8.3,8.3,0,0,0-10.646,0L5.626,4.555a2.991,2.991,0,0,0,.429-1.528A3.027,3.027,0,1,0,3.028,6.054a2.993,2.993,0,0,0,1.528-.429L6.524,7.592a8.264,8.264,0,0,0,.012,10.635l-1.98,1.98a2.994,2.994,0,0,0-1.528-.429,3.027,3.027,0,1,0,3.027,3.027,2.991,2.991,0,0,0-.429-1.528L7.6,19.306a8.436,8.436,0,0,0,.778.579V18.214a4.546,4.546,0,0,1,4.541-4.541,3.027,3.027,0,1,1,3.027-3.027,3.031,3.031,0,0,1-3.027,3.027,4.546,4.546,0,0,1,4.541,4.541v1.671a8.436,8.436,0,0,0,.778-.579l1.972,1.972a2.991,2.991,0,0,0-.429,1.528,3.027,3.027,0,1,0,3.027-3.027Zm0,0" transform="translate(0 0.001)" fill="#02911c"/>
        </g>
      </g>
    </g>
    <g id="Group_10736" data-name="Group 10736" transform="translate(388.377 499.381)">
      <g id="shopping" transform="translate(0 0)">
        <g id="_1170627" data-name="1170627" transform="translate(0)">
          <path id="Path_6275" data-name="Path 6275" d="M9.135,16.51H24.05a.823.823,0,0,0,.793-.6l3.3-11.557A.824.824,0,0,0,27.352,3.3H7.23L6.64.647A.825.825,0,0,0,5.833,0H.825a.826.826,0,0,0,0,1.651H5.171L8.152,15.065a2.475,2.475,0,0,0,.984,4.747H24.05a.825.825,0,1,0,0-1.651H9.135a.826.826,0,0,1,0-1.651Zm0,0" transform="translate(0 0)" fill="#02911c"/>
          <path id="Path_6276" data-name="Path 6276" d="M151,362.481A2.477,2.477,0,1,0,153.477,360,2.479,2.479,0,0,0,151,362.481Zm0,0" transform="translate(-142.69 -341.478)" fill="#02911c"/>
          <path id="Path_6277" data-name="Path 6277" d="M362,362.481A2.476,2.476,0,1,0,364.48,360,2.479,2.479,0,0,0,362,362.481Zm0,0" transform="translate(-342.082 -341.478)" fill="#02911c"/>
        </g>
      </g>
    </g>
    <g id="Group_10738" data-name="Group 10738" transform="translate(497.754 577.387)">
      <g id="shopping-2" data-name="shopping" transform="translate(0 0)">
        <g id="Group_10702" data-name="Group 10702" transform="translate(0)">
          <path id="Path_6283" data-name="Path 6283" d="M49.6,89.96H74.386c-.075.692-.146,1.362-.221,2.032q-.374,3.366-.75,6.732c-.276,2.457-.528,4.917-.841,7.37a4.042,4.042,0,0,1-3.907,3.469c-1.527.031-3.055.01-4.583.01q-4.26,0-8.521,0a4.07,4.07,0,0,1-4.127-3.256c-.2-.953-.251-1.939-.361-2.91q-.381-3.381-.753-6.764-.363-3.254-.725-6.507A1.242,1.242,0,0,1,49.6,89.96Zm6.183,5.178c0,.337-.006.68,0,1.023a26.189,26.189,0,0,0,.091,3.027,6.179,6.179,0,0,0,12.037.773,8.3,8.3,0,0,0,.258-1.874c.042-.986.011-1.975.011-2.962.079-.014.133-.021.185-.034a1.033,1.033,0,0,0-.231-2.047c-.667-.005-1.334-.007-2,0a1.031,1.031,0,0,0-.247,2.038c.07.019.141.033.226.052,0,1.052.01,2.095,0,3.137a4.144,4.144,0,0,1-3.733,4.054,4.02,4.02,0,0,1-4.378-3.147A30.9,30.9,0,0,1,57.8,95.14c.118-.024.159-.031.2-.04a1.034,1.034,0,0,0-.211-2.055c-.667-.005-1.334-.009-2,0a1.024,1.024,0,0,0-1.006.8C54.631,94.454,55.01,94.95,55.788,95.138Z" transform="translate(-49.596 -80.632)" fill="#02911c"/>
          <path id="Path_6284" data-name="Path 6284" d="M199.782-7.81c.051-.14.09-.258.136-.372q1.569-3.834,3.139-7.668c.257-.627.445-.71.977-.431l5.831,3.051c.6.315.679.563.4,1.269q-.764,1.929-1.53,3.858c-.072.184-.133.317-.346.317-2.806-.011-5.612-.007-8.418-.008C199.918-7.793,199.866-7.8,199.782-7.81Z" transform="translate(-186.851 16.6)" fill="#02911c"/>
          <path id="Path_6285" data-name="Path 6285" d="M94.624-9.564H86.55c.078-.71.14-1.406.234-2.1a15.452,15.452,0,0,1,1.043-4.153,7.133,7.133,0,0,1,.886-1.534,2.289,2.289,0,0,1,3.862.055,7.115,7.115,0,0,1,.907,1.658A20.856,20.856,0,0,1,94.624-9.564Z" transform="translate(-83.368 18.379)" fill="#02911c"/>
          <path id="Path_6286" data-name="Path 6286" d="M110.47,127.813c-.777-.188-1.157-.683-1.008-1.294a1.024,1.024,0,0,1,1.005-.8c.667-.009,1.334,0,2,0a1.034,1.034,0,0,1,.211,2.055c-.04.009-.081.017-.2.04a30.9,30.9,0,0,0,.207,4.038A4.02,4.02,0,0,0,117.066,135a4.144,4.144,0,0,0,3.733-4.054c.012-1.042,0-2.085,0-3.137-.085-.019-.156-.033-.226-.052a1.031,1.031,0,0,1,.247-2.038c.667-.007,1.334-.006,2,0a1.033,1.033,0,0,1,.231,2.047c-.052.013-.105.019-.185.034,0,.987.031,1.976-.011,2.962a8.294,8.294,0,0,1-.258,1.874,6.179,6.179,0,0,1-12.037-.773,26.193,26.193,0,0,1-.091-3.027C110.464,128.494,110.47,128.151,110.47,127.813Z" transform="translate(-104.279 -113.308)" fill="#fff"/>
        </g>
      </g>
    </g>
    <g id="Rectangle_1849" data-name="Rectangle 1849" transform="translate(106 617)" fill="none" stroke="#02911c" stroke-width="1">
      <path d="M0,0H23.5A23.5,23.5,0,0,1,47,23.5v1A23.5,23.5,0,0,1,23.5,48h0A23.5,23.5,0,0,1,0,24.5V0A0,0,0,0,1,0,0Z" stroke="none"/>
      <path d="M.89.5H23.5a23,23,0,0,1,23,23v1a23,23,0,0,1-23,23h0a23,23,0,0,1-23-23V.89A.39.39,0,0,1,.89.5Z" fill="none"/>
    </g>
    <g id="Rectangle_17665" data-name="Rectangle 17665" transform="translate(133 563)" fill="none" stroke="#02911c" stroke-width="1">
      <path d="M0,0H23.5A23.5,23.5,0,0,1,47,23.5v1A23.5,23.5,0,0,1,23.5,48h0A23.5,23.5,0,0,1,0,24.5V0A0,0,0,0,1,0,0Z" stroke="none"/>
      <path d="M.89.5H23.5a23,23,0,0,1,23,23v1a23,23,0,0,1-23,23h0a23,23,0,0,1-23-23V.89A.39.39,0,0,1,.89.5Z" fill="none"/>
    </g>
    <g id="Rectangle_17666" data-name="Rectangle 17666" transform="translate(174 520)" fill="none" stroke="#02911c" stroke-width="1">
      <path d="M0,0H23.5A23.5,23.5,0,0,1,47,23.5v2A23.5,23.5,0,0,1,23.5,49h0A23.5,23.5,0,0,1,0,25.5V0A0,0,0,0,1,0,0Z" stroke="none"/>
      <path d="M.89.5H23.5a23,23,0,0,1,23,23v2a23,23,0,0,1-23,23h0a23,23,0,0,1-23-23V.89A.39.39,0,0,1,.89.5Z" fill="none"/>
    </g>
    <g id="Rectangle_17667" data-name="Rectangle 17667" transform="translate(233 486)" fill="none" stroke="#02911c" stroke-width="1">
      <path d="M0,0H25A24,24,0,0,1,49,24v0A24,24,0,0,1,25,48H24A24,24,0,0,1,0,24V0A0,0,0,0,1,0,0Z" stroke="none"/>
      <path d="M.9.5H25A23.5,23.5,0,0,1,48.5,24v0A23.5,23.5,0,0,1,25,47.5H24A23.5,23.5,0,0,1,.5,24V.9A.4.4,0,0,1,.9.5Z" fill="none"/>
    </g>
    <g id="Rectangle_17668" data-name="Rectangle 17668" transform="translate(380 487)" fill="none" stroke="#02911c" stroke-width="1">
      <path d="M0,0H24A24,24,0,0,1,48,24v0A24,24,0,0,1,24,48h0A24,24,0,0,1,0,24V0A0,0,0,0,1,0,0Z" stroke="none"/>
      <path d="M.9.5H24A23.5,23.5,0,0,1,47.5,24v0A23.5,23.5,0,0,1,24,47.5h0A23.5,23.5,0,0,1,.5,24V.9A.4.4,0,0,1,.9.5Z" fill="none"/>
    </g>
    <g id="Rectangle_17669" data-name="Rectangle 17669" transform="translate(440 519)" fill="none" stroke="#02911c" stroke-width="1">
      <path d="M0,0H23.5A23.5,23.5,0,0,1,47,23.5v2A23.5,23.5,0,0,1,23.5,49h0A23.5,23.5,0,0,1,0,25.5V0A0,0,0,0,1,0,0Z" stroke="none"/>
      <path d="M.89.5H23.5a23,23,0,0,1,23,23v2a23,23,0,0,1-23,23h0a23,23,0,0,1-23-23V.89A.39.39,0,0,1,.89.5Z" fill="none"/>
    </g>
    <g id="Rectangle_17670" data-name="Rectangle 17670" transform="translate(486 569)" fill="none" stroke="#02911c" stroke-width="1">
      <path d="M0,0H23.5A23.5,23.5,0,0,1,47,23.5v0A23.5,23.5,0,0,1,23.5,47h0A23.5,23.5,0,0,1,0,23.5V0A0,0,0,0,1,0,0Z" stroke="none"/>
      <path d="M.89.5H23.5a23,23,0,0,1,23,23v0a23,23,0,0,1-23,23h0a23,23,0,0,1-23-23V.89A.39.39,0,0,1,.89.5Z" fill="none"/>
    </g>
    <g id="Rectangle_17671" data-name="Rectangle 17671" transform="translate(510 622)" fill="none" stroke="#02911c" stroke-width="1">
      <path d="M0,0H24A24,24,0,0,1,48,24v0A24,24,0,0,1,24,48h0A24,24,0,0,1,0,24V0A0,0,0,0,1,0,0Z" stroke="none"/>
      <path d="M.9.5H24A23.5,23.5,0,0,1,47.5,24v0A23.5,23.5,0,0,1,24,47.5h0A23.5,23.5,0,0,1,.5,24V.9A.4.4,0,0,1,.9.5Z" fill="none"/>
    </g>
  </g>
</svg>
