<svg xmlns="http://www.w3.org/2000/svg" xmlns:xlink="http://www.w3.org/1999/xlink" width="857" height="283.744" viewBox="0 0 857 283.744">
  <defs>
    <filter id="Path_1" x="0" y="75.801" width="135.657" height="158.969" filterUnits="userSpaceOnUse">
      <feOffset dy="3" input="SourceAlpha"/>
      <feGaussianBlur stdDeviation="3" result="blur"/>
      <feFlood flood-opacity="0.161"/>
      <feComposite operator="in" in2="blur"/>
      <feComposite in="SourceGraphic"/>
    </filter>
    <filter id="Path_2" x="132.793" y="107.612" width="122.98" height="127.176" filterUnits="userSpaceOnUse">
      <feOffset dy="3" input="SourceAlpha"/>
      <feGaussianBlur stdDeviation="3" result="blur-2"/>
      <feFlood flood-opacity="0.161"/>
      <feComposite operator="in" in2="blur-2"/>
      <feComposite in="SourceGraphic"/>
    </filter>
    <filter id="Path_3" x="260.892" y="61.811" width="47.358" height="170.208" filterUnits="userSpaceOnUse">
      <feOffset dy="3" input="SourceAlpha"/>
      <feGaussianBlur stdDeviation="3" result="blur-3"/>
      <feFlood flood-opacity="0.161"/>
      <feComposite operator="in" in2="blur-3"/>
      <feComposite in="SourceGraphic"/>
    </filter>
    <filter id="Path_4" x="320.943" y="61.811" width="47.358" height="170.208" filterUnits="userSpaceOnUse">
      <feOffset dy="3" input="SourceAlpha"/>
      <feGaussianBlur stdDeviation="3" result="blur-4"/>
      <feFlood flood-opacity="0.161"/>
      <feComposite operator="in" in2="blur-4"/>
      <feComposite in="SourceGraphic"/>
    </filter>
    <filter id="Path_5" x="379.66" y="110.357" width="119.645" height="124.415" filterUnits="userSpaceOnUse">
      <feOffset dy="3" input="SourceAlpha"/>
      <feGaussianBlur stdDeviation="3" result="blur-5"/>
      <feFlood flood-opacity="0.161"/>
      <feComposite operator="in" in2="blur-5"/>
      <feComposite in="SourceGraphic"/>
    </filter>
    <filter id="Path_6" x="511.775" y="61.811" width="47.358" height="170.208" filterUnits="userSpaceOnUse">
      <feOffset dy="3" input="SourceAlpha"/>
      <feGaussianBlur stdDeviation="3" result="blur-6"/>
      <feFlood flood-opacity="0.161"/>
      <feComposite operator="in" in2="blur-6"/>
      <feComposite in="SourceGraphic"/>
    </filter>
    <filter id="Path_7" x="563.367" y="107.594" width="115.871" height="127.391" filterUnits="userSpaceOnUse">
      <feOffset dy="3" input="SourceAlpha"/>
      <feGaussianBlur stdDeviation="3" result="blur-7"/>
      <feFlood flood-opacity="0.161"/>
      <feComposite operator="in" in2="blur-7"/>
      <feComposite in="SourceGraphic"/>
    </filter>
  </defs>
  <g id="Group_12092" data-name="Group 12092" transform="translate(-1230 -2168)">
    <g id="Group_3" data-name="Group 3" transform="translate(1013.581 1933.465)">
      <g id="Group_1" data-name="Group 1" transform="translate(225.419 302.346)">
        <g transform="matrix(1, 0, 0, 1, -9, -67.81)" filter="url(#Path_1)">
          <path id="Path_1-2" data-name="Path 1" d="M296.376,431.756q23.8,0,34.918,7l3.337,28.195h-2.447q-11.346-8.052-31.806-8.053-21.354,0-34.364,11.975T253,502.136q0,19.508,13.454,31.588t35.03,12.082q21.572,0,33.14-9.75h2.446l-3.336,28.83q-12.679,7.836-36.921,7.84-33.811,0-55.6-19.5t-21.8-50.239q0-31.161,21.8-51.194T296.376,431.756Z" transform="translate(-210.42 -349.95)" fill="#02911c"/>
        </g>
        <g transform="matrix(1, 0, 0, 1, -9, -67.81)" filter="url(#Path_2)">
          <path id="Path_2-2" data-name="Path 2" d="M428.171,501.123a44.367,44.367,0,0,1-2.447,15.483H352.1q4.669,26.712,37.363,26.709,21.128,0,31.806-8.055h2.446l-3.78,22.264q-4.669,3.178-14.124,5.725a78.072,78.072,0,0,1-20.345,2.541q-26.69,0-44.485-14.519t-17.786-40.6q0-24.375,15.346-39.215t39.592-14.843q22.235,0,36.143,12.294T428.171,501.123ZM352.1,499.431h48.265q0-11.025-5.895-16.642t-16.348-5.619q-10.459,0-17.349,5.619T352.1,499.428Z" transform="translate(-181.41 -343.01)" fill="#02911c"/>
        </g>
        <g transform="matrix(1, 0, 0, 1, -9, -67.81)" filter="url(#Path_3)">
          <path id="Path_3-2" data-name="Path 3" d="M423.313,573.03V425.062l29.358-4.24V573.03Z" transform="translate(-153.42 -353.01)" fill="#02911c"/>
        </g>
        <g transform="matrix(1, 0, 0, 1, -9, -67.81)" filter="url(#Path_4)">
          <path id="Path_4-2" data-name="Path 4" d="M470.244,573.03V425.062l29.358-4.24V573.03Z" transform="translate(-140.3 -353.01)" fill="#02911c"/>
        </g>
        <g transform="matrix(1, 0, 0, 1, -9, -67.81)" filter="url(#Path_5)">
          <path id="Path_5-2" data-name="Path 5" d="M554.834,565.177q-17.576,0-28.136-10.172t-10.565-30.739v-65.5h29.582v63.386q0,19.074,19.127,19.077a29.576,29.576,0,0,0,14.124-3.5q6.557-3.5,9.231-7.951V458.763h29.582V562.425H592.2V545.675a38.53,38.53,0,0,1-14.124,13.676Q568.4,565.174,554.834,565.177Z" transform="translate(-127.47 -342.41)" fill="#02911c"/>
        </g>
        <g transform="matrix(1, 0, 0, 1, -9, -67.81)" filter="url(#Path_6)">
          <path id="Path_6-2" data-name="Path 6" d="M619.384,573.03V425.062l29.358-4.24V573.03Z" transform="translate(-98.61 -353.01)" fill="#02911c"/>
        </g>
        <g transform="matrix(1, 0, 0, 1, -9, -67.81)" filter="url(#Path_7)">
          <path id="Path_7-2" data-name="Path 7" d="M708.864,456.611q22.9,0,35.812,10.917t12.9,31.266v64.233H731.107V548.184q-3.333,6.782-12.788,12.294t-22.793,5.516q-15.569,0-25.689-8.267a26.793,26.793,0,0,1-10.119-21.834,29.118,29.118,0,0,1,11.454-23.953q11.453-9.114,30.582-9.118,15.792,0,26.467,5.3v-7.632q0-21.193-25.354-21.2-20.684,0-34.252,9.54h-2.446l4.222-21.835q5.118-4.234,15.346-7.311A80.387,80.387,0,0,1,708.864,456.611Zm1.113,62.954q-9.786,0-15.014,3.711a11.526,11.526,0,0,0-5.224,9.852,11.953,11.953,0,0,0,4.669,9.859q4.669,3.711,12.456,3.711a25.7,25.7,0,0,0,13.563-3.5q5.783-3.5,7.786-7.524V523.166q-6.67-3.594-18.236-3.6Z" transform="translate(-87.34 -343.01)" fill="#02911c"/>
        </g>
      </g>
      <g id="Group_2" data-name="Group 2" transform="translate(620.836 234.535)">
        <path id="Path_8" data-name="Path 8" d="M528.45,377.637c.791-.04,1.374-.095,1.959-.095,12.477,0,24.951-.023,37.43.013a39.011,39.011,0,1,1-39.033,44.016,32.812,32.812,0,0,1-.321-4.112q-.046-19.074-.034-38.15Zm7.437,7.338v1.9c-.01,9.836-.051,19.672,0,29.508a34.023,34.023,0,0,0,.549,6.074,31.721,31.721,0,0,0,35.61,25.439c17.256-2.333,30.018-19.833,26.51-36.884a31.753,31.753,0,0,0-31.874-26.034q-14.306-.012-28.608,0Z" transform="translate(-528.447 -377.535)" fill="none"/>
        <path id="Path_9" data-name="Path 9" d="M534.267,383.351h30.79a31.753,31.753,0,0,1,31.873,26.034c3.509,17.055-9.254,34.548-26.51,36.884a31.721,31.721,0,0,1-35.61-25.439,34.046,34.046,0,0,1-.549-6.074c-.046-9.836,0-19.672,0-29.508Z" transform="translate(-526.828 -375.911)" fill="#e23744" stroke="#e23744" stroke-width="12"/>
      </g>
      <text id="All_Good_is_Here" data-name="All Good is Here" transform="translate(484.559 509.279)" font-size="43" font-family="Metropolis-Regular, Metropolis" letter-spacing="0.1em"><tspan x="0" y="0">All Good is Here</tspan></text>
    </g>
    <g id="Group_12091" data-name="Group 12091">
      <rect id="Rectangle_17749" data-name="Rectangle 17749" width="169" height="76" rx="14" transform="translate(1918 2168)" fill="#e29e1e"/>
      <text id="Beta" transform="translate(1946 2219)" fill="#fff" font-size="43" font-family="Metropolis-Medium, Metropolis" font-weight="500"><tspan x="0" y="0">BETA</tspan></text>
    </g>
  </g>
</svg>
