<svg xmlns="http://www.w3.org/2000/svg" width="339.124" height="107" viewBox="0 0 339.124 107">
  <g id="Group_12155" data-name="Group 12155" transform="translate(-254.876 -32)">
    <g id="Group_11457" data-name="Group 11457">
      <g id="LOGO" transform="translate(254.876 47.036)">
        <g id="Group_1" data-name="Group 1" transform="translate(0 12.938)">
          <path id="Path_1" data-name="Path 1" d="M249.836,431.756q9.407,0,13.8,2.765l1.319,11.144h-.967q-4.484-3.183-12.571-3.183-8.44,0-13.582,4.733a17.368,17.368,0,0,0,.175,24.844q5.318,4.775,13.846,4.775t13.1-3.854h.967L264.6,484.376q-5.011,3.1-14.593,3.1-13.364,0-21.978-7.709t-8.615-19.857q0-12.316,8.615-20.234T249.836,431.756Z" transform="translate(-219.419 -426.226)" fill="#02911c"/>
          <path id="Path_2" data-name="Path 2" d="M364.69,474.208a17.536,17.536,0,0,1-.967,6.12h-29.1q1.845,10.558,14.768,10.557,8.351,0,12.571-3.184h.967l-1.494,8.8a19.014,19.014,0,0,1-5.582,2.263,30.856,30.856,0,0,1-8.041,1q-10.549,0-17.583-5.739t-7.03-16.046q0-9.634,6.065-15.5t15.649-5.867q8.788,0,14.286,4.859A16.158,16.158,0,0,1,364.69,474.208Zm-30.065-.669H353.7q0-4.358-2.33-6.578a8.989,8.989,0,0,0-6.461-2.221,10.5,10.5,0,0,0-6.857,2.221,10.211,10.211,0,0,0-3.428,6.577Z" transform="translate(-270.713 -438.514)" fill="#02911c"/>
          <path id="Path_3" data-name="Path 3" d="M423.313,480.982V422.5l11.6-1.676v60.16Z" transform="translate(-320.195 -420.822)" fill="#02911c"/>
          <path id="Path_4" data-name="Path 4" d="M470.244,480.982V422.5l11.6-1.676v60.16Z" transform="translate(-343.391 -420.822)" fill="#02911c"/>
          <path id="Path_5" data-name="Path 5" d="M531.43,500.823q-6.947,0-11.121-4.021t-4.176-12.149V458.762h11.692v25.054q0,7.539,7.56,7.54a11.69,11.69,0,0,0,5.582-1.382,9.089,9.089,0,0,0,3.648-3.143V458.763h11.692v40.972H546.2v-6.62a15.229,15.229,0,0,1-5.582,5.405A17.5,17.5,0,0,1,531.43,500.823Z" transform="translate(-366.072 -439.574)" fill="#02911c"/>
          <path id="Path_6" data-name="Path 6" d="M619.384,480.982V422.5l11.6-1.676v60.16Z" transform="translate(-417.104 -420.822)" fill="#02911c"/>
          <path id="Path_7" data-name="Path 7" d="M679.135,456.606q9.053,0,14.155,4.315t5.1,12.358v25.388H687.926V492.8a12.2,12.2,0,0,1-5.054,4.859,17.6,17.6,0,0,1-9.009,2.18,15.525,15.525,0,0,1-10.154-3.268,10.59,10.59,0,0,1-4-8.63,11.509,11.509,0,0,1,4.527-9.468q4.526-3.6,12.087-3.6a23.407,23.407,0,0,1,10.461,2.094v-3.017q0-8.377-10.021-8.379-8.175,0-13.538,3.771h-.967l1.669-8.63a17.521,17.521,0,0,1,6.065-2.89A31.772,31.772,0,0,1,679.135,456.606Zm.44,24.883a10.173,10.173,0,0,0-5.934,1.467,4.556,4.556,0,0,0-2.065,3.894,4.724,4.724,0,0,0,1.845,3.9,7.689,7.689,0,0,0,4.923,1.467,10.157,10.157,0,0,0,5.361-1.383,7.763,7.763,0,0,0,3.077-2.974v-4.944a15.31,15.31,0,0,0-7.208-1.422Z" transform="translate(-437.033 -438.507)" fill="#02911c"/>
        </g>
        <g id="Group_2" data-name="Group 2" transform="translate(164.017)">
          <path id="Path_8" data-name="Path 8" d="M528.448,377.555c.156-.008.271-.019.386-.019,2.461,0,4.921,0,7.382,0a7.694,7.694,0,1,1-7.7,8.682,6.476,6.476,0,0,1-.063-.811q-.009-3.762-.007-7.524ZM529.914,379v.375c0,1.94-.01,3.88,0,5.82a6.722,6.722,0,0,0,.108,1.2A6.229,6.229,0,1,0,535.988,379q-2.822,0-5.643,0Z" transform="translate(-528.447 -377.535)" fill="none"/>
          <path id="Path_9" data-name="Path 9" d="M534.246,383.346h6.073a6.238,6.238,0,1,1-5.966,7.392,6.712,6.712,0,0,1-.108-1.2c-.009-1.94,0-3.88,0-5.82Z" transform="translate(-532.779 -381.879)" fill="#e23744" stroke="#e23744" stroke-width="12"/>
        </g>
      </g>
      <g id="beta" transform="translate(-35.041 -2.809)">
        <rect id="Rectangle_17675" data-name="Rectangle 17675" width="76" height="34" rx="8" transform="translate(553.041 34.809)" fill="#de9733"/>
        <text id="beta-2" data-name="beta" transform="translate(569.041 57.809)" fill="#fff" font-size="20" font-family="Metropolis-Regular, Metropolis"><tspan x="0" y="0">beta</tspan></text>
      </g>
    </g>
    <text id="All_Good_Is_Here" data-name="All Good Is Here" transform="translate(401 137)" font-size="11" font-family="Metropolis-Medium, Metropolis" font-weight="500" letter-spacing="0em"><tspan x="-42.91" y="0">All Good Is Here</tspan></text>
  </g>
</svg>
