<svg xmlns="http://www.w3.org/2000/svg" width="19.495" height="20.75" viewBox="0 0 19.495 20.75">
  <g id="noun_leaf_3168885" transform="translate(-77.569 -50.765)">
    <g id="Group_11167" data-name="Group 11167" transform="translate(77.79 50.978)">
      <g id="Group_11166" data-name="Group 11166">
        <path id="Path_7723" data-name="Path 7723" d="M96.82,57.941a.473.473,0,0,0-.359-.425,13.235,13.235,0,0,0-7.272.2,13.113,13.113,0,0,0-3.324-6.588.473.473,0,0,0-.545-.111c-6.046,2.748-8.748,8.822-7.015,14.619a13.307,13.307,0,0,0,2.933,5.124.477.477,0,0,0,.236.14,14.028,14.028,0,0,0,3.347.412C92.089,71.315,97.371,65.447,96.82,57.941ZM85.4,52.029a12.06,12.06,0,0,1,2.888,6.029,11.967,11.967,0,0,0-7.206,11.026A11.146,11.146,0,0,1,85.4,52.029ZM82.633,70.178l1.649-1.395,4.027-.415a.473.473,0,1,0-.1-.941l-2.65.273,1.322-1.118,1.991-.034a.473.473,0,1,0-.016-.946l-.833.014.56-.474,1.474-.209A.473.473,0,0,0,89.944,64l2.281-1.929a.473.473,0,1,0-.611-.722l-2.439,2.063.029-.123a.473.473,0,0,0-.921-.217l-.322,1.366-.629.532.122-.946a.473.473,0,1,0-.938-.121l-.253,1.972-1.422,1.2.576-2.7a.473.473,0,1,0-.925-.2l-.831,3.9-1.637,1.384C82,61.842,88.384,56.711,95.9,58.356,96.265,65.993,90.184,71.482,82.633,70.178Z" transform="translate(-77.79 -50.978)" fill="#02911c" stroke="#fff" stroke-width="0.4"/>
        <path id="Path_7724" data-name="Path 7724" d="M2.709-.687C4.518-.687,5.616,2.571,6,4.783,6,5.879,5,6.2,4.111,6.9a3,3,0,0,1-2,.918c-.3,0-1.672,2.392-2.542,5-.5,1.5-.415,3.246-1.091,4-.774.867-1.882-3.193-2.163-3.507a11.88,11.88,0,0,1-.363-6.052c.316-1.592,1.532-3.238,1.532-3.74C-1.4,2.04.9-.687,2.709-.687Z" transform="translate(4.95 1.607)" fill="#02911c" opacity="0.18"/>
      </g>
    </g>
  </g>
</svg>
