<svg id="play_1_" data-name="play (1)" xmlns="http://www.w3.org/2000/svg" width="39.565" height="39.565" viewBox="0 0 39.565 39.565">
  <g id="Group_12167" data-name="Group 12167" transform="translate(0 0)">
    <path id="Path_8445" data-name="Path 8445" d="M33.772,5.794a19.783,19.783,0,1,0,0,27.978A19.784,19.784,0,0,0,33.772,5.794Zm-5.345,15.2-6.18,3.549-6.055,3.508a1.285,1.285,0,0,1-.793.251,1.408,1.408,0,0,1-1.42-1.42V12.642a1.475,1.475,0,0,1,.167-.71,1.379,1.379,0,0,1,1.921-.5l6.1,3.508c.042,0,.042.042.084.042l6.18,3.549a2.044,2.044,0,0,1,.543.5A1.467,1.467,0,0,1,28.427,20.994Z" fill="#02911c"/>
  </g>
</svg>
