<svg xmlns="http://www.w3.org/2000/svg" width="19.271" height="22.739" viewBox="0 0 19.271 22.739">
  <g id="product" transform="translate(-27.047 -18.598)">
    <path id="Path_7715" data-name="Path 7715" d="M4.639,1.9C5.646,1.9,6.78.858,7.623,1.042c.493.085.318.879.318,1.415,0,.192.625.543.352.969-.153.374-1.813.658-3.777.658-2.5,0-3.145-.728-3.145-1.626S2.141,1.9,4.639,1.9Z" transform="translate(31 21.815)" fill="#02911c" opacity="0.18"/>
    <path id="Path_7717" data-name="Path 7717" d="M4.5,1.306c1,0,2.251-.45,3.09-.264.49.086.316.89.316,1.433,0,.195.676.956.4,1.387-.1.239-2.278.445-3.811,1.472l.162,1.312H3.542c-2.485,0-2.17-3.263-2.17-4.172S2.015,1.306,4.5,1.306Z" transform="translate(28 19.555)" fill="#02911c" opacity="0.18"/>
    <path id="Path_7718" data-name="Path 7718" d="M4.011.51a21,21,0,0,1,3.579.532c.49.086.316.89.316,1.433,0,.195.622.55.351.981C8.1,3.834,7.949,4.7,6,4.7c-.319,0-.724.351-1.185,0-.349-.2-.508-1.481-.96-2.228-.359-.554-.929-.955-.929-1.433C2.922.133,1.525.51,4.011.51Z" transform="translate(35 21.039)" fill="#02911c" opacity="0.18"/>
    <path id="Path_7719" data-name="Path 7719" d="M4.362.941a8.012,8.012,0,0,1,2.226.5,1.032,1.032,0,0,1,.774,1.1c0,.195.009.131-.263.563-.063.157-.439-.091-.862.353-.015.041-.626.24-.425.76.061.059.889.487.183.487-.319,0-.724.351-1.185,0-.349-.2-.508-1.481-.96-2.228-.359-.554-.929-.955-.929-1.433,0-.186.907.689.591.4C3.479,1.277,2.384.941,4.362.941Z" transform="translate(32 17.954)" fill="#02911c" opacity="0.18"/>
    <g id="shop_5_" data-name="shop (5)" transform="translate(27.047 18.598)">
      <g id="Group_11146" data-name="Group 11146" transform="translate(6.914)">
        <g id="Group_11145" data-name="Group 11145">
          <path id="Path_7706" data-name="Path 7706" d="M82.557,2.81a3.276,3.276,0,0,0-5.89-1.464.385.385,0,1,0,.622.455,2.506,2.506,0,0,1,4.5,1.119.386.386,0,0,0,.381.331.413.413,0,0,0,.055,0A.386.386,0,0,0,82.557,2.81Z" transform="translate(-76.593)" fill="#02911c"/>
        </g>
      </g>
      <g id="Group_11148" data-name="Group 11148" transform="translate(0.771 5.01)">
        <g id="Group_11147" data-name="Group 11147">
          <path id="Path_7707" data-name="Path 7707" d="M39.859,46.486,38.7,44.559a.385.385,0,0,0-.33-.187H37.264a.385.385,0,0,0,0,.771h.89l.694,1.156h-15.6l.694-1.156h.408a.385.385,0,1,0,0-.771h-.626a.385.385,0,0,0-.33.187L22.24,46.486a.386.386,0,0,0,.33.584H39.528a.386.386,0,0,0,.33-.584Z" transform="translate(-22.185 -44.372)" fill="#02911c"/>
        </g>
      </g>
      <g id="Group_11150" data-name="Group 11150" transform="translate(10.16 2.16)">
        <g id="Group_11149" data-name="Group 11149" transform="translate(0)">
          <path id="Path_7708" data-name="Path 7708" d="M111.706,20.537a.385.385,0,0,0-.24-.172l-5.254-1.229a.385.385,0,0,0-.463.287l-.4,1.694a.385.385,0,0,0,.751.175l.308-1.318,4.5,1.053-.708,3.026a.385.385,0,0,0,.287.463.39.39,0,0,0,.088.01.385.385,0,0,0,.375-.3l.8-3.4A.384.384,0,0,0,111.706,20.537Z" transform="translate(-105.343 -19.126)" fill="#02911c"/>
        </g>
      </g>
      <g id="Group_11152" data-name="Group 11152" transform="translate(2.274 1.171)">
        <g id="Group_11151" data-name="Group 11151" transform="translate(0)">
          <path id="Path_7709" data-name="Path 7709" d="M43.06,13.684l-.351-2.97a.386.386,0,0,0-.428-.338l-6.446.762a.385.385,0,0,0-.337.428l.585,4.954a.386.386,0,0,0,.382.34l.046,0a.386.386,0,0,0,.337-.428l-.54-4.571,5.681-.671.306,2.587a.385.385,0,0,0,.766-.09Z" transform="translate(-35.494 -10.374)" fill="#02911c"/>
        </g>
      </g>
      <g id="Group_11154" data-name="Group 11154" transform="translate(5.153 3.7)">
        <g id="Group_11153" data-name="Group 11153" transform="translate(0)">
          <path id="Path_7710" data-name="Path 7710" d="M68.731,36.246l-.765-3.181a.385.385,0,0,0-.465-.284l-6.209,1.493a.385.385,0,0,0-.285.465l.382,1.59a.385.385,0,1,0,.749-.18l-.292-1.215,5.459-1.313.675,2.806a.386.386,0,0,0,.75-.18Z" transform="translate(-60.997 -32.769)" fill="#02911c"/>
        </g>
      </g>
      <g id="Group_11156" data-name="Group 11156" transform="translate(0 6.938)">
        <g id="Group_11155" data-name="Group 11155">
          <path id="Path_7711" data-name="Path 7711" d="M33.858,61.807a.386.386,0,0,0-.385-.366H16.515a.385.385,0,0,0-.385.366l-.771,15.031a.385.385,0,0,0,.385.405h18.5a.385.385,0,0,0,.385-.405ZM16.15,76.472l.731-14.26H33.107l.731,14.26Z" transform="translate(-15.359 -61.441)" fill="#02911c"/>
        </g>
      </g>
      <g id="Group_11158" data-name="Group 11158" transform="translate(11.37 8.479)">
        <g id="Group_11157" data-name="Group 11157" transform="translate(0)">
          <path id="Path_7712" data-name="Path 7712" d="M117.208,75.093a1.156,1.156,0,1,0,1.156,1.156A1.157,1.157,0,0,0,117.208,75.093Zm0,1.542a.385.385,0,1,1,.385-.385A.386.386,0,0,1,117.208,76.635Z" transform="translate(-116.052 -75.093)" fill="#02911c"/>
        </g>
      </g>
      <g id="Group_11160" data-name="Group 11160" transform="translate(5.588 8.479)">
        <g id="Group_11159" data-name="Group 11159">
          <path id="Path_7713" data-name="Path 7713" d="M66.008,75.093a1.156,1.156,0,1,0,1.156,1.156A1.157,1.157,0,0,0,66.008,75.093Zm0,1.542a.385.385,0,1,1,.385-.385A.386.386,0,0,1,66.008,76.635Z" transform="translate(-64.852 -75.093)" fill="#02911c"/>
        </g>
      </g>
      <g id="Group_11162" data-name="Group 11162" transform="translate(6.359 9.635)">
        <g id="Group_11161" data-name="Group 11161">
          <path id="Path_7714" data-name="Path 7714" d="M77.846,85.333h-.03a.386.386,0,0,0-.385.385.381.381,0,0,0,.03.149v1.971a2.505,2.505,0,1,1-5.01,0v-2.12a.385.385,0,0,0-.771,0v2.12a3.276,3.276,0,0,0,6.552,0v-2.12A.386.386,0,0,0,77.846,85.333Z" transform="translate(-71.679 -85.333)" fill="#02911c"/>
        </g>
      </g>
    </g>
  </g>
</svg>
