<svg xmlns="http://www.w3.org/2000/svg" width="71.375" height="85" viewBox="0 0 71.375 85">
  <g id="Service-provider-r" transform="translate(-47 -27.316)">
    <path id="Path_7876" data-name="Path 7876" d="M80.763,29.261l8.788,4.568,4.7,1.088L95.6,46.923l-11.311-.7-6.569-2.262-2.044-2.871L66.8,45.966l.87-9.658,9.658-6.439Z" fill="#e50010" opacity="0.25"/>
    <path id="Path_7877" data-name="Path 7877" d="M91.367,100.008v10.963h24.58l.609-10.963Z" fill="#e50010" opacity="0.25"/>
    <path id="Path_7875" data-name="Path 7875" d="M133.177,78.5V74.832a15.619,15.619,0,0,0-9.421-14.261l-12.562-5.507a12.52,12.52,0,0,0,3.426-8.472l3.426-1.694a4.249,4.249,0,0,0,2.427-3.812V40.1a4.183,4.183,0,0,0-4.282-4.236h-1.427V25.978a7.03,7.03,0,0,0-7.137-7.06h-.714a6.731,6.731,0,0,1-5-2.118l-2.427-2.4-8.137,2.683A10.747,10.747,0,0,0,88.5,18.495l-1.142.847a9.869,9.869,0,0,0-4.14,8.048v8.472H81.787A4.183,4.183,0,0,0,77.5,40.1v1.13a4.158,4.158,0,0,0,2.427,3.812l3.426,1.694a12.793,12.793,0,0,0,3.426,8.472L74.221,60.712A15.619,15.619,0,0,0,64.8,74.973V99.4h67.092a4.183,4.183,0,0,0,4.282-4.236V82.456a4.442,4.442,0,0,0-3-3.953ZM114.619,38.686h1.427a1.341,1.341,0,0,1,1.427,1.412v1.13a1.357,1.357,0,0,1-.856,1.271l-2,.988Zm-31.4,4.8-2-.988a1.622,1.622,0,0,1-.856-1.271V40.1a1.341,1.341,0,0,1,1.427-1.412h1.427Zm32.119,16.52-6.566,6.5-6.709-5.648c.714-.282,1.285-.565,1.856-.847l4.282-2.542c.143,0,.143-.141.286-.282ZM86.07,27.39a6.745,6.745,0,0,1,2.855-5.648l1.142-.847a5.3,5.3,0,0,1,2-.988l6.424-2.118,1.142,1.13a10.218,10.218,0,0,0,7.137,2.965h.714a4.183,4.183,0,0,1,4.282,4.236v5.93a5.121,5.121,0,0,0-1.428-.282h-8.993a6.241,6.241,0,0,1-5-2.542l-.428-.424a4.311,4.311,0,0,0-5.853-.988l-4,2.542Zm3,29.651c.143,0,.143.141.285.282l4.282,2.542a5.438,5.438,0,0,0,1.856.847L88.782,66.36l-6.566-6.5ZM97.49,96.576h-15.7V81.045H78.932V96.576H67.512V74.691a12.487,12.487,0,0,1,7.708-11.578l4.425-1.977,9.136,9.037L97.49,62.83ZM95.206,57.465l-4.282-2.542a9.874,9.874,0,0,1-4.853-8.472V34.591a1.736,1.736,0,0,1,.571-1.13l5-3.389a1.568,1.568,0,0,1,2,.282l.428.424a9.663,9.663,0,0,0,7.28,3.671h8.993a1.341,1.341,0,0,1,1.428,1.412v10.59a9.874,9.874,0,0,1-4.853,8.472l-4.282,2.542a7.033,7.033,0,0,1-7.423,0Zm12.562,39.111h-7.423v-33.6l8.708,7.342,9.136-9.037,4.425,1.977a12.633,12.633,0,0,1,7.708,11.578v3.389h-2.855V76.809a4.183,4.183,0,0,0-4.282-4.236h-2.855a4.183,4.183,0,0,0-4.282,4.236v1.412h-4.282a4.183,4.183,0,0,0-4.282,4.236V95.164a4.969,4.969,0,0,0,.285,1.412Zm16.844-19.767v1.412H118.9V76.809a1.341,1.341,0,0,1,1.427-1.412h2.855A1.341,1.341,0,0,1,124.612,76.809Zm8.565,18.355a1.341,1.341,0,0,1-1.427,1.412H111.764a1.341,1.341,0,0,1-1.428-1.412V88.1h9.992v2.824h2.855V88.1h9.992Zm0-9.884h-22.84V82.456a1.341,1.341,0,0,1,1.428-1.412h19.985a1.341,1.341,0,0,1,1.427,1.412Z" transform="translate(-17.8 12.916)" fill="#e50010"/>
  </g>
</svg>
