<svg xmlns="http://www.w3.org/2000/svg" width="100" height="95.678" viewBox="0 0 100 95.678">
  <g id="vision" transform="translate(-1 -1)">
    <path id="Path_4975" data-name="Path 4975" d="M85.271,36.494H82.185V17.975A13.9,13.9,0,0,0,68.3,4.086H22V1H68.3A17,17,0,0,1,85.271,17.975Z" transform="translate(15.729)" fill="#02911c"/>
    <path id="Path_4976" data-name="Path 4976" d="M13,28H26.889v3.086H13Z" transform="translate(7.497 14.666)" fill="#02911c"/>
    <path id="Path_4977" data-name="Path 4977" d="M12.795,56.8c-.843-.651-1.671-1.346-2.461-2.065l2.079-2.282c.728.664,1.491,1.3,2.269,1.9ZM8.049,52.478c-.724-.778-1.427-1.6-2.089-2.44l2.424-1.91c.611.776,1.258,1.531,1.924,2.247Z" transform="translate(2.694 25.6)" fill="#02911c"/>
    <path id="Path_4978" data-name="Path 4978" d="M34.736,40.486A12.358,12.358,0,1,0,42.02,46.16a7.688,7.688,0,0,1-7.284-5.674Z" transform="translate(11.469 21.185)" fill="#02911c" opacity="0.39"/>
    <path id="Path_4979" data-name="Path 4979" d="M29.716,58.432a7.716,7.716,0,1,1,7.716-7.716A7.725,7.725,0,0,1,29.716,58.432Zm0-12.346a4.63,4.63,0,1,0,4.63,4.63A4.635,4.635,0,0,0,29.716,46.086Z" transform="translate(13.152 22.814)" fill="#02911c"/>
    <path id="Path_4980" data-name="Path 4980" d="M85.814,43.242V31.572l-5.608-1.4a27.606,27.606,0,0,0-2.735-6.591l2.978-4.963L72.2,10.366l-4.963,2.977a27.549,27.549,0,0,0-6.591-2.733L59.242,5H47.572l-1.4,5.61a27.549,27.549,0,0,0-6.591,2.733l-4.963-2.977-8.251,8.251,2.978,4.963a27.517,27.517,0,0,0-2.735,6.591L21,31.572v11.67l5.61,1.4a27.692,27.692,0,0,0,1.968,5.11h3.517a43.3,43.3,0,0,1,5.832.406l-.008,0A20.073,20.073,0,1,1,56.47,57.211l-.066-.025A43.68,43.68,0,0,1,63.566,63.2a28.282,28.282,0,0,0,3.667-1.725L72.2,64.449,80.45,56.2l-2.978-4.963a27.517,27.517,0,0,0,2.735-6.591Z" transform="translate(15.186 2.173)" fill="#02911c" opacity="0.39"/>
    <path id="Path_4981" data-name="Path 4981" d="M74.5,54.126C83.774,51.3,90.2,43.157,90.2,33.6c0-11.914-10.185-21.6-22.7-21.6s-22.7,9.691-22.7,21.6a20.852,20.852,0,0,0,3.1,10.884c-.929-.052-1.862-.082-2.8-.082H41.238A48.216,48.216,0,0,0,2.211,63.864a6.229,6.229,0,0,0,0,7.383A48.216,48.216,0,0,0,41.239,90.7h3.855A48.216,48.216,0,0,0,84.121,71.247a6.229,6.229,0,0,0,0-7.383A46.162,46.162,0,0,0,74.5,54.126ZM48.031,33.6c0-10.211,8.73-18.518,19.461-18.518S86.954,23.393,86.954,33.6c0,9.008-6.662,16.552-15.916,18.17a48.927,48.927,0,0,0-18.926-6.85A17.974,17.974,0,0,1,48.031,33.6ZM43.166,87.617c-11.625,0-21.083-9-21.083-20.062s9.458-20.062,21.083-20.062,21.083,9,21.083,20.062S54.791,87.617,43.166,87.617ZM4.879,69.489a3.258,3.258,0,0,1,0-3.867A44.149,44.149,0,0,1,28.145,49.384a22.4,22.4,0,0,0,0,36.342A44.145,44.145,0,0,1,4.879,69.489Zm76.574,0A44.149,44.149,0,0,1,58.187,85.726a22.4,22.4,0,0,0,0-36.342A44.155,44.155,0,0,1,81.455,65.622a3.262,3.262,0,0,1,0,3.867Z" transform="translate(0 5.975)" fill="#02911c"/>
    <path id="Path_4982" data-name="Path 4982" d="M46.346,42.691A12.346,12.346,0,1,1,58.691,30.346,12.36,12.36,0,0,1,46.346,42.691Zm0-21.6A9.259,9.259,0,1,0,55.6,30.346,9.269,9.269,0,0,0,46.346,21.086Z" transform="translate(21.026 9.234)" fill="#02911c"/>
    <path id="Path_4983" data-name="Path 4983" d="M18,1h3.086V4.086H18Z" transform="translate(10.459)" fill="#02911c"/>
    <path id="Path_4984" data-name="Path 4984" d="M14,1h3.086V4.086H14Z" transform="translate(7.998)" fill="#02911c"/>
    <path id="Path_4985" data-name="Path 4985" d="M8,5h3.086V8.086H8Z" transform="translate(3.802 2.173)" fill="#02911c"/>
    <path id="Path_4986" data-name="Path 4986" d="M12,5h3.086V8.086H12Z" transform="translate(6.767 2.173)" fill="#02911c"/>
    <path id="Path_4987" data-name="Path 4987" d="M16,5H43.778V8.086H16Z" transform="translate(9.621 2.173)" fill="#02911c"/>
    <path id="Path_4988" data-name="Path 4988" d="M5,28H8.086v3.086H5Z" transform="translate(2.173 14.666)" fill="#02911c"/>
    <path id="Path_4989" data-name="Path 4989" d="M9,28h3.086v3.086H9Z" transform="translate(4.346 14.666)" fill="#02911c"/>
    <path id="Path_4990" data-name="Path 4990" d="M17,24h3.086v3.086H17Z" transform="translate(9.844 12.494)" fill="#02911c"/>
    <path id="Path_4991" data-name="Path 4991" d="M11,24h6.173v3.086H11Z" transform="translate(6.177 12.494)" fill="#02911c"/>
    <path id="Path_4992" data-name="Path 4992" d="M5,24h9.259v3.086H5Z" transform="translate(2.173 12.494)" fill="#02911c"/>
    <path id="Path_4993" data-name="Path 4993" d="M31.889,66.778A13.889,13.889,0,1,1,35.7,39.545l.836.238.228.839a6.108,6.108,0,0,0,5.822,4.539l.87.015.438.752a13.877,13.877,0,0,1-12.009,20.85Zm0-24.691a10.821,10.821,0,1,0,9.716,6.1,9.3,9.3,0,0,1-7.523-5.863,10.682,10.682,0,0,0-2.193-.233Z" transform="translate(10.904 20.642)" fill="#02911c"/>
  </g>
</svg>
