<svg xmlns="http://www.w3.org/2000/svg" width="42.701" height="42.701" viewBox="0 0 42.701 42.701">
  <g id="water_icon" transform="translate(-106.218 -8.54)">
    <g id="icons" transform="translate(106.218 8.54)">
      <circle id="Oval" cx="21.35" cy="21.35" r="21.35" fill="#00861a"/>
    </g>
    <g id="Group_10090" data-name="Group 10090" transform="translate(118.656 16.996)">
      <path id="Path_4907" data-name="Path 4907" d="M1.695,0h13.05A1.7,1.7,0,0,1,16.44,1.695L13.05,22.032a1.7,1.7,0,0,1-1.695,1.695H5.084A1.7,1.7,0,0,1,3.39,22.032L0,1.695A1.7,1.7,0,0,1,1.695,0Z" opacity="0.194"/>
      <path id="Path_4908" data-name="Path 4908" d="M13.947,2.3c1.916-.1,2.9-1.117,4.309-1.379s2.987.138,2.987.588l-1.515,9.771c0,.45-.659.814-1.472.814H12.81c-.813,0-1.472-.365-1.472-.814L10,1.514C10,1.064,12.032,2.4,13.947,2.3Z" transform="translate(-7.251 10.636)" fill="#fff" opacity="0.194"/>
    </g>
    <path id="Path_4909" data-name="Path 4909" d="M17.51,1.412c-2.021-.1-2.927-1.456-4.546-1.692S10,.11,10,.582l1.581,10.253c0,.472.7.854,1.553.854h5.407c.858,0,1.553-.383,1.553-.854L21.675.582C21.675.11,19.531,1.516,17.51,1.412Z" transform="translate(111.038 28.606)" fill="#fff"/>
  </g>
</svg>
