<svg xmlns="http://www.w3.org/2000/svg" width="42.701" height="42.701" viewBox="0 0 42.701 42.701">
  <g id="weight" transform="translate(-106 -8.612)">
    <g id="icons" transform="translate(106 8.612)">
      <circle id="Oval" cx="21.35" cy="21.35" r="21.35" fill="#00861a"/>
    </g>
    <g id="waist" transform="translate(117 19.612)">
      <g id="Group_10386" data-name="Group 10386" transform="translate(0.31 0.305)">
        <path id="Path_5421" data-name="Path 5421" d="M27.555,28.022c1.7-6.975-1.323-7.873-2.606-12.075a12.661,12.661,0,0,1,.827-8.4H9.783a12.661,12.661,0,0,1,.827,8.4c-1.282,4.2-4.3,5.1-2.606,12.075" transform="translate(-7.5 -7.544)" fill="#fff"/>
      </g>
      <g id="Group_10387" data-name="Group 10387" transform="translate(0 0)">
        <path id="Path_5425" data-name="Path 5425" d="M18.1,8.78A10.608,10.608,0,0,1,17.9,3.8a12.063,12.063,0,0,1,1-3.195.31.31,0,0,0-.554-.278,12.5,12.5,0,0,0-1.016,3.139,11.927,11.927,0,0,0-.106,4.324,10.141,10.141,0,0,0,.548,1.958,21.438,21.438,0,0,1-5.158.923,27.146,27.146,0,0,1-6.556-.317A17.516,17.516,0,0,1,3.49,9.737a12.038,12.038,0,0,0-.179-8.454,9.24,9.24,0,0,0-.4-.955.31.31,0,0,0-.555.278A12.04,12.04,0,0,1,3.394,4a10.469,10.469,0,0,1-.433,5.383,17.46,17.46,0,0,1-1.253,2.538C.5,14.052-.65,16.063.555,21.018a.31.31,0,0,0,.6-.147c-.858-3.531-.493-5.438.248-7.058a8.605,8.605,0,0,1,2.336.62A13.738,13.738,0,0,1,8.933,18.29a2.072,2.072,0,0,0,1.388.665v2.072a.31.31,0,0,0,.621,0V18.952a2.337,2.337,0,0,0,1.373-.645,17.473,17.473,0,0,1,5.562-3.974,6.517,6.517,0,0,1,1.98-.52c.742,1.62,1.107,3.528.249,7.06a.31.31,0,0,0,.6.147c1.2-4.955.059-6.967-1.153-9.1A14.845,14.845,0,0,1,18.1,8.78Zm-6.222,9.088a1.76,1.76,0,0,1-1.244.483A1.6,1.6,0,0,1,9.4,17.885a14.34,14.34,0,0,0-5.46-4.039A9.649,9.649,0,0,0,1.7,13.222c.511-.975,1.106-1.9,1.555-2.911a21.115,21.115,0,0,0,5.192.965,27.79,27.79,0,0,0,6.856-.3,18,18,0,0,0,2.716-.651c.447,1,1.039,1.923,1.546,2.892C18.513,13.347,15.683,14.061,11.876,17.868Z" transform="translate(-0.041 -0.162)" fill="#00861a"/>
        <path id="Path_5426" data-name="Path 5426" d="M452.337,107.612a.31.31,0,0,0,.5-.363,5.525,5.525,0,0,1-.654-4.068.31.31,0,0,0-.6-.15A6.06,6.06,0,0,0,452.337,107.612Z" transform="translate(-432.753 -98.559)" fill="#fff"/>
        <path id="Path_5427" data-name="Path 5427" d="M23.617,107.682a.313.313,0,0,0,.433-.07,6.06,6.06,0,0,0,.753-4.581.31.31,0,0,0-.6.15,5.5,5.5,0,0,1-.654,4.067A.31.31,0,0,0,23.617,107.682Z" transform="translate(-22.516 -98.559)" fill="#fff"/>
        <path id="Path_5428" data-name="Path 5428" d="M.129,129.379a.313.313,0,0,0,.433-.07,2.752,2.752,0,0,0,.346-2.083.31.31,0,0,0-.6.149,2.152,2.152,0,0,1-.247,1.571A.31.31,0,0,0,.129,129.379Z" transform="translate(0 -121.753)" fill="#fff"/>
        <path id="Path_5429" data-name="Path 5429" d="M489.005,129.432a.313.313,0,0,0,.251-.492,2.151,2.151,0,0,1-.247-1.571.31.31,0,0,0-.6-.149,2.751,2.751,0,0,0,.346,2.083A.31.31,0,0,0,489.005,129.432Z" transform="translate(-468.135 -121.747)" fill="#fff"/>
        <path id="Path_5430" data-name="Path 5430" d="M246.31,180.974a.31.31,0,0,0,.31-.31V179.6a.31.31,0,0,0-.62,0v1.061A.31.31,0,0,0,246.31,180.974Z" transform="translate(-235.824 -171.893)" fill="#fff"/>
      </g>
    </g>
  </g>
</svg>
