<svg xmlns="http://www.w3.org/2000/svg" width="7.427" height="9.368" viewBox="0 0 7.427 9.368">
  <g id="Group_10045" data-name="Group 10045" transform="translate(0)">
    <path id="Path_30" data-name="Path 30" d="M60.443,7.725l-.418-5.271a.659.659,0,0,0-.654-.606h-.826V1.811a1.811,1.811,0,1,0-3.621,0v.037H54.1a.659.659,0,0,0-.654.6l-.418,5.273a1.525,1.525,0,0,0,1.521,1.642h4.377a1.525,1.525,0,0,0,1.521-1.643ZM55.472,1.811a1.262,1.262,0,1,1,2.524,0v.037H55.472Zm4.167,6.7a.967.967,0,0,1-.716.313H54.545a.977.977,0,0,1-.974-1.051L53.99,2.5a.108.108,0,0,1,.107-.1h.826v.676a.274.274,0,1,0,.549,0V2.4H58v.676a.274.274,0,1,0,.549,0V2.4h.826a.108.108,0,0,1,.107.1L59.9,7.768A.967.967,0,0,1,59.639,8.506Z" transform="translate(-53.02)" fill="#fff"/>
    <path id="Path_31" data-name="Path 31" d="M187.033,249.987a.32.32,0,0,0-.453,0l-1.431,1.431-.55-.55a.32.32,0,0,0-.453.453l.777.777a.32.32,0,0,0,.453,0l1.658-1.658A.321.321,0,0,0,187.033,249.987Z" transform="translate(-181.876 -245.525)" fill="#fff"/>
  </g>
</svg>
