<svg xmlns="http://www.w3.org/2000/svg" width="16.858" height="36.694" viewBox="0 0 16.858 36.694">
  <g id="Group_11283" data-name="Group 11283" transform="translate(0.2 0.2)">
    <path id="Path_7938" data-name="Path 7938" d="M172.172,47.064l-.154-.347-.008-.018c-.4-.847-1.411-2.906-1.955-3.867a3.58,3.58,0,0,1-.3-1.224,2.521,2.521,0,0,0,1.322-2.184A2.447,2.447,0,0,0,168.6,36.95h-7.412a2.447,2.447,0,0,0-2.474,2.474,2.521,2.521,0,0,0,1.322,2.183,3.585,3.585,0,0,1-.3,1.227c-.542.959-1.55,3.017-1.953,3.864l-.162.365a10.377,10.377,0,0,0-.955,4.538V68.946a4.984,4.984,0,0,0,.911,2.67,3.933,3.933,0,0,0,3.331,1.628h7.974a3.933,3.933,0,0,0,3.331-1.628,4.984,4.984,0,0,0,.911-2.67V51.6A10.377,10.377,0,0,0,172.172,47.064Zm-10.98-8.622H168.6a.972.972,0,0,1,.982.982,1.03,1.03,0,0,1-.633.915h-8.111a1.03,1.03,0,0,1-.633-.915A.972.972,0,0,1,161.192,38.442ZM171.636,68.91a3.494,3.494,0,0,1-.626,1.83,2.478,2.478,0,0,1-2.125,1.014h-7.974a2.478,2.478,0,0,1-2.125-1.014,3.494,3.494,0,0,1-.626-1.83V51.6a8.94,8.94,0,0,1,.805-3.886l.171-.383c.383-.8,1.385-2.851,1.9-3.76a4.658,4.658,0,0,0,.48-1.742h6.764a4.652,4.652,0,0,0,.478,1.739c.515.912,1.518,2.958,1.9,3.763l.157.352.014.031a8.939,8.939,0,0,1,.805,3.886Z" transform="translate(-156.669 -36.95)" fill="#02911c" stroke="#fff" stroke-linejoin="round" stroke-width="0.4"/>
    <path id="Path_7939" data-name="Path 7939" d="M200.927,245.781h-7.841c-.777,0-1.408.924-1.408,2.059v11.812c0,1.135.632,2.059,1.408,2.059h7.841c.777,0,1.408-.924,1.408-2.059V247.84C202.335,246.7,201.7,245.781,200.927,245.781Z" transform="translate(-188.777 -228.48)" fill="#02911c" opacity="0.18"/>
  </g>
</svg>
