<svg xmlns="http://www.w3.org/2000/svg" width="28.011" height="32.206" viewBox="0 0 28.011 32.206">
  <g id="women" transform="translate(0 0)">
    <path id="Path_7925" data-name="Path 7925" d="M25.59,15.086c-2.031,0-3.118,1.474-4.127,3.686-1.345,2.95-2.724,4.641-3.786,4.641-.2,0-.79,0-1.308-1.156a.843.843,0,0,0-.946-.478,6.369,6.369,0,0,0-4.162,2.58,5.325,5.325,0,0,0-.859,2.731.844.844,0,0,0,.845.871h6.316c.089.7.163,1.4.221,2.068a7.079,7.079,0,0,1-5.223,1.142,23.175,23.175,0,0,1-4.81-1.454c-.625-.239-1.271-.486-1.912-.707a13.384,13.384,0,0,0-4.834-.9c.746-6.028,2.508-12.333,3.725-14.543H6.888c-.164.862-.35,2.15-.533,3.709a.472.472,0,1,0,.937.11c.195-1.654.39-2.991.557-3.819h2.988c.167.831.361,2.162.556,3.819a.472.472,0,1,0,.937-.11c-.184-1.56-.368-2.844-.532-3.709h2.058a36.84,36.84,0,0,1,2.511,7.769.472.472,0,1,0,.919-.213,36.722,36.722,0,0,0-2.658-8.109c.13-.612.279-1.281.423-1.93.372-1.67.757-3.4.86-4.367.15-1.408.048-4.913.013-5.954A.782.782,0,0,0,15.14,0H14.033a.786.786,0,0,0-.785.785V1.921A4.031,4.031,0,0,1,9.272,5.977H9.258a3.989,3.989,0,0,1-3.99-3.99V.786A.786.786,0,0,0,4.483,0H3.376a.782.782,0,0,0-.784.758c-.02.6-.067,2.148-.067,3.573a.472.472,0,0,0,.944,0c0-1.3.039-2.71.061-3.387h.794V1.987A4.933,4.933,0,0,0,9.275,6.921a4.976,4.976,0,0,0,4.917-5V.945h.794c.038,1.18.124,4.382-.013,5.669-.1.917-.476,2.617-.843,4.262-.13.584-.263,1.183-.384,1.745H4.769c-.115-.535-.242-1.1-.366-1.66-.374-1.679-.761-3.415-.86-4.346C3.531,6.5,3.52,6.362,3.51,6.19a.472.472,0,0,0-.942.057c.011.186.023.338.037.465.1.984.5,2.747.877,4.452.146.655.3,1.33.426,1.939a30.342,30.342,0,0,0-2.116,6.03A68.052,68.052,0,0,0,0,28.562a.472.472,0,0,0,.517.523,11.606,11.606,0,0,1,5.013.817c.627.216,1.266.461,1.884.7a23.856,23.856,0,0,0,5.012,1.507,9.678,9.678,0,0,0,1.379.1,7.566,7.566,0,0,0,4.761-1.587.472.472,0,0,0,.179-.409c-.059-.726-.137-1.481-.232-2.249H18.8a.967.967,0,0,0,.92-.662,10.668,10.668,0,0,1,2.349-3.736,6.477,6.477,0,0,1,2.049-1.588,10.788,10.788,0,0,1,.111,1.931v3.207a.85.85,0,0,0,.849.849h.781a.85.85,0,0,0,.849-.849V23.906a4.418,4.418,0,0,1,.59-1.928,5.431,5.431,0,0,0,.708-2.457c0-2.57-1.018-4.435-2.421-4.435Zm.862,6.483a5.218,5.218,0,0,0-.683,2.337v3.113h-.593V23.906c0-1.508-.07-2.4-.44-2.788a.471.471,0,0,0-.342-.147c-1.092,0-2.579,1.49-3.008,1.946A11.641,11.641,0,0,0,18.828,27a.026.026,0,0,1-.025.015H11.35c.059-1.1.612-3.479,4.193-4.3a2.372,2.372,0,0,0,2.135,1.638c1.511,0,3.073-1.747,4.644-5.193,1.055-2.314,1.91-3.134,3.269-3.134.619,0,1.477,1.213,1.477,3.492a4.618,4.618,0,0,1-.615,2.048Zm0,0" transform="translate(0.001 -0.001)" fill="#02911c"/>
    <path id="Path_7926" data-name="Path 7926" d="M-4.455.96c.958,0,.661,1.562.862,2.734,0,.581.134,1.651-.338,2.022-.283.231-.266,4.943-.749,4.943-.09,0,.109.86-.486,1.348a2.66,2.66,0,0,1-1.164-.586l-.3-5.218L-9.173,8.188l-2.845,3.819c-.41.459-7.64.166-7.789,0a3.642,3.642,0,0,1,.674-2.472c1.591-2.867,3.58-1.644,3.781-2.659l2.323,1.8,2.209-2.022L-6.626.4C-6.034-.386-5.413.96-4.455.96Z" transform="translate(30.925 15.317)" fill="#02911c" opacity="0.18"/>
  </g>
</svg>
