<svg xmlns="http://www.w3.org/2000/svg" width="29" height="29" viewBox="0 0 29 29">
  <g id="Group_12097" data-name="Group 12097" transform="translate(-5044 -2774)">
    <circle id="Ellipse_173" data-name="Ellipse 173" cx="14.5" cy="14.5" r="14.5" transform="translate(5044 2774)" fill="#02911c" opacity="0.17"/>
    <path id="Path_8369" data-name="Path 8369" d="M23.295,21.705,19.589,18l3.705-3.705a1.124,1.124,0,0,0-1.589-1.589L18,16.411l-3.705-3.705a1.124,1.124,0,0,0-1.589,1.589L16.411,18l-3.705,3.705a1.086,1.086,0,0,0,0,1.589,1.116,1.116,0,0,0,1.589,0L18,19.589l3.705,3.705a1.129,1.129,0,0,0,1.589,0A1.116,1.116,0,0,0,23.295,21.705Z" transform="translate(5040.641 2770.646)" fill="#02911c"/>
  </g>
</svg>
