<svg id="Group_10050" data-name="Group 10050" xmlns="http://www.w3.org/2000/svg" width="35.764" height="31.818" viewBox="0 0 35.764 31.818">
  <path id="heart" d="M17.882,31.818A2.1,2.1,0,0,1,16.5,31.3c-1.445-1.263-2.838-2.451-4.067-3.5l-.006-.005a75.629,75.629,0,0,1-8.879-8.334C1.127,16.541,0,13.773,0,10.748A11.178,11.178,0,0,1,2.837,3.114,9.617,9.617,0,0,1,9.991,0,9,9,0,0,1,15.61,1.94a11.5,11.5,0,0,1,2.272,2.372A11.5,11.5,0,0,1,20.154,1.94,9,9,0,0,1,25.773,0a9.617,9.617,0,0,1,7.154,3.114,11.178,11.178,0,0,1,2.837,7.634c0,3.025-1.127,5.793-3.547,8.713a75.621,75.621,0,0,1-8.878,8.334c-1.231,1.049-2.626,2.238-4.074,3.5a2.1,2.1,0,0,1-1.382.519ZM9.991,2.1A7.545,7.545,0,0,0,4.377,4.534a9.093,9.093,0,0,0-2.282,6.214c0,2.544.945,4.819,3.065,7.377A74.424,74.424,0,0,0,13.785,26.2l.007.005c1.234,1.051,2.632,2.243,4.087,3.516,1.464-1.275,2.865-2.469,4.1-3.522A74.445,74.445,0,0,0,30.6,18.125c2.12-2.558,3.065-4.833,3.065-7.377a9.093,9.093,0,0,0-2.282-6.214A7.545,7.545,0,0,0,25.773,2.1a6.948,6.948,0,0,0-4.338,1.5,10.166,10.166,0,0,0-2.417,2.8,1.322,1.322,0,0,1-2.272,0,10.156,10.156,0,0,0-2.417-2.8A6.948,6.948,0,0,0,9.991,2.1Zm0,0" transform="translate(0 0)" fill="#d3d3d3"/>
</svg>
