<svg xmlns="http://www.w3.org/2000/svg" width="10.492" height="7.283" viewBox="0 0 10.492 7.283">
  <path id="Path_171" data-name="Path 171" d="M10.428,88.813,7.149,85.4a.212.212,0,0,0-.238-.049.228.228,0,0,0-.135.21v.455a.232.232,0,0,0,.064.161l2.25,2.342H.219A.223.223,0,0,0,0,88.746V89.2a.223.223,0,0,0,.219.228H9.09L6.84,91.772a.232.232,0,0,0-.064.161v.455a.228.228,0,0,0,.135.21.209.209,0,0,0,.084.017.214.214,0,0,0,.155-.067l3.279-3.414A.234.234,0,0,0,10.428,88.813Z" transform="translate(0 -85.333)" fill="#02911c"/>
</svg>
