<svg xmlns="http://www.w3.org/2000/svg" width="11.947" height="11.424" viewBox="0 0 11.947 11.424">
  <path id="star_1_" data-name="star (1)" d="M6.551,1.405,7.9,4.135a.643.643,0,0,0,.484.352l3.013.438a.643.643,0,0,1,.357,1.1L9.572,8.147a.643.643,0,0,0-.185.569l.515,3a.643.643,0,0,1-.934.678L6.273,10.979a.644.644,0,0,0-.6,0L2.98,12.4a.643.643,0,0,1-.934-.678l.515-3a.643.643,0,0,0-.185-.569L.2,6.022a.643.643,0,0,1,.357-1.1l3.013-.438a.643.643,0,0,0,.484-.352L5.4,1.405A.643.643,0,0,1,6.551,1.405Z" transform="translate(-0.001 -1.047)" fill="#ffb31a"/>
</svg>
