<svg xmlns="http://www.w3.org/2000/svg" width="26.628" height="27.361" viewBox="0 0 26.628 27.361">
  <g id="Group_12314" data-name="Group 12314" transform="translate(0 0)">
    <path id="Path_227" data-name="Path 227" d="M473.546,1246.146h-2.832v-.814a2.956,2.956,0,0,0-3.039-2.857h-4.4a2.956,2.956,0,0,0-3.04,2.857v.814H457.4a.838.838,0,1,0,0,1.675h16.145a.838.838,0,1,0,0-1.675Zm-11.639-.814a1.3,1.3,0,0,1,1.365-1.182h4.4a1.3,1.3,0,0,1,1.364,1.182v.814h-7.132Z" transform="translate(-452.16 -1220.46)"/>
    <path id="Path_228" data-name="Path 228" d="M471.532,1205.984H470.8a3.777,3.777,0,0,0-3.676-2.935H456.854a3.776,3.776,0,0,0-3.676,2.935h-.727a3.778,3.778,0,0,0-3.774,3.773,5.248,5.248,0,0,0,4.71,5.214,8.921,8.921,0,0,0,7.766,6.589v1.537a.838.838,0,0,0,1.675,0v-1.537a8.922,8.922,0,0,0,7.767-6.589,5.248,5.248,0,0,0,4.71-5.214A3.777,3.777,0,0,0,471.532,1205.984Zm-21.179,3.773a2.1,2.1,0,0,1,2.1-2.1h.63v5.259a.834.834,0,0,0,.021.18c0,.042,0,.085.006.128A3.569,3.569,0,0,1,450.352,1209.757Zm11.639,10.171a7.243,7.243,0,0,1-7.235-7.235v-5.871a2.1,2.1,0,0,1,2.1-2.1h10.274a2.1,2.1,0,0,1,2.1,2.1v5.871A7.243,7.243,0,0,1,461.991,1219.928Zm8.884-6.7c0-.042,0-.085.006-.128a.829.829,0,0,0,.021-.18v-5.259h.63a2.1,2.1,0,0,1,2.1,2.1A3.569,3.569,0,0,1,470.874,1213.226Z" transform="translate(-448.677 -1203.049)"/>
  </g>
</svg>
