<svg xmlns="http://www.w3.org/2000/svg" width="32.73" height="37.464" viewBox="0 0 32.73 37.464">
  <g id="noun_Nutrition_Finder_1797200" data-name="noun_Nutrition Finder_1797200" transform="translate(0 0)">
    <g id="Group_11212" data-name="Group 11212" transform="translate(0 0)">
      <path id="Path_7794" data-name="Path 7794" d="M38.784,17.7a8.9,8.9,0,0,0-5.477-4.338,9.609,9.609,0,0,0-8.325,2.016,23.144,23.144,0,0,1,3.637-8.15l-1.052-.789a24.383,24.383,0,0,0-3.461,7.142,22.133,22.133,0,0,0-5.127-8.763,14.19,14.19,0,0,0-2.76-2.191c-.351-.175-1.1-.351-1.884.7A5.077,5.077,0,0,0,14.2,9.159c1.008,1.446,3.2,3.067,7.887,2.936a32.647,32.647,0,0,1,1.052,3.111,9.585,9.585,0,0,0-8.15-1.884,8.931,8.931,0,0,0-5.477,4.338A14.912,14.912,0,0,0,8.42,28.92c1.972,7.142,8.106,11.787,13.714,10.341a7.271,7.271,0,0,0,2.016-.833,11.494,11.494,0,0,0,2.016.833,8.643,8.643,0,0,0,2.1.263A9.628,9.628,0,0,0,33.7,37.771a.7.7,0,0,0,.175-.964h0A.689.689,0,0,0,33,36.632a8.132,8.132,0,0,1-6.529,1.314A6.626,6.626,0,0,1,24.5,37.07l-.351-.219-.351.219a6.626,6.626,0,0,1-1.972.876c-4.907,1.271-10.341-2.936-12.093-9.42A13.577,13.577,0,0,1,10.7,18.273a7.66,7.66,0,0,1,4.688-3.724c2.8-.7,5.828.307,8.325,2.8l.482.438.482-.438c2.5-2.5,5.521-3.505,8.325-2.8a7.66,7.66,0,0,1,4.688,3.724,13.577,13.577,0,0,1,.964,10.253,15.021,15.021,0,0,1-2.366,5,.632.632,0,0,0,.131.876h0a.692.692,0,0,0,.964-.131,17.533,17.533,0,0,0,2.585-5.389A14.739,14.739,0,0,0,38.784,17.7ZM15.343,8.414A3.759,3.759,0,0,1,15.43,4.12a2.623,2.623,0,0,1,.263-.307A15.94,15.94,0,0,1,18.059,5.7a17.66,17.66,0,0,1,3.505,5.083C18.585,10.78,16.438,9.991,15.343,8.414Z" transform="translate(-7.811 -2.498)" fill="#e23744"/>
      <path id="Path_7795" data-name="Path 7795" d="M51.874,51.087a7.9,7.9,0,1,0-2.936,6.134l5.214,5.609.964-.876-5.258-5.609A7.779,7.779,0,0,0,51.874,51.087Zm-14.459,0a6.572,6.572,0,1,1,6.572,6.572A6.564,6.564,0,0,1,37.414,51.087Z" transform="translate(-23.705 -25.366)" fill="#e23744"/>
      <path id="Path_7796" data-name="Path 7796" d="M-5.107-.761c1.089,0,3.3,1.2,3.529,2.534,0,.66,2.624,1.831,2.089,2.253-.321.262-.749,6.793-1.3,6.793-.182,0-3.8,3.448-5.154,2.351-.3.9-5.594-2.08-6-1.626-.466.522-1.1-4.808-1.269-5s.607-3.166.926-4.774c.19-.959,3.49-1.664,3.49-1.967C-8.122-1.085-6.2-.761-5.107-.761Z" transform="translate(26.799 19.301)" fill="#e23744" opacity="0.18"/>
    </g>
  </g>
</svg>
