<svg xmlns="http://www.w3.org/2000/svg" width="31.495" height="35.144" viewBox="0 0 31.495 35.144">
  <g id="Group_12269" data-name="Group 12269" transform="translate(-39.642 -899.978)">
    <g id="trophy" transform="translate(39.812 900.128)">
      <g id="Group_12268" data-name="Group 12268" transform="translate(0)">
        <g id="Group_12267" data-name="Group 12267">
          <path id="Path_8615" data-name="Path 8615" d="M58.232,6.059a1.692,1.692,0,0,0-1.695-1.55h-4.4V3.86h.086a1.141,1.141,0,0,0,1.14-1.14V1.14A1.141,1.141,0,0,0,52.222,0H39.267a.51.51,0,0,0,0,1.021H52.222a.119.119,0,0,1,.119.119V2.72a.119.119,0,0,1-.119.119H33.14a.119.119,0,0,1-.119-.119V1.14a.119.119,0,0,1,.119-.119h3.734a.51.51,0,0,0,0-1.021H33.14A1.141,1.141,0,0,0,32,1.14V2.72a1.141,1.141,0,0,0,1.14,1.14h.086v.649h-4.4a1.692,1.692,0,0,0-1.695,1.55,14.9,14.9,0,0,0,.887,5.913,12.145,12.145,0,0,0,8.813,7.744,9.446,9.446,0,0,0,2.948,1.578l.257.424a5.281,5.281,0,0,1,.742,2.74,5.461,5.461,0,0,1-.287,1.758l-.357,1.051H38.946a2.212,2.212,0,0,0-2.209,2.209v1.069H34.879a.952.952,0,0,0-.951.951v2.4a.952.952,0,0,0,.951.951h15.6a.952.952,0,0,0,.951-.951V31.5a.952.952,0,0,0-.951-.951H48.625V29.476a2.212,2.212,0,0,0-2.209-2.209H45.229l-.357-1.051a5.458,5.458,0,0,1-.287-1.758,5.281,5.281,0,0,1,.742-2.74l.257-.424a9.446,9.446,0,0,0,2.948-1.578,12.145,12.145,0,0,0,8.813-7.744,14.9,14.9,0,0,0,.887-5.913Zm-24.818,8.12a8.667,8.667,0,0,1-2.179-3.313,11.455,11.455,0,0,1-.674-2.954h2.664v4.383A9.46,9.46,0,0,0,33.414,14.179Zm-4.441-2.561a13.766,13.766,0,0,1-.828-5.468.677.677,0,0,1,.678-.62h4.4V6.89H30.519a.982.982,0,0,0-.978,1.074,12.5,12.5,0,0,0,.74,3.262A9.471,9.471,0,0,0,33.941,15.9a9.459,9.459,0,0,0,1.291,2.209,10.972,10.972,0,0,1-6.258-6.493ZM50.412,31.566v2.257H34.949V31.566Zm-4-3.278A1.19,1.19,0,0,1,47.6,29.476v1.069H37.758V29.476a1.19,1.19,0,0,1,1.188-1.188Zm-2.51-1.744.245.723h-2.94l.245-.723a6.479,6.479,0,0,0,.341-2.086,6.368,6.368,0,0,0-.651-2.833,9.468,9.468,0,0,0,3.069,0,6.368,6.368,0,0,0-.651,2.833A6.479,6.479,0,0,0,43.905,26.544Zm-1.225-5.815a8.444,8.444,0,0,1-8.435-8.435V3.86H51.115v8.435A8.444,8.444,0,0,1,42.681,20.729Zm13.707-9.111a10.972,10.972,0,0,1-6.258,6.493A9.461,9.461,0,0,0,51.422,15.9a9.338,9.338,0,0,0,3.314-3.858.51.51,0,0,0-.923-.437,8.435,8.435,0,0,1-1.867,2.579,9.459,9.459,0,0,0,.19-1.887V7.911H54.8A12.125,12.125,0,0,1,54.55,9.46a.51.51,0,0,0,.995.229,13.182,13.182,0,0,0,.276-1.724.982.982,0,0,0-.978-1.074H52.136V5.529h4.4a.677.677,0,0,1,.678.62,13.771,13.771,0,0,1-.828,5.468Z" transform="translate(-27.103)" fill="#e23744" stroke="#fff" stroke-width="0.3"/>
          <path id="Path_8616" data-name="Path 8616" d="M199.129,113.837l-1.464-.213a.2.2,0,0,1-.147-.107l-.655-1.326a1.216,1.216,0,0,0-2.182,0l-.655,1.326a.2.2,0,0,1-.147.107l-1.464.213a1.216,1.216,0,0,0-.674,2.075l1.059,1.032a.2.2,0,0,1,.056.173l-.25,1.458a1.216,1.216,0,0,0,1.765,1.282l1.309-.688a.2.2,0,0,1,.182,0l1.309.688a1.217,1.217,0,0,0,1.765-1.282l-.25-1.458a.2.2,0,0,1,.056-.173l1.059-1.032a1.216,1.216,0,0,0-.674-2.075Zm-.038,1.344-1.059,1.032a1.216,1.216,0,0,0-.35,1.077l.25,1.458a.2.2,0,0,1-.284.206l-1.309-.688a1.216,1.216,0,0,0-1.132,0l-1.309.688a.2.2,0,0,1-.284-.206l.25-1.458a1.216,1.216,0,0,0-.35-1.077l-1.059-1.032a.2.2,0,0,1,.108-.334l1.464-.213a1.216,1.216,0,0,0,.916-.665l.655-1.326a.2.2,0,0,1,.351,0l.655,1.326a1.216,1.216,0,0,0,.916.665l1.464.213a.2.2,0,0,1,.109.334Z" transform="translate(-180.195 -103.924)" fill="#e23744" stroke="#fff" stroke-width="0.3"/>
        </g>
      </g>
    </g>
    <path id="Path_8617" data-name="Path 8617" d="M3.774,1.221a1.032,1.032,0,0,1,1.7,0l.254,1.468a1.032,1.032,0,0,0,.523.4H7.963a1.032,1.032,0,0,1,.518,1.569l-1.3.838a1.032,1.032,0,0,0-.186.6l.493,1.719c0,.712-.724.837-1.4.6L4.8,7.683a1.032,1.032,0,0,0-.677,0l-1.161.726c-.672.234-1.206.108-1.2-.6L2.11,6.184a1.032,1.032,0,0,0-.186-.6L.77,4.653a1.032,1.032,0,0,1,.518-1.569H2.642a1.032,1.032,0,0,0,.523-.4Z" transform="translate(50.861 907.245)" fill="#e23744" opacity="0.17"/>
  </g>
</svg>
