<svg xmlns="http://www.w3.org/2000/svg" width="47.835" height="34.039" viewBox="0 0 47.835 34.039">
  <g id="child_1_" data-name="child (1)" transform="translate(0.25 0.25)">
    <g id="Group_11241" data-name="Group 11241" transform="translate(0 0)">
      <g id="Group_11240" data-name="Group 11240" transform="translate(0 0)">
        <path id="Path_7819" data-name="Path 7819" d="M38.984,87.55a7.073,7.073,0,1,0-7.9,0,12.228,12.228,0,0,0-3.8,2.1,5.219,5.219,0,0,0-7.246,0,12.236,12.236,0,0,0-3.8-2.1,7.073,7.073,0,1,0-7.9,0A12.319,12.319,0,0,0,0,99.174c0,.008,0,.016,0,.024,0,1.425.81,3.528,4.667,5.455a35.551,35.551,0,0,0,10.924,2.984,63.86,63.86,0,0,0,16.154,0,35.548,35.548,0,0,0,10.923-2.984c3.857-1.927,4.667-4.03,4.667-5.455A12.319,12.319,0,0,0,38.984,87.55ZM29.82,81.684A5.217,5.217,0,1,1,35.037,86.9,5.223,5.223,0,0,1,29.82,81.684ZM20.9,91.491a3.37,3.37,0,0,1,5.539,0h0a3.371,3.371,0,1,1-5.54,0ZM7.082,81.684A5.217,5.217,0,1,1,12.3,86.9,5.222,5.222,0,0,1,7.082,81.684Zm7.7,23.963A32.2,32.2,0,0,1,5.5,102.992c-2.341-1.169-3.633-2.512-3.64-3.783,0,0,0-.007,0-.011a10.441,10.441,0,0,1,17.1-8.046,5.226,5.226,0,0,0,1.379,6.283A8.9,8.9,0,0,0,14.785,105.648Zm15.91.248a62.282,62.282,0,0,1-14.055,0v-.228a7.027,7.027,0,0,1,14.055,0Zm11.143-2.9a32.194,32.194,0,0,1-9.287,2.655A8.9,8.9,0,0,0,27,97.435a5.224,5.224,0,0,0,1.379-6.283,10.441,10.441,0,0,1,17.1,8.046C45.478,100.472,44.185,101.82,41.838,102.992Z" transform="translate(0 -74.611)" fill="#02911c" stroke="#fff" stroke-width="0.5"/>
      </g>
      <ellipse id="Ellipse_124" data-name="Ellipse 124" cx="5.865" cy="5.865" rx="5.865" ry="5.865" transform="translate(6.211 0.959)" fill="#02911c" opacity="0.18"/>
      <ellipse id="Ellipse_125" data-name="Ellipse 125" cx="3.732" cy="4.266" rx="3.732" ry="4.266" transform="translate(19.008 14.822)" fill="#02911c" opacity="0.18"/>
      <ellipse id="Ellipse_126" data-name="Ellipse 126" cx="5.865" cy="5.865" rx="5.865" ry="5.865" transform="translate(28.605 0.959)" fill="#02911c" opacity="0.18"/>
    </g>
  </g>
</svg>
