<svg xmlns="http://www.w3.org/2000/svg" width="50.008" height="41.957" viewBox="0 0 50.008 41.957">
  <g id="Group_11275" data-name="Group 11275" transform="translate(0 22.344) rotate(-30)">
    <path id="Path_7791" data-name="Path 7791" d="M5.872.5c3.265,0,6.058-1.683,6.743,2.311,0,1.979,1.252,1.108-.353,2.373-.963.787.658-.247-.988-.247-.546,0,.609.84-2.024,0-.9,2.707-.638-.367-1.858,1-.257.288-.5-.318-1.18-.149a2.782,2.782,0,0,1-2.538-.6C3.138,4.6-.807,7.631.149,2.807.718-.068,1.088,1.4,1.088.5c.349-.462.819.14,1.41-.251C3.241-.427,3.172.5,5.872.5Z" transform="translate(15.661 8.345)" fill="#e23744" opacity="0.18"/>
    <path id="Path_7790" data-name="Path 7790" d="M41.616,8.291h-.437V5.48a3.271,3.271,0,0,0-3.271-3.271h0a3.253,3.253,0,0,0-2.208.856A3.98,3.98,0,0,0,31.838,0h-.053a3.98,3.98,0,0,0-3.974,3.974V8.291H16.978V3.974a3.991,3.991,0,0,0-7.864-.909A3.271,3.271,0,0,0,3.634,5.48V8.291h-.59a3.044,3.044,0,0,0,0,6.088h.59V17.19A3.271,3.271,0,0,0,6.9,20.461h0A3.253,3.253,0,0,0,9.113,19.6a3.974,3.974,0,0,0,3.861,3.065h.035a3.98,3.98,0,0,0,3.974-3.974V14.379H27.829V18.7a3.991,3.991,0,0,0,7.87.9,3.271,3.271,0,0,0,5.479-2.415v-2.8h.437a3.044,3.044,0,0,0,0-6.088ZM3.628,13.2h-.59a1.863,1.863,0,0,1,0-3.726h.59ZM9,17.19a2.09,2.09,0,0,1-2.09,2.09h0a2.09,2.09,0,0,1-2.09-2.09V13.812h0V8.9h0V5.48a2.1,2.1,0,1,1,4.192,0v11.7Zm6.8-8.326h0v4.866h0v4.884A2.793,2.793,0,0,1,13,21.406h-.03a2.793,2.793,0,0,1-2.793-2.793V3.974a2.81,2.81,0,0,1,5.615,0ZM27.829,13.2H16.978V9.472H27.829Zm6.8-7.718V18.69a2.81,2.81,0,0,1-5.615,0V3.974a2.793,2.793,0,0,1,2.775-2.793h.035a2.793,2.793,0,0,1,2.793,2.793V5.48ZM40,17.19a2.1,2.1,0,1,1-4.192,0V5.48A2.09,2.09,0,0,1,37.9,3.39h0a2.09,2.09,0,0,1,2.09,2.09v11.7Zm2.952-4.535a1.842,1.842,0,0,1-1.317.549h-.455V9.472h.437a1.862,1.862,0,0,1,1.317,3.177Z" transform="translate(0.007 -0.012)" fill="#e23744"/>
  </g>
</svg>
