<svg xmlns="http://www.w3.org/2000/svg" width="9.71" height="10.11" viewBox="0 0 9.71 10.11"><defs><style>.a{fill:#2d2d2d;}</style></defs><path class="a" d="M5.325,1.364,6.42,3.78a.528.528,0,0,0,.394.311l2.449.387a.584.584,0,0,1,.29.971L7.78,7.33a.6.6,0,0,0-.15.5l.418,2.655a.534.534,0,0,1-.759.6L5.1,9.836a.486.486,0,0,0-.487,0L2.422,11.09a.534.534,0,0,1-.759-.6l.418-2.655a.6.6,0,0,0-.15-.5L.159,5.45a.584.584,0,0,1,.29-.971L2.9,4.091a.528.528,0,0,0,.394-.311l1.1-2.416A.5.5,0,0,1,5.325,1.364Z" transform="translate(-0.001 -1.047)"/></svg>