<svg xmlns="http://www.w3.org/2000/svg" width="13.065" height="17.041" viewBox="0 0 13.065 17.041"><defs><style>.a{fill:#2d2d2d;}</style></defs><g transform="translate(0)"><g transform="translate(0)"><path class="a" d="M68.781,0h-12.5A.284.284,0,0,0,56,.284V16.757a.284.284,0,0,0,.284.284h9.088a.284.284,0,0,0,.2-.083l3.408-3.408a.284.284,0,0,0,.083-.2V.284A.284.284,0,0,0,68.781,0ZM65.656,16.071V13.632H68.1Zm2.84-3.007H65.372a.284.284,0,0,0-.284.284v3.124h-8.52V.568H68.5Z" transform="translate(-56)"/></g></g><g transform="translate(1.704 7.952)"><g transform="translate(0)"><path class="a" d="M105.42,224h-1.136a.284.284,0,1,0,0,.568h1.136a.284.284,0,1,0,0-.568Z" transform="translate(-104 -224)"/></g></g><g transform="translate(3.976 7.952)"><g transform="translate(0)"><path class="a" d="M175.1,224h-6.816a.284.284,0,1,0,0,.568H175.1a.284.284,0,1,0,0-.568Z" transform="translate(-168 -224)"/></g></g><g transform="translate(1.704 9.656)"><g transform="translate(0)"><path class="a" d="M105.42,272h-1.136a.284.284,0,1,0,0,.568h1.136a.284.284,0,1,0,0-.568Z" transform="translate(-104 -272)"/></g></g><g transform="translate(3.976 9.656)"><g transform="translate(0)"><path class="a" d="M175.1,272h-6.816a.284.284,0,1,0,0,.568H175.1a.284.284,0,1,0,0-.568Z" transform="translate(-168 -272)"/></g></g><g transform="translate(1.704 11.36)"><g transform="translate(0)"><path class="a" d="M105.42,320h-1.136a.284.284,0,1,0,0,.568h1.136a.284.284,0,1,0,0-.568Z" transform="translate(-104 -320)"/></g></g><g transform="translate(3.976 11.36)"><g transform="translate(0)"><path class="a" d="M175.1,320h-6.816a.284.284,0,1,0,0,.568H175.1a.284.284,0,1,0,0-.568Z" transform="translate(-168 -320)"/></g></g><g transform="translate(1.704 1.704)"><g transform="translate(0)"><path class="a" d="M107.394,52.128l-1-1,1-1a.284.284,0,1,0-.395-.409l-.007.007-1,1L104.97,49.7h.45a.852.852,0,1,0,0-1.7h-1.136a.284.284,0,0,0-.284.284v3.124a.284.284,0,1,0,.568,0v-1.3l1.018,1.018-1,1a.284.284,0,0,0,.395.409l.007-.007,1-1,1,1a.284.284,0,1,0,.409-.395Zm-2.826-3.56h.852a.284.284,0,1,1,0,.568h-.852Z" transform="translate(-104 -48)"/></g></g></svg>