<svg xmlns="http://www.w3.org/2000/svg" width="21.59" height="30.3" viewBox="0 0 21.59 30.3"><defs><style>.a{fill:#02911c;stroke:#fff;stroke-width:0.3px;}.b{fill:rgba(2,145,28,0.18);}</style></defs><g transform="translate(-9.85 -0.85)"><path class="a" d="M24.516,17.452h-.4A6.778,6.778,0,0,0,27.345,12.6a2.166,2.166,0,0,0,.075-4.313V7.774a6.774,6.774,0,1,0-13.548,0v.509a2.166,2.166,0,0,0,.075,4.313,6.776,6.776,0,0,0,3.228,4.856h-.4A6.782,6.782,0,0,0,10,24.226v2.9a.484.484,0,0,0,.484.484h.484V31h.968V27.613h1.935V31h.968V22.774h-.968v3.871h-2.9V24.226a5.813,5.813,0,0,1,5.806-5.806H17.3a3.383,3.383,0,0,0,6.7,0h.523a5.813,5.813,0,0,1,5.806,5.806v2.419h-2.9V22.774h-.968V31h.968V27.613h1.935V31h.968V27.613h.484a.484.484,0,0,0,.484-.484v-2.9A6.782,6.782,0,0,0,24.516,17.452Zm3.871-7.016a1.211,1.211,0,0,1-.968,1.185V9.25A1.212,1.212,0,0,1,28.387,10.435ZM20.645,1.968A5.809,5.809,0,0,1,26.44,7.541l-1.147.86a1.926,1.926,0,0,0-3.611.341H19.609A1.925,1.925,0,0,0,16,8.4l-1.147-.86a5.809,5.809,0,0,1,5.795-5.574Zm3.871,7.258a.968.968,0,1,1-.968-.968A.969.969,0,0,1,24.516,9.226Zm-5.806,0a.968.968,0,1,1-.968-.968A.969.969,0,0,1,18.71,9.226ZM12.9,10.435a1.211,1.211,0,0,1,.968-1.185v2.37A1.212,1.212,0,0,1,12.9,10.435Zm1.935,1.21v-2.9l.994.746a1.926,1.926,0,0,0,3.776.222h2.073a1.926,1.926,0,0,0,3.776-.222l.994-.746v2.9a5.806,5.806,0,1,1-11.613,0Zm5.806,8.71a2.424,2.424,0,0,1-2.37-1.935h4.741A2.424,2.424,0,0,1,20.645,20.355Z" transform="translate(0 0)"/><path class="a" d="M31.647,26.142a.482.482,0,0,0-.006-.487l-.747-1.245A2.917,2.917,0,0,0,28.4,23h-2.1a2.918,2.918,0,0,0-2.49,1.41l-.747,1.245a.484.484,0,0,0,.415.733h.675a6.218,6.218,0,0,0,3.2-.88,6.221,6.221,0,0,0,3.2.88h.675A.484.484,0,0,0,31.647,26.142Zm-4.023-1.609a.483.483,0,0,0-.537,0,5.263,5.263,0,0,1-2.746.884l.305-.509a1.943,1.943,0,0,1,1.659-.94h2.1a1.945,1.945,0,0,1,1.66.94l.305.509A5.258,5.258,0,0,1,27.624,24.533Z" transform="translate(-6.71 -11.355)"/><path class="a" d="M29,11h2.9v.968H29Z" transform="translate(-9.806 -5.161)"/><path class="b" d="M317.888,582.356s1.1-1.975,1.9-2.15a7.521,7.521,0,0,1,3.588,0,2.216,2.216,0,0,1,1.725,1.587c.225.538.338.738.338.738a23.533,23.533,0,0,1-2.538-.25,6.611,6.611,0,0,1-1.337-.75,9.731,9.731,0,0,1-1.95.912A7.266,7.266,0,0,1,317.888,582.356Z" transform="translate(-301 -568)"/><path class="a" d="M27,7h4.839v.968H27Z" transform="translate(-8.774 -3.097)"/><path class="b" d="M318.744,579.947s.244.434,1.044.259a19.067,19.067,0,0,1,4.669-.159c.2.225-.606,2.188-1.081,2.05s-1.794.825-1.794.825a5.692,5.692,0,0,0-1.969-.478C319.038,582.544,318.744,579.947,318.744,579.947Z" transform="translate(-301 -562)"/></g></svg>