<svg xmlns="http://www.w3.org/2000/svg" width="19.646" height="17.479" viewBox="0 0 19.646 17.479"><defs><style>.a{fill:#d3d3d3;}</style></defs><path class="a" d="M9.823,17.479a1.152,1.152,0,0,1-.759-.285C8.27,16.5,7.5,15.848,6.83,15.272l0,0a41.547,41.547,0,0,1-4.878-4.578A7.313,7.313,0,0,1,0,5.9,6.141,6.141,0,0,1,1.559,1.711,5.283,5.283,0,0,1,5.488,0,4.942,4.942,0,0,1,8.575,1.066a6.316,6.316,0,0,1,1.248,1.3,6.316,6.316,0,0,1,1.248-1.3A4.942,4.942,0,0,1,14.158,0a5.283,5.283,0,0,1,3.93,1.711A6.14,6.14,0,0,1,19.647,5.9,7.312,7.312,0,0,1,17.7,10.691a41.542,41.542,0,0,1-4.877,4.578c-.676.576-1.443,1.229-2.238,1.925a1.153,1.153,0,0,1-.759.285ZM5.488,1.151A4.145,4.145,0,0,0,2.4,2.491,5,5,0,0,0,1.151,5.9,6.153,6.153,0,0,0,2.835,9.957a40.884,40.884,0,0,0,4.738,4.437l0,0c.678.578,1.446,1.232,2.245,1.931.8-.7,1.574-1.356,2.253-1.935a40.9,40.9,0,0,0,4.738-4.436A6.153,6.153,0,0,0,18.5,5.9a5,5,0,0,0-1.254-3.414,4.145,4.145,0,0,0-3.084-1.34,3.817,3.817,0,0,0-2.383.825,5.585,5.585,0,0,0-1.328,1.537.726.726,0,0,1-1.248,0A5.579,5.579,0,0,0,7.871,1.976a3.817,3.817,0,0,0-2.383-.825Zm0,0" transform="translate(0 0)"/></svg>