<svg xmlns="http://www.w3.org/2000/svg" width="28.183" height="29.741" viewBox="0 0 28.183 29.741"><defs><style>.a{fill:#02911c;}</style></defs><g transform="translate(0)"><g transform="translate(0)"><path class="a" d="M14.074,29.773A14.259,14.259,0,0,1,.161,17.434,14.712,14.712,0,0,1,9.68,1.19l.285.957A13.727,13.727,0,0,0,1.012,16.423,13.476,13.476,0,0,0,12.34,28.735a13.115,13.115,0,0,0,14.084-8.7A14.021,14.021,0,0,0,21.476,3.784l-.331-.2.5-.8.322.211a14.97,14.97,0,0,1,5.58,16.455,14.153,14.153,0,0,1-13.5,10.348Z" transform="translate(0.018 -0.051)"/><path class="a" d="M21.567,6.2,24.978,0,19.02.89Z" transform="translate(-1.517)"/><rect class="a" width="9.524" height="0.919" transform="translate(14.332 24.744) rotate(-89.89)"/><path class="a" d="M.01.109,9.235-.042,9.22.907,0,1.059Z" transform="translate(13.804 14.728) rotate(-26.77)"/><path class="a" d="M.109.01,1.059,0,.908,9.21l-.95.015Z" transform="matrix(0.45, -0.893, 0.893, 0.45, 5.64, 11.477)"/><path class="a" d="M10.2,18.666,6.03,11.707l.781-.507,3.714,6.2,3.806-2.115.432.842Z" transform="translate(-0.47 -0.479)"/><path class="a" d="M14.714,25.572,6.09,21.035V10.946L14.723,6.38l8.6,4.537V21.093Zm-7.7-5.121L14.723,24.5l7.677-4V11.511L14.723,7.462,7.009,11.539Z" transform="translate(-0.475 -0.273)"/></g></g></svg>