<svg xmlns="http://www.w3.org/2000/svg" width="30.571" height="30.517" viewBox="0 0 30.571 30.517"><defs><style>.a,.b{fill:#02911c;}.a{opacity:0.18;}</style></defs><g transform="translate(0.396)"><rect class="a" width="15" height="16" rx="1" transform="translate(13.604 1.305)"/><path class="b" d="M32.169,21.18a2.033,2.033,0,0,0-1-1.587V2.509a.506.506,0,0,0-.5-.509H16.584a.506.506,0,0,0-.5.509V14.716h-.588a1.478,1.478,0,0,0-1.066.448l-2.932,2.965a.5.5,0,0,1-.357.148H10.047V17.259a.506.506,0,0,0-.5-.509H2.5a.506.506,0,0,0-.5.509v14.75a.506.506,0,0,0,.5.509H9.544a.506.506,0,0,0,.5-.509V30.991h1.172a.491.491,0,0,1,.3.1L13,32.212a1.485,1.485,0,0,0,.905.305H27.145a2,2,0,0,0,1.423-.6,2.044,2.044,0,0,0,.588-1.439,2.018,2.018,0,0,0-.342-1.129,2.032,2.032,0,0,0,1.348-1.923,2.018,2.018,0,0,0-.342-1.129,2.032,2.032,0,0,0,1.348-1.923,2.018,2.018,0,0,0-.342-1.129,2.035,2.035,0,0,0,1.343-2.07ZM9.041,31.5H3.006V17.767H9.041ZM17.087,3.017H30.163V19.293H29.157V6.069a.506.506,0,0,0-.5-.509,1.015,1.015,0,0,1-1.006-1.017.506.506,0,0,0-.5-.509H20.1a.506.506,0,0,0-.5.509A1.015,1.015,0,0,1,18.6,5.56a.506.506,0,0,0-.5.509V19.293h-.5a.506.506,0,0,1-.5-.509ZM28.151,6.511V19.293H19.1V6.511a2.028,2.028,0,0,0,1.443-1.46h6.166a2.028,2.028,0,0,0,1.443,1.46Zm2.721,15.533a.992.992,0,0,1-.709.3H22.116a.509.509,0,0,0,0,1.017h7.041a1.017,1.017,0,0,1,0,2.034H22.116a.509.509,0,0,0,0,1.017h6.035a1.017,1.017,0,0,1,0,2.034H22.116a.509.509,0,0,0,0,1.017h5.029a1.017,1.017,0,0,1,0,2.034H13.9a.491.491,0,0,1-.3-.1l-1.479-1.119a1.485,1.485,0,0,0-.905-.305H10.047V19.293h1.091a1.478,1.478,0,0,0,1.066-.448l2.932-2.965a.5.5,0,0,1,.357-.148h.588v3.052A1.522,1.522,0,0,0,17.59,20.31H30.077a1.07,1.07,0,0,1,1.086.941A1.011,1.011,0,0,1,30.872,22.045Z" transform="translate(-2 -2)"/><path class="b" d="M8.509,52a1.526,1.526,0,1,0,1.509,1.526A1.517,1.517,0,0,0,8.509,52Zm0,2.034a.509.509,0,1,1,.5-.509A.506.506,0,0,1,8.509,54.034Z" transform="translate(-4.485 -26.569)"/><path class="b" d="M41.52,20a3.561,3.561,0,1,0,3.52,3.56A3.541,3.541,0,0,0,41.52,20Zm0,6.1a2.543,2.543,0,1,1,2.515-2.543A2.529,2.529,0,0,1,41.52,26.1Z" transform="translate(-19.895 -10.845)"/><rect class="a" width="8" height="14" rx="1" transform="translate(-0.396 15.305)"/></g></svg>