<svg xmlns="http://www.w3.org/2000/svg" width="21.758" height="34.513" viewBox="0 0 21.758 34.513"><defs><style>.a{fill:#02911c;stroke:#fff;stroke-width:0.3px;}.b{fill:rgba(2,145,28,0.18);}</style></defs><g transform="translate(-95.397 0.15)"><g transform="translate(103.043 31.979)"><path class="a" d="M213.663,478.6a.668.668,0,0,0-.869.372.781.781,0,0,1-.724.479h-2.441a.781.781,0,0,1-.724-.479.668.668,0,0,0-1.241.5,2.1,2.1,0,0,0,1.964,1.318h2.441a2.1,2.1,0,0,0,1.964-1.318A.668.668,0,0,0,213.663,478.6Z" transform="translate(-207.616 -478.556)"/></g><g transform="translate(95.555)"><path class="a" d="M116.937,28.584a3.3,3.3,0,0,0-1.582-2.224,3.321,3.321,0,0,0,1.188-3.073,8.425,8.425,0,0,0-4.673-6.337,7.665,7.665,0,0,0-3.5-12.62,2.891,2.891,0,0,0,.677-1.866A2.467,2.467,0,0,0,106.581,0h0a2.238,2.238,0,0,0-1.446.5,1.824,1.824,0,0,0-.658,1.416.668.668,0,0,0,1.336,0A.494.494,0,0,1,106,1.524a.905.905,0,0,1,.585-.188h0a1.129,1.129,0,0,1,1.128,1.127,1.576,1.576,0,0,1-1.576,1.576h0l-.048,0a7.665,7.665,0,0,0-5.4,12.907,8.425,8.425,0,0,0-4.673,6.337A3.321,3.321,0,0,0,97.2,26.36a3.3,3.3,0,0,0-.942,4.885l1.431,1.829a2.979,2.979,0,0,0,2.347,1.136,2.948,2.948,0,0,0,1.477-.394,2.984,2.984,0,0,0,1.27-3.683l-.868-2.154a3.293,3.293,0,0,0-.2-.414h4.9a.668.668,0,1,0,0-1.336h-6.172V24.82a.329.329,0,0,1,.329-.329h11.017a.329.329,0,0,1,.329.329v1.5a3.3,3.3,0,0,0-1.473,1.658l-.868,2.154a2.984,2.984,0,0,0,1.27,3.683,2.948,2.948,0,0,0,1.477.394,2.979,2.979,0,0,0,2.347-1.136l1.431-1.829A3.3,3.3,0,0,0,116.937,28.584ZM99.944,11.71a6.333,6.333,0,1,1,6.333,6.333A6.34,6.34,0,0,1,99.944,11.71Zm.729,16.769.868,2.154a1.634,1.634,0,0,1-2.8,1.618l-1.431-1.829a1.962,1.962,0,1,1,3.365-1.943Zm11.116-6.661a.668.668,0,0,0-.668.668v.668h-9.685v-.668a.668.668,0,0,0-1.336,0v.809a1.668,1.668,0,0,0-1,1.525v.944a1.991,1.991,0,0,1-1.771-2.278,7.055,7.055,0,0,1,4.458-5.56,7.652,7.652,0,0,0,8.973,0,7.055,7.055,0,0,1,4.458,5.56,1.991,1.991,0,0,1-1.771,2.278V24.82a1.667,1.667,0,0,0-.993-1.523v-.811A.668.668,0,0,0,111.789,21.818Zm3.455,8.6-1.431,1.829a1.634,1.634,0,0,1-2.8-1.618l.868-2.154a1.962,1.962,0,1,1,3.365,1.943Z" transform="translate(-95.555)"/><path class="b" d="M107.843,30.72l-3.855-.217-1.349-.819-1.566-3.445-.964-2.385-.891-.337V21.565l1.06-.723H111.12l.94.578.337,1.4-.145.843-1.373,1.156L109.7,27.805l-.217,1.638Z" transform="translate(-95.04 2.927)"/></g><g transform="translate(104.186 13.842)"><path class="a" d="M228.658,207.3a.668.668,0,0,0-.94.1,1.16,1.16,0,0,1-1.8,0,.668.668,0,0,0-1.038.842,2.5,2.5,0,0,0,3.881,0A.668.668,0,0,0,228.658,207.3Z" transform="translate(-224.726 -207.151)"/></g><g transform="translate(102.193 10.782)"><path class="a" d="M197.292,161.811a1.557,1.557,0,0,0-2.2,0,.668.668,0,0,0,.945.945.219.219,0,0,1,.309,0,.668.668,0,1,0,.945-.945Z" transform="translate(-194.898 -161.357)"/></g><g transform="translate(107.769 10.782)"><path class="a" d="M280.735,161.811a1.557,1.557,0,0,0-2.2,0,.668.668,0,0,0,.945.945.219.219,0,0,1,.309,0,.668.668,0,0,0,.945-.945Z" transform="translate(-278.34 -161.356)"/></g></g></svg>