<svg xmlns="http://www.w3.org/2000/svg" width="17.296" height="17.296" viewBox="0 0 17.296 17.296"><defs><style>.a{fill:#c7c7c7;}</style></defs><path class="a" d="M13.59,9.883a3.694,3.694,0,0,0-2.981,1.525L7.235,9.721a3.656,3.656,0,0,0,.177-1.074,3.656,3.656,0,0,0-.177-1.074l3.373-1.687a3.691,3.691,0,1,0-.725-2.181,3.656,3.656,0,0,0,.177,1.074L6.688,6.467a3.706,3.706,0,1,0,0,4.362l3.373,1.687a3.655,3.655,0,0,0-.177,1.074A3.706,3.706,0,1,0,13.59,9.883Zm0-8.648a2.471,2.471,0,1,1-2.471,2.471A2.474,2.474,0,0,1,13.59,1.235ZM3.706,11.119A2.471,2.471,0,1,1,6.177,8.648,2.474,2.474,0,0,1,3.706,11.119ZM13.59,16.06a2.471,2.471,0,1,1,2.471-2.471A2.474,2.474,0,0,1,13.59,16.06Z" transform="translate(0 0)"/></svg>