<svg xmlns="http://www.w3.org/2000/svg" width="17.179" height="16.427" viewBox="0 0 17.179 16.427"><defs><style>.a{fill:#ffb31a;}</style></defs><path class="a" d="M9.419,1.562l1.938,3.926a.925.925,0,0,0,.7.506l4.333.63A.925.925,0,0,1,16.9,8.2l-3.135,3.056a.925.925,0,0,0-.266.819l.74,4.315a.925.925,0,0,1-1.342.975L9.021,15.329a.926.926,0,0,0-.861,0L4.284,17.366a.925.925,0,0,1-1.342-.975l.74-4.315a.925.925,0,0,0-.266-.819L.281,8.2A.925.925,0,0,1,.794,6.624l4.333-.63a.925.925,0,0,0,.7-.506L7.761,1.562A.925.925,0,0,1,9.419,1.562Z" transform="translate(-0.001 -1.047)"/></svg>