<svg xmlns="http://www.w3.org/2000/svg" width="10.11" height="10.11" viewBox="0 0 10.11 10.11"><defs><style>.a{fill:#2d2d2d;}</style></defs><path class="a" d="M5.544,1.364,6.684,3.78a.547.547,0,0,0,.41.311l2.55.387a.576.576,0,0,1,.3.971L8.1,7.33a.586.586,0,0,0-.156.5l.435,2.655a.55.55,0,0,1-.79.6L5.309,9.836a.524.524,0,0,0-.507,0L2.522,11.09a.55.55,0,0,1-.79-.6l.435-2.655a.586.586,0,0,0-.156-.5L.166,5.45a.576.576,0,0,1,.3-.971l2.55-.387a.547.547,0,0,0,.41-.311l1.14-2.416A.534.534,0,0,1,5.544,1.364Z" transform="translate(-0.001 -1.047)"/></svg>