<svg xmlns="http://www.w3.org/2000/svg" width="10.056" height="10.012" viewBox="0 0 10.056 10.012"><defs><style>.a{fill:#ffb31a;}</style></defs><path class="a" d="M5.514,1.361,6.649,3.754a.543.543,0,0,0,.408.308l2.536.384a.57.57,0,0,1,.3.962L8.058,7.27a.578.578,0,0,0-.156.5l.433,2.63a.547.547,0,0,1-.786.594L5.281,9.752a.523.523,0,0,0-.5,0L2.508,10.993a.546.546,0,0,1-.786-.594l.433-2.63A.578.578,0,0,0,2,7.27L.165,5.407a.57.57,0,0,1,.3-.962L3,4.062a.543.543,0,0,0,.408-.308L4.543,1.361A.532.532,0,0,1,5.514,1.361Z" transform="translate(-0.001 -1.047)"/></svg>