<svg xmlns="http://www.w3.org/2000/svg" width="18.792" height="22.246" viewBox="0 0 18.792 22.246"><defs><style>.a,.b{fill:#02911c;}.b{stroke:#02911c;stroke-width:0.2px;}.c{fill:rgba(2,145,28,0.25);}</style></defs><g transform="translate(-39.97 0.108)"><g transform="translate(44.457 10.21)"><g transform="translate(0)"><path class="a" d="M153.353,236.141a.324.324,0,0,0-.324.324v6.059a4.9,4.9,0,0,1-4.9,4.9h-1.5a4.9,4.9,0,0,1-4.9-4.9v-1.488a.324.324,0,0,0-.649,0v1.488a5.551,5.551,0,0,0,5.544,5.544h1.5a5.551,5.551,0,0,0,5.544-5.544v-6.059A.324.324,0,0,0,153.353,236.141Z" transform="translate(-141.087 -236.141)"/></g></g><g transform="translate(40.09 0)"><g transform="translate(0 0)"><path class="b" d="M55.606,10.243a.324.324,0,0,0-.324.324v6.026A3.782,3.782,0,0,1,51.5,20.372H50a3.783,3.783,0,0,1-3.778-3.779l0-4.1a4.458,4.458,0,0,0,3.11-2.381.885.885,0,0,0-.041-.866.907.907,0,0,0-.174-.205c.013-.055.026-.11.037-.166l1.429-5.606,0-.019a1.724,1.724,0,0,0-1.286-2l-.446-.108a1.339,1.339,0,0,0-.467-.689,1.957,1.957,0,0,0-.98-.447,1.27,1.27,0,1,0-.293,2.524,1.443,1.443,0,0,0,.167.009,2.039,2.039,0,0,0,.89-.219,1.363,1.363,0,0,0,.6-.532l.381.093a1.076,1.076,0,0,1,.8,1.24L48.522,8.728l0,.019c-.005.026-.011.052-.016.078a.894.894,0,0,0-.773.489,2.669,2.669,0,0,1-2.374,1.475,2.637,2.637,0,0,1-2.366-1.459.918.918,0,0,0-.781-.5c-.006-.026-.011-.052-.016-.078,0-.006,0-.013,0-.019L40.757,3.123a1.076,1.076,0,0,1,.8-1.24l.38-.092a1.785,1.785,0,0,0,1.49.751,1.407,1.407,0,0,0,.163-.009A1.27,1.27,0,1,0,43.3.008a1.958,1.958,0,0,0-.98.447,1.339,1.339,0,0,0-.467.689l-.446.108a1.724,1.724,0,0,0-1.286,2l0,.019,1.429,5.606c.011.056.023.111.037.166a.906.906,0,0,0-.179.213.885.885,0,0,0-.037.858,4.458,4.458,0,0,0,3.081,2.375V13.6a.324.324,0,0,0,.324.324h0a.324.324,0,0,0,.324-.324V12.328a.451.451,0,0,0-.378-.446,3.806,3.806,0,0,1-2.771-2.055.237.237,0,0,1,.011-.233.247.247,0,0,1,.205-.121h.007a.266.266,0,0,1,.228.149,3.283,3.283,0,0,0,2.946,1.816A3.322,3.322,0,0,0,48.31,9.6a.248.248,0,0,1,.429-.01.237.237,0,0,1,.012.235A3.806,3.806,0,0,1,45.99,11.88h-.01a.451.451,0,0,0-.407.45l0,4.262A4.432,4.432,0,0,0,50,21.02h1.5a4.431,4.431,0,0,0,4.426-4.426V10.568A.324.324,0,0,0,55.606,10.243Zm-7.375-8.86c-.014.121-.146.256-.352.36a1.326,1.326,0,0,1-.689.145A.622.622,0,1,1,47.333.652a1.326,1.326,0,0,1,.638.3A.577.577,0,0,1,48.231,1.383ZM43.376.652a.622.622,0,1,1,.144,1.235c-.417.048-1.011-.239-1.042-.5S42.958.7,43.376.652Z" transform="translate(-40.09 0)"/></g></g><g transform="translate(53.433 4.188)"><path class="a" d="M351.327,96.867a2.665,2.665,0,1,0,2.665,2.665A2.668,2.668,0,0,0,351.327,96.867Zm0,4.681a2.016,2.016,0,1,1,2.016-2.016A2.018,2.018,0,0,1,351.327,101.548Z" transform="translate(-348.662 -96.867)"/></g><path class="c" d="M2.184.44a2.118,2.118,0,0,1,2.337,2.19,2.272,2.272,0,0,1-2.166,2.54,2.214,2.214,0,0,1-2.5-2.139A2.438,2.438,0,0,1,2.184.44Z" transform="translate(53.926 4.062)"/></g></svg>