<svg xmlns="http://www.w3.org/2000/svg" width="16.451" height="19.718" viewBox="0 0 16.451 19.718"><defs><style>.a{fill:#02911c;}.b{fill:rgba(2,145,28,0.25);}</style></defs><path class="a" d="M91.781,9.5a4.6,4.6,0,0,0,3.358-1.391A4.6,4.6,0,0,0,96.53,4.749a4.6,4.6,0,0,0-1.391-3.358,4.748,4.748,0,0,0-6.716,0,4.6,4.6,0,0,0-1.391,3.358,4.6,4.6,0,0,0,1.391,3.358A4.6,4.6,0,0,0,91.781,9.5ZM89.24,2.208a3.593,3.593,0,0,1,5.082,0,3.434,3.434,0,0,1,1.053,2.541A3.433,3.433,0,0,1,94.322,7.29a3.592,3.592,0,0,1-5.082,0,3.433,3.433,0,0,1-1.053-2.541A3.433,3.433,0,0,1,89.24,2.208Zm0,0" transform="translate(-83.679 0)"/><path class="a" d="M16.411,252.954a11.731,11.731,0,0,0-.16-1.246,9.816,9.816,0,0,0-.306-1.253,6.188,6.188,0,0,0-.515-1.168,4.4,4.4,0,0,0-.776-1.012,3.424,3.424,0,0,0-1.116-.7,3.856,3.856,0,0,0-1.424-.258,1.446,1.446,0,0,0-.772.327c-.231.151-.5.325-.8.518a4.609,4.609,0,0,1-1.04.458,4.04,4.04,0,0,1-2.545,0,4.594,4.594,0,0,1-1.04-.458c-.3-.191-.57-.366-.8-.519a1.444,1.444,0,0,0-.772-.327,3.851,3.851,0,0,0-1.424.258,3.421,3.421,0,0,0-1.116.7,4.405,4.405,0,0,0-.776,1.012,6.2,6.2,0,0,0-.515,1.168A9.839,9.839,0,0,0,.2,251.708a11.651,11.651,0,0,0-.16,1.246c-.026.377-.039.768-.039,1.164A3.274,3.274,0,0,0,.972,256.6a3.5,3.5,0,0,0,2.506.914h9.495a3.5,3.5,0,0,0,2.506-.914,3.273,3.273,0,0,0,.973-2.477C16.451,253.722,16.438,253.33,16.411,252.954Zm-1.729,2.8a2.357,2.357,0,0,1-1.709.6H3.478a2.357,2.357,0,0,1-1.709-.6,2.138,2.138,0,0,1-.614-1.64c0-.369.012-.734.037-1.085a10.508,10.508,0,0,1,.144-1.122,8.679,8.679,0,0,1,.269-1.1,5.047,5.047,0,0,1,.419-.95,3.265,3.265,0,0,1,.571-.748,2.271,2.271,0,0,1,.742-.461,2.659,2.659,0,0,1,.91-.176c.04.022.113.063.229.139.238.155.511.331.814.525a5.725,5.725,0,0,0,1.306.584,5.194,5.194,0,0,0,3.256,0,5.732,5.732,0,0,0,1.307-.584c.31-.2.576-.369.813-.524.117-.076.189-.117.229-.139a2.661,2.661,0,0,1,.91.176,2.275,2.275,0,0,1,.742.461,3.256,3.256,0,0,1,.571.748,5.03,5.03,0,0,1,.419.95,8.659,8.659,0,0,1,.27,1.1,10.6,10.6,0,0,1,.144,1.122h0c.025.349.037.714.037,1.084A2.138,2.138,0,0,1,14.682,255.759Zm0,0" transform="translate(0 -237.792)"/><ellipse class="b" cx="4.5" cy="4" rx="4.5" ry="4" transform="translate(3.644 0.859)"/></svg>