<svg xmlns="http://www.w3.org/2000/svg" width="77.365" height="77.365" viewBox="0 0 77.365 77.365"><defs><style>.a{fill:#02911c;}</style></defs><g transform="translate(0 0)"><path class="a" d="M38.682,77.364A38.683,38.683,0,0,1,11.329,11.329,38.683,38.683,0,0,1,66.035,66.035a38.43,38.43,0,0,1-27.353,11.33Zm0-72.832a34.15,34.15,0,1,0,34.15,34.15A34.188,34.188,0,0,0,38.682,4.532Zm0,0" transform="translate(0.001 0.001)"/><path class="a" d="M143.706,195.554a2.26,2.26,0,0,1-1.6-.664l-12.138-12.139a2.266,2.266,0,0,1,3.205-3.205l10.537,10.536,17.934-18.016a2.267,2.267,0,0,1,3.205,3.206L145.309,194.89a2.26,2.26,0,0,1-1.6.663Zm0,0" transform="translate(-109.763 -143.795)"/></g></svg>