<svg xmlns="http://www.w3.org/2000/svg" width="14.763" height="14.763" viewBox="0 0 14.763 14.763">
  <g id="call-answer" transform="matrix(0.996, 0.087, -0.087, 0.996, 1.188, 0)">
    <path id="Path" d="M13.322,10.779l-2.1-2.11A1.1,1.1,0,0,0,9.67,8.7L8.61,9.761,8.4,9.644A10.552,10.552,0,0,1,5.85,7.8,10.634,10.634,0,0,1,4,5.235c-.039-.071-.077-.14-.114-.2L4.6,4.318l.35-.351a1.1,1.1,0,0,0,.028-1.551L2.873.306A1.094,1.094,0,0,0,1.326.335l-.593.6L.749.949a3.44,3.44,0,0,0-.489.864,3.589,3.589,0,0,0-.217.876C-.235,5,.818,7.109,3.675,9.973c3.949,3.958,7.132,3.659,7.269,3.644a3.549,3.549,0,0,0,.877-.221,3.416,3.416,0,0,0,.859-.488l.013.012.6-.59A1.1,1.1,0,0,0,13.322,10.779Z" transform="translate(0 0)" fill="#00861a"/>
  </g>
</svg>
