<svg id="chat-comment-oval-speech-bubble-with-text-lines" xmlns="http://www.w3.org/2000/svg" width="16.191" height="16.191" viewBox="0 0 16.191 16.191">
  <g id="_x32__26_">
    <g id="Group_812" data-name="Group 812">
      <path id="Path_866" data-name="Path 866" d="M10.626,8.6H5.566a.506.506,0,0,0,0,1.012h5.06a.506.506,0,1,0,0-1.012Zm1.012-3.036H4.554a.506.506,0,1,0,0,1.012h7.084a.506.506,0,0,0,0-1.012ZM8.1,0C3.625,0,0,3.171,0,7.084a6.78,6.78,0,0,0,3.036,5.525v3.583l3.546-2.152a9.284,9.284,0,0,0,1.513.128c4.471,0,8.1-3.171,8.1-7.084S12.567,0,8.1,0Zm0,13.156a8.188,8.188,0,0,1-1.71-.186L4,14.4l.032-2.347A5.867,5.867,0,0,1,1.012,7.084c0-3.353,3.171-6.072,7.084-6.072s7.084,2.719,7.084,6.072S12.008,13.156,8.1,13.156Z" transform="translate(0)" fill="#c7c7c7"/>
    </g>
  </g>
</svg>
