<svg xmlns="http://www.w3.org/2000/svg" width="28.336" height="22.088" viewBox="0 0 28.336 22.088">
  <g id="noun_filter_409907" transform="translate(-140.9 87)">
    <path id="Path_4916" data-name="Path 4916" d="M35.889,20.761H10.281A1.385,1.385,0,0,1,8.9,19.381h0A1.385,1.385,0,0,1,10.281,18H35.854a1.385,1.385,0,0,1,1.381,1.381h0A1.334,1.334,0,0,1,35.889,20.761Zm-2.45,8.283h0a1.385,1.385,0,0,0-1.381-1.381H14.111a1.385,1.385,0,0,0-1.381,1.381h0a1.385,1.385,0,0,0,1.381,1.381H32.058A1.385,1.385,0,0,0,33.439,29.044Zm-5.177,9.664h0a1.385,1.385,0,0,0-1.381-1.381H19.288a1.385,1.385,0,0,0-1.381,1.381h0a1.385,1.385,0,0,0,1.381,1.381h7.593A1.385,1.385,0,0,0,28.262,38.708Z" transform="translate(132 -105)" fill="#2e2e2e"/>
  </g>
</svg>
