<svg id="undraw_ice_cream_s2rh" xmlns="http://www.w3.org/2000/svg" width="145.914" height="140.698" viewBox="0 0 145.914 140.698">
  <path id="Path_8495" data-name="Path 8495" d="M384.7,582.886l-41.083.136c-10.9-3.275-19.829-14.65-19.885-31.7a48.3,48.3,0,0,1,.58-7.673l33.09-7.434,25.527-5.735a50.774,50.774,0,0,1,5.244,5.452l-24.41,12.889L352.246,554.9l12.94-4.464,26.857-9.265a65.12,65.12,0,0,1,4.466,8.007l-8.1,8.375,9.167-6,.117.276C403.5,565.617,396.29,582.848,384.7,582.886Z" transform="translate(-300.289 -445.703)" fill="#2e2e2e" opacity="0.1"/>
  <path id="Path_8496" data-name="Path 8496" d="M381.43,480.282c-6.213,1.784-13.851,4.039-21.7,6.382-11.355,3.389-23.158,6.965-31.752,9.579l.006-.031a11.812,11.812,0,0,1,2.179-5.059c6.366-8.277,14.472-14.059,23.493-16.206h0a33.859,33.859,0,0,1,7.743-.924A35.719,35.719,0,0,1,381.43,480.282Z" transform="translate(-303.773 -399.369)" fill="#f2f2f2"/>
  <ellipse id="Ellipse_174" data-name="Ellipse 174" cx="27.96" cy="4.033" rx="27.96" ry="4.033" transform="translate(23.073 132.633)" fill="#2e2e2e" opacity="0.1"/>
  <path id="Path_8497" data-name="Path 8497" d="M229.229,548.4v6.273l4.481.538L236.4,551.8l-2.151-4.3Z" transform="translate(-188.143 -449.37)" fill="#fbbebe"/>
  <path id="Path_8498" data-name="Path 8498" d="M324.229,694.859l2.33,6.273,4.3-1.434-3.226-5.2Z" transform="translate(-266.116 -570.022)" fill="#fbbebe"/>
  <path id="Path_8499" data-name="Path 8499" d="M383.687,454.124s-23.3-2.33-22.583,4.122,10.933,24.914,10.933,24.914l6.811-1.255s-4.839-7.528-4.481-10.037-1.075-5.915-1.075-5.915l3.405.538,1.972,3.047,4.122,21.15,6.273,19,4.66-1.255s-2.509-7.886-1.792-10.4-3.405-12.188-3.405-12.188L391.394,469s5.556-1.613,3.943-7.169S383.687,454.124,383.687,454.124Z" transform="translate(-330.951 -382.699)" fill="#02911c"/>
  <path id="Path_8500" data-name="Path 8500" d="M397.031,619.65s-2.689-2.151-2.509-1.255a6.432,6.432,0,0,1,0,1.972l-2.509,5.556s-6.094,5.556-.538,5.735S399.9,626.1,399.9,626.1s7.707-5.735,6.811-6.632-5.6-2.954-5.6-2.954S399.54,620.9,397.031,619.65Z" transform="translate(-353.974 -516.322)" fill="#e23744"/>
  <path id="Path_8501" data-name="Path 8501" d="M486,765.956s-2.509-2.33-2.689-1.255-.358,2.509-.358,2.509l-3.764,3.585s-5.377,5.2-.717,5.377a9.01,9.01,0,0,0,7.169-3.047s6.811-1.434,6.452-2.509-2.156-5.236-2.96-5.4S488.154,767.39,486,765.956Z" transform="translate(-425.74 -637.715)" fill="#e23744"/>
  <circle id="Ellipse_175" data-name="Ellipse 175" cx="5.556" cy="5.556" r="5.556" transform="translate(46.104 34.502)" fill="#fbbebe"/>
  <path id="Path_8502" data-name="Path 8502" d="M467.178,296.255s2.33,6.273,2.151,6.811,7.349-4.481,7.349-4.481-3.226-.717-3.226-3.585Z" transform="translate(-418.027 -252.432)" fill="#fbbebe"/>
  <path id="Path_8503" data-name="Path 8503" d="M559.838,353a35.109,35.109,0,0,1,3.764,4.3c.538,1.075,12.726,14.7,12.726,14.7s8.065,9.5,4.839,9.679-7.349-7.528-7.349-7.528-11.471-8.424-12.009-10.4l-6.632-6.811Z" transform="translate(-490.254 -300.036)" fill="#fbbebe"/>
  <path id="Path_8504" data-name="Path 8504" d="M459.247,316.7h-1.972l-2.689,4.3s-2.689,2.33-.717,7.169a106.805,106.805,0,0,1,3.585,10.933s5.736.717,6.811,2.509,7.169,7.528,7.169,7.528a30.118,30.118,0,0,0,.717-9.32c-.358-5.556,0-13.98,0-13.98l-.358-11.112s-6.923-1.6-7.4-1.34S459.247,316.7,459.247,316.7Z" transform="translate(-406.511 -267.501)" fill="#10c330"/>
  <path id="Path_8505" data-name="Path 8505" d="M542.178,321.538l2.689-.538s2.868,1.792,5.556,6.99c0,0-5.735,3.764-6.273,3.585S542.178,321.538,542.178,321.538Z" transform="translate(-479.584 -273.772)" fill="#10c330"/>
  <path id="Path_8506" data-name="Path 8506" d="M435.958,388.717s-4.122,6.632-2.868,9.141,2.868,2.33,2.868,2.33S439,399.65,439,397.141s1.255-2.689,1.255-2.689S448.145,388,445.1,388s-7.169,4.481-7.169,4.481l-.179-4.122Z" transform="translate(-389.854 -328.763)" fill="#fbbebe"/>
  <path id="Path_8507" data-name="Path 8507" d="M448.631,355a4.717,4.717,0,0,0-3.226,3.585,15.65,15.65,0,0,0-.358,4.3l3.585-.358Z" transform="translate(-399.839 -301.678)" fill="#10c330"/>
  <path id="Path_8508" data-name="Path 8508" d="M437.178,419.985s2.868-3.764,3.226-3.226Z" transform="translate(-393.404 -352.325)" opacity="0.1"/>
  <path id="Path_8509" data-name="Path 8509" d="M452.642,235.914s-2.947-2.944-5.783-.967-4.158,3.859-3.841,5.138a18.676,18.676,0,0,0,1.2,3.045s-.59-2.651,1.795-2.91a20.759,20.759,0,0,0,5.646-1.928L454.017,243s.287-1.114,1.171-.819S455.228,236.2,452.642,235.914Z" transform="translate(-398.159 -202.582)" fill="#2f2e41"/>
  <path id="Path_8510" data-name="Path 8510" d="M352.649,766.2c0,2.613-1.554,3.526-3.47,3.526h-.133q-.133,0-.264-.012c-1.73-.122-3.073-1.082-3.073-3.512,0-2.515,3.214-5.689,3.456-5.924h0l.014-.014S352.649,763.589,352.649,766.2Z" transform="translate(-318.329 -634.305)" fill="#02911c"/>
  <path id="Path_8511" data-name="Path 8511" d="M357.978,769.329l1.269-1.773-1.272,1.968,0,.2c-.089,0-.177-.006-.264-.012l.137-2.615v-.02l0,0,.013-.247-1.276-1.973,1.28,1.788,0,.052.1-1.976-1.092-2.039,1.105,1.692.108-4.1v0l-.018,3.23,1.087-1.28-1.092,1.559-.029,1.769,1.015-1.7-1.019,1.958-.016.983,1.474-2.363-1.479,2.706Z" transform="translate(-327.255 -634.306)" fill="#3f3d56"/>
  <path id="Path_8512" data-name="Path 8512" d="M642.23,277.166s-1.1,3.429-2.824,8.355c-.556,1.6-1.18,3.357-1.852,5.206-.936,2.575-1.967,5.329-3.047,8.083-.664,1.7-1.346,3.388-2.036,5.042-3.708,8.865-7.658,16.546-10.245,16.654-5.814.241-18.267-38.657-19.626-42.955-.08-.251-.121-.385-.121-.385Z" transform="translate(-529.078 -237.794)" fill="#e23744"/>
  <path id="Path_8513" data-name="Path 8513" d="M729.5,285.521c-.556,1.6-1.18,3.357-1.852,5.206l-15.4-13.561h7.763Z" transform="translate(-619.175 -237.794)" opacity="0.1"/>
  <path id="Path_8514" data-name="Path 8514" d="M634.508,298.81c-.664,1.7-1.346,3.388-2.036,5.042L602.6,277.55c-.08-.251-.121-.385-.121-.385h7.447Z" transform="translate(-529.078 -237.794)" opacity="0.1"/>
  <path id="Path_8515" data-name="Path 8515" d="M681.65,62.42c-1.822,1.443-4.7.9-6.455,2.426A4.6,4.6,0,0,0,674,69.237a12.774,12.774,0,0,0,2.069,4.265,10.983,10.983,0,0,0,2.076,2.538,10.313,10.313,0,0,0,4.2,1.793,52.255,52.255,0,0,0,9.9,1.435c1.488.072,3.174,0,4.177-1.1a4.858,4.858,0,0,0,.99-2.372,6.646,6.646,0,0,0-.137-4,6.765,6.765,0,0,0-2.216-2.46c-2.779-2.126-6.052-3.887-7.748-6.948-.674-1.217-1.09-2.626-2.112-3.57a6.073,6.073,0,0,0-5.864-.912C679.576,58.455,682.743,61.555,681.65,62.42Z" transform="translate(-587.684 -57.5)" fill="#02911c"/>
  <path id="Path_8516" data-name="Path 8516" d="M628.293,131.282a11.411,11.411,0,0,0-.583,5.752,8.07,8.07,0,0,0,5.2,5.282,23.838,23.838,0,0,0,7.6,1.112l13.451.5a16.242,16.242,0,0,1,5,.714c1.309.479,2.866,1.268,3.957.4a3.1,3.1,0,0,0,.893-1.638,9.384,9.384,0,0,0,.123-6.056,8.056,8.056,0,0,0-5.309-4.311,38.224,38.224,0,0,0-6.988-1.013,42.121,42.121,0,0,1-7.026-1.391,12.08,12.08,0,0,1-5.29-2.691c-.769-.761-1.351-1.689-2.076-2.492C633.088,120.852,629.314,127.741,628.293,131.282Z" transform="translate(-549.64 -112.015)" fill="#02911c"/>
  <path id="Path_8517" data-name="Path 8517" d="M592.749,202.8a8.325,8.325,0,0,0-1.737,14.146,13.266,13.266,0,0,0,7.325,2.353,62.839,62.839,0,0,0,7.622-.069l22.466-1.113c1.317-.065,2.807-.217,3.611-1.262a3.734,3.734,0,0,0,.492-2.829,9.7,9.7,0,0,0-6.537-7.664,18.985,18.985,0,0,0-3.944-.651l-9.631-.9a22.722,22.722,0,0,1-3.858-.586c-3.808-1.035-7.212-4.058-11.133-3.61-2.66.3-4.85,2.166-6.783,4.019" transform="translate(-517.052 -174.929)" fill="#02911c"/>
  <path id="Path_8518" data-name="Path 8518" d="M685.467,128.361s3.143,5.675,19.267,7.967" transform="translate(-597.191 -115.66)" opacity="0.1"/>
  <path id="Path_8519" data-name="Path 8519" d="M635.707,211.293s5.841,5.908,29.947,5.908" transform="translate(-556.35 -183.728)" opacity="0.1"/>
  <ellipse id="Ellipse_176" data-name="Ellipse 176" cx="1.539" cy="0.513" rx="1.539" ry="0.513" transform="translate(91.353 8.854)" fill="#3f3d56"/>
  <ellipse id="Ellipse_177" data-name="Ellipse 177" cx="1.539" cy="0.513" rx="1.539" ry="0.513" transform="translate(96.482 12.188)" fill="#3f3d56"/>
  <ellipse id="Ellipse_178" data-name="Ellipse 178" cx="1.539" cy="0.513" rx="1.539" ry="0.513" transform="translate(102.38 15.778)" fill="#02911c"/>
  <ellipse id="Ellipse_179" data-name="Ellipse 179" cx="1.539" cy="0.513" rx="1.539" ry="0.513" transform="translate(81.864 17.317)" fill="#3f3d56"/>
  <ellipse id="Ellipse_180" data-name="Ellipse 180" cx="1.539" cy="0.513" rx="1.539" ry="0.513" transform="translate(94.943 22.189)" fill="#3f3d56"/>
  <ellipse id="Ellipse_181" data-name="Ellipse 181" cx="1.539" cy="0.513" rx="1.539" ry="0.513" transform="translate(76.479 32.191)" fill="#3f3d56"/>
  <ellipse id="Ellipse_182" data-name="Ellipse 182" cx="1.539" cy="0.513" rx="1.539" ry="0.513" transform="translate(86.224 22.702)" fill="#3f3d56"/>
  <ellipse id="Ellipse_183" data-name="Ellipse 183" cx="1.539" cy="0.513" rx="1.539" ry="0.513" transform="translate(80.326 36.038)" fill="#3f3d56"/>
  <ellipse id="Ellipse_184" data-name="Ellipse 184" cx="1.539" cy="0.513" rx="1.539" ry="0.513" transform="translate(90.327 33.729)" fill="#3f3d56"/>
  <path id="Path_8520" data-name="Path 8520" d="M731.486,358.646a11.312,11.312,0,0,1,2.168-4.094c1.659-2.191,4.923-5.452,11.048-8.542a27.78,27.78,0,0,0,14.226-16.961l.31.07a24.4,24.4,0,0,1-2.746,6.347,28.452,28.452,0,0,1-11.647,10.827c-11.585,5.843-13.034,12.351-13.048,12.416Z" transform="translate(-634.962 -280.378)" fill="#3f3d56"/>
  <circle id="Ellipse_187" data-name="Ellipse 187" cx="2.066" cy="2.066" r="2.066" transform="translate(122.494 43.363)" fill="#02911c"/>
  <circle id="Ellipse_188" data-name="Ellipse 188" cx="2.066" cy="2.066" r="2.066" transform="translate(122.085 53.385)" fill="#02911c"/>
  <circle id="Ellipse_189" data-name="Ellipse 189" cx="2.066" cy="2.066" r="2.066" transform="translate(115.366 54.088)" fill="#02911c"/>
  <circle id="Ellipse_190" data-name="Ellipse 190" cx="2.066" cy="2.066" r="2.066" transform="translate(116.41 60.907)" fill="#02911c"/>
  <circle id="Ellipse_191" data-name="Ellipse 191" cx="2.066" cy="2.066" r="2.066" transform="translate(106.746 61.047)" fill="#02911c"/>
  <path id="Path_8521" data-name="Path 8521" d="M736.3,481.079s1.943-5.133,9.079-3.716Z" transform="translate(-638.916 -401.906)" fill="#02911c"/>
  <path id="Path_8522" data-name="Path 8522" d="M715.362,445.631s2.987-4.6-2.38-9.517Z" transform="translate(-619.775 -368.253)" fill="#02911c"/>
  <path id="Path_8523" data-name="Path 8523" d="M774.839,412.047,771.42,410.7,768,409.348l2.878-2.287,2.878-2.287.541,3.636Z" transform="translate(-630.349 -332.226)" fill="#f2f2f2"/>
  <path id="Path_8524" data-name="Path 8524" d="M6.839,282.047,3.42,280.7,0,279.349l2.878-2.287,2.878-2.287.541,3.636Z" transform="translate(0 -225.526)" fill="#f2f2f2"/>
  <path id="Path_8525" data-name="Path 8525" d="M679.839,523.047,676.42,521.7,673,520.349l2.878-2.287,2.878-2.287.541,3.636Z" transform="translate(-552.376 -423.331)" fill="#f2f2f2"/>
  <path id="Path_8526" data-name="Path 8526" d="M784.524,609.531l-3.23,1.756-3.229,1.756.094-3.675.094-3.675,3.136,1.919Z" transform="translate(-638.61 -497.132)" fill="#f2f2f2"/>
  <path id="Path_8527" data-name="Path 8527" d="M105.524,217.531l-3.23,1.756-3.229,1.756.094-3.675.094-3.675,3.136,1.919Z" transform="translate(-81.309 -175.392)" fill="#f2f2f2"/>
</svg>
