<svg id="information_1_" data-name="information (1)" xmlns="http://www.w3.org/2000/svg" width="22.662" height="22.662" viewBox="0 0 22.662 22.662">
  <g id="Group_10067" data-name="Group 10067">
    <g id="Group_10066" data-name="Group 10066">
      <path id="Path_4897" data-name="Path 4897" d="M11.331,0A11.331,11.331,0,1,0,22.662,11.331,11.325,11.325,0,0,0,11.331,0Zm0,20.892a9.561,9.561,0,1,1,9.561-9.561A9.555,9.555,0,0,1,11.331,20.892Z" fill="#2e2e2e"/>
    </g>
  </g>
  <g id="Group_10069" data-name="Group 10069" transform="translate(10.446 9.487)">
    <g id="Group_10068" data-name="Group 10068">
      <path id="Path_4898" data-name="Path 4898" d="M236.885,214.33a.885.885,0,0,0-.885.885v5.7a.885.885,0,1,0,1.77,0v-5.7A.885.885,0,0,0,236.885,214.33Z" transform="translate(-236 -214.33)" fill="#2e2e2e"/>
    </g>
  </g>
  <g id="Group_10071" data-name="Group 10071" transform="translate(10.136 6.013)">
    <g id="Group_10070" data-name="Group 10070">
      <circle id="Ellipse_29" data-name="Ellipse 29" cx="1.195" cy="1.195" r="1.195" fill="#2e2e2e"/>
    </g>
  </g>
</svg>
