<svg id="Unliked" xmlns="http://www.w3.org/2000/svg" width="17.826" height="16.19" viewBox="0 0 17.826 16.19">
  <path id="heart" d="M8.789,15.639a1.031,1.031,0,0,1-.68-.255c-.71-.621-1.395-1.2-2-1.719l0,0a37.172,37.172,0,0,1-4.364-4.1A6.543,6.543,0,0,1,0,5.283,5.494,5.494,0,0,1,1.395,1.53,4.727,4.727,0,0,1,4.911,0,4.421,4.421,0,0,1,7.672.953,5.65,5.65,0,0,1,8.789,2.119,5.651,5.651,0,0,1,9.906.953,4.421,4.421,0,0,1,12.667,0a4.727,4.727,0,0,1,3.516,1.53,5.494,5.494,0,0,1,1.394,3.752,6.542,6.542,0,0,1-1.743,4.282,37.168,37.168,0,0,1-4.364,4.1c-.605.516-1.291,1.1-2,1.722a1.032,1.032,0,0,1-.679.255ZM4.911,1.03a3.708,3.708,0,0,0-2.759,1.2A4.469,4.469,0,0,0,1.03,5.283,5.5,5.5,0,0,0,2.536,8.908a36.58,36.58,0,0,0,4.239,3.97l0,0c.606.517,1.294,1.1,2.009,1.728.72-.627,1.408-1.213,2.016-1.731a36.589,36.589,0,0,0,4.239-3.969,5.505,5.505,0,0,0,1.506-3.626,4.469,4.469,0,0,0-1.122-3.054,3.708,3.708,0,0,0-2.759-1.2,3.415,3.415,0,0,0-2.132.738A5,5,0,0,0,9.347,3.143a.65.65,0,0,1-1.117,0A4.992,4.992,0,0,0,7.042,1.768,3.415,3.415,0,0,0,4.911,1.03Zm0,0" transform="translate(0 0)" fill="#c7c7c7"/>
</svg>
