<svg id="right_1_" data-name="right (1)" xmlns="http://www.w3.org/2000/svg" width="7.787" height="5.125" viewBox="0 0 7.787 5.125">
  <g id="Group_215" data-name="Group 215" transform="translate(0 0)">
    <path id="Path_171" data-name="Path 171" d="M7.74,87.782l-2.434-2.4a.164.164,0,0,0-.177-.035.16.16,0,0,0-.1.148v.32a.159.159,0,0,0,.048.113l1.67,1.648H.162a.161.161,0,0,0-.162.16v.32a.161.161,0,0,0,.162.16H6.747l-1.67,1.648a.159.159,0,0,0-.048.113v.32a.16.16,0,0,0,.1.148.164.164,0,0,0,.177-.035l2.434-2.4A.159.159,0,0,0,7.74,87.782Z" transform="translate(0 -85.333)" fill="#e23744"/>
  </g>
</svg>
