<svg xmlns="http://www.w3.org/2000/svg" width="208" height="208" viewBox="0 0 208 208">
  <g id="Group_12317" data-name="Group 12317" transform="translate(-783 -689)">
    <circle id="Ellipse_173" data-name="Ellipse 173" cx="104" cy="104" r="104" transform="translate(783 689)" fill="#fbfbfb"/>
    <g id="yoga" transform="translate(832 728.946)">
      <path id="Path_8381" data-name="Path 8381" d="M107.482,108.629H92.058a7.112,7.112,0,0,0-5.189-5.206L83.16,102.5l4.688-22.738a9,9,0,0,0-5.871-10.3c-10.49-3.64-6.9-2.029-16.551-4.232,3.358-2.041,7.983-4.962,9.427-6.405,1.691-1.693,6.836-6.845,6.836-11.773a10.271,10.271,0,0,0-1.249-4.564l26.935-26.935a6.193,6.193,0,1,0-8.759-8.759A1.706,1.706,0,0,0,101.028,9.2a2.781,2.781,0,0,1,3.934,3.934l-31.39,31.39a1.708,1.708,0,0,0,1.206,2.912c.925,0,1.194-.487,3.076-2.369a5.754,5.754,0,0,1,.422,1.978c0,2.333-1.964,5.483-5.847,9.371-1.381,1.381-7.656,5.267-11.849,7.731l-5.771-.721a1.706,1.706,0,1,0-.423,3.385l6.248.781c14.509,3.558,8.8,1.16,20.253,5.1a5.582,5.582,0,0,1,3.62,6.379L82.338,89.59H76.755l.9-7.895A1.706,1.706,0,0,0,76.115,79.8c-20.36-1.847-18.452.4-25.438-2.037a13.291,13.291,0,0,1-1.641-.677c-4.171-2.159-5.068-8.411-3.75-11.926a44.668,44.668,0,0,0,4.785-3.936,1.706,1.706,0,0,0-2.339-2.484,38.735,38.735,0,0,1-4.1,3.391c-.429.1-.549.241-2.246,1.356-4.242,2.787-3.419,2.245-25.416,20.735L2.649,93.115A5.9,5.9,0,0,0,.408,100.2c2.762,7.127,2.758,7.341,3.527,8.43H1.713a1.706,1.706,0,0,0,0,3.412h105.77a1.706,1.706,0,0,0,0-3.412ZM41.325,67.641c-.274,4.314,1.363,9.147,4.929,11.726C39.91,82.318,31.4,85.705,20.956,91.09l-1.928-4.976C35.929,71.905,38.754,69.442,41.325,67.641ZM4.543,95.953l11.631-7.76,1.784,4.6-7.918,5.043a1.706,1.706,0,0,0-.764,1.731l1.574,9.045a4.649,4.649,0,0,1-4.664-2.952l-2.6-6.7a2.509,2.509,0,0,1,.953-3.013Zm8.289,4.153c7.757-4.94,8.918-6.185,28.261-14.691,3.488-1.534,6.53-2.874,9.174-4.192,7,2.224,6.505.347,23.8,1.825-2.483,21.76-1.864,17.526-2.887,21.616a5.9,5.9,0,0,0,.385,3.965H14.314Zm64.108,8.523a2.524,2.524,0,0,1-2.449-3.137c1.094-4.374.618-1.471,1.875-12.489h5.269l-2.146,10.406a1.706,1.706,0,0,0,1.257,2l5.3,1.325a3.707,3.707,0,0,1,2.4,1.9Z" transform="translate(0)" fill="#dadada"/>
      <path id="Path_8382" data-name="Path 8382" d="M254.4,22.206a14.612,14.612,0,0,0,3.9,8.925,60.033,60.033,0,0,1-7.026,17.161,1.706,1.706,0,1,0,2.91,1.781,62.887,62.887,0,0,0,7.014-16.5,15.24,15.24,0,0,0,2.7,1.391l.951.713-2.506,2.506a1.706,1.706,0,0,0,2.413,2.413l21.871-21.871a16.915,16.915,0,0,0,4.987-12.04,1.706,1.706,0,0,0-3.412,0,13.526,13.526,0,0,1-3.988,9.627l-7.408,7.408c0-3.962.292-6.222-1.439-9.27a11.35,11.35,0,0,0-14.933-4.376,6.1,6.1,0,0,0-10.945,1.012l-1.144,3.251a5.957,5.957,0,0,0,6.054,7.87Zm17.454-6.9a8.685,8.685,0,0,1-6.966,3.586,1.71,1.71,0,1,0-.122,3.416,12.208,12.208,0,0,0,8.563-3.487c.091.664.067.242.067,8.306l-5.4,5.4a12.007,12.007,0,0,1-5.861-2.493l1.436-3.563A1.706,1.706,0,0,0,260.4,25.2l-.821,2.039a11.159,11.159,0,0,1-1.81-6.108c0-.217-.024-.158.12-.276a5.994,5.994,0,0,0,1.869-2.635c1.143-3.245,1.371-3.732,1.456-4.67a7.99,7.99,0,0,1,10.64,1.756Zm-20.291.161,1.144-3.251a2.622,2.622,0,0,1,2.488-1.714,2.541,2.541,0,0,1,2.489,3.335c-1.112,3.156-1.185,3.975-2.276,4.6A2.6,2.6,0,0,1,251.568,15.471Z" transform="translate(-195.124 -0.002)" fill="#dadada"/>
      <path id="Path_8391" data-name="Path 8391" d="M26.34,30.353l8.5-18.306L40.4,15.48,36.637,21.2,43.5,26.757l3.432-3.432s1.961,3.269,1.144,6.047-.981,5.23-3.269,6.7-14.22,10.787-14.22,10.787,3.759.817,8.172,1.961S49.713,51.6,51.02,52.909s4.576,2.779,3.923,6.047-3.105,14.71-3.105,14.71l-9.48-1.307,2.452-9.807H23.888s-8.009-1.471-10.3-4.9-1.634-12.095-1.634-12.095l6.374-4.9Z" transform="translate(31.604 18.833)" fill="#dadada" opacity="0.17"/>
    </g>
  </g>
</svg>
