<svg id="Group_11990" data-name="Group 11990" xmlns="http://www.w3.org/2000/svg" width="28.183" height="29.741" viewBox="0 0 28.183 29.741">
  <g id="Layer_2" data-name="Layer 2" transform="translate(0)">
    <g id="Layer_1" data-name="Layer 1" transform="translate(0)">
      <path id="Path_8305" data-name="Path 8305" d="M14.074,29.773A14.259,14.259,0,0,1,.161,17.434,14.712,14.712,0,0,1,9.68,1.19l.285.957A13.727,13.727,0,0,0,1.012,16.423,13.476,13.476,0,0,0,12.34,28.735a13.115,13.115,0,0,0,14.084-8.7A14.021,14.021,0,0,0,21.476,3.784l-.331-.2.5-.8.322.211a14.97,14.97,0,0,1,5.58,16.455,14.153,14.153,0,0,1-13.5,10.348Z" transform="translate(0.018 -0.051)" fill="#02911c"/>
      <path id="Path_8306" data-name="Path 8306" d="M21.567,6.2,24.978,0,19.02.89Z" transform="translate(-1.517)" fill="#02911c"/>
      <rect id="Rectangle_17716" data-name="Rectangle 17716" width="9.524" height="0.919" transform="translate(14.332 24.744) rotate(-89.89)" fill="#02911c"/>
      <path id="Path_8445" data-name="Path 8445" d="M.01.109,9.235-.042,9.22.907,0,1.059Z" transform="translate(13.804 14.728) rotate(-26.77)" fill="#02911c"/>
      <path id="Path_8446" data-name="Path 8446" d="M.109.01,1.059,0,.908,9.21l-.95.015Z" transform="matrix(0.45, -0.893, 0.893, 0.45, 5.64, 11.477)" fill="#02911c"/>
      <path id="Path_8307" data-name="Path 8307" d="M10.2,18.666,6.03,11.707l.781-.507,3.714,6.2,3.806-2.115.432.842Z" transform="translate(-0.47 -0.479)" fill="#02911c"/>
      <path id="Path_8308" data-name="Path 8308" d="M14.714,25.572,6.09,21.035V10.946L14.723,6.38l8.6,4.537V21.093Zm-7.7-5.121L14.723,24.5l7.677-4V11.511L14.723,7.462,7.009,11.539Z" transform="translate(-0.475 -0.273)" fill="#02911c"/>
    </g>
  </g>
  <path id="Path_8309" data-name="Path 8309" d="M.446-.36,9.535,3.85l-.3,9.535L.7,9.146Z" transform="translate(5.48 11.502)" fill="#02911c" opacity="0.18"/>
</svg>
