<svg xmlns="http://www.w3.org/2000/svg" xmlns:xlink="http://www.w3.org/1999/xlink" width="160.585" height="110.508" viewBox="0 0 160.585 110.508">
  <defs>
    <linearGradient id="linear-gradient" x1="0.5" y1="1" x2="0.5" gradientUnits="objectBoundingBox">
      <stop offset="0" stop-color="gray" stop-opacity="0.251"/>
      <stop offset="0.54" stop-color="gray" stop-opacity="0.122"/>
      <stop offset="1" stop-color="gray" stop-opacity="0.102"/>
    </linearGradient>
  </defs>
  <g id="undraw_successful_purchase_uyin" transform="translate(0 0.079)">
    <rect id="Rectangle_17720" data-name="Rectangle 17720" width="11.962" height="4.486" rx="2.243" transform="translate(49.342 11.446)" fill="#02911c" opacity="0.1"/>
    <rect id="Rectangle_17721" data-name="Rectangle 17721" width="11.962" height="4.486" rx="2.243" transform="translate(84.928 7.409)" fill="#02911c" opacity="0.1"/>
    <rect id="Rectangle_17722" data-name="Rectangle 17722" width="11.962" height="4.486" rx="2.243" transform="translate(78.349 53.013)" fill="#02911c" opacity="0.1"/>
    <rect id="Rectangle_17723" data-name="Rectangle 17723" width="11.962" height="4.486" rx="2.243" transform="translate(83.732 57.947)" fill="#02911c" opacity="0.1"/>
    <rect id="Rectangle_17724" data-name="Rectangle 17724" width="11.962" height="4.486" rx="2.243" transform="translate(115.729 55.704)" fill="#02911c" opacity="0.1"/>
    <rect id="Rectangle_17725" data-name="Rectangle 17725" width="11.962" height="4.486" rx="2.243" transform="translate(18.391 59.292)" fill="#02911c" opacity="0.1"/>
    <rect id="Rectangle_17726" data-name="Rectangle 17726" width="11.962" height="4.486" rx="2.243" transform="translate(74.611 62.881)" fill="#02911c" opacity="0.1"/>
    <path id="Path_8312" data-name="Path 8312" d="M484.991,107.677l-5.481-15.912-1.971.3-1.764.226c.045-.6.123-2.745-.972-3.871a2.941,2.941,0,0,0-.924-1.317c-2.623-2.4-3.168,2.513-3.168,2.513s-.6,1.038-1.422,2.488l-.432-.082-.123,1.071a86.949,86.949,0,0,0-4.248,8,5.405,5.405,0,0,1-.327,1.53s-1.857,3.059-2.513,4.59a7.34,7.34,0,0,1-1.645,2.4s-.159.121-.419.3a3.738,3.738,0,0,1,.15-.854,21.5,21.5,0,0,0,.943-2.256,2.637,2.637,0,0,0,.039-.585,12.6,12.6,0,0,0-.616-2.815c-.223-1.093-.1-2.3-.686-3.246a3.35,3.35,0,0,0-2.071-1.385,15.907,15.907,0,0,0-2.273-.2c-.7-.075-1.374-.386-2.077-.5a2.681,2.681,0,0,0-1.139,0c-1.189.327-1.561,1.826-2.479,2.65-.33.3-.736.505-1.035.833a2.5,2.5,0,0,0-.564,1.794,3.824,3.824,0,0,0,.039.653c.114.782.416,1.522.6,2.289a7.925,7.925,0,0,1,.223,1.733c0,.132,0,.263-.012.393a1.38,1.38,0,0,1-.2.748,2.111,2.111,0,0,1-.683.486,5.3,5.3,0,0,1-1.722-2.443s-.04.051-.109.15v-.15a11.51,11.51,0,0,1-1.722-3.988l.52.054,1.2-16.829-3.055-.449a6.971,6.971,0,0,0-.932-3.049c.513-1.011.772-2.379-1.477-2.515-2.632-.16-2.47,1.89-2.19,3.011a7.542,7.542,0,0,0-.15,1.862l-2.691-.392-.015.218h-.64L432.79,102.3l1.669-.084,6.115.637c.489,4.445,1.257,9.939,2.17,11.234a1.106,1.106,0,0,0,.1.124v7.866s-.109,10.167-1.968,11.8a9.719,9.719,0,0,1,3.556-.558q-.031.1-.063.215a19.074,19.074,0,0,0-.567,3.062q-.039.342-.07.715a38.553,38.553,0,0,0,.094,6.838c.766,8.086,1.968,13.879,1.968,13.879l.335,4.7s-.327,7.977.546,10.6a3.958,3.958,0,0,0,1.118.725c.007.075.016.15.024.229s.019.2.03.307c-.392.178-1.123.884-1.281,3.656a6.837,6.837,0,0,1-.327,3.059c-.546.982-.218,3.825,1.42,4.152a8.757,8.757,0,0,0,3.168,0s.766,0,.218-2.732l-.1-.7a9.216,9.216,0,0,1,.314-3.234,1.558,1.558,0,0,0-.218-1.748s-.054.03-.142.07a12.926,12.926,0,0,1-.259-2.917,2.092,2.092,0,0,1,.022-.232,4.6,4.6,0,0,0,.926-.638V162.946s-.109-15.954,1.093-16.283a71.8,71.8,0,0,1,.327,8.633,27.121,27.121,0,0,0,.327,5.9l.218,11.583s.209.1.547.218l-.022.211c-.133,1.287-.347,3.231-.541,4.421a.879.879,0,0,0-.531.613c-.327,1.093-.109,3.825-.766,4.59a2.4,2.4,0,0,0-.624,2.008c-.142.567-.079,1.452,1.607,1.6a4.219,4.219,0,0,0,3.606-1.093,1.925,1.925,0,0,0,0-1.53,6.4,6.4,0,0,1,.109-2.732s.235-1.483-.15-1.678c-.033-.176-.063-.289-.063-.289a1.316,1.316,0,0,0-.345-.909,18.9,18.9,0,0,1,.44-4.653c.024-.079.048-.15.073-.232a2.953,2.953,0,0,0,.924-.324,11.446,11.446,0,0,1,.656-4.261c.766-1.748.327-8.742.327-8.742a8.239,8.239,0,0,1,.135-3.327,32.643,32.643,0,0,0,1.187-5.054l.644-4.514a18.472,18.472,0,0,0-.538-11.135q-.137-.35-.3-.7c-.185-.405-.392-.812-.622-1.216-.036-.063-.075-.127-.112-.19l.368-.093s-2.95-6.878-1.093-10.381a4.554,4.554,0,0,0,1.2-2.2c.185-1.521.387-3.04.719-4.535l.058-.263s.009-.051.024-.142c.042-.027.082-.055.123-.085,3.149-2.3,5.864-11.9,5.864-11.9l.875-1.645.416-.879-.852,7.436,6.666,1.645,4.261-.327-.012-.917,3.248-.253ZM442.736,86l-1.184-.173c-.208-1.069-.348-1.77-.348-1.77a6.5,6.5,0,0,0,.656-.982,6.808,6.808,0,0,1,.876,2.92Zm-4.423-2.3c.082.281.157.462.157.462l.15,1.234-.4-.058a8.1,8.1,0,0,1,.1-1.643Zm37.35,8.614-1.6.206a6.01,6.01,0,0,0,.342-2.738,1.374,1.374,0,0,0,.44-1.144,5.655,5.655,0,0,1,.821,3.671ZM473,90.609a3.971,3.971,0,0,0,1.305-.734,6.075,6.075,0,0,1-.368,2.661l-1.5.191-.413-.079Z" transform="translate(-377.499 -80.5)" fill="url(#linear-gradient)"/>
    <path id="Path_8313" data-name="Path 8313" d="M669.033,94.579l-3.9,1.628L660.6,80.4l1.063-1.262,1.948-.3Z" transform="translate(-561.826 -67.119)" fill="#6c63ff"/>
    <path id="Path_8314" data-name="Path 8314" d="M669.033,94.579l-3.9,1.628L660.6,80.4l1.063-1.262,1.948-.3Z" transform="translate(-561.826 -67.119)" fill="#8f0611"/>
    <path id="Path_8315" data-name="Path 8315" d="M629.2,80.86l-6.77.869,3.47,16.722,6.769-.526Z" transform="translate(-529.364 -68.837)" fill="#6c63ff"/>
    <path id="Path_8316" data-name="Path 8316" d="M629.2,80.86l-6.77.869,3.47,16.722,6.769-.526Z" transform="translate(-529.364 -68.837)" fill="#e23744"/>
    <path id="Path_8317" data-name="Path 8317" d="M706.787,137.685l-.108-.013c0-.04.449-3.988-2.029-4.486l.021-.106C707.255,133.6,706.8,137.645,706.787,137.685Z" transform="translate(-608.71 -125.286)" fill="#535461"/>
    <rect id="Rectangle_17727" data-name="Rectangle 17727" width="7.458" height="10.917" transform="translate(73.032 23.922)" fill="#774e55"/>
    <rect id="Rectangle_17728" data-name="Rectangle 17728" width="7.458" height="10.917" transform="translate(73.032 23.922)" opacity="0.2"/>
    <path id="Path_8318" data-name="Path 8318" d="M645.535,106.208l-4.215.324.649-16.428,1.4-.864,1.945.324Z" transform="translate(-545.429 -75.964)" fill="#6c63ff"/>
    <path id="Path_8319" data-name="Path 8319" d="M645.535,106.208l-4.215.324.649-16.428,1.4-.864,1.945.324Z" transform="translate(-545.429 -75.964)" fill="#8f0611"/>
    <path id="Path_8320" data-name="Path 8320" d="M605.875,81.858l-6.7-1.3L597.23,97.529l6.592,1.621Z" transform="translate(-507.932 -68.582)" fill="#e23744"/>
    <path id="Path_8321" data-name="Path 8321" d="M374.619,35.03h-.973L371.7,52l4.323-.215Z" transform="translate(-316.123 -29.86)" fill="#6c63ff"/>
    <path id="Path_8322" data-name="Path 8322" d="M374.619,35.03h-.973L371.7,52l4.323-.215Z" transform="translate(-316.123 -29.86)" fill="#8f0611"/>
    <path id="Path_8323" data-name="Path 8323" d="M382.289,33.58,381.1,50.657l10.375,1.081,1.189-16.645Z" transform="translate(-324.118 -28.626)" fill="#e23744"/>
    <path id="Path_8324" data-name="Path 8324" d="M524.071,706.808s-1.3-.108-1.513,3.675a6.747,6.747,0,0,1-.324,3.026c-.541.973-.217,3.783,1.405,4.107a8.665,8.665,0,0,0,3.14,0s.757,0,.217-2.7l-1.081-7.89Z" transform="translate(-453.363 -613.229)" fill="#5c3d53"/>
    <path id="Path_8325" data-name="Path 8325" d="M524.071,706.808s-1.3-.108-1.513,3.675a6.747,6.747,0,0,1-.324,3.026c-.541.973-.217,3.783,1.405,4.107a8.665,8.665,0,0,0,3.14,0s.757,0,.217-2.7l-1.081-7.89Z" transform="translate(-453.363 -613.229)" opacity="0.05"/>
    <path id="Path_8326" data-name="Path 8326" d="M548.245,254.846a7.235,7.235,0,0,0,.229,2.542l-2.809.757s-4.647.649-2.81-1.2a4.948,4.948,0,0,0,1.084-2.877,15.953,15.953,0,0,0,.079-2.368,21.1,21.1,0,0,0-.191-2.213s6.809-2.377,5.3,1.513a13.838,13.838,0,0,0-.65,2.168A11.431,11.431,0,0,0,548.245,254.846Z" transform="translate(-470.74 -223.678)" fill="#f8bdc5"/>
    <path id="Path_8327" data-name="Path 8327" d="M557.1,251.013a13.831,13.831,0,0,0-.65,2.168,4.656,4.656,0,0,1-4.454-1.468,21.135,21.135,0,0,0-.191-2.213S558.609,247.122,557.1,251.013Z" transform="translate(-478.714 -223.686)" opacity="0.1"/>
    <circle id="Ellipse_157" data-name="Ellipse 157" cx="4.647" cy="4.647" r="4.647" transform="translate(72.114 20.085)" fill="#f8bdc5"/>
    <path id="Path_8328" data-name="Path 8328" d="M477.548,110.855v1.405l-2.377,6.16-.649-.649a1.09,1.09,0,0,1-.1-.123c-1.57-2.231-2.712-17.062-2.712-17.062L470.2,88.047s-1.621-3.888,1.944-3.675.757,3.566.757,3.566,2.377,11.888,2.053,12.321,0,1.73,0,1.73a12.7,12.7,0,0,1,.864,4.323C475.707,108.148,477.548,110.855,477.548,110.855Z" transform="translate(-409.001 -83.853)" fill="#f8bdc5"/>
    <path id="Path_8329" data-name="Path 8329" d="M623.851,128.242l-5.62,11.888-.864,1.618s-2.691,9.5-5.8,11.772a2.842,2.842,0,0,1-.577.333l-.649-5.188.6-1.507.045-.115a7.259,7.259,0,0,0,1.621-2.377c.649-1.513,2.487-4.539,2.487-4.539a5.344,5.344,0,0,0,.324-1.513c0-.649,6.16-11.349,6.16-11.349s.54-4.864,3.14-2.487S623.851,128.242,623.851,128.242Z" transform="translate(-528.501 -117.668)" fill="#f8bdc5"/>
    <path id="Path_8330" data-name="Path 8330" d="M536.342,701.47s-3.675,1.513-3.243.108a11.233,11.233,0,0,0,.049-3.589c-.075-.734-.158-1.269-.158-1.269l3.14.324a2.543,2.543,0,0,0-.181.86A15.136,15.136,0,0,0,536.342,701.47Z" transform="translate(-462.717 -604.649)" fill="#f8bdc5"/>
    <path id="Path_8331" data-name="Path 8331" d="M573.909,691.1a21.907,21.907,0,0,0-.419,5.395s-3.351.432-3.026-.432a45.917,45.917,0,0,0,.736-5.3c.079-.761.129-1.289.129-1.289l3.026.649A3.024,3.024,0,0,0,573.909,691.1Z" transform="translate(-494.569 -598.483)" fill="#f8bdc5"/>
    <path id="Path_8332" data-name="Path 8332" d="M533,696.69l3.14.324a2.542,2.542,0,0,0-.181.86,3.2,3.2,0,0,1-2.8.085C533.084,697.224,533,696.69,533,696.69Z" transform="translate(-462.725 -604.624)" opacity="0.1"/>
    <path id="Path_8333" data-name="Path 8333" d="M578.666,690.117a3.023,3.023,0,0,0-.449.982,5.812,5.812,0,0,1-2.708-.341c.079-.761.129-1.289.129-1.289Z" transform="translate(-498.879 -598.483)" opacity="0.1"/>
    <path id="Path_8334" data-name="Path 8334" d="M523.324,443.63l-.637,4.465a32.282,32.282,0,0,1-1.175,5,8.132,8.132,0,0,0-.133,3.289s.432,6.917-.324,8.647a11.334,11.334,0,0,0-.649,4.215c-1.73.973-4.215-.217-4.215-.217l-.217-11.456a26.818,26.818,0,0,1-.324-5.831,71.165,71.165,0,0,0-.324-8.538c-1.2.324-1.081,16.1-1.081,16.1v10.268a3.483,3.483,0,0,1-4.864,0c-.864-2.594-.54-10.484-.54-10.484l-.324-4.647a136.5,136.5,0,0,1-1.944-13.726,38.128,38.128,0,0,1-.093-6.763q.031-.368.069-.707a18.867,18.867,0,0,1,.559-3.028,6.815,6.815,0,0,1,.329-.958l11.613.54.685.031,1.645.076c.179.271.348.546.505.821.227.4.432.8.615,1.2.1.23.2.462.3.692A18.268,18.268,0,0,1,523.324,443.63Z" transform="translate(-440.078 -377.18)" fill="#02911c"/>
    <path id="Path_8335" data-name="Path 8335" d="M511.172,436.461s-.508,5.084-4.092,3.612q.031-.368.069-.707c.843.229,3.177.544,3.266-2.907Z" transform="translate(-440.681 -383.304)" opacity="0.1"/>
    <path id="Path_8336" data-name="Path 8336" d="M594.928,435.671c-2.482.887-3.418-1.474-3.738-2.821l.685.031a2.23,2.23,0,0,0,2.763,2.093Q594.79,435.329,594.928,435.671Z" transform="translate(-512.215 -380.234)" opacity="0.1"/>
    <path id="Path_8337" data-name="Path 8337" d="M528.5,716.359c-.552-.087-1.395-.39-1.13-1.45,0,0-1.021-.353-.914,3.862a12.977,12.977,0,0,1-.324,2.487c-.217.434,0,3.026,2.27,2.81,0,0,1.621.54,2.053-.324,0,0-.324-4.972.217-5.831a1.543,1.543,0,0,0-.217-1.73,2.338,2.338,0,0,1-1.316.3A5.772,5.772,0,0,0,528.5,716.359Z" transform="translate(-456.824 -620.112)" fill="#5c3d53"/>
    <path id="Path_8338" data-name="Path 8338" d="M559.14,743.854s-1.081,1.838,1.406,2.053a4.171,4.171,0,0,0,3.566-1.081,1.9,1.9,0,0,0,0-1.513,6.317,6.317,0,0,1,.108-2.7s.325-2.053-.432-1.621A60.217,60.217,0,0,0,559.14,743.854Z" transform="translate(-484.758 -640.549)" fill="#5c3d53"/>
    <path id="Path_8339" data-name="Path 8339" d="M559.14,743.854s-1.081,1.838,1.406,2.053a4.171,4.171,0,0,0,3.566-1.081,1.9,1.9,0,0,0,0-1.513,6.317,6.317,0,0,1,.108-2.7s.325-2.053-.432-1.621A60.217,60.217,0,0,0,559.14,743.854Z" transform="translate(-484.758 -640.549)" opacity="0.05"/>
    <path id="Path_8340" data-name="Path 8340" d="M561.9,727s-1.3-.54-1.621.54-.108,3.783-.757,4.539-1.513,2.809,1.081,2.7,3.14-.973,3.14-.973a14.123,14.123,0,0,1,.217-3.458,3.623,3.623,0,0,0,0-1.944S564.057,726.887,561.9,727Z" transform="translate(-484.703 -630.289)" fill="#5c3d53"/>
    <circle id="Ellipse_158" data-name="Ellipse 158" cx="0.217" cy="0.217" r="0.217" transform="translate(60.764 6.25)" opacity="0.2"/>
    <circle id="Ellipse_159" data-name="Ellipse 159" cx="0.217" cy="0.217" r="0.217" transform="translate(65.303 6.79)" opacity="0.2"/>
    <path id="Path_8341" data-name="Path 8341" d="M474.6,98.469H474.5c0-.046.076-4.605-2.542-5.025a1.377,1.377,0,0,0-1.253.347c-1.081,1.072-.634,4.1-.629,4.13l-.106.016c-.019-.127-.459-3.113.661-4.222a1.476,1.476,0,0,1,1.346-.378C474.681,93.769,474.6,98.422,474.6,98.469Z" transform="translate(-409.029 -91.461)" fill="#535461"/>
    <path id="Path_8342" data-name="Path 8342" d="M702.586,139.772l-.1-.046c.016-.036,1.682-3.644-.519-4.9l.054-.094C704.31,136.037,702.6,139.734,702.586,139.772Z" transform="translate(-606.431 -126.689)" fill="#535461"/>
    <path id="Path_8343" data-name="Path 8343" d="M548.473,287.5l-2.809.757s-4.647.649-2.81-1.2a4.949,4.949,0,0,0,1.084-2.877c.734,1.151,1.618.824,1.618.824l2.679-.052h.01A7.2,7.2,0,0,0,548.473,287.5Z" transform="translate(-470.74 -253.793)" opacity="0.1"/>
    <path id="Path_8344" data-name="Path 8344" d="M611.576,283.907a2.841,2.841,0,0,1-.577.333l-.649-5.188.6-1.507.149-.115C612.448,277.814,611.751,282.784,611.576,283.907Z" transform="translate(-528.51 -248.052)" opacity="0.1"/>
    <path id="Path_8345" data-name="Path 8345" d="M503.665,261.54v1.405l-2.377,6.16-.649-.649a1.1,1.1,0,0,1-.1-.123C500.821,265.123,503.665,261.54,503.665,261.54Z" transform="translate(-435.119 -234.538)" opacity="0.1"/>
    <path id="Path_8346" data-name="Path 8346" d="M526.066,430.708c-1.512.378-9.4,2.232-11.745.477a5.336,5.336,0,0,0-3.031-.987,6.815,6.815,0,0,1,.329-.958l11.613.54.685.031,1.645.076Q525.831,430.3,526.066,430.708Z" transform="translate(-444.261 -377.163)" opacity="0.1"/>
    <path id="Path_8347" data-name="Path 8347" d="M474.1,90.59s1.621,2.7,2.7,0" transform="translate(-412.632 -89.149)" fill="#f8bdc5"/>
    <path id="Path_8348" data-name="Path 8348" d="M696.679,127.81s-.649,3.243,1.944,1.73" transform="translate(-601.87 -120.803)" fill="#f8bdc5"/>
    <g id="Group_11979" data-name="Group 11979" transform="translate(67.287 52.081)" opacity="0.1">
      <path id="Path_8349" data-name="Path 8349" d="M544.018,523.559c-.052-.658-.091-1.069-.091-1.069-1.2.324-1.081,16.1-1.081,16.1v10.268a3.759,3.759,0,0,1-2.146,1,3.569,3.569,0,0,0,2.691-1V538.593S543.308,527.159,544.018,523.559Z" transform="translate(-536.561 -508.552)"/>
      <path id="Path_8350" data-name="Path 8350" d="M528.392,432.627c-.091-.23-.188-.462-.3-.692-.182-.4-.387-.8-.615-1.2-.15-.275-.326-.549-.505-.821l-1.645-.076-.685-.031-11.613-.54-.01.024,11.084.516.685.031,1.645.076c.179.271.348.546.505.821.227.4.432.8.615,1.2.1.23.2.462.3.692a18.275,18.275,0,0,1,.532,11.012l-.637,4.465a32.276,32.276,0,0,1-1.175,5,8.133,8.133,0,0,0-.133,3.289s.432,6.917-.324,8.647a11.336,11.336,0,0,0-.649,4.215,3.139,3.139,0,0,1-1.355.374,3.439,3.439,0,0,0,1.894-.374,11.332,11.332,0,0,1,.649-4.215c.757-1.729.324-8.647.324-8.647a8.133,8.133,0,0,1,.133-3.289,32.283,32.283,0,0,0,1.175-5l.637-4.465A18.277,18.277,0,0,0,528.392,432.627Z" transform="translate(-513.02 -429.27)"/>
    </g>
    <path id="Path_8351" data-name="Path 8351" d="M502.119,265.96c1.5.7,4.994-2,4.994-2,1.513.432.432,6.7.432,6.7l-.058.26c-.329,1.479-.528,2.981-.712,4.486a4.457,4.457,0,0,1-1.175,2.173c-1.838,3.458,1.081,10.268,1.081,10.268s-9.4,2.487-12,.54-6.485-.432-6.485-.432c1.838-1.621,1.944-11.673,1.944-11.673v-7.775c.217-3.243,3.14-6.917,3.14-6.917a5.431,5.431,0,0,0,4.52,3.572c.737,1.2,1.645.86,1.645.86Z" transform="translate(-424.624 -234.581)" fill="#10c330"/>
    <path id="Path_8352" data-name="Path 8352" d="M527.947,202.216a2.651,2.651,0,0,0-1.126,0c-1.175.324-1.545,1.806-2.452,2.62-.326.3-.728.5-1.024.824a2.693,2.693,0,0,0-.52,2.205c.112.773.411,1.506.6,2.264a7.83,7.83,0,0,1,.208,2.321,1.365,1.365,0,0,1-.2.734c-.217.3-.616.393-.9.632-.858.739-.149,2.271-.779,3.215-.271.408-.778.677-.881,1.156a1.582,1.582,0,0,0,.235.994,7.2,7.2,0,0,0,1.5,2.28,7.011,7.011,0,0,0,2.352,1.234c.253.094.57.176.763-.01.238-.233.058-.628-.106-.917a1.948,1.948,0,0,1-.311-1.5c.152-.505.641-.84.97-1.262.848-1.092.57-2.658.149-3.974a3.089,3.089,0,0,1-.227-1.709c.064-.242.191-.462.272-.7.359-1.059-.244-2.22-.067-3.324a4.773,4.773,0,0,1,.449-1.237l.949-2.041a2.017,2.017,0,0,1,.42-.661,1.5,1.5,0,0,1,1.047-.326,2.841,2.841,0,0,1,2.038.929c1.017,1.13.952,2.841.83,4.348l-.088,1.089a3.983,3.983,0,0,1-.643,2.229c-.384.472-1,.794-1.163,1.383-.138.507.121,1.057-.015,1.564-.2.758-1.139,1.032-1.634,1.645a1.682,1.682,0,0,0-.123,1.891c.188.3.489.6.449.949-.034.283-.289.511-.287.8a.632.632,0,0,0,.459.549,1.854,1.854,0,0,0,.758.036l2.681-.242a.944.944,0,0,0,.477-.132.84.84,0,0,0,.274-.612c.108-.954-.15-2,.327-2.83.15-.268.369-.49.535-.748.915-1.435-.007-3.382.49-5.01a21.454,21.454,0,0,0,.933-2.231c.194-1.059-.357-2.093-.571-3.14-.22-1.081-.1-2.271-.679-3.212a3.3,3.3,0,0,0-2.047-1.37,15.788,15.788,0,0,0-2.243-.2C529.307,202.636,528.643,202.328,527.947,202.216Z" transform="translate(-452.396 -184.033)" opacity="0.1"/>
    <path id="Path_8353" data-name="Path 8353" d="M527.947,200.766a2.651,2.651,0,0,0-1.126,0c-1.175.324-1.545,1.806-2.452,2.62-.326.3-.728.5-1.024.824a2.693,2.693,0,0,0-.52,2.205c.112.773.411,1.506.6,2.264a7.83,7.83,0,0,1,.208,2.321,1.365,1.365,0,0,1-.2.734c-.217.3-.616.393-.9.632-.858.739-.149,2.271-.779,3.215-.271.408-.778.677-.881,1.156a1.582,1.582,0,0,0,.235.994,7.2,7.2,0,0,0,1.5,2.28,7.011,7.011,0,0,0,2.352,1.234c.253.094.57.176.763-.01.238-.233.058-.628-.106-.917a1.948,1.948,0,0,1-.311-1.5c.152-.505.641-.84.97-1.262.848-1.092.57-2.658.149-3.974a3.088,3.088,0,0,1-.227-1.709c.064-.242.191-.462.272-.7.359-1.059-.244-2.22-.067-3.324a4.773,4.773,0,0,1,.449-1.237l.949-2.041a2.017,2.017,0,0,1,.42-.661,1.5,1.5,0,0,1,1.047-.326,2.841,2.841,0,0,1,2.038.929c1.017,1.13.952,2.841.83,4.348l-.088,1.089a3.983,3.983,0,0,1-.643,2.229c-.384.472-1,.794-1.163,1.383-.138.507.121,1.057-.015,1.564-.2.758-1.139,1.032-1.634,1.645a1.682,1.682,0,0,0-.123,1.891c.188.3.489.6.449.949-.034.283-.289.511-.287.8a.632.632,0,0,0,.459.549,1.854,1.854,0,0,0,.758.036l2.681-.242a.944.944,0,0,0,.477-.132.84.84,0,0,0,.274-.612c.108-.954-.15-2,.327-2.83.15-.268.369-.49.535-.748.915-1.435-.007-3.382.49-5.01a21.455,21.455,0,0,0,.933-2.231c.194-1.059-.357-2.093-.571-3.14-.22-1.081-.1-2.271-.679-3.212a3.3,3.3,0,0,0-2.047-1.37,15.786,15.786,0,0,0-2.243-.2C529.307,201.188,528.643,200.88,527.947,200.766Z" transform="translate(-452.396 -182.8)" fill="#774e55"/>
    <path id="Path_8354" data-name="Path 8354" d="M529.75,362.407a8.178,8.178,0,0,0,5.3-.757h1.619s.108,1.513,4.323.864" transform="translate(-459.961 -319.679)" opacity="0.1"/>
    <ellipse id="Ellipse_160" data-name="Ellipse 160" cx="80.293" cy="7.327" rx="80.293" ry="7.327" transform="translate(0 95.776)" fill="#2e2e2e" opacity="0.1"/>
    <rect id="Rectangle_17729" data-name="Rectangle 17729" width="11.962" height="4.486" rx="2.243" transform="translate(37.679 38.509)" fill="#02911c" opacity="0.1"/>
    <rect id="Rectangle_17730" data-name="Rectangle 17730" width="11.962" height="4.486" rx="2.243" transform="translate(43.062 43.443)" fill="#02911c" opacity="0.1"/>
    <rect id="Rectangle_17731" data-name="Rectangle 17731" width="11.962" height="4.486" rx="2.243" transform="translate(90.161 38.808)" fill="#02911c" opacity="0.1"/>
    <rect id="Rectangle_17732" data-name="Rectangle 17732" width="11.962" height="4.486" rx="2.243" transform="translate(95.544 43.742)" fill="#02911c" opacity="0.1"/>
    <rect id="Rectangle_17733" data-name="Rectangle 17733" width="11.962" height="4.486" rx="2.243" transform="translate(33.941 48.377)" fill="#02911c" opacity="0.1"/>
    <rect id="Rectangle_17734" data-name="Rectangle 17734" width="11.962" height="4.486" rx="2.243" transform="translate(45.903 65.871)" fill="#02911c" opacity="0.1"/>
    <rect id="Rectangle_17735" data-name="Rectangle 17735" width="11.962" height="4.486" rx="2.243" transform="translate(51.286 70.806)" fill="#02911c" opacity="0.1"/>
    <rect id="Rectangle_17736" data-name="Rectangle 17736" width="11.962" height="4.486" rx="2.243" transform="translate(42.165 75.74)" fill="#02911c" opacity="0.1"/>
    <rect id="Rectangle_17737" data-name="Rectangle 17737" width="11.962" height="4.486" rx="2.243" transform="translate(94.049 78.431)" fill="#02911c" opacity="0.1"/>
    <rect id="Rectangle_17738" data-name="Rectangle 17738" width="11.962" height="4.486" rx="2.243" transform="translate(84.928 83.365)" fill="#02911c" opacity="0.1"/>
    <g id="Group_11980" data-name="Group 11980" transform="translate(134.61 57.72)" opacity="0.1">
      <path id="Path_8355" data-name="Path 8355" d="M1005.271,550.219s-2.165-10.969,2.294-18.487a16.94,16.94,0,0,0,2.337-10.457,28.482,28.482,0,0,0-1.047-5.1" transform="translate(-998.544 -508.816)" fill="none" stroke="#535461" stroke-miterlimit="10" stroke-width="2"/>
      <path id="Path_8356" data-name="Path 8356" d="M1023.852,469.584c-.12,1.308-2.841,4.886-2.841,4.886s-2.022-4.013-1.9-5.323a2.38,2.38,0,1,1,4.74.435Z" transform="translate(-1010.757 -466.984)" fill="#02911c"/>
      <path id="Path_8357" data-name="Path 8357" d="M1043.939,512.908c-.812,1.033-5.039,2.56-5.039,2.56s.484-4.468,1.3-5.5a2.38,2.38,0,1,1,3.738,2.941Z" transform="translate(-1027.592 -502.698)" fill="#02911c"/>
      <path id="Path_8358" data-name="Path 8358" d="M1031.751,591.862c-1.223.481-5.641-.335-5.641-.335s2.673-3.612,3.9-4.094a2.38,2.38,0,1,1,1.745,4.429Z" transform="translate(-1016.714 -569.282)" fill="#02911c"/>
      <path id="Path_8359" data-name="Path 8359" d="M1011.157,654.034c-1.124.682-5.617.623-5.617.623s2.024-4.012,3.149-4.693a2.38,2.38,0,1,1,2.469,4.07Z" transform="translate(-999.22 -622.31)" fill="#02911c"/>
      <path id="Path_8360" data-name="Path 8360" d="M1002.2,528.654c.855,1,5.142,2.344,5.142,2.344s-.673-4.444-1.527-5.441a2.38,2.38,0,1,0-3.616,3.1Z" transform="translate(-995.895 -516.091)" fill="#02911c"/>
      <path id="Path_8361" data-name="Path 8361" d="M975.752,597.8c1.114.7,5.608.7,5.608.7s-1.971-4.037-3.086-4.735a2.38,2.38,0,1,0-2.523,4.037Z" transform="translate(-972.934 -574.497)" fill="#02911c"/>
      <path id="Path_8362" data-name="Path 8362" d="M964.129,671.77c.981.875,5.41,1.637,5.41,1.637s-1.26-4.314-2.243-5.188a2.38,2.38,0,1,0-3.167,3.551Z" transform="translate(-963.273 -637.57)" fill="#02911c"/>
    </g>
    <g id="Group_11981" data-name="Group 11981" transform="translate(118.981 74.557)" opacity="0.1">
      <path id="Path_8363" data-name="Path 8363" d="M881.026,623.793s-1.162-5.89,1.231-9.927a9.1,9.1,0,0,0,1.254-5.616,15.3,15.3,0,0,0-.559-2.741" transform="translate(-877.455 -601.635)" fill="none" stroke="#535461" stroke-miterlimit="10" stroke-width="2"/>
      <path id="Path_8364" data-name="Path 8364" d="M891,580.913a10.121,10.121,0,0,1-1.525,2.624,10.13,10.13,0,0,1-1.021-2.857,1.278,1.278,0,0,1,2.542.233Z" transform="translate(-884.011 -579.591)" fill="#02911c"/>
      <path id="Path_8365" data-name="Path 8365" d="M901.776,604.169a10.141,10.141,0,0,1-2.706,1.374,10.154,10.154,0,0,1,.7-2.953,1.278,1.278,0,0,1,2.01,1.579Z" transform="translate(-893.041 -598.761)" fill="#02911c"/>
      <path id="Path_8366" data-name="Path 8366" d="M895.239,646.249a10.134,10.134,0,0,1-3.029-.179s1.435-1.944,2.093-2.2a1.278,1.278,0,0,1,.938,2.377Z" transform="translate(-887.207 -634.196)" fill="#02911c"/>
      <path id="Path_8367" data-name="Path 8367" d="M884.186,679.422a10.1,10.1,0,0,1-3.016.335,10.121,10.121,0,0,1,1.691-2.521,1.278,1.278,0,1,1,1.325,2.186Z" transform="translate(-877.818 -662.465)" fill="#02911c"/>
      <path id="Path_8368" data-name="Path 8368" d="M879.365,612.216a10.1,10.1,0,0,0,2.762,1.259,10.069,10.069,0,0,0-.819-2.922,1.279,1.279,0,0,0-1.944,1.663Z" transform="translate(-876.02 -605.544)" fill="#02911c"/>
      <path id="Path_8369" data-name="Path 8369" d="M865.17,649.34a10.138,10.138,0,0,0,3.011.375,10.136,10.136,0,0,0-1.657-2.542,1.278,1.278,0,1,0-1.355,2.168Z" transform="translate(-863.699 -636.903)" fill="#02911c"/>
      <path id="Path_8370" data-name="Path 8370" d="M859.17,689.221a10.142,10.142,0,0,0,2.905.879,10.26,10.26,0,0,0-1.2-2.786,1.278,1.278,0,1,0-1.7,1.908Z" transform="translate(-858.75 -670.932)" fill="#02911c"/>
    </g>
    <g id="Group_11982" data-name="Group 11982" transform="translate(24.335 75.454)" opacity="0.1">
      <path id="Path_8371" data-name="Path 8371" d="M248.026,629.793s-1.162-5.89,1.231-9.927a9.1,9.1,0,0,0,1.254-5.616,15.3,15.3,0,0,0-.559-2.741" transform="translate(-244.455 -607.635)" fill="none" stroke="#535461" stroke-miterlimit="10" stroke-width="2"/>
      <path id="Path_8372" data-name="Path 8372" d="M258,586.913a10.121,10.121,0,0,1-1.525,2.624,10.131,10.131,0,0,1-1.021-2.857,1.278,1.278,0,0,1,2.542.233Z" transform="translate(-251.011 -585.592)" fill="#02911c"/>
      <path id="Path_8373" data-name="Path 8373" d="M268.776,610.169a10.14,10.14,0,0,1-2.706,1.374,10.155,10.155,0,0,1,.7-2.953,1.278,1.278,0,0,1,2.01,1.579Z" transform="translate(-260.041 -604.761)" fill="#02911c"/>
      <path id="Path_8374" data-name="Path 8374" d="M262.239,652.249a10.134,10.134,0,0,1-3.029-.179s1.435-1.944,2.093-2.2a1.278,1.278,0,0,1,.938,2.377Z" transform="translate(-254.207 -640.196)" fill="#02911c"/>
      <path id="Path_8375" data-name="Path 8375" d="M251.186,685.421a10.1,10.1,0,0,1-3.016.335,10.122,10.122,0,0,1,1.691-2.521,1.278,1.278,0,1,1,1.325,2.186Z" transform="translate(-244.818 -668.464)" fill="#02911c"/>
      <path id="Path_8376" data-name="Path 8376" d="M246.365,618.216a10.1,10.1,0,0,0,2.762,1.259,10.07,10.07,0,0,0-.819-2.922,1.279,1.279,0,1,0-1.944,1.663Z" transform="translate(-243.02 -611.544)" fill="#02911c"/>
      <path id="Path_8377" data-name="Path 8377" d="M232.17,655.34a10.138,10.138,0,0,0,3.011.375,10.134,10.134,0,0,0-1.657-2.542,1.278,1.278,0,1,0-1.355,2.168Z" transform="translate(-230.699 -642.903)" fill="#02911c"/>
      <path id="Path_8378" data-name="Path 8378" d="M226.17,695.221a10.143,10.143,0,0,0,2.905.879,10.258,10.258,0,0,0-1.2-2.786,1.278,1.278,0,1,0-1.7,1.908Z" transform="translate(-225.75 -676.932)" fill="#02911c"/>
    </g>
  </g>
</svg>
