<svg id="discount-icon" xmlns="http://www.w3.org/2000/svg" width="27.692" height="28.86" viewBox="0 0 27.692 28.86">
  <g id="Group_9905" data-name="Group 9905" transform="translate(0 0)">
    <g id="Group_9904" data-name="Group 9904">
      <path id="Path_1223" data-name="Path 1223" d="M36.716,14.8a.846.846,0,0,1,0-.748l1.076-2.2a2.505,2.505,0,0,0-1.081-3.327L34.546,7.377a.846.846,0,0,1-.439-.6l-.423-2.414A2.505,2.505,0,0,0,30.853,2.3l-2.427.343a.846.846,0,0,1-.711-.231L25.954.71a2.505,2.505,0,0,0-3.5,0l-1.762,1.7a.846.846,0,0,1-.711.231L17.557,2.3a2.505,2.505,0,0,0-2.83,2.056L14.3,6.772a.846.846,0,0,1-.439.6L11.7,8.526a2.505,2.505,0,0,0-1.081,3.327l1.076,2.2a.846.846,0,0,1,0,.748L10.618,17A2.505,2.505,0,0,0,11.7,20.331l2.165,1.149a.846.846,0,0,1,.439.6l.423,2.414A2.5,2.5,0,0,0,17.2,26.58a2.574,2.574,0,0,0,.36-.025l2.427-.343a.845.845,0,0,1,.711.231l1.762,1.7a2.505,2.505,0,0,0,3.5,0l1.762-1.7a.847.847,0,0,1,.711-.231l2.427.343a2.505,2.505,0,0,0,2.83-2.056l.423-2.414a.846.846,0,0,1,.439-.6l2.165-1.149A2.505,2.505,0,0,0,37.792,17Zm-.785,4.058-2.165,1.149a2.5,2.5,0,0,0-1.3,1.788l-.423,2.414a.848.848,0,0,1-.957.7l-2.427-.343a2.5,2.5,0,0,0-2.1.683L24.8,26.95a.848.848,0,0,1-1.184,0l-1.762-1.7a2.5,2.5,0,0,0-1.743-.708,2.555,2.555,0,0,0-.358.025l-2.427.343a.848.848,0,0,1-.957-.7L15.943,21.8a2.5,2.5,0,0,0-1.3-1.787L12.479,18.86a.848.848,0,0,1-.366-1.126l1.076-2.2a2.5,2.5,0,0,0,0-2.209l-1.076-2.2A.848.848,0,0,1,12.479,10l2.165-1.149a2.5,2.5,0,0,0,1.3-1.788l.423-2.414a.848.848,0,0,1,.957-.7l2.427.343a2.5,2.5,0,0,0,2.1-.683l1.762-1.7a.848.848,0,0,1,1.184,0l1.762,1.7a2.5,2.5,0,0,0,2.1.683l2.427-.343a.848.848,0,0,1,.957.7l.423,2.414a2.5,2.5,0,0,0,1.3,1.787L35.931,10a.848.848,0,0,1,.366,1.126l-1.076,2.2a2.5,2.5,0,0,0,0,2.209l1.076,2.2A.848.848,0,0,1,35.931,18.86Z" transform="translate(-10.359 0.002)" fill="#00861a"/>
    </g>
  </g>
  <g id="Group_9907" data-name="Group 9907" transform="translate(7.9 8.484)">
    <g id="Group_9906" data-name="Group 9906" transform="translate(0)">
      <path id="Path_1224" data-name="Path 1224" d="M155.454,144.021a.782.782,0,0,0-1.106,0l-10.327,10.327a.782.782,0,0,0,1.106,1.106l10.327-10.327A.782.782,0,0,0,155.454,144.021Z" transform="translate(-143.791 -143.791)" fill="#02911c"/>
    </g>
  </g>
  <g id="Group_9909" data-name="Group 9909" transform="translate(7.592 7.051)">
    <g id="Group_9908" data-name="Group 9908" transform="translate(0)">
      <path id="Path_1225" data-name="Path 1225" d="M145.671,123.116a2.869,2.869,0,1,0,2.869,2.869A2.872,2.872,0,0,0,145.671,123.116Zm0,4.173a1.3,1.3,0,1,1,1.3-1.3A1.305,1.305,0,0,1,145.671,127.289Z" transform="translate(-142.802 -123.116)" fill="#02911c"/>
    </g>
  </g>
  <g id="Group_9911" data-name="Group 9911" transform="translate(14.363 16.071)">
    <g id="Group_9910" data-name="Group 9910" transform="translate(0)">
      <path id="Path_1226" data-name="Path 1226" d="M263.791,280.61a2.869,2.869,0,1,0,2.869,2.869A2.872,2.872,0,0,0,263.791,280.61Zm0,4.173a1.3,1.3,0,1,1,1.3-1.3A1.305,1.305,0,0,1,263.791,284.783Z" transform="translate(-260.922 -280.61)" fill="#02911c"/>
    </g>
  </g>
</svg>
