<svg id="fooditemicn1" xmlns="http://www.w3.org/2000/svg" width="30" height="41.47" viewBox="0 0 30 41.47">
  <path id="tea-svgrepo-com" d="M94.338,5.294h-2.13L91.01.5a.662.662,0,0,0-.642-.5H69.632a.662.662,0,0,0-.642.5l-1.2,4.793h-2.13A.662.662,0,0,0,65,5.956V9.485a.662.662,0,0,0,.662.662h.715l1.161,13.737a.662.662,0,0,0,.659.606l.056,0a.662.662,0,0,0,.6-.715l-.667-7.89H82.737V18.3l-2.893,1.157a.662.662,0,0,0-.416.614v6.618a.662.662,0,0,0,.662.662h6.618a.662.662,0,0,0,.662-.662V20.074a.662.662,0,0,0-.416-.614L84.061,18.3v-2.42H91.81L90.244,34.412H69.756l-.676-8a.662.662,0,1,0-1.319.111l1.212,14.343a.662.662,0,0,0,.659.606H90.368a.662.662,0,0,0,.659-.606l2.6-30.717h.715A.662.662,0,0,0,95,9.485V5.956A.662.662,0,0,0,94.338,5.294ZM86.046,26.029H80.752V20.522L83.4,19.463l2.647,1.059ZM68.078,14.559l-.373-4.412H82.737v4.412Zm2.162,25.588-.373-4.412H90.132l-.373,4.412ZM91.922,14.559H84.061V10.147h8.234Zm1.755-5.735H66.324V6.618H89.044a.662.662,0,1,0,0-1.324H69.156l.993-3.971h19.7l1.2,4.793a.662.662,0,0,0,.642.5h1.985Z" transform="translate(-65)" fill="#02911c"/>
  <path id="Path_8042" data-name="Path 8042" d="M12.395,0c1.9,0,5.049.439,7.954.513,1.683.037,3.187-.4,4.358.635,1.788,1.559,0,6.376,0,9.113,0,2.862.462,7.5-2.136,9.618-1.892,1.563-6.81.642-10.176.642-2.659,0-7.635.778-10.013-.642C-.387,18.244-.222,5.424-.222,1.973c0-2.68,1.551-1.62,4.063-1.46C5.75.62,8.811,0,12.395,0Z" transform="translate(2.654 14.471)" fill="#02911c" opacity="0.18"/>
</svg>
