<svg xmlns="http://www.w3.org/2000/svg" width="37.241" height="30" viewBox="0 0 37.241 30">
  <g id="fooditemicn4" transform="translate(0 0)">
    <path id="Path_7978" data-name="Path 7978" d="M26.9,5a11.9,11.9,0,1,0,11.9,11.9A11.9,11.9,0,0,0,26.9,5Zm0,22.759A10.862,10.862,0,1,1,37.759,16.9,10.862,10.862,0,0,1,26.9,27.759Z" transform="translate(-7.241 -2.414)" fill="#02911c"/>
    <path id="Path_7979" data-name="Path 7979" d="M30.8,13.08A7.717,7.717,0,1,0,38.514,20.8,7.717,7.717,0,0,0,30.8,13.08Zm0,14.4A6.683,6.683,0,1,1,37.48,20.8,6.683,6.683,0,0,1,30.8,27.48Z" transform="translate(-11.142 -6.314)" fill="#02911c"/>
    <path id="Path_7980" data-name="Path 7980" d="M66.221,0A1.671,1.671,0,0,0,64.6,1.272l-.279,1.107a27.543,27.543,0,0,0-.072,12.931l.553,2.338v10.8a1.552,1.552,0,0,0,3.1,0V1.676A1.681,1.681,0,0,0,66.221,0Zm.647,28.448a.517.517,0,0,1-1.034,0V18.1h1.034ZM65.724,17.069l-.476-2a26.5,26.5,0,0,1,.072-12.414L65.6,1.547a.641.641,0,0,1,1.267.155V17.069Z" transform="translate(-30.661 0)" fill="#02911c"/>
    <path id="Path_7981" data-name="Path 7981" d="M6.207,6.207H5.172V0H4.138V6.207H3.1V0H2.069V6.207H1.034V0H0V7.1a3.243,3.243,0,0,0,2.069,2.928V28.448a1.552,1.552,0,0,0,3.1,0V10.029A3.243,3.243,0,0,0,7.241,7.1V0H6.207ZM4.138,28.448a.517.517,0,0,1-1.034,0v-18.1a4.024,4.024,0,0,0,.517,0,4.024,4.024,0,0,0,.517-.036ZM3.621,9.31A2.472,2.472,0,0,1,1.034,7.241H6.207A2.472,2.472,0,0,1,3.621,9.31Z" transform="translate(0 0)" fill="#02911c"/>
    <path id="Path_8026" data-name="Path 8026" d="M-7.433,1.309c.41,0-2.97,1.317-2.668.562.091-.251,3.842-2.508,3.94-1.1,0,1.307,2.452-.836,2.021,0C-4.4,1.286-1,2.557-1.444,2.557c-.046,0,1.712-.121,1.862,2.681.2,3.783-.335,8.924-1.082,7.429-.125.928-2.022,1.815-4.32,2.106-1.538.2-3.486-.193-3.643.24C-9,16.047-11.976,12.975-12.112,12.6A22.985,22.985,0,0,1-13.2,5.021c.153-1.9,3.1-2.66,3.1-3.259C-9.559,0-8.31,1.309-7.433,1.309Z" transform="translate(25.937 6.5)" fill="#02911c" opacity="0.18"/>
  </g>
</svg>
