<svg xmlns="http://www.w3.org/2000/svg" width="31.165" height="30" viewBox="0 0 31.165 30">
  <g id="fooditemicn2" transform="translate(0 0)">
    <path id="veg_food" data-name="veg food" d="M30.708,33.26H28.724a4.59,4.59,0,0,0-.341-.995,1.889,1.889,0,0,1-.231-1.3,2.477,2.477,0,0,1,.73-1.194,1.844,1.844,0,0,0,.684-1.488,1.63,1.63,0,0,0-.912-1.2,2.149,2.149,0,0,1-.819-.792,2.722,2.722,0,0,1,.1-2.175c.237-.736.481-1.5-.023-2.112a2.006,2.006,0,0,0-1.511-.614,4.177,4.177,0,0,0-3.01,1.154,3.4,3.4,0,0,0-.814,1.661,2.181,2.181,0,0,1-.727,1.35,1.879,1.879,0,0,1-.88.39,1.631,1.631,0,0,0-1.091.627,2.108,2.108,0,0,0-.149,1.945,3.029,3.029,0,0,1,.095,1.695c-.015.052-.031.1-.049.148a3.165,3.165,0,0,0-.6-.059c-.035,0-.07,0-.1,0a.46.46,0,0,0-.023-.048A2.8,2.8,0,0,0,17.792,29.1a1.572,1.572,0,0,1-.8-.719,2.005,2.005,0,0,1-.122-1.165,1.631,1.631,0,0,0-.384-1.5,1.383,1.383,0,0,0-.956-.362,1.393,1.393,0,0,1-.67-.175,1.516,1.516,0,0,1-.663-.844,2.619,2.619,0,0,0-.849-1.159,3.234,3.234,0,0,0-3.2-.262,3.193,3.193,0,0,0-.425-.049,1.881,1.881,0,0,1-.93-.25A2.18,2.18,0,0,1,7.869,21.4a3.4,3.4,0,0,0-1.06-1.517A4.176,4.176,0,0,0,3.657,19.2a2.005,2.005,0,0,0-1.4.839c-.4.686-.045,1.4.3,2.091a2.722,2.722,0,0,1,.434,2.133,2.152,2.152,0,0,1-.687.908,1.631,1.631,0,0,0-.716,1.33,1.842,1.842,0,0,0,.9,1.364,2.476,2.476,0,0,1,.9,1.067,1.891,1.891,0,0,1-.028,1.322,4.005,4.005,0,0,0-.181,1.362,4.061,4.061,0,0,0,.5,1.637H.457A.457.457,0,0,0,0,33.716,11.52,11.52,0,0,0,7.977,44.664v1.3a3.172,3.172,0,0,0,3.168,3.168H20.02a3.172,3.172,0,0,0,3.168-3.168v-1.3a11.516,11.516,0,0,0,7.977-10.953.457.457,0,0,0-.457-.457Zm-10.1-6.149c.13-.176.246-.209.56-.28a2.778,2.778,0,0,0,1.253-.571,3.054,3.054,0,0,0,1.037-1.832,2.543,2.543,0,0,1,.59-1.258,3.241,3.241,0,0,1,2.315-.872,1.189,1.189,0,0,1,.839.281c.177.216.065.618-.139,1.254a3.513,3.513,0,0,0-.036,2.885,3.005,3.005,0,0,0,1.121,1.123c.357.235.484.336.507.541.026.233-.109.4-.446.767a3.309,3.309,0,0,0-.954,1.624,2.775,2.775,0,0,0,.288,1.861,4.59,4.59,0,0,1,.24.627h-3.46q.089-.28.173-.562l1.522-.855a.457.457,0,1,0-.447-.8l-.723.406c.3-1.139.556-2.3.756-3.459a.456.456,0,0,0-.9-.155c-.136.787-.3,1.575-.482,2.355l-.449-1.09a.457.457,0,0,0-.844.348l.913,2.219c-.019.068-.037.136-.056.2q-.055.195-.113.389l0,.007q-.147.5-.307.99h-1.04a3.168,3.168,0,0,0-1.691-2.6c.023-.065.046-.131.065-.2a3.874,3.874,0,0,0-.089-2.176C20.466,27.711,20.4,27.4,20.613,27.111Zm-1.441,4.1a2.253,2.253,0,0,1,2.241,2.051H17.763a3.153,3.153,0,0,0-.332-1.226,2.24,2.24,0,0,1,1.741-.825ZM12.81,23.916a1.767,1.767,0,0,1,.559.8,2.409,2.409,0,0,0,1.048,1.264,2.285,2.285,0,0,0,1.052.289c.229.016.3.025.393.114.149.141.147.306.1.742a2.852,2.852,0,0,0,.209,1.654,2.436,2.436,0,0,0,1.177,1.12,2.148,2.148,0,0,1,.756.582,3.143,3.143,0,0,0-1.218.789,3.148,3.148,0,0,0-2.283-.973l-.1,0a3.792,3.792,0,0,0-.318-.834,3.512,3.512,0,0,0-1.579-1.508,2.205,2.205,0,0,1-1.1-1.047,3.03,3.03,0,0,1-.168-1.689,2.337,2.337,0,0,0-.256-1.676A2.481,2.481,0,0,1,12.81,23.916Zm4.037,9.344H12.366a2.249,2.249,0,0,1,4.481,0ZM3.062,27.154c-.388-.306-.548-.454-.558-.689-.009-.206.1-.325.418-.613a3.009,3.009,0,0,0,.935-1.282,3.514,3.514,0,0,0-.48-2.845c-.3-.6-.472-.978-.331-1.218a1.188,1.188,0,0,1,.786-.406,3.242,3.242,0,0,1,2.422.505,2.542,2.542,0,0,1,.777,1.153,3.053,3.053,0,0,0,1.306,1.65,2.779,2.779,0,0,0,1.326.372c.321.022.44.038.6.191.256.253.237.57.179,1.157a3.875,3.875,0,0,0,.247,2.164,3.084,3.084,0,0,0,1.478,1.457,2.639,2.639,0,0,1,1.224,1.141,2.863,2.863,0,0,1,.224.568,3.17,3.17,0,0,0-2.16,2.8H10q-.405-.651-.782-1.318l.563-2.34a.457.457,0,0,0-.888-.214l-.325,1.349q-.484-.939-.912-1.908l.509-1.764a.457.457,0,0,0-.877-.253l-.194.672q-.421-1.067-.772-2.157a.457.457,0,1,0-.869.279c.373,1.16.806,2.3,1.295,3.425l.011.025.032.074L5.9,28.8a.457.457,0,0,0-.32.855l1.758.657q.216.448.443.889.152.294.31.586l-1.083-.4a.457.457,0,0,0-.32.855l2.1.786.144.241H4.753A3.541,3.541,0,0,1,4.1,31.565a3.164,3.164,0,0,1,.153-1.07,2.776,2.776,0,0,0,0-1.883A3.306,3.306,0,0,0,3.062,27.154ZM22.275,45.968a2.258,2.258,0,0,1-2.255,2.255H11.145A2.258,2.258,0,0,1,8.89,45.968v-1.05a11.493,11.493,0,0,0,2.611.3h8.164a11.589,11.589,0,0,0,2.611-.3ZM27.151,41.2a10.535,10.535,0,0,1-4.515,2.679.452.452,0,0,0-.058.017,10.634,10.634,0,0,1-2.914.4H11.5A10.6,10.6,0,0,1,.923,34.173H30.242a10.512,10.512,0,0,1-3.091,7.03Z" transform="translate(0 -19.136)" fill="#02911c"/>
    <path id="Path_8013" data-name="Path 8013" d="M-8.568-1.405a5.7,5.7,0,0,0,2.375,0C-5.238-1.6-3.944-.354-3.858.151-3.858.64-1.5.9-1.892,1.216l.819,2.6L.484,5.927l-1.065.819-3.81-.819c-.135,0-2.667,4.04-3.666,3.227-.222.668-4.8-.655-5.1-.319l-.941-1.6V3.816c-.037-.04-1.282-.5-1.434-1.617-.1-.72.893-1.629,1.024-2.949.139-1.42-.487-3.278-.382-3.809l2.635-.246,2.171,2.663C-9.586-2.8-9.374-1.405-8.568-1.405Z" transform="translate(17.912 5.529)" fill="#02911c" opacity="0.18"/>
  </g>
</svg>
