<svg xmlns="http://www.w3.org/2000/svg" width="30" height="42.832" viewBox="0 0 30 42.832">
  <g id="fooditemicn3" transform="translate(0 0)">
    <g id="Group_11326" data-name="Group 11326" transform="translate(6.499 8.297)">
      <g id="Group_11325" data-name="Group 11325" transform="translate(0)">
        <path id="Path_8016" data-name="Path 8016" d="M157.462,99.178a3.089,3.089,0,0,0-3.085,3.085.628.628,0,0,0,1.255,0,1.832,1.832,0,0,1,1.83-1.83.628.628,0,0,0,0-1.256Z" transform="translate(-154.377 -99.178)" fill="#02911c"/>
      </g>
    </g>
    <g id="Group_11328" data-name="Group 11328" transform="translate(19.649 10.754)">
      <g id="Group_11327" data-name="Group 11327">
        <path id="Path_8017" data-name="Path 8017" d="M312.2,128.553a.628.628,0,0,0,0,1.256,1.832,1.832,0,0,1,1.83,1.83.628.628,0,0,0,1.256,0A3.089,3.089,0,0,0,312.2,128.553Z" transform="translate(-311.574 -128.553)" fill="#02911c"/>
      </g>
    </g>
    <g id="Group_11330" data-name="Group 11330" transform="translate(13.729 3.532)">
      <g id="Group_11329" data-name="Group 11329" transform="translate(0)">
        <path id="Path_8018" data-name="Path 8018" d="M244.977,44.642A3.089,3.089,0,0,0,241.3,42.3a.628.628,0,0,0,.272,1.226,1.832,1.832,0,0,1,2.183,1.39.628.628,0,0,0,1.226-.272Z" transform="translate(-240.805 -42.225)" fill="#02911c"/>
      </g>
    </g>
    <g id="Group_11334" data-name="Group 11334">
      <g id="Group_11333" data-name="Group 11333" transform="translate(0)">
        <path id="Path_8020" data-name="Path 8020" d="M106.678,13.808a1.91,1.91,0,0,0-1.561-1.661,3.421,3.421,0,0,0,.053-.624,3.718,3.718,0,0,0-3.313-3.568,3.426,3.426,0,0,0,.05-.607,3.748,3.748,0,0,0-3.738-3.6A3.609,3.609,0,0,0,94.556.957a3.9,3.9,0,0,0-.6.049A3.324,3.324,0,0,0,91.967.026.632.632,0,0,0,91.775,0l-.081,0-.081,0a.626.626,0,0,0-.191.026,3.324,3.324,0,0,0-1.994.981,3.888,3.888,0,0,0-.6-.049H88.81a3.609,3.609,0,0,0-3.59,2.788,3.748,3.748,0,0,0-3.737,3.6,3.425,3.425,0,0,0,.05.607,3.718,3.718,0,0,0-3.313,3.568,3.411,3.411,0,0,0,.053.624,1.91,1.91,0,0,0-1.561,1.661,1.987,1.987,0,0,0,.857,1.905,2.161,2.161,0,0,0-.016.267,2.131,2.131,0,0,0,.146.775,3.29,3.29,0,0,0,0,1.2l4.248,22.908a2.4,2.4,0,0,0,2.364,1.966H99.081a2.4,2.4,0,0,0,2.364-1.966l4.248-22.908a3.29,3.29,0,0,0,0-1.2,2.142,2.142,0,0,0,.129-1.042A1.987,1.987,0,0,0,106.678,13.808Zm-2.22,3.921-4.248,22.908a1.149,1.149,0,0,1-1.129.939H97.714l.674-6.056a.628.628,0,0,0-1.248-.139l-.689,6.2H94.119l.157-4.242a.628.628,0,0,0-1.255-.047l-.159,4.289H90.526l-.16-4.3a.628.628,0,1,0-1.255.047l.158,4.255H86.938l-.688-6.186A.628.628,0,0,0,85,35.529l.673,6.047H84.308a1.149,1.149,0,0,1-1.129-.939L78.93,17.729a2.034,2.034,0,0,1,.033-.89c.012-.047.027-.093.042-.138l.013-.038c.017-.046.034-.091.054-.135l.011-.023c.017-.037.036-.074.055-.109l.022-.041c.023-.04.047-.08.072-.118l.02-.029q.032-.046.066-.091l.03-.038c.03-.037.06-.073.093-.108l.005-.005c.033-.035.068-.069.1-.1l.02-.018a2.044,2.044,0,0,1,.247-.191l.007,0a2.037,2.037,0,0,1,.283-.153l.008,0a2.035,2.035,0,0,1,.3-.1l.022-.006a2.03,2.03,0,0,1,.3-.052l.035,0c.051,0,.1-.007.154-.007a2.033,2.033,0,0,1,2.023,1.811l.017.148.046.409h0l0,.032.575,5.166a.628.628,0,0,0,.623.558.644.644,0,0,0,.07,0,.628.628,0,0,0,.554-.693l-.575-5.166c0-.007,0-.013,0-.02s0,0,0,0c-.007-.07-.01-.139-.01-.208,0-.018,0-.035,0-.053s0-.029,0-.044,0-.057.006-.085c0-.005,0-.01,0-.015,0-.031.007-.061.012-.091,0,0,0-.01,0-.015,0-.029.01-.058.016-.087l0-.017c.006-.029.013-.057.02-.086l0-.018c.007-.026.015-.053.023-.079l.007-.023c.008-.025.017-.049.025-.073l.01-.027c.01-.026.021-.052.032-.077l.009-.021c.01-.022.02-.043.03-.065l.015-.032c.011-.022.023-.044.035-.066l.015-.028c.012-.02.024-.041.037-.061l.019-.031c.012-.018.024-.036.036-.054l.016-.023.01-.015.031-.041.038-.049.009-.011c.02-.025.041-.049.063-.073h0q.035-.038.071-.074l.05-.047.023-.022a2.039,2.039,0,0,1,1.363-.524h.044a2.029,2.029,0,0,1,2.034,1.96v.028l.119,3.212a.628.628,0,0,0,1.255-.047l-.113-3.042h0c0-.017,0-.033,0-.05s0-.037,0-.056,0-.03,0-.045,0-.039,0-.058,0-.029,0-.043,0-.039.005-.059,0-.028.006-.043.005-.039.008-.058.005-.028.008-.042.007-.038.011-.057.007-.027.01-.04.009-.039.014-.059.007-.025.011-.037.011-.04.018-.06.009-.025.013-.038.013-.038.02-.057l.015-.038c.008-.019.015-.037.023-.056l.018-.039c.008-.017.016-.035.025-.052l.022-.042.026-.048.025-.041.028-.046.03-.045.027-.04.034-.046.027-.037c.017-.022.035-.043.053-.064l.013-.016q.034-.039.07-.077a2.017,2.017,0,0,1,1.156-.6,2.071,2.071,0,0,1,.309-.023h.058a2.038,2.038,0,0,1,2.009,1.7v.006q.008.047.013.095s0,.007,0,.01c0,.031.006.061.008.092,0,0,0,.01,0,.015,0,.029,0,.059,0,.088,0,.007,0,.013,0,.02,0,.028,0,.057,0,.085h0l-.112,3.019A.628.628,0,0,0,94.9,20.5l.119-3.217a2.029,2.029,0,0,1,2.034-1.96H97.1a2.038,2.038,0,0,1,1.363.524l.022.021.051.048q.036.036.071.075h0c.021.024.042.048.062.073l.01.011.038.049.032.042.01.015c.039.054.075.11.107.168h0q.026.046.05.093l.011.023c.012.024.024.048.034.073s.012.03.019.045.015.035.022.053.015.041.022.062l.013.038c.007.023.013.046.02.068l.01.033c.006.022.011.044.016.066s.006.025.009.037.01.052.014.078c0,.009,0,.018,0,.026,0,.024.006.048.009.072s0,.022,0,.034,0,.044.005.067,0,.023,0,.035,0,.023,0,.035,0,.016,0,.023,0,.026,0,.039q0,.046,0,.092s0,.005,0,.008q0,.053-.008.107s0,0,0,0,0,.014,0,.022h0l-.568,5.108a.628.628,0,0,0,.555.693.641.641,0,0,0,.07,0,.628.628,0,0,0,.623-.558l.568-5.108.066-.589a2.034,2.034,0,0,1,2.023-1.81c.052,0,.1,0,.154.006l.035,0a2.028,2.028,0,0,1,.3.052l.023.006a2.031,2.031,0,0,1,.3.1l.008,0a2.047,2.047,0,0,1,.283.153l.007,0a2.045,2.045,0,0,1,.247.19l.021.019c.035.033.07.066.1.1l.006.006c.032.034.063.071.092.107l.03.039q.034.044.065.089l.021.031c.025.038.049.077.071.117l.024.043q.028.052.053.105l.013.027c.019.043.037.088.053.133l.015.041c.015.043.028.087.04.131A2.037,2.037,0,0,1,104.459,17.729Zm.452-2.96a.628.628,0,0,0-.253.142l-.02-.017-.074-.064-.043-.035-.089-.07-.017-.012a3.271,3.271,0,0,0-.482-.3l-.019-.009-.118-.055-.025-.011c-.04-.017-.079-.034-.12-.05l-.017-.006a3.265,3.265,0,0,0-.365-.116l-.065-.016-.085-.018-.083-.016-.078-.013-.094-.013-.071-.008-.11-.009-.058,0c-.057,0-.113,0-.17,0a3.318,3.318,0,0,0-.4.024c-.039,0-.078.012-.117.018l-.086.013c-.033.006-.066.014-.1.022l-.095.02a3.275,3.275,0,0,0-.706.266l-.023.011c-.039.02-.076.042-.114.064l-.055.031c-.037.022-.072.046-.108.069l-.054.035c-.03.021-.059.043-.089.065s-.045.032-.067.049l-.062.051c-.029.024-.059.047-.087.071l-.037.035c-.035.032-.07.063-.1.1l-.015.016a3.306,3.306,0,0,0-.244.269l0,0q-.058.073-.113.149l0,0c-.024-.034-.05-.066-.075-.1l-.033-.043q-.056-.07-.115-.136l-.011-.012,0,0-.024-.025c-.031-.033-.061-.066-.093-.1L99.39,15c-.032-.031-.063-.061-.1-.091l-.03-.026c-.034-.029-.067-.058-.1-.086l-.028-.021c-.036-.028-.072-.056-.109-.083L99,14.674c-.038-.027-.077-.054-.117-.08l-.02-.012c-.042-.027-.084-.052-.127-.077l-.014-.008c-.045-.026-.091-.05-.137-.074l-.01,0c-.048-.024-.1-.047-.145-.069l0,0q-.076-.033-.153-.063h0q-.079-.03-.159-.056h0q-.08-.026-.161-.048l-.007,0c-.053-.014-.106-.027-.16-.038l-.017,0c-.05-.01-.1-.02-.152-.028l-.036,0c-.045-.007-.089-.013-.134-.018l-.079-.006-.094-.007q-.087,0-.174,0h-.044c-.063,0-.126,0-.188.006l-.059,0-.128.012-.065.008-.123.019-.06.01q-.075.014-.148.032l-.029.007c-.058.014-.116.031-.173.048l-.05.016-.12.041-.06.023-.11.045-.057.025c-.04.018-.08.038-.12.058l-.04.02q-.078.041-.153.085l-.038.024c-.037.023-.074.046-.11.07l-.051.035-.094.068-.051.038c-.033.025-.064.051-.1.078l-.04.033q-.066.057-.128.117l-.023.023q-.051.05-.1.1l-.04.045q-.039.044-.077.088l-.04.049c-.025.031-.049.063-.073.1l-.025.032a3.348,3.348,0,0,0-.293-.349,3.264,3.264,0,0,0-2.37-1.007h-.058a3.264,3.264,0,0,0-2.37,1.007,3.358,3.358,0,0,0-.293.349l-.024-.031c-.024-.033-.049-.065-.075-.1l-.039-.048q-.038-.046-.078-.09l-.039-.043q-.05-.054-.1-.105l-.02-.02q-.063-.061-.129-.118l-.038-.032q-.048-.041-.1-.08l-.049-.037-.1-.069-.05-.034c-.037-.025-.075-.048-.113-.072l-.036-.023q-.075-.045-.153-.085l-.038-.019c-.04-.02-.08-.04-.121-.058l-.056-.025-.11-.045-.059-.023-.121-.041-.049-.016c-.057-.017-.115-.034-.173-.048l-.029-.006q-.074-.018-.149-.032l-.06-.01-.123-.019-.065-.008-.128-.012-.058,0c-.062,0-.125-.006-.188-.006h-.044q-.087,0-.174,0l-.1.008-.073.006c-.045,0-.09.011-.135.018l-.036,0c-.053.008-.105.018-.157.029l-.011,0c-.055.012-.109.025-.163.039h0a3.292,3.292,0,0,0-.481.17h0q-.075.033-.148.07l-.007,0c-.047.024-.093.049-.139.075l-.011.006c-.044.025-.087.052-.13.079l-.017.01c-.041.026-.081.054-.121.082l-.021.015c-.038.027-.075.056-.111.085l-.026.02c-.036.029-.07.059-.1.089l-.027.023-.011.009c-.03.027-.059.056-.089.084l-.027.025c-.033.033-.065.067-.1.1l-.021.022,0,0-.011.012q-.06.067-.115.136l-.034.044c-.025.032-.05.064-.073.1l0,.006q-.056-.079-.117-.154c-.028-.035-.058-.069-.088-.1l-.037-.043a3.285,3.285,0,0,0-2.439-1.079c-.057,0-.114,0-.17,0l-.058,0-.11.009-.071.008-.094.013-.078.013-.082.016-.085.018-.064.016a3.274,3.274,0,0,0-.368.117l-.014.005c-.041.016-.081.033-.121.05l-.023.01-.119.056-.017.009a3.278,3.278,0,0,0-.485.3l-.014.01c-.031.023-.061.047-.091.071l-.04.033-.076.066-.019.016a.628.628,0,0,0-.253-.142.718.718,0,0,1-.522-.8.7.7,0,0,1,.775-.614h.1c.068,0,.141,0,.224.011a.628.628,0,0,0,.621-.891,2.167,2.167,0,0,1-.206-.937A2.506,2.506,0,0,1,82.1,9.175c.068,0,.142,0,.224.011a.628.628,0,0,0,.621-.891,2.168,2.168,0,0,1-.206-.937A2.5,2.5,0,0,1,85.346,5h.016a2.894,2.894,0,0,1,.343.023.628.628,0,0,0,.706-.626V4.374a2.3,2.3,0,0,1,2.4-2.16h.015a2.63,2.63,0,0,1,.674.092.628.628,0,0,0,.671-.235,2.045,2.045,0,0,1,1.484-.806l.033,0H91.7l.033,0a2.045,2.045,0,0,1,1.484.806.628.628,0,0,0,.671.234,2.628,2.628,0,0,1,.674-.092,2.3,2.3,0,0,1,2.414,2.158v.023a.628.628,0,0,0,.706.629A2.859,2.859,0,0,1,98.026,5h.016a2.5,2.5,0,0,1,2.608,2.358,2.17,2.17,0,0,1-.206.937.628.628,0,0,0,.621.891c.082-.007.156-.01.224-.011a2.5,2.5,0,0,1,2.624,2.357,2.169,2.169,0,0,1-.206.937.628.628,0,0,0,.569.893l.052,0c.083-.007.156-.01.224-.011h.1a.7.7,0,0,1,.776.614A.716.716,0,0,1,104.911,14.769Z" transform="translate(-76.694 0)" fill="#02911c"/>
        <path id="Path_8024" data-name="Path 8024" d="M-1.864.688c1.926,0,4.034-2.491,4.438,0,0,1.234,4.946.286,4,1.075-.568.491,5,3.793,4.031,3.793a3.846,3.846,0,0,0,1.244,2.37c.546.462,1.959.508,2.132,1.9.447,3.571,3.36,5.728,1.719,4.317-.135.428-1,.311-3.318.483a9.708,9.708,0,0,1-2.608.534c-.4-.023-1.594-1-2.49-1.017-.621-.006-1.727,1.1-2.785,1.017-.9-.067-1.461-1.1-2.667-1.017-.575.043-1.784,1.21-2.785,1.017-.653-.128-1.755-1.178-1.891-1.017l-3.264,1.49-6.52-1.49c-.174-.2.445-2.019,2.134-4.317.936-1.268,2.947-2.916,3.2-4.267.336-1.793,3.259-2.22,3.259-2.786C-2.844,1.1-3.789.688-1.864.688Z" transform="translate(13.384 0.419)" fill="#02911c" opacity="0.18"/>
      </g>
    </g>
  </g>
</svg>
