<svg xmlns="http://www.w3.org/2000/svg" width="14.395" height="13.765" viewBox="0 0 14.395 13.765">
  <path id="star_1_" data-name="star (1)" d="M7.893,1.479,9.516,4.768a.775.775,0,0,0,.584.424l3.63.528a.775.775,0,0,1,.43,1.322L11.533,9.6a.775.775,0,0,0-.223.686l.62,3.615a.775.775,0,0,1-1.125.817L7.559,13.014a.776.776,0,0,0-.722,0L3.59,14.721A.775.775,0,0,1,2.465,13.9l.62-3.615A.775.775,0,0,0,2.863,9.6L.236,7.042A.775.775,0,0,1,.665,5.72L4.3,5.192a.775.775,0,0,0,.584-.424L6.5,1.479A.775.775,0,0,1,7.893,1.479Z" transform="translate(-0.001 -1.047)" fill="#ffb31a"/>
</svg>
