<svg xmlns="http://www.w3.org/2000/svg" width="30.668" height="30.668" viewBox="0 0 30.668 30.668">
  <g id="fooditemicnr5" transform="translate(0.2 0.2)">
    <g id="Group_11282" data-name="Group 11282" transform="translate(0)">
      <g id="Group_11278" data-name="Group 11278">
        <path id="Path_7933" data-name="Path 7933" d="M14.917,0a15.134,15.134,0,1,0,15.344,14.92A15.159,15.159,0,0,0,14.917,0Zm.393,29.538A14.407,14.407,0,1,1,29.534,14.947,14.421,14.421,0,0,1,15.31,29.534Z" transform="translate(0.005 0.005)" fill="#e23744" stroke="#e23744" stroke-width="0.4"/>
      </g>
      <g id="Group_11279" data-name="Group 11279" transform="translate(11.048 15.8)">
        <path id="Path_7934" data-name="Path 7934" d="M41.524,59.221l-.757-.061v-.182c.272-3.813-4.086-5.992-4.267-6.113l.333-.666c.182.091,3.632,1.846,4.509,4.994a7.777,7.777,0,0,1,3.874-3.45l.3.7c-3.42,1.543-3.9,4.055-3.995,4.63Z" transform="translate(-36.5 -52.2)" fill="#e23744" stroke="#e23744" stroke-width="0.4"/>
      </g>
      <g id="Group_11280" data-name="Group 11280" transform="translate(16.412 13.834)">
        <path id="Path_7935" data-name="Path 7935" d="M57.606,53.178h-.182a3.1,3.1,0,0,1-2.6-1.453,3.92,3.92,0,0,1-.424-3.208c.726-1.846,3.723-3.783,8.141-2.27l.3.091-.03.3C62.388,50.3,60.088,53.178,57.606,53.178Zm1.907-6.688c-2.391,0-3.995,1.18-4.419,2.33a3.038,3.038,0,0,0,.363,2.512,2.353,2.353,0,0,0,2.028,1.09c2.088.121,4.086-2.361,4.54-5.538A7.845,7.845,0,0,0,59.513,46.49Z" transform="translate(-54.223 -45.705)" fill="#e23744" stroke="#e23744" stroke-width="0.4"/>
      </g>
      <g id="Group_11281" data-name="Group 11281" transform="translate(5.489 9.702)">
        <path id="Path_7936" data-name="Path 7936" d="M24.145,43.386a4.212,4.212,0,0,1-1.18-.151c-3.45-.787-5.508-5.659-4.63-10.865l.061-.3h.3a11.42,11.42,0,0,1,7.233,1.876,6.24,6.24,0,0,1,2.815,4.328,5.334,5.334,0,0,1-1.786,4.055A4.085,4.085,0,0,1,24.145,43.386ZM19.03,32.824c-.7,4.691,1.09,8.989,4.086,9.685a3.582,3.582,0,0,0,3.329-.726,4.654,4.654,0,0,0,1.543-3.42C27.807,36,24.81,32.7,19.03,32.824Z" transform="translate(-18.132 -32.053)" fill="#e23744" stroke="#e23744" stroke-width="0.4"/>
      </g>
    </g>
    <g id="Path_7937" data-name="Path 7937" transform="translate(20.166 10.525)" fill="#e23744" opacity="0.18">
      <path d="M -6.687801837921143 9.836536407470703 C -6.816142082214355 9.836545944213867 -6.957491874694824 9.77962589263916 -7.107922077178955 9.667356491088867 L -7.161131858825684 9.627635955810547 L -7.227541923522949 9.627635955810547 L -10.0632152557373 9.627635955810547 L -12.00500202178955 8.171296119689941 L -12.14564228057861 8.065815925598145 L -12.18861389160156 8.109947204589844 C -12.45772361755371 7.752109527587891 -12.98835277557373 6.155622959136963 -13.19747161865234 5.526445865631104 C -13.43621730804443 4.808145999908447 -13.49572658538818 4.641851425170898 -13.55119514465332 4.567622184753418 C -13.67422008514404 4.245743751525879 -13.99942207336426 1.218507766723633 -13.75697898864746 0.08665632456541061 C -13.74496078491211 0.07328884303569794 -13.63458824157715 -0.02752396650612354 -13.04909229278564 -0.02752396650612354 C -12.4385814666748 -0.02752396650612354 -11.60772228240967 0.07920603454113007 -10.94010162353516 0.1649560332298279 C -10.45698165893555 0.2270160317420959 -10.07538223266602 0.2760360240936279 -9.863712310791016 0.2760460376739502 C -9.800051689147949 0.2760460376739502 -9.751992225646973 0.2716860473155975 -9.712471961975098 0.2623260319232941 C -9.630148887634277 0.2428239583969116 -9.578871726989746 0.1982038021087646 -9.550477981567383 0.1482487916946411 C -9.501213073730469 0.09303373843431473 -9.464099884033203 0.07277603447437286 -9.444842338562012 0.07277603447437286 C -9.366182327270508 0.07277603447437286 -9.203882217407227 0.2547360360622406 -9.085371971130371 0.3875960409641266 C -8.822671890258789 0.6821060180664063 -8.495732307434082 1.048636078834534 -7.999022006988525 1.048636078834534 C -7.234332084655762 1.048636078834534 -6.503531932830811 1.753766059875488 -6.335261821746826 2.653936147689819 L -6.324761867523193 2.710125923156738 L -6.286141872406006 2.752285957336426 L -5.298132419586182 3.83077597618103 L -4.697290897369385 4.693780422210693 C -4.787662029266357 4.913371086120605 -4.868700981140137 5.360012054443359 -5.024431705474854 6.307005882263184 C -5.147710800170898 7.056644439697266 -5.374426364898682 8.435220718383789 -5.550429821014404 8.664148330688477 C -5.666731357574463 8.690688133239746 -5.731565952301025 8.808009147644043 -5.838272094726563 9.001106262207031 C -6.010921955108643 9.313566207885742 -6.299891948699951 9.836516380310059 -6.687801837921143 9.836536407470703 Z" stroke="none"/>
      <path d="M -13.049072265625 0.1724758148193359 C -13.35523128509521 0.1724891662597656 -13.5088062286377 0.2010126113891602 -13.57907199859619 0.2211446762084961 C -13.7656421661377 1.32029914855957 -13.49356269836426 4.054860591888428 -13.36927032470703 4.479171752929688 C -13.30057716369629 4.589213371276855 -13.22723197937012 4.802825450897217 -13.00768184661865 5.463366031646729 C -12.82705307006836 6.006793022155762 -12.39027786254883 7.320905685424805 -12.12093734741211 7.834342002868652 L -11.88500213623047 8.011296272277832 L -9.996548652648926 9.42763614654541 L -7.227541923522949 9.42763614654541 L -7.094732284545898 9.42763614654541 L -6.98829174041748 9.507076263427734 C -6.909161567687988 9.566136360168457 -6.792792320251465 9.63653564453125 -6.68779182434082 9.63653564453125 C -6.417881965637207 9.63653564453125 -6.144641876220703 9.142036437988281 -6.013321876525879 8.904396057128906 C -5.917951583862305 8.731793403625488 -5.831976890563965 8.576176643371582 -5.690032958984375 8.502814292907715 C -5.534460067749023 8.175925254821777 -5.332992553710938 6.95078182220459 -5.221781730651855 6.274556159973145 C -5.084813117980957 5.441663265228271 -5.004864692687988 4.988652229309082 -4.920566558837891 4.723098278045654 L -5.454591751098633 3.956062793731689 L -6.433611869812012 2.887385845184326 L -6.510851860046387 2.803076267242432 L -6.531862258911133 2.690686225891113 C -6.68049144744873 1.895536422729492 -7.338662147521973 1.248636245727539 -7.999021530151367 1.248636245727539 C -8.585331916809082 1.248636245727539 -8.960612297058105 0.827916145324707 -9.234622001647949 0.520726203918457 C -9.290578842163086 0.4579916000366211 -9.366022109985352 0.3734140396118164 -9.424904823303223 0.3179311752319336 C -9.501333236694336 0.4041328430175781 -9.633943557739258 0.4760456085205078 -9.863712310791016 0.4760456085205078 C -10.0881814956665 0.4760456085205078 -10.47538185119629 0.4263057708740234 -10.96559143066406 0.3633260726928711 C -11.6275520324707 0.2782859802246094 -12.45137214660645 0.1724462509155273 -13.049072265625 0.1724758148193359 M -13.04909133911133 -0.2275247573852539 C -11.99991893768311 -0.2275772094726563 -10.35366725921631 0.07604122161865234 -9.863707542419434 0.07604122161865234 C -9.772729873657227 0.07604122161865234 -9.721681594848633 0.06558322906494141 -9.721681594848633 0.04076576232910156 C -9.623649597167969 -0.07846260070800781 -9.53289794921875 -0.1272249221801758 -9.44483757019043 -0.1272249221801758 C -9.050687789916992 -0.1272249221801758 -8.709376335144043 0.8486356735229492 -7.999021530151367 0.8486356735229492 C -7.129961967468262 0.8486356735229492 -6.321022033691406 1.641646385192871 -6.138671875 2.617186069488525 L -5.1416015625 3.705565929412842 L -4.460942268371582 4.683216094970703 C -4.717242240905762 4.875346183776855 -5.05852222442627 8.858375549316406 -5.49653148651123 8.858375549316406 C -5.615118026733398 8.858375549316406 -5.975481986999512 10.03653907775879 -6.68779182434082 10.03653907775879 C -6.849216461181641 10.03653907775879 -7.028678894042969 9.976056098937988 -7.227541923522949 9.827635765075684 L -10.12988185882568 9.827635765075684 L -12.12500190734863 8.331295967102051 C -12.14240264892578 8.349164962768555 -12.16137218475342 8.357695579528809 -12.1817102432251 8.357695579528809 C -12.59638214111328 8.357695579528809 -13.58619785308838 4.815059661865234 -13.7149715423584 4.683216094970703 C -13.85761165618896 4.5417160987854 -14.20614242553711 1.218746185302734 -13.95168209075928 0.04076576232910156 C -13.90843391418457 -0.1595048904418945 -13.54547595977783 -0.2274990081787109 -13.04909133911133 -0.2275247573852539 Z" stroke="none" fill="#e23744"/>
    </g>
  </g>
</svg>
