<svg xmlns="http://www.w3.org/2000/svg" width="23.444" height="26.872" viewBox="0 0 23.444 26.872">
  <g id="note" transform="translate(0)">
    <path id="Path_288" data-name="Path 288" d="M808.292,1725.354l-3.671-4.153a5.748,5.748,0,0,0-4.3-1.939h-9.079a4.955,4.955,0,0,0-4.949,4.949v16.974a4.955,4.955,0,0,0,4.949,4.949h13.547a4.955,4.955,0,0,0,4.949-4.949v-12.027A5.739,5.739,0,0,0,808.292,1725.354Zm-.207,15.832a3.3,3.3,0,0,1-3.3,3.3H791.238a3.3,3.3,0,0,1-3.3-3.3v-16.974a3.3,3.3,0,0,1,3.3-3.3h9.079a4.1,4.1,0,0,1,3.068,1.382l3.671,4.152a4.1,4.1,0,0,1,1.028,2.714Z" transform="translate(-786.289 -1719.263)" fill="#00861a"/>
    <path id="Path_289" data-name="Path 289" d="M807.835,1750.528H797.622a.68.68,0,1,0,0,1.328h10.213a.68.68,0,1,0,0-1.328Z" transform="translate(-791.023 -1733.348)" fill="#02911c"/>
    <path id="Path_290" data-name="Path 290" d="M807.835,1744H797.622a.68.68,0,1,0,0,1.328h10.213a.68.68,0,1,0,0-1.328Z" transform="translate(-791.023 -1730.406)" fill="#02911c"/>
    <path id="Path_291" data-name="Path 291" d="M797.622,1738.8h4.314a.679.679,0,1,0,0-1.328h-4.314a.679.679,0,1,0,0,1.328Z" transform="translate(-791.023 -1727.465)" fill="#02911c"/>
  </g>
</svg>
