<svg xmlns="http://www.w3.org/2000/svg" width="20.381" height="24.848" viewBox="0 0 20.381 24.848">
  <g id="apple-i" transform="translate(-14.709 -11.301)">
    <g id="brands-and-logotypes" transform="translate(14.709 11.301)">
      <path id="Path_88" data-name="Path 88" d="M52.779,137.081c-3.7-.021-6.757-7.57-6.757-11.415,0-6.28,4.711-7.655,6.527-7.655a7.51,7.51,0,0,1,2.463.606,5.5,5.5,0,0,0,1.406.4,4.376,4.376,0,0,0,1.009-.327,8.085,8.085,0,0,1,3.041-.735h.007a6.232,6.232,0,0,1,5.215,2.634l.38.572-.547.413a4.606,4.606,0,0,0-2.209,3.8,4.287,4.287,0,0,0,2.392,3.963c.343.206.7.419.7.884,0,.3-2.423,6.822-5.941,6.822a4.778,4.778,0,0,1-2.006-.487,4.068,4.068,0,0,0-1.786-.43,4.593,4.593,0,0,0-1.414.382,6.926,6.926,0,0,1-2.453.572Z" transform="translate(-46.022 -112.233)" fill="#2d2d2d"/>
      <path id="Path_89" data-name="Path 89" d="M259.823,0c.092,3.3-2.271,5.6-4.631,5.452C254.8,2.816,257.551,0,259.823,0Z" transform="translate(-245.005)" fill="#2d2d2d"/>
    </g>
  </g>
</svg>
