<svg id="auction" xmlns="http://www.w3.org/2000/svg" width="20.337" height="20.337" viewBox="0 0 20.337 20.337">
  <g id="Group_11174" data-name="Group 11174">
    <g id="Group_11173" data-name="Group 11173">
      <path id="Path_7727" data-name="Path 7727" d="M12.759,11.022a.464.464,0,0,0,.487.107.446.446,0,0,1,.585.585.463.463,0,0,0,.107.487l.334.334a1.386,1.386,0,0,0,1.961,0l3.7-3.7a1.386,1.386,0,0,0,0-1.961L19.6,6.542a.461.461,0,0,0-.487-.107.446.446,0,0,1-.585-.585.463.463,0,0,0-.107-.487L14.974,1.92a.461.461,0,0,0-.487-.107.446.446,0,0,1-.621-.427.465.465,0,0,1,.036-.158.463.463,0,0,0-.107-.487L13.46.407a1.386,1.386,0,0,0-1.961,0L7.8,4.1a1.386,1.386,0,0,0,0,1.961l.335.335a.466.466,0,0,0,.487.107.446.446,0,0,1,.585.585.463.463,0,0,0,.107.487l.729.729c-3.579,3.1-8.18,7.551-9.5,8.874A1.849,1.849,0,1,0,3.156,19.8C4.749,18.2,9.09,13.707,12.041,10.3Zm6.37-3.64.149.149a.462.462,0,0,1,0,.653l-3.7,3.7a.473.473,0,0,1-.653,0l-.149-.149a1.2,1.2,0,0,0,.014-.178,1.391,1.391,0,0,0-.136-.6l3.7-3.7A1.315,1.315,0,0,0,19.128,7.382ZM8.6,5.56l-.149-.149a.462.462,0,0,1,0-.653l3.7-3.7a.473.473,0,0,1,.653,0l.149.149a1.2,1.2,0,0,0-.014.178,1.392,1.392,0,0,0,.136.6l-3.7,3.7A1.338,1.338,0,0,0,8.6,5.56Zm1.429.776,3.7-3.7a1.32,1.32,0,0,0,.775.122l3.071,3.071a1.2,1.2,0,0,0-.014.178,1.391,1.391,0,0,0,.136.6L14,10.3a1.317,1.317,0,0,0-.775-.122L10.155,7.111a1.2,1.2,0,0,0,.014-.178A1.39,1.39,0,0,0,10.033,6.336ZM2.5,19.142A.924.924,0,1,1,1.2,17.835c1.323-1.323,5.939-5.787,9.5-8.872l.686.686C8.451,13.038,4.1,17.549,2.5,19.142Z" fill="#02911c"/>
      <path id="Path_7728" data-name="Path 7728" d="M201.244,362.667h-6.471A2.776,2.776,0,0,0,192,365.44a1.851,1.851,0,0,0,1.849,1.849h8.32a1.851,1.851,0,0,0,1.849-1.849A2.776,2.776,0,0,0,201.244,362.667Zm.924,3.7h-8.32a.926.926,0,0,1-.924-.924,1.851,1.851,0,0,1,1.849-1.849h6.471a1.851,1.851,0,0,1,1.849,1.849A.926.926,0,0,1,202.169,366.365Z" transform="translate(-183.68 -346.952)" fill="#02911c"/>
    </g>
    <path id="Path_7729" data-name="Path 7729" d="M6.244,0c3.335,0,6.038.9,6.038,2.013s-2.7,2.013-6.038,2.013S1.058,3.37,1.058,2.258,2.909,0,6.244,0Z" transform="translate(7.844 16.101)" fill="#02911c" opacity="0.18"/>
  </g>
</svg>
