<svg id="chef" xmlns="http://www.w3.org/2000/svg" width="22.337" height="22.337" viewBox="0 0 22.337 22.337">
  <g id="Group_11176" data-name="Group 11176">
    <g id="Group_11175" data-name="Group 11175">
      <path id="Path_7730" data-name="Path 7730" d="M107.681,213.841a.508.508,0,1,0-1.015,0c0,1.333,1.47,3.163,1.638,3.368a.508.508,0,1,0,.785-.645A6.154,6.154,0,0,1,107.681,213.841Z" transform="translate(-101.589 -203.18)" fill="#02911c"/>
      <path id="Path_7731" data-name="Path 7731" d="M311.367,213.333a.507.507,0,0,0-.508.508,6.176,6.176,0,0,1-1.408,2.724.508.508,0,0,0,.785.644c.168-.2,1.638-2.035,1.638-3.368A.507.507,0,0,0,311.367,213.333Z" transform="translate(-294.614 -203.18)" fill="#02911c"/>
      <path id="Path_7732" data-name="Path 7732" d="M224.508,213.333a.507.507,0,0,0-.508.508v3.046a.508.508,0,0,0,1.015,0v-3.046A.507.507,0,0,0,224.508,213.333Z" transform="translate(-213.339 -203.18)" fill="#02911c"/>
      <path id="Path_7733" data-name="Path 7733" d="M16.753,2.031a5.317,5.317,0,0,0-.963.1,6.072,6.072,0,0,0-9.243,0,5.322,5.322,0,0,0-.963-.1A5.582,5.582,0,0,0,3.058,12.591l-.01,7.672a2.072,2.072,0,0,0,2.071,2.074h12.1a2.074,2.074,0,0,0,2.071-2.071V12.584A5.581,5.581,0,0,0,16.753,2.031Zm1.523,18.235a1.058,1.058,0,0,1-1.056,1.056H5.119a1.056,1.056,0,0,1-1.056-1.057l0-1.989h14.21Zm.314-8.472a.455.455,0,0,0-.076.039.508.508,0,0,0-.233.356.491.491,0,0,0-.005.085V17.26H4.067l.007-4.979a.523.523,0,0,0,0-.083.509.509,0,0,0-.08-.21.5.5,0,0,0-.151-.147.531.531,0,0,0-.08-.041A4.567,4.567,0,0,1,5.584,3.046c.1,0,.2.012.3.02a6.048,6.048,0,0,0-.812,3.026.508.508,0,0,0,1.015,0,5.077,5.077,0,1,1,10.153,0,.508.508,0,1,0,1.015,0,6.048,6.048,0,0,0-.812-3.026c.1-.008.206-.02.3-.02a4.566,4.566,0,0,1,1.837,8.748Z" fill="#02911c"/>
    </g>
  </g>
  <path id="Path_7734" data-name="Path 7734" d="M4.169-.005c3.084,0,5.757-.179,5.757.849,0,.434,0,2.471-.961,2.874-.806.347-3.014,0-4.8,0-3.084,0-9.67.44-9.67-.588,0-.274-.275-2.268.622-2.623C-3.222-.16,1.908-.005,4.169-.005Z" transform="translate(8.861 17.679)" fill="#02911c" opacity="0.18"/>
</svg>
