<svg xmlns="http://www.w3.org/2000/svg" width="33.432" height="54.68" viewBox="0 0 33.432 54.68">
  <g id="cicong11" transform="translate(-989.332 -420.548)">
    <path id="Path_7792" data-name="Path 7792" d="M38.477,5.367a74.228,74.228,0,0,0,2.168,8.462,63.857,63.857,0,0,1,8.246,6.782,3.533,3.533,0,0,1,1.069,3.177A29.315,29.315,0,0,1,48.4,29.714l-.7,1.772q-.55,1.314-1.771,4.063l-.672,2.994a.249.249,0,0,1,0,.115.507.507,0,0,1-.06.13l-.123.4v.03l-.428,1.8A47.026,47.026,0,0,0,43.366,47.8l.03,1.375.977-.367q2.78-1.008,4-1.344a11.841,11.841,0,0,1,3.207-.428,5.665,5.665,0,0,1,2.993.611A2.839,2.839,0,0,1,55.919,50.3q0,1.588-3.147,4-1.252.978-1.985,1.436l.061.306q0,2.169-6.384,3.6l-.093.031a12.286,12.286,0,0,1-3.848-.855v-.03h-.061a14.155,14.155,0,0,0-3.452-.947L34.444,57.6h-.977a17.388,17.388,0,0,1-7.544-1.5q-3.147-1.65-3.391-4.094a3.479,3.479,0,0,1,1.131-3.452,5.04,5.04,0,0,1,1.924-.886h.062a7.914,7.914,0,0,1,1.863.336,1.253,1.253,0,0,1,1.069-.489,3.742,3.742,0,0,1,1.222.306,10.354,10.354,0,0,1,1.253.55c.061.021.5.183,1.314.489l.214.061V47.8A45.023,45.023,0,0,0,31.3,41.016l-.336-1.466a.9.9,0,0,1-.122-.458l-.092-.428-.061-.122-.7-3.055L27.94,30.721v-.03l-.4-.978a29.337,29.337,0,0,1-1.557-5.9,3.683,3.683,0,0,1,1.069-3.207A65.792,65.792,0,0,1,35.3,13.828a85,85,0,0,0,2.291-8.492A.38.38,0,0,1,38.019,5,.41.41,0,0,1,38.477,5.367Zm0,14.3h.091a5,5,0,0,1,4.307,2.566,8.965,8.965,0,0,1,1.466,4.979,8.082,8.082,0,0,1-.214,1.955,6.668,6.668,0,0,1-.642,1.5A3.226,3.226,0,0,1,40.8,32.37a9.242,9.242,0,0,0,.092,1.314,8.118,8.118,0,0,0,1.985-1.741,16.9,16.9,0,0,0,1.13-1.8l.458-1.161.428-1.588a25.59,25.59,0,0,1,1.344-3.941l-8.246-8.615L29.71,23.451a25.659,25.659,0,0,1,1.345,3.941l.428,1.467v.03l.183.519a3.749,3.749,0,0,0,.275.733,16.855,16.855,0,0,0,1.129,1.8,9.288,9.288,0,0,0,2.169,1.894,11.756,11.756,0,0,0,.091-1.466,3.28,3.28,0,0,1-2.688-1.711,6.946,6.946,0,0,1-.855-3.452,8.731,8.731,0,0,1,1.5-4.979,5.028,5.028,0,0,1,4.276-2.566h.091l.428.092ZM35.941,14.5A65.788,65.788,0,0,0,27.7,21.282,2.673,2.673,0,0,0,26.9,23.7a29.116,29.116,0,0,0,1.5,5.712l.214.488,1.894-1.1-.337-1.161a32.557,32.557,0,0,0-1.4-4.094.373.373,0,0,1,.061-.488l8.827-9.195a.456.456,0,0,1,.337-.122.417.417,0,0,1,.306.122l8.827,9.195a.4.4,0,0,1,.092.488,29.6,29.6,0,0,0-1.435,4.094l-.367,1.314,1.833,1.191.306-.733a26.482,26.482,0,0,0,1.5-5.743,2.631,2.631,0,0,0-.794-2.383A65.792,65.792,0,0,0,40,14.5a.56.56,0,0,1-.183-.244,65.94,65.94,0,0,1-1.8-6.69q-.826,3.482-1.894,6.69A.55.55,0,0,1,35.941,14.5Zm1.4,12.005A11.208,11.208,0,0,0,39,24.8a.454.454,0,0,1,.4-.152.592.592,0,0,1,.367.244,4.487,4.487,0,0,0,1.008,1.222,4.955,4.955,0,0,0,1.1.672.4.4,0,0,1,.275.428,6.421,6.421,0,0,1-1.314,4.246,2.464,2.464,0,0,0,1.863-1.283,3.206,3.206,0,0,0,.519-1.253,6.129,6.129,0,0,0,.214-1.711,7.814,7.814,0,0,0-1.313-4.459A4.139,4.139,0,0,0,38.63,20.58l-.458.092a.155.155,0,0,1-.183,0L37.5,20.58a4.12,4.12,0,0,0-3.452,2.169A7.772,7.772,0,0,0,32.7,27.208a5.656,5.656,0,0,0,.733,2.963,2.447,2.447,0,0,0,1.893,1.283,5.61,5.61,0,0,1-1.253-3.3.383.383,0,0,1,.367-.489A8.857,8.857,0,0,0,37.346,26.506Zm.55.733a8.669,8.669,0,0,1-2.871,1.222,4.351,4.351,0,0,0,1.1,2.5l.428.275a3.217,3.217,0,0,0,1.405.366H38.2a3.036,3.036,0,0,0,1.435-.366v-.03a1.055,1.055,0,0,0,.337-.245,4.862,4.862,0,0,0,1.253-3.482,5.638,5.638,0,0,1-1.039-.672,6.075,6.075,0,0,1-.886-.947A11.8,11.8,0,0,1,37.9,27.239ZM46.907,31l-1.8-1.161-.275.7a15.807,15.807,0,0,1-1.191,1.924A10.036,10.036,0,0,1,40.8,34.844a.45.45,0,0,1-.428.031.466.466,0,0,1-.244-.306,10.685,10.685,0,0,1-.244-2.383l-.031-.03a3.947,3.947,0,0,1-1.65.367h-.245a4.259,4.259,0,0,1-1.649-.367l-.062.03a12.421,12.421,0,0,1-.214,2.5.469.469,0,0,1-.7.306,12.125,12.125,0,0,1-3.024-2.535c-.448-.652-1-2.139-1.342-2.749l-2.018,1.039s1.238,2.543,1.894,4.43a12.95,12.95,0,0,1,.733,3.116,1.047,1.047,0,0,1,.091.3l.153.581c.061.163.4,1.62.4,1.62s1.283,6.161,1.283,7l-.03,1.467.458.214q.977.427,2.719,1.008a2.674,2.674,0,0,1,1.283.916l4.582-1.863v-.031a12.65,12.65,0,0,1-.061-1.71c0-.9,1.313-7,1.313-7l.459-1.894.061-.306a.592.592,0,0,1,.091-.3l.7-3.085q.917-1.986,1.772-4.094ZM28.855,48.469A24.4,24.4,0,0,1,32.7,50.608q2.963,1.619,4.582,2.444l-.03-.978a1.464,1.464,0,0,0-.917-.733q-1.863-.611-2.811-1.038l-.7-.3h-.062l-.671-.275a8.066,8.066,0,0,1-1.466-.55q-.824-.366-1.16-.489ZM37.1,56.931a14.717,14.717,0,0,1,3.268.855L41.2,55.8l-1.009-.3-.4-.183a18.247,18.247,0,0,1-2.26-1.1l-5.315-2.841A19.6,19.6,0,0,0,27.6,48.989a8.127,8.127,0,0,0-1.925-.4,3.554,3.554,0,0,0-1.466.733q-.977.672-.794,2.6.244,1.955,2.931,3.36a16.466,16.466,0,0,0,7.118,1.405h.977Zm1.1-3.391,2.321,1.13a10.067,10.067,0,0,0,1.4.336,14.208,14.208,0,0,0,3.3.061,20.171,20.171,0,0,1,4.093-.183l.764.214q1.1-.7,2.139-1.5Q55,51.4,55,50.3a1.975,1.975,0,0,0-.886-1.863,5.009,5.009,0,0,0-2.535-.488,11.623,11.623,0,0,0-2.993.4q-1.405.4-3.941,1.314l-3.94,1.589q-2.108.886-2.535,1.039Zm3.024,4.552a11.306,11.306,0,0,0,3.085.672q5.528-1.253,5.62-2.719l-.062-.031h-.03a1.706,1.706,0,0,0-.7-.244,20.7,20.7,0,0,0-3.818.214,14.838,14.838,0,0,1-3.177-.03Z" transform="translate(966.844 415.548)" fill="#02911c" fill-rule="evenodd"/>
    <path id="Path_7793" data-name="Path 7793" d="M1.1-.644c1.016,0,1.816-4.164,4.063-4.741a1.482,1.482,0,0,1,1.793.945c0,.915-1.051,5.07-1.793,5.655-.445.364-1.553,12.89-2.314,12.89A6.638,6.638,0,0,1,.327,15.678c-.326.09-1.334.868-2,.81-.513-.047-.681-.91-.857-.381-.416,1.252-3.7-2.393-4.261-1.763-.647.724-.032-5.075-.266-5.337S-9.028,5-8.586,2.767c.1-.483-2.71-6.484-2.58-7.267.063-.377,1.1-1.409,2.058-.884.831.455,2.049,2.946,2.049,2.8C-6.676-3.1-5.989-.3-4.725-.524A49.03,49.03,0,0,1,1.1-.644Z" transform="translate(1004.887 442.855)" fill="#02911c" opacity="0.18"/>
  </g>
</svg>
