<svg id="ciconr14" xmlns="http://www.w3.org/2000/svg" width="31.063" height="43.769" viewBox="0 0 31.063 43.769">
  <path id="Path_7800" data-name="Path 7800" d="M-8.409-1.061c.737,0,4.021-2.045,4.175-1.143,0,.447,3.2,2.056,2.84,2.342V3.887l-2.84,4.483c-.123,0-3.821,4.867-4.734,4.124-.2.611-4.308-3.6-4.583-3.288-.316.353-1.928-2.662-2.043-2.79a6.584,6.584,0,0,1-1.5-3.089A9.175,9.175,0,0,1-16.541.138C-16.412-.511-12.705-2-12.705-2.2-12.25-2.808-9.147-1.061-8.409-1.061Z" transform="translate(24.591 22.934)" fill="#e50010" opacity="0.18"/>
  <g id="Group_11222" data-name="Group 11222" transform="translate(6.349 19.761)">
    <g id="Group_11221" data-name="Group 11221" transform="translate(0)">
      <path id="Path_7797" data-name="Path 7797" d="M159.941,229.4a6.065,6.065,0,0,0-3.316.991,5.994,5.994,0,0,0-3.316-.991,5.76,5.76,0,0,0-5.858,5.642c0,4.833,9.174,11.474,9.174,11.474s9.174-6.624,9.174-11.466A5.762,5.762,0,0,0,159.941,229.4Zm-3.316,15.342c-2.507-1.964-7.761-6.693-7.761-9.7a4.357,4.357,0,0,1,4.454-4.238,4.572,4.572,0,0,1,2.869,1l.439.353.439-.353a4.59,4.59,0,0,1,2.869-1,4.349,4.349,0,0,1,4.445,4.238C164.386,238.049,159.131,242.786,156.624,244.742Z" transform="translate(-147.45 -229.4)" fill="#e50010"/>
    </g>
  </g>
  <g id="Group_11224" data-name="Group 11224" transform="translate(0)">
    <g id="Group_11223" data-name="Group 11223">
      <path id="Path_7798" data-name="Path 7798" d="M101.772,14.325a10.321,10.321,0,0,0-6.142-2.963V8.468h2.119a2.118,2.118,0,0,0,2.119-2.119V2.119A2.118,2.118,0,0,0,97.749,0H80.805a2.118,2.118,0,0,0-2.119,2.119V6.357a2.118,2.118,0,0,0,2.119,2.119h2.119v2.946a10.186,10.186,0,0,0-5.7,2.825,10.366,10.366,0,0,0-3.472,7.736V41.65a2.118,2.118,0,0,0,2.119,2.119h26.825a2.118,2.118,0,0,0,2.119-2.119V21.639A10.313,10.313,0,0,0,101.772,14.325ZM80.805,7.064V7.055a.71.71,0,0,1-.706-.706V2.119a.71.71,0,0,1,.706-.706H97.749a.71.71,0,0,1,.706.706V6.357a.71.71,0,0,1-.706.706Zm13.4,1.4v2.825H84.328V8.468Zm8.476,33.88H75.86a.71.71,0,0,1-.706-.706V21.975a8.949,8.949,0,0,1,3-6.676,9.388,9.388,0,0,1,6.314-2.593H94.45a8.941,8.941,0,0,1,8.933,8.933v20s.183-.177.009,0S103.073,42.347,102.685,42.347Z" transform="translate(-73.75)" fill="#e50010"/>
    </g>
  </g>
  <g id="Group_11226" data-name="Group 11226" transform="translate(11.991 23.999)">
    <g id="Group_11225" data-name="Group 11225">
      <path id="Path_7799" data-name="Path 7799" d="M217.188,281.425V278.6h-1.413v2.825H212.95v1.4h2.825v2.825h1.413V282.83h2.825v-1.4Z" transform="translate(-212.95 -278.6)" fill="#e50010"/>
    </g>
  </g>
</svg>
