<svg id="cicong7" xmlns="http://www.w3.org/2000/svg" width="44.718" height="47.947" viewBox="0 0 44.718 47.947">
  <g id="Group_11233" data-name="Group 11233" transform="translate(0 0)">
    <g id="Group_11232" data-name="Group 11232" transform="translate(0)">
      <path id="Path_7815" data-name="Path 7815" d="M48.353,2.278a7.778,7.778,0,0,0-10.959-.028,20.628,20.628,0,0,0-3.01-1.2A22.118,22.118,0,0,0,27.818,0C23.169,0,19.113,1.956,17.232,5.1a7.909,7.909,0,0,0-.621,1.285c-.886.844-4.885,4.976-4.885,10.836a8.223,8.223,0,0,1-3,6.808,1.577,1.577,0,0,0,.194,2.62c.422.237.9.464,1.354.684.405.195.982.471,1.263.651v1.527a1.6,1.6,0,0,1-.118.607l-.213.523a2.212,2.212,0,0,0,.278,2.153v.188a1.867,1.867,0,0,0,.653,1.42V35.4a3.916,3.916,0,0,0,3.911,3.911h2.531a.857.857,0,0,0,0-1.714H16.051a2.2,2.2,0,0,1-2.2-2.2V33.925a.857.857,0,0,0-.521-.788l-.037-.016a.156.156,0,0,1-.095-.144v-.484a.857.857,0,0,0-.183-.53l-.151-.192a.494.494,0,0,1-.069-.49l.213-.523a3.311,3.311,0,0,0,.245-1.252V27.681c0-.826-.841-1.23-2.235-1.9-.366-.176-.742-.356-1.075-.534a9.946,9.946,0,0,0,3.5-8.032,13.256,13.256,0,0,1,2.679-7.631A10.885,10.885,0,0,0,17.474,14.2c2.2,4.114,6.03,5.839,9.109,7.224,2.929,1.318,4.586,2.148,4.6,3.873a3.718,3.718,0,0,1-.866,2.77,2.389,2.389,0,0,1-1.575.643.842.842,0,0,0-.732.334.856.856,0,0,0-.121.8,12.408,12.408,0,0,0,2.022,3.472,8.25,8.25,0,0,0,6.376,3.228l2.3,6.752a.857.857,0,1,0,1.622-.553L37.943,36.1a17.656,17.656,0,0,0,8.716-10.323,20.788,20.788,0,0,0,.232-11.365A7.772,7.772,0,0,0,48.353,2.278ZM45.026,25.256a16.05,16.05,0,0,1-8.357,9.576,6.463,6.463,0,0,1-5.408-2.563,10.926,10.926,0,0,1-1.332-2.033,3.932,3.932,0,0,0,1.556-.91,5.3,5.3,0,0,0,1.41-4.037c-.022-2.908-2.736-4.13-5.61-5.423C24.3,18.521,20.91,17,18.986,13.4a7.743,7.743,0,0,1-.84-6.226l.008-.021A6.256,6.256,0,0,1,18.7,5.976c1.575-2.628,5.072-4.26,9.127-4.26h.025a20.531,20.531,0,0,1,6.017.965,15.763,15.763,0,0,1,9.582,7.593A19.6,19.6,0,0,1,45.026,25.256ZM46.378,12.7a21.5,21.5,0,0,0-1.417-3.242,16.848,16.848,0,0,0-5.989-6.329A6.055,6.055,0,1,1,46.378,12.7Z" transform="translate(-8.12 4.062)" fill="#02911c"/>
      <path id="Path_7817" data-name="Path 7817" d="M25.97.071c3.509,0,7.721-.863,8.457,3.43,0,2.127,2.184,6.406.459,7.766-.487.4.538,3.384-.64,5.685-.9,1.739-3.974,2.865-3.909,4.312-.306,0-1.205,1.241-3.176,2.136-.767.326-2.539-.049-3.468,1.707a6.6,6.6,0,0,0-.35.888c-.967,2.909-5.28-1.09-6.592.374-.323.361-.606-.928-1.623-.623-.356.188-1.453.984-4.111-.652C8.614,27.255.784,14.268.516,13.969.121,13.542-.5,10.256.695,7.632c.29-.621,5.49-2.676,6.629-2.787C7.606,3.419,6.035,5,9.065,7.252c.391.272,1.821.426,2.435,1.389,2.727-.5,4.369-.965,4.369-1.367C18.036,4.4,22.461.071,25.97.071Z" transform="translate(19.431 42.895) rotate(-111)" fill="#02911c" opacity="0.18"/>
    </g>
  </g>
  <g id="Group_11235" data-name="Group 11235" transform="translate(9.226 31.327)">
    <g id="Group_11234" data-name="Group 11234">
      <path id="Path_7816" data-name="Path 7816" d="M128.486,330.892,125.8,326.24l-.091-3.176a5.2,5.2,0,0,0-4.785-5.044,4.755,4.755,0,0,0-4.66,2.691l-.042.089a5.229,5.229,0,0,0,1.863,6.595l2.673,1.743,2.92,5.058a.857.857,0,0,0,1.484-.857l-2.594-4.494,1.034-.6,1.034-.6,2.365,4.1a.857.857,0,0,0,1.485-.857Zm-7.06-3.365-2.4-1.567a3.509,3.509,0,0,1-1.25-4.425l.042-.089a3.035,3.035,0,0,1,2.731-1.726q.12,0,.241.01A3.491,3.491,0,0,1,124,323.114l.082,2.881Z" transform="translate(-115.724 -318.005)" fill="#02911c"/>
    </g>
  </g>
</svg>
