<svg xmlns="http://www.w3.org/2000/svg" xmlns:xlink="http://www.w3.org/1999/xlink" width="53.957" height="45.807" viewBox="0 0 53.957 45.807">
  <defs>
    <clipPath id="clip-path">
      <rect width="53.957" height="45.807" fill="none"/>
    </clipPath>
  </defs>
  <g id="ciconr12" clip-path="url(#clip-path)">
    <g id="ciconr12-2" data-name="ciconr12" transform="translate(0.168)">
      <path id="Path_6049" data-name="Path 6049" d="M20.7,44.812c0-.408,0-.815,0-1.221-.137-.045-.144.072-.182.13q-.712,1.059-1.416,2.123c-.05.075-.411.68-.781.8-1.422.471-2.834.97-4.255,1.446a.693.693,0,1,1-.411-1.322q1.868-.657,3.743-1.293a1.044,1.044,0,0,0,.576-.445c.9-1.376,1.814-2.744,2.728-4.111.423-.633.939-.638,1.363-.006q1.373,2.047,2.726,4.107a1.092,1.092,0,0,0,.6.465c1.239.418,2.474.848,3.708,1.281a.692.692,0,1,1-.381,1.33c-1.467-.493-2.926-1.008-4.389-1.513a.84.84,0,0,1-.422-.374Q23.249,45.2,22.574,44.2c-.067-.1-.091-.263-.272-.24.091-.194-.055-.263-.186-.342.049.131-.215.365.137.393-.19,0-.164.149-.165.255-.005,1.094,0,2.187-.008,3.281,0,.218.124.253.28.3q3.092.906,6.184,1.815l4.594,1.347c.054.016.11.024.221.048-.2-.841-.395-1.64-.589-2.439-.6-2.472-1.208-4.941-1.793-7.416a1.107,1.107,0,0,0-.928-.951c-.915-.195-1.817-.45-2.725-.678a5.768,5.768,0,0,1-2.567-1.466c-.161-.152-.132-.226.028-.349a4.308,4.308,0,0,0,.639-.579c.16-.184.245-.132.391.006a4.225,4.225,0,0,0,1.97,1.066c.922.215,1.832.481,2.754.694a2.174,2.174,0,0,1,1.729,1.729c.372,1.5.73,3.01,1.1,4.514q.665,2.724,1.337,5.447a1.712,1.712,0,0,1,.053.641c-.014.107-.013.2.142.131H34.9c-.192.006-.2.182-.267.3a1.321,1.321,0,0,1-1.6.714q-2.392-.668-4.769-1.391c-.292-.088-.388-.038-.465.252-.175.661-.4,1.308-.584,1.967A3.012,3.012,0,0,0,27.752,56c.152.2.293.413.464.6.149.16.235.4.493.439.009,0,.02-.011.031-.018-.009,0-.024,0-.027,0-.118.209.091.288.176.4.254.348.528.681.827,1.063l-1.412.322c-.1.024-.148-.053-.2-.119-.566-.728-1.181-1.424-1.689-2.19a4.327,4.327,0,0,1-.5-3.765c.19-.645.382-1.289.588-1.928.064-.2.047-.291-.18-.356-1.581-.452-3.157-.919-4.734-1.386a.637.637,0,0,0-.384-.006q-2.381.706-4.767,1.4c-.2.058-.228.125-.172.325a20.33,20.33,0,0,1,.764,2.773,4.308,4.308,0,0,1-.871,3.254c-.461.615-.951,1.208-1.429,1.81-.064.081-.107.192-.251.159-.453-.1-.907-.2-1.4-.314.645-.819,1.258-1.6,1.879-2.381a3.047,3.047,0,0,0,.565-2.945c-.2-.643-.4-1.283-.574-1.931-.064-.239-.155-.271-.375-.2-1.575.473-3.155.93-4.73,1.4a1.388,1.388,0,0,1-1.8-1.653q1.225-5.072,2.481-10.137a2.122,2.122,0,0,1,1.662-1.662c.956-.232,1.905-.495,2.862-.723a3.964,3.964,0,0,0,1.873-1.023c.216-.209.323-.174.5.025a3.363,3.363,0,0,0,.562.5c.185.134.193.218.024.378a5.749,5.749,0,0,1-2.571,1.459c-.932.233-1.856.5-2.793.7a.989.989,0,0,0-.816.836q-.823,3.412-1.66,6.82L9.4,51.074c.5-.143.941-.268,1.383-.4q4.782-1.4,9.565-2.8c.258-.075.367-.167.356-.457-.026-.7-.007-1.394-.009-2.091C20.693,45.185,20.7,44.972,20.7,44.812Z" transform="translate(5.498 -24.41)" fill="#e50010" stroke="#e50010" stroke-width="0.2"/>
      <path id="Path_6050" data-name="Path 6050" d="M-95.554,348.471a.573.573,0,0,0,.4.059c1.346-.017,2.693,0,4.039-.014q1.458-.011,2.92.016c.605.011.958.257.959.689s-.369.706-.986.706q-4.656,0-9.312-.011-7.4-.005-14.8-.006c-3.285,0-6.57.014-9.855.014q-5.795,0-11.589-.011a1.318,1.318,0,0,1-.39-.049.64.64,0,0,1-.5-.668.664.664,0,0,1,.55-.632,1.654,1.654,0,0,1,.43-.029q3.485,0,6.969-.006c.109,0,.266.074.323-.058s-.1-.2-.18-.281a4.479,4.479,0,0,1-.745-5.058,4.16,4.16,0,0,1,4.5-2.058q5.038,1.108,10.071,2.238a5.977,5.977,0,0,1,.832.191,4.032,4.032,0,0,0,2.4-.106q3.875-.851,7.754-1.687c.95-.206,1.9-.4,2.853-.606a3.775,3.775,0,0,1,4,1.541,4.036,4.036,0,0,1,.5,4.065A4.925,4.925,0,0,1-95.554,348.471Zm-11.171.072v-.009c2.5,0,5.007,0,7.51,0a3.568,3.568,0,0,0,3.709-3.293,2.63,2.63,0,0,0-3.144-2.783c-.363.118-.746.174-1.121.255q-5.393,1.167-10.785,2.336a1.684,1.684,0,0,1-.746.009q-5.875-1.311-11.753-2.611a2.72,2.72,0,0,0-3.287,3.242,3.587,3.587,0,0,0,3.6,2.843c.889,0,1.779,0,2.669-.015,1.874-.021,3.748.022,5.622.027C-111.875,348.548-109.3,348.543-106.724,348.543Z" transform="translate(137.835 -306.898)" fill="#e50010" stroke="#e50010" stroke-width="0.2"/>
      <path id="Path_6053" data-name="Path 6053" d="M117.411-137.766a7.028,7.028,0,0,1,2.354-5.459,4.673,4.673,0,0,1,3.8-1.035,5.106,5.106,0,0,1,2.584,1.147,6.257,6.257,0,0,1,2.175,3.982,8.308,8.308,0,0,1-3.386,7.933,4.313,4.313,0,0,1-1.55.639,3.247,3.247,0,0,1-1.918-.324,7.1,7.1,0,0,1-3.127-3.195A7.34,7.34,0,0,1,117.411-137.766Zm9.6-.021c-.016-.37-.01-.624-.041-.873a4.823,4.823,0,0,0-2.016-3.607,3.583,3.583,0,0,0-4.8.61,5.726,5.726,0,0,0-1.281,3.032,6.451,6.451,0,0,0,2.52,6.068,2.214,2.214,0,0,0,3.132-.075A6.754,6.754,0,0,0,127.01-137.787Z" transform="translate(-96.023 144.578)" fill="#e50010" stroke="#e50010" stroke-width="0.2"/>
      <path id="Path_6057" data-name="Path 6057" d="M532.493,445.682c.179,0,.359-.009.538,0a.684.684,0,0,1,.65.682.665.665,0,0,1-.637.691,11.031,11.031,0,0,1-1.148,0,.674.674,0,0,1-.635-.7.69.69,0,0,1,.658-.676C532.109,445.672,532.3,445.681,532.493,445.682Z" transform="translate(-479.992 -404.046)" fill="#e50010" stroke="#e50010" stroke-width="0.2"/>
      <path id="Path_6058" data-name="Path 6058" d="M-177.829,445.748c.1.063.108-.032.151-.083a2.181,2.181,0,0,1,2.078-.094.651.651,0,0,1,.156.758.634.634,0,0,1-.607.425c-.31.006-.621.005-.931,0-.582,0-.828-.254-.816-.832a1.051,1.051,0,0,0-.025-.174Z" transform="translate(177.886 -403.744)" fill="#e50010" stroke="#e50010" stroke-width="0.2"/>
      <path id="Path_6071" data-name="Path 6071" d="M-178.562,450.528l-.049-.029-.014.025h.057Z" transform="translate(178.625 -408.52)" fill="#e50010" stroke="#e50010" stroke-width="0.2"/>
      <path id="Path_6072" data-name="Path 6072" d="M308.432,501.974l-.045.026.048-.023Z" transform="translate(-273.216 -456.283)" fill="#e50010" stroke="#e50010" stroke-width="0.2"/>
      <ellipse id="Ellipse_116" data-name="Ellipse 116" cx="4.194" cy="6.291" rx="4.194" ry="6.291" transform="translate(23.201 0)" fill="#e50010" opacity="0.18"/>
    </g>
  </g>
</svg>
