<svg id="ciconr2" xmlns="http://www.w3.org/2000/svg" width="42.357" height="42.357" viewBox="0 0 42.357 42.357">
  <g id="Group_11176" data-name="Group 11176">
    <g id="Group_11175" data-name="Group 11175">
      <path id="Path_7730" data-name="Path 7730" d="M108.591,214.3a.963.963,0,1,0-1.925,0c0,2.528,2.788,6,3.106,6.387a.963.963,0,1,0,1.489-1.222C110.229,218.2,108.591,215.689,108.591,214.3Z" transform="translate(-97.039 -194.08)" fill="#e50010"/>
      <path id="Path_7731" data-name="Path 7731" d="M313.187,213.333a.962.962,0,0,0-.963.963c0,1.388-1.638,3.905-2.67,5.166a.963.963,0,0,0,1.489,1.221c.318-.388,3.106-3.859,3.106-6.387A.962.962,0,0,0,313.187,213.333Z" transform="translate(-281.419 -194.08)" fill="#e50010"/>
      <path id="Path_7732" data-name="Path 7732" d="M224.963,213.333a.962.962,0,0,0-.963.963v5.776a.963.963,0,1,0,1.925,0V214.3A.962.962,0,0,0,224.963,213.333Z" transform="translate(-203.784 -194.08)" fill="#e50010"/>
      <path id="Path_7733" data-name="Path 7733" d="M31.768,3.851a10.083,10.083,0,0,0-1.826.195,11.514,11.514,0,0,0-17.526,0,10.092,10.092,0,0,0-1.826-.195A10.585,10.585,0,0,0,5.8,23.877L5.78,38.425a3.929,3.929,0,0,0,3.928,3.932H32.653a3.932,3.932,0,0,0,3.928-3.928V23.862A10.583,10.583,0,0,0,31.768,3.851Zm2.888,34.579a2.005,2.005,0,0,1-2,2H9.707a2,2,0,0,1-2-2.005l.005-3.771H34.656Zm.6-16.065a.863.863,0,0,0-.144.074.964.964,0,0,0-.442.676.93.93,0,0,0-.01.162V32.73H7.712l.012-9.441a.991.991,0,0,0-.009-.158.965.965,0,0,0-.152-.4.954.954,0,0,0-.286-.279,1.008,1.008,0,0,0-.151-.078,8.66,8.66,0,0,1,3.463-16.6c.187,0,.384.023.577.038a11.468,11.468,0,0,0-1.54,5.738.963.963,0,0,0,1.925,0,9.627,9.627,0,1,1,19.253,0,.963.963,0,0,0,1.925,0,11.468,11.468,0,0,0-1.54-5.738c.193-.015.391-.038.577-.038a8.659,8.659,0,0,1,3.484,16.588Z" fill="#e50010"/>
    </g>
  </g>
  <path id="Path_7734" data-name="Path 7734" d="M12.871.009c5.848,0,10.917-.339,10.917,1.61,0,.823,0,4.686-1.821,5.45-1.528.658-5.716,0-9.1,0-5.848,0-18.337.834-18.337-1.115,0-.52-.521-4.3,1.18-4.974C-1.143-.285,8.585.009,12.871.009Z" transform="translate(11.837 33.506)" fill="#e50010" opacity="0.18"/>
</svg>
