<svg id="ciconr17" xmlns="http://www.w3.org/2000/svg" width="45.182" height="45.182" viewBox="0 0 45.182 45.182">
  <g id="Group_11227" data-name="Group 11227" transform="translate(0 0)">
    <path id="Path_7801" data-name="Path 7801" d="M6.478,45.233a.731.731,0,0,0,.086.2A19.558,19.558,0,0,0,13.441,53.8l.012.009.013.009.007.005A19.142,19.142,0,0,0,43.258,37.909a.728.728,0,0,0-1.457,0,17.685,17.685,0,0,1-.565,4.443l-6.021-1.959a.726.726,0,0,0-.623.082L32.02,42.147l-.1.076a1.478,1.478,0,0,1-1.017.41,1.538,1.538,0,0,1-.957-.339,1.518,1.518,0,0,1-.545-.923l-.674-3.946-.01-.046a3.01,3.01,0,0,0-1.527-2.02l-.074-.034-1.254-.489a1.517,1.517,0,0,1-.791-1.34A1.5,1.5,0,0,1,25.147,33a1.349,1.349,0,0,1,.267-.447l.014-.017a2.908,2.908,0,0,0,.642-1.832,3.064,3.064,0,0,0-1.3-2.5l-1.347-.962-.02-.013a3.047,3.047,0,0,0-1.7-.515,3.079,3.079,0,0,0-2.69,1.571L19,28.3l-.965,1.833-.018.036a1.305,1.305,0,0,1-.519.58,1.554,1.554,0,0,1-.758.213l-3.738-.754a.662.662,0,0,0-.144-.015,1.587,1.587,0,0,1-.966-.314,1.36,1.36,0,0,1-.51-.791l-.006-.024L10.7,26.454c.3-.352.613-.7.942-1.024a17.669,17.669,0,0,1,17.875-4.344.729.729,0,0,0,.445-1.388h0A19.141,19.141,0,0,0,5,37.909a18.4,18.4,0,0,0,1.3,6.883l.01.055C6.361,44.978,6.424,45.1,6.478,45.233Zm1.5-.2L9.2,42.315a2.226,2.226,0,0,1,.841-.958,2.18,2.18,0,0,1,1.151-.334,2.114,2.114,0,0,1,1.624.744l0,0a3.642,3.642,0,0,0,2.746,1.241h1.382a2.194,2.194,0,0,1,2.193,2.188c0,.074,0,.15-.012.227l-.176,1.735a4.631,4.631,0,0,1-2.232,3.509l-2.8,1.673A18.088,18.088,0,0,1,7.979,45.032Zm1.6-17.117.4,1.519h0a2.821,2.821,0,0,0,1.042,1.606,3.031,3.031,0,0,0,1.727.6l3.8.767a.662.662,0,0,0,.144.015A3.023,3.023,0,0,0,18.256,32a2.771,2.771,0,0,0,1.07-1.186h0l.958-1.82a1.624,1.624,0,0,1,1.415-.82,1.588,1.588,0,0,1,.884.268l1.335.953,0,0a1.607,1.607,0,0,1,.687,1.31,1.452,1.452,0,0,1-.32.918h0a2.811,2.811,0,0,0-.525.9,2.935,2.935,0,0,0-.152.969,2.98,2.98,0,0,0,1.571,2.635l.082.038,1.262.492a1.541,1.541,0,0,1,.768,1.047l.669,3.919,0,.01A2.984,2.984,0,0,0,30.9,44.091a2.934,2.934,0,0,0,1.909-.722h0l2.281-1.483,5.713,1.859a17.677,17.677,0,0,1-25.528,9.479l2.188-1.308A6.09,6.09,0,0,0,20.4,47.3l.176-1.736a3.589,3.589,0,0,0,.019-.373,3.651,3.651,0,0,0-3.651-3.646H15.565a2.183,2.183,0,0,1-1.65-.743l0,0A3.582,3.582,0,0,0,11.2,39.565a3.632,3.632,0,0,0-1.924.557A3.687,3.687,0,0,0,7.882,41.7l0,.007-.631,1.4a17.15,17.15,0,0,1-.79-5.2A17.538,17.538,0,0,1,9.574,27.915Z" transform="translate(-5.001 -11.868)" fill="#e50010"/>
    <path id="Path_7802" data-name="Path 7802" d="M44.368,37.541h0l0,0Z" transform="translate(-24.605 -21.205)" fill="#e50010"/>
    <path id="Path_7803" data-name="Path 7803" d="M77.169,5.578v0l0-.014-.018-.051-.028-.08-.034-.061-.036-.061L77,5.252l-.044-.05L76.9,5.157l-.055-.042-.061-.033-.064-.03-.071-.022-.065-.018L76.5,5.005,76.45,5h-.026a13.745,13.745,0,0,0-4.033.729,15.251,15.251,0,0,0-6.509,4.112,12.335,12.335,0,0,0-3.187,8.52,18.335,18.335,0,0,0,.659,4.716l.008.021.028.073.027.061.038.06.04.057.048.051.052.05.054.039.065.041c-.845.864-1.68,1.663-2.484,2.416a.729.729,0,1,0,1,1.064c.924-.865,1.9-1.8,2.893-2.836a13.235,13.235,0,0,0,5.053,1.18,6.774,6.774,0,0,0,3.806-1.077,7.04,7.04,0,0,0,1.964-1.988,12,12,0,0,0,1.652-4.145,23.316,23.316,0,0,0,.474-4.884A34.5,34.5,0,0,0,77.169,5.578ZM75.142,20.788a6.009,6.009,0,0,1-1.966,2.274,5.311,5.311,0,0,1-3,.836,11.237,11.237,0,0,1-3.993-.862,39.586,39.586,0,0,0,4.9-6.69.729.729,0,1,0-1.261-.731h0a38.393,38.393,0,0,1-5.052,6.807l-.08-.038a16.7,16.7,0,0,1-.534-4.02,11.2,11.2,0,0,1,1.346-5.5,12.16,12.16,0,0,1,5.286-4.9,14.209,14.209,0,0,1,5.092-1.484,33.023,33.023,0,0,1,.735,6.779A16.681,16.681,0,0,1,75.142,20.788Z" transform="translate(-32.887 -5)" fill="#e50010"/>
    <path id="Path_7809" data-name="Path 7809" d="M-3,2.358c1.3,0,3.439.261,3.712,2.224,0,.973,1.016,3.091.377,3.713C.7,8.682.409,16.958-.247,16.958c-.218,0-6.416,5.978-8.027,4.362-.359,1.33-3.32-2.7-3.807-2.029-.557.769-.9-7.4-1.106-7.674s2.532-2.829,2.913-5.2C-10.046,5-6.911,4.682-6.911,4.236A4.738,4.738,0,0,1-3,2.358Z" transform="translate(43.805 -1.568)" fill="#e50010" opacity="0.18"/>
  </g>
</svg>
