<svg id="ciconr18" xmlns="http://www.w3.org/2000/svg" width="42.42" height="42.358" viewBox="0 0 42.42 42.358">
  <path id="Path_7810" data-name="Path 7810" d="M31.91,53.158a21.179,21.179,0,1,1,21.21-21.21A21.244,21.244,0,0,1,31.91,53.158Zm0-41.121A19.942,19.942,0,1,0,51.883,31.948,20,20,0,0,0,31.91,12.037Z" transform="translate(-10.7 -10.8)" fill="#e50010"/>
  <ellipse id="Ellipse_114" data-name="Ellipse 114" cx="1.917" cy="1.917" rx="1.917" ry="1.917" transform="translate(10.945 16.016)" fill="#e50010"/>
  <ellipse id="Ellipse_115" data-name="Ellipse 115" cx="1.917" cy="1.917" rx="1.917" ry="1.917" transform="translate(27.641 16.016)" fill="#e50010"/>
  <path id="Path_7811" data-name="Path 7811" d="M40.649,62.453c-3.772,0-6.864-5.256-7.049-11.934V49.9H47.7v.618C47.513,57.2,44.421,62.453,40.649,62.453ZM34.9,51.075c.309,5.627,2.844,10.141,5.751,10.141s5.442-4.452,5.751-10.141H34.9Z" transform="translate(-19.44 -25.722)" fill="#e50010"/>
  <path id="Path_7812" data-name="Path 7812" d="M-1.265,5.482c1.288,0,4.337-1.311,4.608,0,0,.65.633,2.107,0,2.522-.38.258-1.413,5.049-2.062,5.049-.216,0-3.278,4.616-4.874,3.536-.355.889-3.447-4.279-3.929-3.832C-8.074,13.271-8.451,8.19-8.651,8s-.377-.409,0-1.993c.225-.944,3.165-.571,3.165-.869C-4.69,4.265-2.554,5.482-1.265,5.482Z" transform="translate(23.924 19.467)" fill="#e50010" opacity="0.18"/>
</svg>
