<svg id="cicong1" xmlns="http://www.w3.org/2000/svg" width="42.357" height="42.357" viewBox="0 0 42.357 42.357">
  <g id="Group_11173" data-name="Group 11173">
    <path id="Path_7727" data-name="Path 7727" d="M26.573,22.955a.967.967,0,0,0,1.014.223A.928.928,0,0,1,28.805,24.4a.963.963,0,0,0,.223,1.014l.7.7a2.887,2.887,0,0,0,4.085,0l7.7-7.7a2.887,2.887,0,0,0,0-4.085l-.7-.7A.959.959,0,0,0,39.8,13.4a.928.928,0,0,1-1.218-1.218.963.963,0,0,0-.223-1.014L31.187,4a.96.96,0,0,0-1.014-.223.928.928,0,0,1-1.293-.888.968.968,0,0,1,.074-.33.963.963,0,0,0-.223-1.014l-.7-.7a2.887,2.887,0,0,0-4.085,0l-7.7,7.7a2.887,2.887,0,0,0,0,4.085l.7.7a.971.971,0,0,0,1.014.223.928.928,0,0,1,1.218,1.218.963.963,0,0,0,.223,1.014L20.919,17.3C13.465,23.761,3.883,33.028,1.128,35.784a3.85,3.85,0,1,0,5.445,5.445c3.317-3.317,12.358-12.68,18.5-19.768Zm13.267-7.581.311.311a.962.962,0,0,1,0,1.36l-7.7,7.7a.984.984,0,0,1-1.36,0l-.31-.31a2.488,2.488,0,0,0,.028-.37,2.9,2.9,0,0,0-.283-1.243l7.7-7.7A2.738,2.738,0,0,0,39.839,15.374ZM17.92,11.58l-.311-.311a.962.962,0,0,1,0-1.36l7.7-7.7a.984.984,0,0,1,1.36,0l.31.31a2.488,2.488,0,0,0-.028.37,2.9,2.9,0,0,0,.283,1.244l-7.7,7.7A2.787,2.787,0,0,0,17.92,11.58ZM20.9,13.2l7.7-7.7a2.749,2.749,0,0,0,1.615.254l6.4,6.4a2.489,2.489,0,0,0-.028.37,2.9,2.9,0,0,0,.283,1.243l-7.7,7.7a2.743,2.743,0,0,0-1.614-.255l-6.4-6.4a2.489,2.489,0,0,0,.028-.37A2.9,2.9,0,0,0,20.9,13.2ZM5.212,39.868a1.925,1.925,0,1,1-2.722-2.722c2.755-2.755,12.369-12.052,19.8-18.478L23.713,20.1C17.6,27.154,8.53,36.549,5.212,39.868Z" fill="#02911c"/>
    <path id="Path_7728" data-name="Path 7728" d="M211.895,362.667H197.968A5.975,5.975,0,0,0,192,368.635a3.983,3.983,0,0,0,3.979,3.979h17.905a3.983,3.983,0,0,0,3.979-3.979A5.975,5.975,0,0,0,211.895,362.667Zm1.99,7.958H195.979a1.992,1.992,0,0,1-1.989-1.989,3.983,3.983,0,0,1,3.979-3.979h13.926a3.983,3.983,0,0,1,3.979,3.979A1.992,1.992,0,0,1,213.884,370.625Z" transform="translate(-175.506 -330.258)" fill="#02911c"/>
  </g>
  <path id="Path_7729" data-name="Path 7729" d="M12.219,0C19.4,0,25.213,1.939,25.213,4.331S19.4,8.663,12.219,8.663,1.058,7.252,1.058,4.86,5.043,0,12.219,0Z" transform="translate(16.688 33.239)" fill="#02911c" opacity="0.18"/>
</svg>
