<svg xmlns="http://www.w3.org/2000/svg" width="64.223" height="53.881" viewBox="0 0 64.223 53.881">
  <g id="ciconr10" transform="translate(0 28.678) rotate(-30)">
    <path id="Path_7791" data-name="Path 7791" d="M7.54.637c4.192,0,7.779-2.162,8.659,2.968,0,2.542,1.608,1.423-.453,3.047-1.236,1.01.845-.317-1.268-.317-.7,0,.783,1.079-2.6,0-1.156,3.476-.819-.471-2.385,1.278-.33.37-.645-.409-1.516-.192a3.572,3.572,0,0,1-3.259-.769C4.03,5.908-1.037,9.8.191,3.6.922-.087,1.4,1.8,1.4.637c.448-.594,1.052.18,1.81-.322C4.162-.548,4.073.637,7.54.637Z" transform="translate(20.112 10.716)" fill="#e50010" opacity="0.18"/>
    <path id="Path_7790" data-name="Path 7790" d="M53.447,10.646h-.561V7.037a4.2,4.2,0,0,0-4.2-4.2h0a4.178,4.178,0,0,0-2.836,1.1A5.111,5.111,0,0,0,40.89,0h-.068a5.111,5.111,0,0,0-5.1,5.1v5.543H21.8V5.1A5.126,5.126,0,0,0,11.7,3.935a4.2,4.2,0,0,0-7.037,3.1v3.609H3.909a3.909,3.909,0,0,0,0,7.818h.758v3.609a4.2,4.2,0,0,0,4.2,4.2h0A4.178,4.178,0,0,0,11.7,25.167,5.1,5.1,0,0,0,16.663,29.1h.045a5.111,5.111,0,0,0,5.1-5.1V18.464H35.741v5.543a5.126,5.126,0,0,0,10.108,1.16,4.2,4.2,0,0,0,7.037-3.1v-3.6h.561a3.909,3.909,0,0,0,0-7.818ZM4.66,16.947H3.9a2.392,2.392,0,1,1,0-4.785H4.66Zm6.9,5.126a2.684,2.684,0,0,1-2.684,2.684h0a2.684,2.684,0,0,1-2.684-2.684V17.736h0v-6.3h0v-4.4a2.692,2.692,0,1,1,5.384,0V22.066Zm8.728-10.692h0V17.63h0V23.9A3.587,3.587,0,0,1,16.7,27.487h-.038A3.587,3.587,0,0,1,13.076,23.9V5.1a3.609,3.609,0,0,1,7.211,0Zm15.454,5.566H21.8V12.163H35.741Zm8.728-9.911V24a3.609,3.609,0,0,1-7.211,0V5.1a3.587,3.587,0,0,1,3.564-3.587h.045A3.587,3.587,0,0,1,44.454,5.1V7.037Zm6.9,15.037a2.692,2.692,0,1,1-5.384,0V7.037A2.684,2.684,0,0,1,48.67,4.352h0a2.684,2.684,0,0,1,2.684,2.684V22.066ZM55.16,16.25a2.366,2.366,0,0,1-1.691.705h-.584V12.163h.561a2.391,2.391,0,0,1,1.691,4.079Z" transform="translate(0 0)" fill="#e50010"/>
  </g>
</svg>
