<svg id="ciconr16" xmlns="http://www.w3.org/2000/svg" width="33.107" height="43.242" viewBox="0 0 33.107 43.242">
  <path id="Path_7806" data-name="Path 7806" d="M31.623,6.751l.92-1.877a3.642,3.642,0,0,0-.1-3.455A3.124,3.124,0,0,0,29.667,0H3.443A3.124,3.124,0,0,0,.666,1.419a3.644,3.644,0,0,0-.1,3.456l.919,1.877A64.981,64.981,0,0,0,.008,21.479,104.211,104.211,0,0,0,1.5,36.471L.567,38.366a3.647,3.647,0,0,0,.1,3.458,3.125,3.125,0,0,0,2.776,1.418H29.667a3.124,3.124,0,0,0,2.776-1.418,3.648,3.648,0,0,0,.1-3.459l-.928-1.894A104.219,104.219,0,0,0,33.1,21.479,65,65,0,0,0,31.623,6.751Zm-.255,34.4a1.879,1.879,0,0,1-1.7.822H3.443a1.88,1.88,0,0,1-1.7-.822A2.357,2.357,0,0,1,1.7,38.922L2.547,37.2H30.563l.842,1.718a2.357,2.357,0,0,1-.037,2.231Zm-.952-5.216H2.694C1.038,25.295.561,17.448,2.667,7.3h13.27a.633.633,0,0,0,0-1.267H2.547L1.7,4.317a2.354,2.354,0,0,1,.036-2.228,1.88,1.88,0,0,1,1.7-.822H29.667a1.879,1.879,0,0,1,1.7.822A2.352,2.352,0,0,1,31.4,4.317l-.842,1.718H18.893a.633.633,0,1,0,0,1.267h11.55c2.106,10.146,1.629,17.992-.027,28.635Zm0,0" transform="translate(-0.002 0)" fill="#e50010"/>
  <path id="Path_7807" data-name="Path 7807" d="M115.054,167.524a6.109,6.109,0,0,0,.985-6.278,9.088,9.088,0,0,0-4.088-4.413,17.7,17.7,0,0,0-7.926-2.091h-.033c-1.994.009-3.052.96-3.145,2.828,0,.011,0,.021,0,.032A14.415,14.415,0,0,0,102.926,165a10.785,10.785,0,0,0,4.918,4.471,6.509,6.509,0,0,0,2.462.509,5.757,5.757,0,0,0,3.872-1.537l2.406,2.322a.633.633,0,1,0,.88-.912Zm-.917-.884-1.406-1.357.2-2.676a.633.633,0,0,0-1.263-.1l-.125,1.631-1.891-1.824.157-2.083a.633.633,0,1,0-1.263-.1l-.078,1.036-1.263-1.219a.633.633,0,1,0-.88.912l1.228,1.185-.847.072a.633.633,0,0,0,.052,1.265l.054,0,1.951-.165,1.863,1.8-1.4.119a.633.633,0,0,0,.053,1.265l.054,0,2.5-.213,1.419,1.37a4.562,4.562,0,0,1-4.942.737c-3-1.225-6.2-5.381-6.208-10.675.052-.985.387-1.6,1.869-1.609,6.48.31,9.869,3.149,10.879,5.7a4.884,4.884,0,0,1-.724,4.927Zm0,0" transform="translate(-92.33 -141.673)" fill="#e50010"/>
  <path id="Path_7808" data-name="Path 7808" d="M8.4,1.787c1.223,0,2.5-.473,2.76.974,0,.717,2.724,2.015,2.123,2.473-.361.285,1.323,5.712.707,5.712-.2,0-5.094,4.624-6.608,3.432-.337.98-4.858-4.67-5.315-4.176C1.541,10.769.7,7.116.514,6.911a13.358,13.358,0,0,1-.4-5.269C.331.6,4.135.549,4.135.22,4.89-.748,7.175,1.787,8.4,1.787Z" transform="matrix(1, -0.017, 0.017, 1, 9.1, 13.492)" fill="#e50010" opacity="0.18"/>
</svg>
