<svg xmlns="http://www.w3.org/2000/svg" width="22.6" height="22.131" viewBox="0 0 22.6 22.131">
  <g id="explore" transform="translate(-607.909 -357.268)">
    <path id="Path_7716" data-name="Path 7716" d="M3.966-.059c1.06,0,4.152-1.847,5.394-.914C10.714.028,10,4.289,10,6.5c0,1.544.219,5.128-.641,6.5C8.611,14.221,6.574,13,5,13,3.86,13,1.734,14.065.675,13-.3,12.041,0,8.607,0,6.5,0,2.91,1.2-.059,3.966-.059Z" transform="translate(608 358.504)" fill="#02911c" opacity="0.11"/>
    <path id="Path_346" data-name="Path 346" d="M1128.224,788.976c-.281-2.138-1.036-3.646-2.243-4.48a10.159,10.159,0,0,0-4.761-1.429l-.313-.038a30.033,30.033,0,0,0-4.059-.244,30.848,30.848,0,0,0-5.491.552,9.9,9.9,0,0,0-2.182.639,4.8,4.8,0,0,0-2.093,1.7,8.368,8.368,0,0,0-1.051,4.05c-.1,1.406-.2,3.076-.16,4.8.015.647.035,1.4.086,2.143a12.306,12.306,0,0,0,1.117,4.811,5.306,5.306,0,0,0,4.252,2.781,40.181,40.181,0,0,0,5.637.538h.125a31.381,31.381,0,0,0,5.647-.577,6.85,6.85,0,0,0,4.06-1.851c1.148-1.264,1.363-3.124,1.485-4.92A43.29,43.29,0,0,0,1128.224,788.976Zm-7.169-4.548a8.966,8.966,0,0,1,4.146,1.2,4.862,4.862,0,0,1,1.663,3.531c.049.374.088.75.119,1.128h-9.135v-6.039a.611.611,0,0,0-.008-.078,28.5,28.5,0,0,1,2.9.224Zm-13.656,5.4a7.267,7.267,0,0,1,.825-3.388,3.415,3.415,0,0,1,1.511-1.212,8.644,8.644,0,0,1,1.879-.544,29.586,29.586,0,0,1,4.87-.516.705.705,0,0,0-.008.075v13.669h-9.021c-.061-.463-.1-.914-.13-1.328-.049-.715-.069-1.449-.083-2.08C1107.2,792.832,1107.3,791.2,1107.4,789.827Zm.888,11.022a7.065,7.065,0,0,1-.578-1.566h8.767v4.063a.588.588,0,0,0,.007.071,42.148,42.148,0,0,1-4.959-.507A3.874,3.874,0,0,1,1108.287,800.849Zm18.623-3.483c-.106,1.556-.28,3.153-1.132,4.091a5.663,5.663,0,0,1-3.288,1.423,32.747,32.747,0,0,1-4.649.534.645.645,0,0,0,.007-.068V791.654h9.215A54.925,54.925,0,0,1,1126.91,797.366Z" transform="translate(-497.953 -425.408)" fill="#02911c"/>
  </g>
</svg>
