<svg xmlns="http://www.w3.org/2000/svg" width="82.133" height="88" viewBox="0 0 82.133 88">
  <g id="Group_11271" data-name="Group 11271" transform="translate(0 0)">
    <g id="Group_11270" data-name="Group 11270">
      <path id="Path_7901" data-name="Path 7901" d="M98.773,51.3a1.467,1.467,0,0,0-1.037-.43H93.263a14.076,14.076,0,0,0-9.556-20.157,7.856,7.856,0,0,1,4.225-3.383,1.467,1.467,0,0,0-.925-2.784,10.948,10.948,0,0,0-6.537,5.894,13.725,13.725,0,0,0-5.712,1.423,21.247,21.247,0,0,0-11.576-3.02A23.782,23.782,0,0,0,48.2,33.891a11.757,11.757,0,0,1,.54-6.627,9.884,9.884,0,0,0,.045-6.631,7.337,7.337,0,0,0-7.376-4.966h-.036a7.13,7.13,0,0,0-.737.046A11.952,11.952,0,0,0,39.6,14.008c6.235-.976,11.01-5.719,11.2-11.493a1.47,1.47,0,0,0-.425-1.081A1.379,1.379,0,0,0,49.3,1c-6.55.165-11.927,4.458-12.979,10.049A9.172,9.172,0,0,0,31.736,9.8a1.467,1.467,0,0,0,0,2.933,7.07,7.07,0,0,1,6.011,3.774,12.688,12.688,0,0,0-7.078,9.151,11.129,11.129,0,0,1-3.51,5.986c-3.034,2.551-8.608,9.308-8.605,12.6a11.32,11.32,0,0,0,1.628,6.623H18.537a1.467,1.467,0,0,0-1.467,1.467v2.933A27.9,27.9,0,0,0,42,82.975V86.31A2.692,2.692,0,0,0,44.692,89H71.55A2.722,2.722,0,0,0,74.27,86.28V82.975A27.9,27.9,0,0,0,99.2,55.267V52.333A1.467,1.467,0,0,0,98.773,51.3ZM79.359,33.466a22.849,22.849,0,0,0-.689,5.414,6.989,6.989,0,0,1-2.073-.918,1.466,1.466,0,0,0-1.727,2.37,10.412,10.412,0,0,0,5.219,1.717c.034,0,.063.018.1.018s.074,0,.111-.006c.08,0,.154.014.235.014a9.985,9.985,0,0,0,5.493-1.7,1.467,1.467,0,0,0-1.593-2.464,7.379,7.379,0,0,1-2.821,1.116,19.518,19.518,0,0,1,.826-5.559,11.14,11.14,0,0,1,7.421,17.393H71.88a11.14,11.14,0,0,1,7.479-17.4ZM63.182,31.771a18.794,18.794,0,0,1,8.78,1.9,14.091,14.091,0,0,0-3.485,17.193H46.026a11.343,11.343,0,0,1-1.09-4.825C44.937,38.173,53.121,31.771,63.182,31.771ZM47.633,4.1a10.045,10.045,0,0,1-8.338,7A10.045,10.045,0,0,1,47.633,4.1ZM21.485,44.34c0-1.654,3.983-7.441,7.562-10.448a14.035,14.035,0,0,0,4.472-7.537c1.07-4.375,3.428-6.276,5.291-7.107a10.4,10.4,0,0,1,.26,2.286,1.467,1.467,0,0,0,2.933,0,13.248,13.248,0,0,0-.334-2.919,4.367,4.367,0,0,1,4.368,3.035,7.1,7.1,0,0,1-.075,4.684c-.986,2.948-1.693,6.864-.005,9.736A15.044,15.044,0,0,0,42,46.042a14.1,14.1,0,0,0,.876,4.825h-17.8C21.18,50.156,21.468,44.667,21.485,44.34ZM71.336,86.067h-26.4V83.133h26.4Zm24.933-30.8A24.961,24.961,0,0,1,71.336,80.2h-26.4A24.961,24.961,0,0,1,20,55.267V53.8H96.269Z" transform="translate(-17.07 -1)" fill="#02911c"/>
      <path id="Path_7903" data-name="Path 7903" d="M223.336,234.476a1.453,1.453,0,1,0-1.041-.425A1.545,1.545,0,0,0,223.336,234.476Z" transform="translate(-186.67 -191.942)" fill="#02911c"/>
      <path id="Path_7904" data-name="Path 7904" d="M205.226,259.512a1.515,1.515,0,0,0,.484.308,1.466,1.466,0,0,0,.558.117,2.035,2.035,0,0,0,.293-.029.956.956,0,0,0,.264-.088.809.809,0,0,0,.249-.133,1.381,1.381,0,0,0,.235-.176,1.526,1.526,0,0,0,.308-.484,1.469,1.469,0,0,0,.117-.557,2.01,2.01,0,0,0-.029-.294.96.96,0,0,0-.088-.264,1.12,1.12,0,0,0-.133-.263c-.058-.074-.117-.147-.176-.22s-.147-.117-.235-.176a.809.809,0,0,0-.249-.133.923.923,0,0,0-.264-.087,1.479,1.479,0,0,0-1.76,1.437,1.463,1.463,0,0,0,.117.557A1.526,1.526,0,0,0,205.226,259.512Z" transform="translate(-172.534 -213.003)" fill="#02911c"/>
      <path id="Path_7905" data-name="Path 7905" d="M239.053,259.044a1.117,1.117,0,0,0,.133.264,2.32,2.32,0,0,0,.176.22,1.544,1.544,0,0,0,1.041.425,2.257,2.257,0,0,0,.293-.029.964.964,0,0,0,.264-.088.807.807,0,0,0,.249-.133c.088-.058.161-.117.235-.175a1.545,1.545,0,0,0,.425-1.041,2.252,2.252,0,0,0-.029-.293.951.951,0,0,0-.088-.264,1.123,1.123,0,0,0-.133-.263l-.175-.22c-.074-.059-.147-.117-.235-.176a.812.812,0,0,0-.249-.132.926.926,0,0,0-.264-.088,1.521,1.521,0,0,0-1.334.4,2.166,2.166,0,0,0-.176.22,1.13,1.13,0,0,0-.133.263.93.93,0,0,0-.087.264,2.166,2.166,0,0,0-.029.293,1.74,1.74,0,0,0,.029.279A.889.889,0,0,0,239.053,259.044Z" transform="translate(-200.803 -213.019)" fill="#02911c"/>
      <path id="Path_7906" data-name="Path 7906" d="M22.452-.238c8.923,0,3.456,6.284,3.456,15.206s-2.574,19.687-4.924,19.211S.1,38.4.1,29.48c0-4.693,4.2-10.947,9.581-18.2C13.4,4.266,18.223-.238,22.452-.238Z" transform="translate(3.139 17.164)" fill="#02911c" opacity="0.18"/>
    </g>
  </g>
</svg>
