<svg id="footer-social4" xmlns="http://www.w3.org/2000/svg" width="42" height="42" viewBox="0 0 42 42">
  <circle id="Ellipse_184" data-name="Ellipse 184" cx="21" cy="21" r="21" fill="#55acee"/>
  <g id="Group_12276" data-name="Group 12276" transform="translate(9.397 12.738)">
    <path id="Path_4972" data-name="Path 4972" d="M49.569,36.382a10.015,10.015,0,0,1-2.883.789,5.033,5.033,0,0,0,2.208-2.777,10.049,10.049,0,0,1-3.188,1.218,5.024,5.024,0,0,0-8.554,4.579,14.249,14.249,0,0,1-10.347-5.245,5.025,5.025,0,0,0,1.553,6.7,4.984,4.984,0,0,1-2.273-.629c0,.021,0,.043,0,.064A5.023,5.023,0,0,0,30.112,46a5.039,5.039,0,0,1-2.267.087,5.025,5.025,0,0,0,4.689,3.486A10.133,10.133,0,0,1,25.1,51.656,14.275,14.275,0,0,0,47.079,39.629c0-.217,0-.434-.015-.649a10.179,10.179,0,0,0,2.505-2.6Z" transform="translate(-25.103 -34.028)" fill="#f1f2f2"/>
  </g>
</svg>
