<svg id="Group_12050" data-name="Group 12050" xmlns="http://www.w3.org/2000/svg" width="21.706" height="19.025" viewBox="0 0 21.706 19.025">
  <path id="Path_8353" data-name="Path 8353" d="M2595.15,1718.382v-11.195l.524-1.835,1.245-.655h1.049l.524-2.752.917-1.048h1.441l13.892,1.769.917.59v2.1l-.917,9.239-.655,1.376-2.012,2.767h-7.309Z" transform="translate(-2594.672 -1700.343)" fill="#fff"/>
  <path id="Path_4870" data-name="Path 4870" d="M176.2,164.088a2.214,2.214,0,1,1,2.214-2.214A2.214,2.214,0,0,1,176.2,164.088Zm0-3.374a1.16,1.16,0,1,0,1.16,1.16,1.16,1.16,0,0,0-1.16-1.16Z" transform="translate(-165.211 -152.945)" fill="#02911c"/>
  <path id="Path_4871" data-name="Path 4871" d="M21.22,29.013a2.109,2.109,0,0,0-1.4-.791L5.431,26.588a1.977,1.977,0,0,0-1.555.448,2,2,0,0,0-.764,1.371l-.264,2.161H2.03A2.118,2.118,0,0,0,0,32.757V43.538a2,2,0,0,0,1.95,2.056H16.5a2.164,2.164,0,0,0,2.214-2.056v-.422a2.636,2.636,0,0,0,1-.422,2.188,2.188,0,0,0,.764-1.423l1.213-10.7A2.083,2.083,0,0,0,21.22,29.013ZM2.03,31.623H16.5a1.213,1.213,0,0,1,1.16,1.133v4.428l-5.746,3.348A1.344,1.344,0,0,1,10.36,40.4L7.46,37.87a2.32,2.32,0,0,0-2.926-.132L1.055,40.269V32.757A1.064,1.064,0,0,1,2.03,31.623ZM16.5,44.539H2.03a.949.949,0,0,1-.976-.921c0-.027,0-.054,0-.081V41.587l4.086-3a1.265,1.265,0,0,1,1.634.079l2.873,2.531a2.478,2.478,0,0,0,1.555.58,2.4,2.4,0,0,0,1.265-.343l5.193-3v5.114A1.11,1.11,0,0,1,16.5,44.539Zm4.138-14.1L19.4,41.139a.9.9,0,0,1-.343.712c-.105.105-.343.158-.343.211v-9.3A2.267,2.267,0,0,0,16.5,30.569H3.9l.237-2.056a1.213,1.213,0,0,1,.4-.685,1.212,1.212,0,0,1,.791-.211l14.366,1.661a.975.975,0,0,1,.712.4A1.028,1.028,0,0,1,20.64,30.437Z" transform="translate(0 -26.569)" fill="#02911c"/>
  <path id="Path_8346" data-name="Path 8346" d="M1.13,2.591,5.628-.56,10.776,3.16,17.319-.56C18.424-.56,18,.9,18,2V5a2,2,0,0,1-2,2H2A2,2,0,0,1,0,5V2C0,.9.025,2.591,1.13,2.591Z" transform="translate(0.328 11.657)" fill="rgba(2,145,28,0.25)"/>
</svg>
