<svg id="Group_12126" data-name="Group 12126" xmlns="http://www.w3.org/2000/svg" width="17" height="21" viewBox="0 0 17 21">
  <g id="Group_12125" data-name="Group 12125">
    <path id="Path_8449" data-name="Path 8449" d="M9.5,21h-7A2.5,2.5,0,0,1,0,18.5V2.5A2.5,2.5,0,0,1,2.5,0h12A2.5,2.5,0,0,1,17,2.5V8.56a.5.5,0,0,1-1,0V2.5A1.5,1.5,0,0,0,14.5,1H2.5A1.5,1.5,0,0,0,1,2.5v16A1.5,1.5,0,0,0,2.5,20h7a.5.5,0,0,1,0,1Z" fill="#02911c"/>
  </g>
  <path id="Path_7705" data-name="Path 7705" d="M11.782,96.077a2.781,2.781,0,1,1,2.941,2.776H14.4A2.785,2.785,0,0,1,11.782,96.077Zm8.371,9.477a1.814,1.814,0,0,1-1.812,1.812H10.793a1.814,1.814,0,0,1-1.812-1.812v-.331a5.594,5.594,0,0,1,5.42-5.586c.054,0,.112,0,.166,0s.112,0,.166,0a5.594,5.594,0,0,1,5.42,5.586Z" transform="translate(-6 -90.096)" fill="#02911c" opacity="0.18"/>
</svg>
