<svg xmlns="http://www.w3.org/2000/svg" width="37" height="37" viewBox="0 0 37 37">
  <g id="home-iconr7" transform="translate(-270 -308)">
    <g id="Group_10737" data-name="Group 10737" transform="translate(-67 -242)">
      <g id="spiritual" transform="translate(353.149 27.149)">
        <g id="_686348" data-name="686348" transform="translate(-8.172 529.851)">
          <g id="Group_10704" data-name="Group 10704" transform="translate(10.301)">
            <g id="Group_10703" data-name="Group 10703">
              <path id="Path_6287" data-name="Path 6287" d="M212.65,0a2.655,2.655,0,0,0-2.621,2.621,2.655,2.655,0,0,0,2.621,2.621,2.622,2.622,0,1,0,0-5.243Z" transform="translate(-210.029)" fill="#e23744"/>
            </g>
          </g>
          <g id="Group_10706" data-name="Group 10706" transform="translate(9.012 5.243)">
            <g id="Group_10705" data-name="Group 10705">
              <path id="Path_6288" data-name="Path 6288" d="M186.8,122a3.844,3.844,0,0,1-2.862,1.289,3.938,3.938,0,0,1-2.9-1.289,3.838,3.838,0,0,0-1.006,2.578v.645a.644.644,0,0,0,.645.645h6.489a.644.644,0,0,0,.645-.645v-.645A3.838,3.838,0,0,0,186.8,122Z" transform="translate(-180.029 -122)" fill="#e23744"/>
            </g>
          </g>
          <g id="Group_10708" data-name="Group 10708" transform="translate(0 12.485)">
            <g id="Group_10707" data-name="Group 10707">
              <path id="Path_6289" data-name="Path 6289" d="M6.252,297.832l-3.285-6.586a1.289,1.289,0,0,0-1.726-.58l-.859.425a.645.645,0,0,0-.29.866l3.868,7.735a.645.645,0,0,0,.863.29l.848-.42a1.289,1.289,0,0,0,.581-1.73Z" transform="translate(-0.024 -290.532)" fill="#e23744"/>
            </g>
          </g>
          <g id="Group_10710" data-name="Group 10710" transform="translate(3.824 10.162)">
            <g id="Group_10709" data-name="Group 10709">
              <path id="Path_6290" data-name="Path 6290" d="M106.666,236.961a1.285,1.285,0,0,0-1.7.168l-3.524,4.332a1.558,1.558,0,0,1-.954.413h-3a.645.645,0,0,1,0-1.289h2.578a1.289,1.289,0,1,0,0-2.578H96.683c-.321,0-.481-.2-.735-.425a4.485,4.485,0,0,0-4-.98,4.7,4.7,0,0,0-1.979.988l-.019-.016-.932.821,3.664,7.347h7.381a3.883,3.883,0,0,0,3.094-1.547l3.782-5.415A1.3,1.3,0,0,0,106.666,236.961Z" transform="translate(-89.016 -236.479)" fill="#e23744"/>
            </g>
          </g>
        </g>
      </g>
    </g>
    <g id="Rectangle_17669" data-name="Rectangle 17669" transform="translate(270 308)">
      <path id="Path_8399" data-name="Path 8399" d="M0,0H18.5A18.5,18.5,0,0,1,37,18.5h0A18.5,18.5,0,0,1,18.5,37h0A18.5,18.5,0,0,1,0,18.5Z" fill="none"/>
      <path id="Path_8400" data-name="Path 8400" d="M.986.5H18.5a18,18,0,0,1,18,18h0a18,18,0,0,1-18,18h0a18,18,0,0,1-18-18V.986A.486.486,0,0,1,.986.5Z" fill="none" stroke="#e23744" stroke-width="1"/>
    </g>
  </g>
</svg>
