<svg xmlns="http://www.w3.org/2000/svg" width="37" height="37" viewBox="0 0 37 37">
  <g id="home-iconr9" transform="translate(-325 -388)">
    <g id="Group_10743" data-name="Group 10743" transform="translate(186 -104)">
      <g id="social" transform="translate(114.862 36.862)">
        <g id="_1170653" data-name="1170653" transform="translate(32.6 463.562)">
          <path id="Path_6279" data-name="Path 6279" d="M198.353,301A2.355,2.355,0,0,0,196,303.353v1.9a6.383,6.383,0,0,0,4.705,0v-1.9A2.355,2.355,0,0,0,198.353,301Zm0,0" transform="translate(-188.315 -289.198)" fill="#e23744"/>
          <path id="Path_6280" data-name="Path 6280" d="M17.723,15.37a2.326,2.326,0,0,0-1.187.333L15,14.165A6.422,6.422,0,0,0,15.006,5.9l1.529-1.529a2.326,2.326,0,0,0,1.187.333,2.353,2.353,0,1,0-2.353-2.353A2.324,2.324,0,0,0,15.7,3.539L14.17,5.068a6.45,6.45,0,0,0-8.273,0L4.372,3.539A2.324,2.324,0,0,0,4.7,2.352,2.353,2.353,0,1,0,2.353,4.7,2.326,2.326,0,0,0,3.54,4.371L5.07,5.9a6.422,6.422,0,0,0,.009,8.265L3.54,15.7a2.327,2.327,0,0,0-1.188-.333A2.353,2.353,0,1,0,4.7,17.72a2.324,2.324,0,0,0-.333-1.187L5.9,15a6.556,6.556,0,0,0,.6.45v-1.3a3.533,3.533,0,0,1,3.529-3.529,2.353,2.353,0,1,1,2.353-2.353,2.353,2.353,0,0,1-2.353,2.353,3.533,3.533,0,0,1,3.529,3.529v1.3a6.556,6.556,0,0,0,.6-.45L15.7,16.535a2.324,2.324,0,0,0-.333,1.187,2.353,2.353,0,1,0,2.353-2.353Zm0,0" transform="translate(0 0.001)" fill="#e23744"/>
        </g>
      </g>
    </g>
    <g id="Rectangle_17671" data-name="Rectangle 17671" transform="translate(325 388)">
      <path id="Path_8403" data-name="Path 8403" d="M0,0H18.5A18.5,18.5,0,0,1,37,18.5h0A18.5,18.5,0,0,1,18.5,37h0A18.5,18.5,0,0,1,0,18.5Z" fill="none"/>
      <path id="Path_8404" data-name="Path 8404" d="M.986.5H18.5a18,18,0,0,1,18,18h0a18,18,0,0,1-18,18h0a18,18,0,0,1-18-18V.986A.486.486,0,0,1,.986.5Z" fill="none" stroke="#e23744" stroke-width="1"/>
    </g>
  </g>
</svg>
