<svg id="Component_10_1" data-name="Component 10 – 1" xmlns="http://www.w3.org/2000/svg" width="30" height="27.823" viewBox="0 0 30 27.823">
  <g id="noun_Home_1279455">
    <path id="Path_85" data-name="Path 85" d="M7.842,25.058l2.077-2.077V34.187a3.462,3.462,0,0,0,3.462,3.462h4.155a.692.692,0,0,0,.692-.692V31.072a3.462,3.462,0,1,1,6.924,0v5.886a.692.692,0,0,0,.692.692H30a3.462,3.462,0,0,0,3.462-3.462V22.977l2.077,2.077a.692.692,0,0,0,.983-.973L22.674,10.233a1.385,1.385,0,0,0-1.96,0L6.866,24.081a.692.692,0,0,0,.976.976ZM11.3,21.6,21.69,11.209,32.077,21.6V34.187A2.077,2.077,0,0,1,30,36.265H26.537V31.072a4.847,4.847,0,0,0-9.694,0v5.193H13.381A2.077,2.077,0,0,1,11.3,34.187Z" transform="translate(-6.699 -9.827)" fill="#02911c"/>
  </g>
  <path id="Rectangle_17703" data-name="Rectangle 17703" d="M2,0H5.881a2,2,0,0,1,2,2v8.507a0,0,0,0,1,0,0H0a0,0,0,0,1,0,0V2A2,2,0,0,1,2,0Z" transform="translate(10.903 17.233)" fill="rgba(2,145,28,0.18)"/>
</svg>
