<svg xmlns="http://www.w3.org/2000/svg" width="37" height="37" viewBox="0 0 37 37">
  <g id="home-icon4" transform="translate(-110 -282)">
    <g id="Group_10742" data-name="Group 10742" transform="translate(108 -270)">
      <g id="WELLNESS" transform="translate(-11.714 10.933)">
        <g id="_684262" data-name="684262" transform="translate(5.5 513.086)">
          <g id="Group_10594" data-name="Group 10594" transform="translate(0 53.4)">
            <path id="_1077086" data-name="1077086" d="M20.056,1.9A5.858,5.858,0,0,0,15.7,0a5.48,5.48,0,0,0-3.423,1.182,7,7,0,0,0-1.384,1.445A7,7,0,0,0,9.509,1.182,5.479,5.479,0,0,0,6.086,0,5.858,5.858,0,0,0,1.728,1.9,6.809,6.809,0,0,0,0,6.547a8.108,8.108,0,0,0,2.161,5.307A46.072,46.072,0,0,0,7.57,16.931c.749.639,1.6,1.363,2.481,2.134a1.279,1.279,0,0,0,1.684,0c.882-.771,1.732-1.5,2.482-2.135a46.046,46.046,0,0,0,5.408-5.076,8.107,8.107,0,0,0,2.16-5.307A6.809,6.809,0,0,0,20.056,1.9Zm0,0" transform="translate(16.213 -16.418)" fill="#02911c"/>
          </g>
        </g>
      </g>
    </g>
    <g id="Rectangle_17667" data-name="Rectangle 17667" transform="translate(110 282)" fill="none" stroke="#02911c" stroke-width="1">
      <path d="M0,0H18.5A18.5,18.5,0,0,1,37,18.5v0A18.5,18.5,0,0,1,18.5,37h0A18.5,18.5,0,0,1,0,18.5V0A0,0,0,0,1,0,0Z" stroke="none"/>
      <path d="M.986.5H18.5a18,18,0,0,1,18,18v0a18,18,0,0,1-18,18h0a18,18,0,0,1-18-18V.986A.486.486,0,0,1,.986.5Z" fill="none"/>
    </g>
  </g>
</svg>
