<svg xmlns="http://www.w3.org/2000/svg" width="37" height="37" viewBox="0 0 37 37">
  <g id="home-icon8" transform="translate(-306 -346)">
    <g id="Group_10738" data-name="Group 10738" transform="translate(-2 -246)">
      <g id="shopping" transform="translate(306.588 206.211)">
        <g id="Group_10702" data-name="Group 10702" transform="translate(10.412 392.789)">
          <path id="Path_6283" data-name="Path 6283" d="M49.6,89.96H68.861c-.058.538-.114,1.059-.171,1.579q-.29,2.616-.583,5.231c-.214,1.91-.41,3.822-.653,5.727a3.141,3.141,0,0,1-3.036,2.7c-1.187.024-2.374.007-3.562.008q-3.311,0-6.622,0a3.163,3.163,0,0,1-3.207-2.531c-.156-.741-.2-1.506-.28-2.262q-.3-2.628-.585-5.256-.282-2.529-.564-5.057A.966.966,0,0,1,49.6,89.96Zm4.8,4.024c0,.262,0,.529,0,.8a20.352,20.352,0,0,0,.071,2.352,4.8,4.8,0,0,0,9.355.6,6.447,6.447,0,0,0,.2-1.457c.032-.766.009-1.535.009-2.3.062-.011.1-.016.144-.026a.8.8,0,0,0-.179-1.591c-.518,0-1.037-.005-1.555,0a.8.8,0,0,0-.192,1.584c.054.015.109.025.176.04,0,.817.008,1.628,0,2.438a3.22,3.22,0,0,1-2.9,3.151,3.124,3.124,0,0,1-3.4-2.445,24.013,24.013,0,0,1-.161-3.138c.092-.018.123-.024.155-.031a.8.8,0,0,0-.164-1.6c-.518,0-1.037-.007-1.555,0a.8.8,0,0,0-.781.621C53.509,93.452,53.8,93.838,54.408,93.984Z" transform="translate(-49.596 -82.711)" fill="#02911c"/>
          <path id="Path_6284" data-name="Path 6284" d="M199.782-9.732c.04-.109.07-.2.106-.289q1.219-2.98,2.439-5.959c.2-.487.345-.551.759-.335l4.532,2.371c.467.245.527.437.31.986q-.594,1.5-1.189,3c-.056.143-.1.247-.269.246-2.181-.009-4.361-.006-6.542-.006C199.888-9.718,199.848-9.725,199.782-9.732Z" transform="translate(-189.733 16.563)" fill="#02911c"/>
          <path id="Path_6285" data-name="Path 6285" d="M92.824-11.528H86.55c.061-.552.109-1.093.182-1.628a12.008,12.008,0,0,1,.81-3.228,5.543,5.543,0,0,1,.689-1.192,1.779,1.779,0,0,1,3,.043,5.529,5.529,0,0,1,.7,1.289A16.207,16.207,0,0,1,92.824-11.528Z" transform="translate(-84.077 18.379)" fill="#02911c"/>
          <path id="Path_6286" data-name="Path 6286" d="M110.239,127.346c-.6-.146-.9-.531-.783-1.005a.8.8,0,0,1,.781-.621c.518-.007,1.037,0,1.555,0a.8.8,0,0,1,.164,1.6c-.031.007-.063.013-.155.031a24.015,24.015,0,0,0,.161,3.138,3.124,3.124,0,0,0,3.4,2.445,3.22,3.22,0,0,0,2.9-3.151c.009-.81,0-1.62,0-2.438-.066-.015-.122-.026-.176-.04a.8.8,0,0,1,.192-1.584c.518-.006,1.037,0,1.555,0a.8.8,0,0,1,.179,1.591c-.04.01-.082.015-.144.026,0,.767.024,1.535-.009,2.3a6.447,6.447,0,0,1-.2,1.457,4.8,4.8,0,0,1-9.355-.6,20.353,20.353,0,0,1-.071-2.352C110.234,127.874,110.239,127.608,110.239,127.346Z" transform="translate(-105.427 -116.073)" fill="#fff"/>
        </g>
      </g>
    </g>
    <g id="Rectangle_17670" data-name="Rectangle 17670" transform="translate(306 346)" fill="none" stroke="#02911c" stroke-width="1">
      <path d="M0,0H18.5A18.5,18.5,0,0,1,37,18.5v0A18.5,18.5,0,0,1,18.5,37h0A18.5,18.5,0,0,1,0,18.5V0A0,0,0,0,1,0,0Z" stroke="none"/>
      <path d="M.986.5H18.5a18,18,0,0,1,18,18v0a18,18,0,0,1-18,18h0a18,18,0,0,1-18-18V.986A.486.486,0,0,1,.986.5Z" fill="none"/>
    </g>
  </g>
</svg>
