<svg xmlns="http://www.w3.org/2000/svg" width="14.024" height="18.699" viewBox="0 0 14.024 18.699">
  <g id="lock" transform="translate(-1608 -139)">
    <g id="lock-2" data-name="lock" transform="translate(1608 139)">
      <path id="Path_7893" data-name="Path 7893" d="M12.271,203.687H1.753A1.755,1.755,0,0,1,0,201.934v-8.181A1.755,1.755,0,0,1,1.753,192H12.271a1.755,1.755,0,0,1,1.753,1.753v8.181A1.755,1.755,0,0,1,12.271,203.687ZM1.753,193.169a.585.585,0,0,0-.584.584v8.181a.585.585,0,0,0,.584.584H12.271a.585.585,0,0,0,.584-.584v-8.181a.585.585,0,0,0-.584-.584Zm0,0" transform="translate(0 -184.988)" fill="#e50010"/>
      <path id="Path_7894" data-name="Path 7894" d="M72.765,8.181a.585.585,0,0,1-.584-.584V4.675a3.506,3.506,0,1,0-7.012,0V7.6A.584.584,0,0,1,64,7.6V4.675a4.675,4.675,0,0,1,9.349,0V7.6A.585.585,0,0,1,72.765,8.181Zm0,0" transform="translate(-61.663)" fill="#e50010"/>
    </g>
    <rect id="Rectangle_17682" data-name="Rectangle 17682" width="12" height="10" transform="translate(1609 147)" fill="rgba(229,0,16,0.25)"/>
  </g>
</svg>
