<svg xmlns="http://www.w3.org/2000/svg" width="62.454" height="88" viewBox="0 0 62.454 88">
  <g id="medicine" transform="translate(-73.75)">
    <path id="Path_7800" data-name="Path 7800" d="M.4.326c1.482,0,8.084-4.112,8.395-2.3,0,.9,6.439,4.134,5.711,4.709v7.538L8.791,19.289c-.248,0-7.682,9.785-9.518,8.292-.409,1.229-8.661-7.23-9.215-6.612-.635.71-3.877-5.353-4.107-5.61a13.237,13.237,0,0,1-3.006-6.211c-.37-2.175.9-5.386,1.1-6.411.259-1.305,7.712-4.3,7.712-4.709C-7.325-3.185-1.086.326.4.326Z" transform="translate(105.888 43.65)" fill="#02911c" opacity="0.18"/>
    <g id="Group_11222" data-name="Group 11222" transform="translate(86.514 39.731)">
      <g id="Group_11221" data-name="Group 11221" transform="translate(0)">
        <path id="Path_7797" data-name="Path 7797" d="M172.563,229.4a12.194,12.194,0,0,0-6.668,1.992,12.052,12.052,0,0,0-6.668-1.992,11.581,11.581,0,0,0-11.777,11.344c0,9.716,18.445,23.069,18.445,23.069S184.34,250.5,184.34,240.762A11.585,11.585,0,0,0,172.563,229.4ZM165.9,260.246c-5.04-3.949-15.6-13.457-15.6-19.5a8.76,8.76,0,0,1,8.954-8.521,9.193,9.193,0,0,1,5.767,2.009l.883.71.883-.71a9.229,9.229,0,0,1,5.767-2.009,8.744,8.744,0,0,1,8.937,8.521C181.5,246.789,170.935,256.314,165.9,260.246Z" transform="translate(-147.45 -229.4)" fill="#02911c"/>
      </g>
    </g>
    <g id="Group_11224" data-name="Group 11224" transform="translate(73.75)">
      <g id="Group_11223" data-name="Group 11223" transform="translate(0)">
        <path id="Path_7798" data-name="Path 7798" d="M130.09,28.8a20.751,20.751,0,0,0-12.349-5.958V17.025H122a4.258,4.258,0,0,0,4.261-4.261v-8.5A4.258,4.258,0,0,0,122,0H87.935a4.258,4.258,0,0,0-4.261,4.261v8.521a4.258,4.258,0,0,0,4.261,4.261H92.2v5.923A20.48,20.48,0,0,0,80.73,28.646,20.841,20.841,0,0,0,73.75,44.2v39.54A4.258,4.258,0,0,0,78.011,88h53.933a4.257,4.257,0,0,0,4.261-4.261V43.506A20.734,20.734,0,0,0,130.09,28.8ZM87.935,14.2v-.017a1.427,1.427,0,0,1-1.42-1.42v-8.5a1.427,1.427,0,0,1,1.42-1.42H122a1.427,1.427,0,0,1,1.42,1.42v8.521A1.427,1.427,0,0,1,122,14.2Zm26.949,2.823v5.681H95.018V17.025Zm17.042,68.117H77.993a1.427,1.427,0,0,1-1.42-1.42V44.182A17.992,17.992,0,0,1,82.6,30.759a18.875,18.875,0,0,1,12.7-5.213h20.073a17.976,17.976,0,0,1,17.96,17.96V83.722s.368-.355.017,0S132.705,85.142,131.926,85.142Z" transform="translate(-73.75)" fill="#02911c"/>
      </g>
    </g>
    <g id="Group_11226" data-name="Group 11226" transform="translate(97.859 48.252)">
      <g id="Group_11225" data-name="Group 11225">
        <path id="Path_7799" data-name="Path 7799" d="M221.471,284.281V278.6h-2.84v5.681H212.95V287.1h5.681v5.681h2.84V287.1h5.681v-2.823Z" transform="translate(-212.95 -278.6)" fill="#02911c"/>
      </g>
    </g>
  </g>
</svg>
