<svg id="Component_16_1" data-name="Component 16 – 1" xmlns="http://www.w3.org/2000/svg" width="22" height="21" viewBox="0 0 22 21">
  <g id="Ellipse_164" data-name="Ellipse 164" fill="rgba(2,145,28,0.2)" stroke="#02911c" stroke-width="1">
    <circle cx="2.5" cy="2.5" r="2.5" stroke="none"/>
    <circle cx="2.5" cy="2.5" r="2" fill="none"/>
  </g>
  <g id="Ellipse_165" data-name="Ellipse 165" transform="translate(9)" fill="rgba(2,145,28,0.2)" stroke="#02911c" stroke-width="1">
    <circle cx="2.5" cy="2.5" r="2.5" stroke="none"/>
    <circle cx="2.5" cy="2.5" r="2" fill="none"/>
  </g>
  <g id="Ellipse_166" data-name="Ellipse 166" transform="translate(17)" fill="rgba(2,145,28,0.2)" stroke="#02911c" stroke-width="1">
    <circle cx="2.5" cy="2.5" r="2.5" stroke="none"/>
    <circle cx="2.5" cy="2.5" r="2" fill="none"/>
  </g>
  <g id="Ellipse_168" data-name="Ellipse 168" transform="translate(0 8)" fill="rgba(2,145,28,0.2)" stroke="#02911c" stroke-width="1">
    <circle cx="2.5" cy="2.5" r="2.5" stroke="none"/>
    <circle cx="2.5" cy="2.5" r="2" fill="none"/>
  </g>
  <g id="Ellipse_167" data-name="Ellipse 167" transform="translate(9 8)" fill="rgba(2,145,28,0.2)" stroke="#02911c" stroke-width="1">
    <circle cx="2.5" cy="2.5" r="2.5" stroke="none"/>
    <circle cx="2.5" cy="2.5" r="2" fill="none"/>
  </g>
  <g id="Ellipse_169" data-name="Ellipse 169" transform="translate(17 8)" fill="rgba(2,145,28,0.2)" stroke="#02911c" stroke-width="1">
    <circle cx="2.5" cy="2.5" r="2.5" stroke="none"/>
    <circle cx="2.5" cy="2.5" r="2" fill="none"/>
  </g>
  <g id="Ellipse_171" data-name="Ellipse 171" transform="translate(0 16)" fill="rgba(2,145,28,0.2)" stroke="#02911c" stroke-width="1">
    <circle cx="2.5" cy="2.5" r="2.5" stroke="none"/>
    <circle cx="2.5" cy="2.5" r="2" fill="none"/>
  </g>
  <g id="Ellipse_170" data-name="Ellipse 170" transform="translate(9 16)" fill="rgba(2,145,28,0.2)" stroke="#02911c" stroke-width="1">
    <circle cx="2.5" cy="2.5" r="2.5" stroke="none"/>
    <circle cx="2.5" cy="2.5" r="2" fill="none"/>
  </g>
  <g id="Ellipse_172" data-name="Ellipse 172" transform="translate(17 16)" fill="rgba(2,145,28,0.2)" stroke="#02911c" stroke-width="1">
    <circle cx="2.5" cy="2.5" r="2.5" stroke="none"/>
    <circle cx="2.5" cy="2.5" r="2" fill="none"/>
  </g>
</svg>
