<svg xmlns="http://www.w3.org/2000/svg" width="24.667" height="26.967" viewBox="0 0 24.667 26.967">
  <path id="notification_1_" data-name="notification (1)" d="M21.766,17.087v-4.5a9.32,9.32,0,0,0-2.7-6.6A9.175,9.175,0,0,0,15.643,3.8V3.1a3.1,3.1,0,1,0-6.2,0v.7A9.172,9.172,0,0,0,6.018,5.992a9.319,9.319,0,0,0-2.7,6.6v4.535a5.255,5.255,0,0,0-3.06,4.72.587.587,0,0,0,.587.587H8.173a4.633,4.633,0,0,0,4.541,4.537,4.633,4.633,0,0,0,4.541-4.537h7.083a.587.587,0,0,0,.587-.587,5.387,5.387,0,0,0-1.244-3.357A4.476,4.476,0,0,0,21.766,17.087ZM10.613,3.1a1.928,1.928,0,1,1,3.856,0v.362a9.246,9.246,0,0,0-3.856,0ZM4.491,12.589a8.051,8.051,0,1,1,16.1,0V16.87H4.645c-.052,0-.1,0-.154,0Zm8.223,13.205A3.443,3.443,0,0,1,9.347,22.43h6.734A3.443,3.443,0,0,1,12.715,25.794ZM1.475,21.257a3.66,3.66,0,0,1,3.17-3.214H20.538a3.66,3.66,0,0,1,3.17,3.214Zm0,0" transform="translate(-0.258)" fill="#02911c"/>
</svg>
