<svg xmlns="http://www.w3.org/2000/svg" width="100" height="100" viewBox="0 0 100 100">
  <g id="rocket" transform="translate(-1 -1)">
    <path id="Path_4994" data-name="Path 4994" d="M77.156,61.805l-3.288,0V51.961H70.581v9.85l-3.288,0V55.248H64.006v6.565l-3.288,0V48.673H57.43V61.817l-3.288,0v-9.86H50.855v9.861l-3.521,0L44.26,41.848l-3.248.5,3.5,22.765,32.643-.02Z" transform="translate(23.844 24.874)" fill="#02911c"/>
    <path id="Path_4995" data-name="Path 4995" d="M33.643,14.149l-6.342,0V4.288H24.013v9.868l-3.288,0V7.575H17.438v6.583l-3.288,0V1H10.863V14.162l-3.288,0V4.288H4.288v9.879L1,14.169v3.288l29.822-.018L33.9,37.414l3.248-.5Z" fill="#02911c"/>
    <path id="Path_4996" data-name="Path 4996" d="M55.52,1A34.436,34.436,0,0,0,22.282,44.745l.115.418.411.411A39.964,39.964,0,0,1,25.627,42.4a40.373,40.373,0,0,1,6.925-5.531c-.03-.45-.046-.9-.046-1.348A23.013,23.013,0,1,1,55.52,58.533c-.447,0-.9-.016-1.348-.046a40.293,40.293,0,0,1-5.531,6.925,40.293,40.293,0,0,1-3.174,2.819l.409.409.418.115A34.508,34.508,0,1,0,55.52,1Z" transform="translate(10.96)" fill="#02911c" opacity="0.39"/>
    <path id="Path_4997" data-name="Path 4997" d="M35.507,49.013A11.507,11.507,0,1,1,47.013,37.507,11.52,11.52,0,0,1,35.507,49.013Zm0-14.794a3.288,3.288,0,1,0,3.288,3.288A3.291,3.291,0,0,0,35.507,34.219Z" transform="translate(13.889 15.349)" fill="#02911c" opacity="0.39"/>
    <path id="Path_4998" data-name="Path 4998" d="M32.931,39.863a4.931,4.931,0,1,1,4.931-4.931A4.937,4.937,0,0,1,32.931,39.863Zm0-6.575a1.644,1.644,0,1,0,1.644,1.644A1.645,1.645,0,0,0,32.931,33.288Z" transform="translate(16.459 17.929)" fill="#02911c"/>
    <path id="Path_4999" data-name="Path 4999" d="M0,0H20.922V3.288H0Z" transform="translate(6.403 93.745) rotate(-45)" fill="#02911c"/>
    <path id="Path_5000" data-name="Path 5000" d="M0,0H4.649V3.288H0Z" transform="translate(1.471 98.676) rotate(-45)" fill="#02911c"/>
    <path id="Path_5001" data-name="Path 5001" d="M0,0H13.948V3.288H0Z" transform="translate(16.263 93.748) rotate(-45)" fill="#02911c"/>
    <path id="Path_5002" data-name="Path 5002" d="M0,0H4.649V3.288H0Z" transform="translate(11.332 98.676) rotate(-45)" fill="#02911c"/>
    <path id="Path_5003" data-name="Path 5003" d="M0,0H13.948V3.288H0Z" transform="translate(6.404 83.885) rotate(-45)" fill="#02911c"/>
    <path id="Path_5004" data-name="Path 5004" d="M0,0H4.649V3.288H0Z" transform="translate(1.472 88.813) rotate(-45)" fill="#02911c"/>
    <path id="Path_5005" data-name="Path 5005" d="M65.725,7A24.221,24.221,0,0,0,41.6,31.262c0,.147.013.293.019.438A41.468,41.468,0,0,0,27.648,47.62l-.712,1.433H24.008a23.976,23.976,0,0,0-20.8,12.137L3,61.563v4.291l8.326-2.792a20.668,20.668,0,0,1,6.557-1.069H20.5l-3.376,6.788,11.29,11.354,6.752-3.395v2.632A20.911,20.911,0,0,1,34.1,85.966l-2.774,8.375h4.267l.37-.214A24.161,24.161,0,0,0,48.033,73.215V70.272l1.427-.717a41,41,0,0,0,10.671-7.735,41.621,41.621,0,0,0,5.16-6.316c.145,0,.288.018.434.018A24.262,24.262,0,0,0,65.725,7ZM17.883,58.758A23.76,23.76,0,0,0,10.31,60L7.1,61.071a20.754,20.754,0,0,1,16.907-8.783h1.319l-3.217,6.47ZM29.05,76.2l-8.009-8.055,4.381-8.812L37.814,71.793Zm15.766-2.984a20.947,20.947,0,0,1-8.732,17l1.07-3.227a24.176,24.176,0,0,0,1.229-7.62V75.123l6.433-3.235Zm13.04-13.682a37.782,37.782,0,0,1-9.837,7.128l-7.175,3.609L26.937,56.283l3.588-7.217a37.981,37.981,0,0,1,7.089-9.891A37.531,37.531,0,0,1,56.121,28.942,12.9,12.9,0,0,0,68.033,40.921,37.871,37.871,0,0,1,57.857,59.533Zm6.519-31.506a4.583,4.583,0,0,1,4.566,4.592,38.778,38.778,0,0,1-.344,5.095,9.675,9.675,0,0,1-9.29-9.341A38.176,38.176,0,0,1,64.375,28.027Zm0-3.235A41.18,41.18,0,0,0,56,25.654a11.245,11.245,0,1,1,15.3,15.39,41.879,41.879,0,0,0,.857-8.425A7.814,7.814,0,0,0,64.375,24.792Zm2.885,27.419a40.8,40.8,0,0,0,3-7.147A14.53,14.53,0,1,0,52,26.7a40.444,40.444,0,0,0-7.107,3.018A20.9,20.9,0,1,1,67.261,52.211Z" transform="translate(1.288 3.863)" fill="#02911c"/>
  </g>
</svg>
