<svg id="running" xmlns="http://www.w3.org/2000/svg" width="42.766" height="42.766" viewBox="0 0 42.766 42.766">
  <circle id="Oval" cx="21.383" cy="21.383" r="21.383" fill="#00861a"/>
  <g id="footwear" transform="translate(11.226 10.692)">
    <path id="Path_5431" data-name="Path 5431" d="M43.781,10.449l-.5.166-3.9-5.071,1-.753ZM32.392.375l2.45,1.315a.821.821,0,0,1,.409.941l-.36,1.213-2.5-1.5-.866-.52Zm-2.581,4.16.223-.349,1.434,1.066a2.5,2.5,0,0,1,.972,2.354l-.054,1.26L28.49,6.62ZM48.358,17.228H41.969L26.715,8.773,27.6,7.117l14.442,8.31a.44.44,0,0,0,.218.058H50.1a1.743,1.743,0,0,1-1.743,1.743ZM50.1,14.613H42.372l-2.989-1.721,1-1.025a.436.436,0,0,0-.622-.61L38.6,12.443l-1.656-.955,1.661-1.329a.436.436,0,0,0-.545-.681l-1.928,1.542L34.716,10.2l2.153-1.794a.436.436,0,1,0-.558-.67l-2.4,2-.674-.388.07-1.673a3.347,3.347,0,0,0-1.319-3.129L30.5,3.447l.561-.881,3.858,2.315a.425.425,0,0,0,.169.054c.01,0,.02,0,.03,0l.025,0a.429.429,0,0,0,.158-.029l4.415-1.7a.265.265,0,0,1,.243.028.261.261,0,0,1,.114.218v.48L38.507,5.113a.436.436,0,0,0-.087.61l0,0,4.358,5.666a.434.434,0,0,0,.483.148l1.225-.408,3.916.28a1.831,1.831,0,0,1,1.7,1.818Zm0,0" transform="translate(-25.694 -0.375)" fill="#fff"/>
    <path id="Path_5432" data-name="Path 5432" d="M2.615,304.555H.436a.436.436,0,1,0,0,.872H2.615a.436.436,0,1,0,0-.872Zm0,0" transform="translate(0 -292.932)" fill="#fff"/>
    <path id="Path_5433" data-name="Path 5433" d="M0,373.431a.436.436,0,0,0,.436.436H6.1a.436.436,0,1,0,0-.872H.436a.436.436,0,0,0-.436.436Zm0,0" transform="translate(0 -358.758)" fill="#fff"/>
    <path id="Path_5434" data-name="Path 5434" d="M10.9,441.43H.436a.436.436,0,1,0,0,.872H10.9a.436.436,0,1,0,0-.872Zm0,0" transform="translate(0 -424.577)" fill="#fff"/>
  </g>
</svg>
