<svg xmlns="http://www.w3.org/2000/svg" width="53.063" height="63.15" viewBox="0 0 53.063 63.15">
  <g id="security" transform="translate(0)">
    <path id="Path_4899" data-name="Path 4899" d="M70.106,16.26c-.032-1.7-.063-3.316-.063-4.874a2.21,2.21,0,0,0-2.21-2.21c-9.453,0-16.65-2.717-22.65-8.55a2.21,2.21,0,0,0-3.082,0c-6,5.833-13.195,8.55-22.647,8.55a2.21,2.21,0,0,0-2.21,2.21c0,1.558-.031,3.17-.063,4.875-.3,15.866-.718,37.6,25.738,46.767a2.208,2.208,0,0,0,1.448,0C70.824,53.857,70.409,32.127,70.106,16.26ZM43.642,58.594C20.953,50.351,21.3,32.3,21.6,16.346c.018-.957.036-1.885.048-2.795,8.853-.374,15.933-3.057,21.994-8.336,6.061,5.28,13.142,7.963,22,8.336.012.909.03,1.836.048,2.793C65.991,32.295,66.333,50.351,43.642,58.594Z" transform="translate(-17.112 0)" fill="#02911c"/>
    <path id="Path_4900" data-name="Path 4900" d="M87.5,79.533,76.835,90.2l-4.553-4.553a2.21,2.21,0,0,0-3.126,3.126l6.115,6.115a2.211,2.211,0,0,0,3.126,0L90.629,82.659A2.21,2.21,0,1,0,87.5,79.533Z" transform="translate(-53.361 -55.637)" fill="#02911c"/>
  </g>
</svg>
