<svg id="shop-icn" xmlns="http://www.w3.org/2000/svg" width="68.483" height="80.809" viewBox="0 0 68.483 80.809">
  <g id="Group_11146" data-name="Group 11146" transform="translate(24.571)">
    <g id="Group_11145" data-name="Group 11145">
      <path id="Path_7706" data-name="Path 7706" d="M97.788,9.985a11.643,11.643,0,0,0-20.931-5.2A1.369,1.369,0,1,0,79.068,6.4a8.9,8.9,0,0,1,16.008,3.975,1.371,1.371,0,0,0,1.355,1.176,1.468,1.468,0,0,0,.2-.014A1.37,1.37,0,0,0,97.788,9.985Z" transform="translate(-76.593)" fill="#02911c"/>
    </g>
  </g>
  <g id="Group_11148" data-name="Group 11148" transform="translate(2.739 17.805)">
    <g id="Group_11147" data-name="Group 11147">
      <path id="Path_7707" data-name="Path 7707" d="M84.993,51.885l-4.109-6.848a1.368,1.368,0,0,0-1.174-.665H75.772a1.369,1.369,0,0,0,0,2.739h3.162L81.4,51.22H25.973l2.465-4.109h1.451a1.369,1.369,0,1,0,0-2.739H27.663a1.368,1.368,0,0,0-1.174.665L22.38,51.885a1.37,1.37,0,0,0,1.174,2.075H83.819a1.37,1.37,0,0,0,1.174-2.075Z" transform="translate(-22.185 -44.372)" fill="#02911c"/>
    </g>
  </g>
  <g id="Group_11150" data-name="Group 11150" transform="translate(36.107 7.675)">
    <g id="Group_11149" data-name="Group 11149" transform="translate(0)">
      <path id="Path_7708" data-name="Path 7708" d="M127.956,24.141a1.367,1.367,0,0,0-.852-.612l-18.671-4.367a1.369,1.369,0,0,0-1.646,1.022L105.38,26.2a1.37,1.37,0,0,0,2.667.623l1.1-4.685,16,3.743-2.515,10.752a1.368,1.368,0,0,0,1.022,1.645,1.385,1.385,0,0,0,.314.036A1.368,1.368,0,0,0,125.3,37.26l2.827-12.085A1.364,1.364,0,0,0,127.956,24.141Z" transform="translate(-105.343 -19.126)" fill="#02911c"/>
    </g>
  </g>
  <g id="Group_11152" data-name="Group 11152" transform="translate(8.08 4.163)">
    <g id="Group_11151" data-name="Group 11151" transform="translate(0)">
      <path id="Path_7709" data-name="Path 7709" d="M62.38,22.138,61.132,11.583a1.371,1.371,0,0,0-1.521-1.2L36.7,13.091a1.37,1.37,0,0,0-1.2,1.521l2.081,17.6a1.37,1.37,0,0,0,1.359,1.209,1.5,1.5,0,0,0,.163-.01A1.37,1.37,0,0,0,40.3,31.9L38.385,15.65l20.188-2.386,1.087,9.195a1.37,1.37,0,0,0,2.721-.321Z" transform="translate(-35.494 -10.374)" fill="#02911c"/>
    </g>
  </g>
  <g id="Group_11154" data-name="Group 11154" transform="translate(18.313 13.149)">
    <g id="Group_11153" data-name="Group 11153" transform="translate(0)">
      <path id="Path_7710" data-name="Path 7710" d="M88.481,45.123,85.763,33.818a1.368,1.368,0,0,0-1.652-1.011L62.047,38.113a1.37,1.37,0,0,0-1.012,1.652l1.359,5.651a1.37,1.37,0,1,0,2.663-.64l-1.039-4.319,19.4-4.665,2.4,9.973a1.37,1.37,0,0,0,2.664-.641Z" transform="translate(-60.997 -32.769)" fill="#02911c"/>
    </g>
  </g>
  <g id="Group_11156" data-name="Group 11156" transform="translate(0 24.654)">
    <g id="Group_11155" data-name="Group 11155">
      <path id="Path_7711" data-name="Path 7711" d="M81.1,62.74a1.37,1.37,0,0,0-1.368-1.3H19.468a1.37,1.37,0,0,0-1.368,1.3L15.36,116.156a1.369,1.369,0,0,0,1.368,1.44H82.471a1.369,1.369,0,0,0,1.369-1.44ZM18.17,114.857l2.6-50.677H78.43l2.6,50.677Z" transform="translate(-15.359 -61.441)" fill="#02911c"/>
    </g>
  </g>
  <g id="Group_11158" data-name="Group 11158" transform="translate(40.404 30.132)">
    <g id="Group_11157" data-name="Group 11157" transform="translate(0)">
      <path id="Path_7712" data-name="Path 7712" d="M120.161,75.093A4.109,4.109,0,1,0,124.27,79.2,4.113,4.113,0,0,0,120.161,75.093Zm0,5.479A1.37,1.37,0,1,1,121.53,79.2,1.371,1.371,0,0,1,120.161,80.572Z" transform="translate(-116.052 -75.093)" fill="#02911c"/>
    </g>
  </g>
  <g id="Group_11160" data-name="Group 11160" transform="translate(19.86 30.132)">
    <g id="Group_11159" data-name="Group 11159">
      <path id="Path_7713" data-name="Path 7713" d="M68.961,75.093A4.109,4.109,0,1,0,73.07,79.2,4.113,4.113,0,0,0,68.961,75.093Zm0,5.479A1.37,1.37,0,1,1,70.33,79.2,1.371,1.371,0,0,1,68.961,80.572Z" transform="translate(-64.852 -75.093)" fill="#02911c"/>
    </g>
  </g>
  <g id="Group_11162" data-name="Group 11162" transform="translate(22.599 34.241)">
    <g id="Group_11161" data-name="Group 11161">
      <path id="Path_7714" data-name="Path 7714" d="M93.593,85.333h-.106a1.37,1.37,0,0,0-1.37,1.369,1.355,1.355,0,0,0,.106.528v7a8.9,8.9,0,1,1-17.806,0V86.7a1.369,1.369,0,0,0-2.739,0v7.533a11.642,11.642,0,0,0,23.284,0V86.7A1.37,1.37,0,0,0,93.593,85.333Z" transform="translate(-71.679 -85.333)" fill="#02911c"/>
    </g>
  </g>
</svg>
