<svg id="verified" xmlns="http://www.w3.org/2000/svg" width="88.84" height="88.84" viewBox="0 0 88.84 88.84">
  <path id="Path_4901" data-name="Path 4901" d="M44.419,88.839a44.42,44.42,0,0,1-31.41-75.83A44.42,44.42,0,0,1,75.829,75.829a44.13,44.13,0,0,1-31.41,13.01Zm0-83.634A39.214,39.214,0,1,0,83.634,44.419,39.259,39.259,0,0,0,44.419,5.2Zm0,0" transform="translate(0.001 0.001)" fill="#02911c"/>
  <path id="Path_4902" data-name="Path 4902" d="M145.843,199.135a2.6,2.6,0,0,1-1.84-.762l-13.939-13.939a2.6,2.6,0,1,1,3.68-3.68l12.1,12.1,20.594-20.688a2.6,2.6,0,1,1,3.68,3.681l-22.434,22.528a2.6,2.6,0,0,1-1.84.762Zm0,0" transform="translate(-106.865 -139.701)" fill="#02911c"/>
</svg>
