<svg xmlns="http://www.w3.org/2000/svg" width="85" height="85" viewBox="0 0 85 85">
  <g id="visitor-r" transform="translate(-40 -30.966)">
    <g id="Group_11454" data-name="Group 11454" transform="translate(21 11.966)">
      <path id="Path_7878" data-name="Path 7878" d="M102.745,19H20.255A1.255,1.255,0,0,0,19,20.255V90.02a1.256,1.256,0,0,0,1.255,1.255H37.443A29.75,29.75,0,0,0,61.5,104,29.765,29.765,0,0,0,85.558,91.274h17.187A1.256,1.256,0,0,0,104,90.02V20.255A1.255,1.255,0,0,0,102.745,19ZM21.511,21.509h79.979v7.629H21.511ZM61.5,101.491A26.889,26.889,0,0,1,39.137,89.344l-.025-.039c-.321-.475-.632-.959-.932-1.458a26.752,26.752,0,0,1,46.64,0c-.3.5-.611.987-.933,1.463l-.014.021A26.91,26.91,0,0,1,61.5,101.491ZM87.179,88.765c.06-.1.125-.2.183-.3a1.256,1.256,0,0,0,0-1.234A29.99,29.99,0,0,0,61.5,71.695,29.973,29.973,0,0,0,35.64,87.231a1.256,1.256,0,0,0,0,1.234c.058.1.123.2.182.3H21.511V31.647h79.979V88.765Z" fill="#e50010"/>
      <path id="Path_7879" data-name="Path 7879" d="M321.911,42.188a2.175,2.175,0,1,0,2.175,2.175,2.175,2.175,0,0,0-2.175-2.175Z" transform="translate(-246.814 -19.018)" fill="#e50010"/>
      <path id="Path_7880" data-name="Path 7880" d="M369.244,42.188a2.175,2.175,0,1,0,2.174,2.176h0A2.175,2.175,0,0,0,369.244,42.188Z" transform="translate(-285.66 -19.018)" fill="#e50010"/>
      <path id="Path_7881" data-name="Path 7881" d="M416.576,42.188a2.175,2.175,0,1,0,2.174,2.176h0a2.174,2.174,0,0,0-2.174-2.175Z" transform="translate(-324.533 -19.018)" fill="#e50010"/>
      <path id="Path_7882" data-name="Path 7882" d="M168.373,135.312h-45.64a1.256,1.256,0,0,0-1.253,1.259V145.2a1.256,1.256,0,0,0,1.253,1.259h45.64a1.256,1.256,0,0,0,1.253-1.259v-8.631A1.256,1.256,0,0,0,168.373,135.312Zm-1.253,8.631H123.985v-6.114H167.12Z" transform="translate(-84.053 -95.475)" fill="#e50010"/>
      <path id="Path_7883" data-name="Path 7883" d="M217.347,356a8.379,8.379,0,0,0-3.863.935,8.475,8.475,0,0,0,3.884,16.011,8.382,8.382,0,0,0,3.863-.94A8.474,8.474,0,0,0,217.347,356Zm2.733,13.771a5.947,5.947,0,0,1-8.011-2.559l-.008-.015a5.955,5.955,0,0,1,10.586-5.456l.006.011a5.963,5.963,0,0,1-2.573,8.017Z" transform="translate(-155.857 -276.677)" fill="#e50010"/>
      <path id="Path_7884" data-name="Path 7884" d="M250.259,229.252A1.259,1.259,0,0,0,249,230.511v7.1a1.259,1.259,0,0,0,2.517,0v-7.1a1.259,1.259,0,0,0-1.259-1.259Z" transform="translate(-188.759 -172.583)" fill="#e50010"/>
      <path id="Path_7885" data-name="Path 7885" d="M304.546,243.278a1.259,1.259,0,0,0-1.654.647l-2.84,6.51a1.258,1.258,0,0,0,.651,1.654,1.245,1.245,0,0,0,.5.106,1.259,1.259,0,0,0,1.154-.755l2.84-6.51a1.258,1.258,0,0,0-.655-1.652Z" transform="translate(-230.575 -184.009)" fill="#e50010"/>
      <path id="Path_7886" data-name="Path 7886" d="M348.1,283.014l-5.207,4.832a1.259,1.259,0,0,0,1.713,1.843l5.207-4.831a1.259,1.259,0,0,0-1.713-1.846Z" transform="translate(-265.522 -216.445)" fill="#e50010"/>
      <path id="Path_7887" data-name="Path 7887" d="M184.687,243.926a1.259,1.259,0,0,0-2.307,1.007l2.84,6.51a1.259,1.259,0,0,0,1.151.755,1.244,1.244,0,0,0,.5-.106,1.258,1.258,0,0,0,.651-1.654Z" transform="translate(-134 -184.007)" fill="#e50010"/>
      <path id="Path_7888" data-name="Path 7888" d="M128.882,283.024a1.259,1.259,0,0,0-1.713,1.846l5.207,4.829a1.259,1.259,0,1,0,1.713-1.846h0Z" transform="translate(-88.462 -216.455)" fill="#e50010"/>
    </g>
    <rect id="Rectangle_17677" data-name="Rectangle 17677" width="46" height="8" transform="translate(60 53.483)" fill="#e50010" opacity="0.25"/>
  </g>
</svg>
