<svg id="workout" xmlns="http://www.w3.org/2000/svg" width="42.701" height="42.701" viewBox="0 0 42.701 42.701">
  <circle id="Oval" cx="21.35" cy="21.35" r="21.35" fill="#00861a"/>
  <path id="Path_2" data-name="Path 2" d="M13.7,23.481c-1.21-.076-2.208-1.3-2.726-3.09a.572.572,0,0,1,.595-.729l4.741.306a.585.585,0,0,1,.5.806c-.742,1.652-1.825,2.71-2.987,2.71Q13.757,23.485,13.7,23.481Zm2.783-5.605-5.2-.345A1.155,1.155,0,0,1,10.2,16.379a28.614,28.614,0,0,0-.25-3.147c-.365-2.63.287-6.142,3.57-6.315,4.011-.211,4.7,4.857,4.492,7.812a12.087,12.087,0,0,1-.346,2.284,1.141,1.141,0,0,1-1.109.866ZM1.258,13.864a.58.58,0,0,1,.5-.806L6.5,12.751a.573.573,0,0,1,.595.73c-.537,1.785-1.516,3.013-2.726,3.09q-.061,0-.122,0C3.08,16.575,1.981,15.515,1.258,13.864ZM.374,10.1A13.972,13.972,0,0,1,.029,7.818C-.163,4.862.527-.2,4.54.006,7.822.178,8.474,3.692,8.11,6.322a24.286,24.286,0,0,0-.25,3.147,1.155,1.155,0,0,1-1.075,1.152l-5.221.345-.08,0A1.143,1.143,0,0,1,.374,10.1Z" transform="translate(12.81 9.608)" fill="#fff"/>
</svg>
