<svg xmlns="http://www.w3.org/2000/svg" width="42" height="42" viewBox="0 0 42 42">
  <g id="yoga" transform="translate(0)">
    <circle id="Oval" cx="21" cy="21" r="21" transform="translate(0)" fill="#00861a"/>
    <g id="Group_10391" data-name="Group 10391" transform="translate(11.303 9.133)">
      <path id="Path_5435" data-name="Path 5435" d="M13.607,18.3a20.613,20.613,0,0,0,3.229-1.244c.088-1.4.176-2.654.264-3.726,1.155,1.535,3.93,2.265,6.106,2.2l.42-1.155a6.8,6.8,0,0,1-4.6-4.737c-.861-2.773-2-2.782-5.384-2.782s-4.523.009-5.384,2.782a6.807,6.807,0,0,1-4.6,4.737l.42,1.155c2.177.061,4.951-.668,6.106-2.2.088,1.072.176,2.326.264,3.726a20.274,20.274,0,0,0,3.16,1.244m0-12.476A2.91,2.91,0,1,0,10.7,2.91,2.91,2.91,0,0,0,13.607,5.82Zm0,16.632a27.13,27.13,0,0,0,6.006.938L20.8,22.063c-.78-.257-1.98-.784-2.332-.942A26.323,26.323,0,0,0,21.152,19.7c2.034-1.39.229-4.366-2.168-3.073-.8.43-1.557.813-2.268,1.141a19.38,19.38,0,0,1-3.11,1.177,19.291,19.291,0,0,1-3.11-1.177c-.711-.329-1.469-.711-2.268-1.141-2.4-1.293-4.2,1.683-2.168,3.073a26.421,26.421,0,0,0,2.684,1.421c-.352.158-1.552.685-2.332.942L7.6,23.39A27.139,27.139,0,0,0,13.607,22.452Z" transform="translate(-3.657 0)" fill="#fff" fill-rule="evenodd"/>
    </g>
  </g>
</svg>
