<svg xmlns="http://www.w3.org/2000/svg" width="36.561" height="32.947" viewBox="0 0 36.561 32.947">
  <g id="Baby-care" transform="translate(0 0)">
    <g id="Group_11277" data-name="Group 11277" transform="translate(0 0)">
      <circle id="Ellipse_127" data-name="Ellipse 127" cx="1.452" cy="1.452" r="1.452" transform="translate(9.205 18.767)" fill="#02911c"/>
      <circle id="Ellipse_128" data-name="Ellipse 128" cx="1.452" cy="1.452" r="1.452" transform="translate(24.453 18.767)" fill="#02911c"/>
      <path id="Path_7928" data-name="Path 7928" d="M36.561,38.735a4.288,4.288,0,0,0-3.526-4.213v-.635a14.755,14.755,0,1,0-29.51,0v.635a4.281,4.281,0,0,0,.052,8.436A8.554,8.554,0,0,0,8.012,50.1c2.367,1.329,5.726,1.975,10.269,1.975s7.9-.646,10.269-1.975a8.554,8.554,0,0,0,4.434-7.147A4.288,4.288,0,0,0,36.561,38.735Zm-35.05,0A2.774,2.774,0,0,1,3.526,36.07V41.4A2.774,2.774,0,0,1,1.511,38.735Zm30.013,3.033c0,3.319-1.215,5.615-3.715,7.018-2.135,1.2-5.252,1.781-9.529,1.781h0c-4.277,0-7.394-.583-9.529-1.781-2.5-1.4-3.715-3.7-3.715-7.018V33.887A13.267,13.267,0,0,1,14.476,21.2c4.155.053,6.368,3.052,6.368,5.224a3.02,3.02,0,0,1-3.017,3.017,2.265,2.265,0,0,1-2.262-2.262,1.66,1.66,0,0,1,1.659-1.659.756.756,0,1,0,0-1.511,3.174,3.174,0,0,0-3.17,3.17,3.778,3.778,0,0,0,3.774,3.774,4.533,4.533,0,0,0,4.528-4.528,6.473,6.473,0,0,0-2.108-4.514,7.692,7.692,0,0,0-1.785-1.265A13.258,13.258,0,0,1,31.524,33.887v7.881Zm1.511-.369V36.07a2.769,2.769,0,0,1,0,5.329Z" transform="translate(0 -19.132)" fill="#02911c"/>
      <path id="Path_7929" data-name="Path 7929" d="M144.3,265.915H134.52a.756.756,0,0,0-.756.756,5.645,5.645,0,1,0,11.29,0A.756.756,0,0,0,144.3,265.915Zm-4.889,4.889a4.14,4.14,0,0,1-4.064-3.378H138v.715a.756.756,0,1,0,1.511,0v-.715h3.957A4.14,4.14,0,0,1,139.409,270.8Z" transform="translate(-121.128 -242.603)" fill="#02911c"/>
    </g>
  </g>
</svg>
