<svg xmlns="http://www.w3.org/2000/svg" width="25.356" height="32.691" viewBox="0 0 25.356 32.691">
  <g id="clothing" transform="translate(-8.674)">
    <path id="Shape" d="M26.172,9.536a.545.545,0,0,0,.109-.545,12.122,12.122,0,0,0-4.3-5.857,19.515,19.515,0,0,0-4.211-2.108A2.261,2.261,0,0,0,17.324,1C9.239,1,9.381,1,9.25,1.026A19.646,19.646,0,0,0,5.039,3.134,10.82,10.82,0,0,0,.98,9.024a.545.545,0,0,0,.136.545S3.7,12.091,6.782,11.1A8.251,8.251,0,0,0,8.417,16.27c-1.2,1.422-5.317,6.685-5.8,12.471a1.139,1.139,0,0,0,0,.136c.033.174.839,4.244,9.218,4.811a.545.545,0,0,0,.545-.354l1.133-3,1.122,3a.545.545,0,0,0,.545.354c8.385-.545,9.191-4.636,9.229-4.811a1.139,1.139,0,0,0,0-.136c-.485-5.786-4.6-11.049-5.808-12.487a8.413,8.413,0,0,0,1.634-5.2,5.993,5.993,0,0,0,5.938-1.515ZM13.511,6.763a17.1,17.1,0,0,1-3.334-4.674h6.668a17.306,17.306,0,0,1-3.334,4.674Zm2,25.835-1.487-3.977a.545.545,0,0,0-1.024,0L11.511,32.6c-6.576-.545-7.676-3.411-7.8-3.814.479-5.285,4.3-10.27,5.492-11.708a5.225,5.225,0,0,0,2.13.665l-.5.992a.548.548,0,0,0,.981.49l.686-1.367.463.033v2.724a.545.545,0,0,0,1.09,0V17.888h.463l.686,1.367a.551.551,0,0,0,.97-.523l-.485-.992a5.225,5.225,0,0,0,2.141-.708c1.182,1.438,5.007,6.418,5.486,11.713-.125.43-1.166,3.263-7.807,3.852Zm3.59-22.25c0,.033.349,3.585-1.634,5.546a.409.409,0,0,0-.082.109s-.458.627-2.588.768c-.054,0-.545.054-1.3.054-3.3,0-3.939-.855-3.874-.79a.6.6,0,0,0-.1-.142c-1.967-1.961-1.634-5.513-1.634-5.546A.545.545,0,0,0,7.1,9.8a4.535,4.535,0,0,1-4.985-.779A9.9,9.9,0,0,1,5.606,4.071,18.524,18.524,0,0,1,9.043,2.284a18.123,18.123,0,0,0,3.89,5.508v3.013a.545.545,0,0,0,1.09,0V7.765a18.123,18.123,0,0,0,3.89-5.508,18.987,18.987,0,0,1,3.438,1.787A11.19,11.19,0,0,1,25.1,9.024a4.827,4.827,0,0,1-5.268.741.545.545,0,0,0-.73.556Z" transform="translate(7.718 -0.997)" fill="#02911c"/>
    <path id="Path_7927" data-name="Path 7927" d="M-2.3,1.148c1.733,0,2.311,2.186,2.675,3.67,0,.735,2.205.9,1.353,1.375-.511.292,2.363,7.3,1.49,7.3A4.32,4.32,0,0,1,1.726,15.2c-1.547.976-4.868,2.084-6.306,1.266-.478,1.006-1.694-4.62-2.342-4.114l-1.836,4.62-4.886-.886-3.342-2.911c-.164-.124.622-3.5,2.342-6.98,1.008-2.04,3.014-4.289,3.228-5.045.3-1.068,5.948.907,5.948.57C-4.4.725-4.035,1.148-2.3,1.148Z" transform="translate(27.999 14.835)" fill="#02911c" opacity="0.18"/>
  </g>
</svg>
