<svg xmlns="http://www.w3.org/2000/svg" width="30.268" height="30.268" viewBox="0 0 30.268 30.268">
  <g id="vegan_product" transform="translate(0.005 0.005)">
    <g id="Group_11282" data-name="Group 11282" transform="translate(-0.005 -0.005)">
      <g id="Group_11278" data-name="Group 11278" transform="translate(0 0)">
        <path id="Path_7933" data-name="Path 7933" d="M14.917,0a15.134,15.134,0,1,0,15.344,14.92A15.159,15.159,0,0,0,14.917,0Zm.393,29.538A14.407,14.407,0,1,1,29.534,14.947,14.421,14.421,0,0,1,15.31,29.534Z" transform="translate(0.005 0.005)" fill="#02911c"/>
      </g>
      <g id="Group_11279" data-name="Group 11279" transform="translate(11.048 15.8)">
        <path id="Path_7934" data-name="Path 7934" d="M41.524,59.221l-.757-.061v-.182c.272-3.813-4.086-5.992-4.267-6.113l.333-.666c.182.091,3.632,1.846,4.509,4.994a7.777,7.777,0,0,1,3.874-3.45l.3.7c-3.42,1.543-3.9,4.055-3.995,4.63Z" transform="translate(-36.5 -52.2)" fill="#02911c"/>
      </g>
      <g id="Group_11280" data-name="Group 11280" transform="translate(16.412 13.834)">
        <path id="Path_7935" data-name="Path 7935" d="M57.606,53.178h-.182a3.1,3.1,0,0,1-2.6-1.453,3.92,3.92,0,0,1-.424-3.208c.726-1.846,3.723-3.783,8.141-2.27l.3.091-.03.3C62.388,50.3,60.088,53.178,57.606,53.178Zm1.907-6.688c-2.391,0-3.995,1.18-4.419,2.33a3.038,3.038,0,0,0,.363,2.512,2.353,2.353,0,0,0,2.028,1.09c2.088.121,4.086-2.361,4.54-5.538A7.845,7.845,0,0,0,59.513,46.49Z" transform="translate(-54.223 -45.705)" fill="#02911c"/>
      </g>
      <g id="Group_11281" data-name="Group 11281" transform="translate(5.489 9.702)">
        <path id="Path_7937" data-name="Path 7937" d="M-8,.849a2.078,2.078,0,0,1,1.86,1.769l1,1.088.681.978c-.256.192-.6,4.175-1.036,4.175-.145,0-.655,1.773-1.731.969h-2.9l-2-1.5c-.372.382-1.455-3.51-1.59-3.648A15.688,15.688,0,0,1-13.952.041c.152-.7,4.23.222,4.23,0C-9.185-.612-8.868.849-8,.849Z" transform="translate(14.677 0.822)" fill="#02911c" opacity="0.18"/>
        <path id="Path_7936" data-name="Path 7936" d="M24.145,43.386a4.212,4.212,0,0,1-1.18-.151c-3.45-.787-5.508-5.659-4.63-10.865l.061-.3h.3a11.42,11.42,0,0,1,7.233,1.876,6.24,6.24,0,0,1,2.815,4.328,5.334,5.334,0,0,1-1.786,4.055A4.085,4.085,0,0,1,24.145,43.386ZM19.03,32.824c-.7,4.691,1.09,8.989,4.086,9.685a3.582,3.582,0,0,0,3.329-.726,4.654,4.654,0,0,0,1.543-3.42C27.807,36,24.81,32.7,19.03,32.824Z" transform="translate(-18.132 -32.053)" fill="#02911c"/>
      </g>
    </g>
  </g>
</svg>
