<svg xmlns="http://www.w3.org/2000/svg" width="16.791" height="14.171" viewBox="0 0 16.791 14.171">
  <path id="chat-icon" d="M255.035,246h-5.154a5.8,5.8,0,1,0,0,11.594h4.885l2.388,2.388a.645.645,0,0,0,1.059-.227l2.284-5.9a5.675,5.675,0,0,0,.378-2.061A5.84,5.84,0,0,0,255.035,246Zm-6.379,6.947A1.144,1.144,0,1,1,249.8,251.8,1.144,1.144,0,0,1,248.656,252.947Zm3.8,0A1.144,1.144,0,1,1,253.6,251.8,1.144,1.144,0,0,1,252.459,252.947Zm3.8,0A1.144,1.144,0,1,1,257.4,251.8,1.144,1.144,0,0,1,256.261,252.947Z" transform="translate(-244.084 -246)" fill="#fff"/>
</svg>
