<svg xmlns="http://www.w3.org/2000/svg" width="8.083" height="5.63" viewBox="0 0 8.083 5.63">
  <g id="right-arrow" transform="translate(0.25 0.256)">
    <g id="Group_215" data-name="Group 215" transform="translate(0 0)">
      <path id="Path_171" data-name="Path 171" d="M7.512,87.782,5.15,85.38a.156.156,0,0,0-.172-.035.16.16,0,0,0-.1.148v.32a.161.161,0,0,0,.046.113l1.621,1.648H.157a.159.159,0,0,0-.157.16v.32a.159.159,0,0,0,.157.16H6.549L4.928,89.864a.161.161,0,0,0-.046.113v.32a.16.16,0,0,0,.1.148.154.154,0,0,0,.06.012.156.156,0,0,0,.111-.047l2.362-2.4A.162.162,0,0,0,7.512,87.782Z" transform="translate(0 -85.333)" fill="#e23744" stroke="red" stroke-width="0.5"/>
    </g>
  </g>
</svg>
