<svg xmlns="http://www.w3.org/2000/svg" width="31.895" height="35.5" viewBox="0 0 31.895 35.5"><defs><style>.a{fill:#02911c;}.b{fill:rgba(2,145,28,0.25);}</style></defs><g transform="translate(0)"><path class="a" d="M57,20.723a5.545,5.545,0,0,0,.893-2.973,4.816,4.816,0,0,0-1.756-3.725,4.687,4.687,0,0,0,.37-1.821,5.168,5.168,0,0,0-2.8-4.571A4.156,4.156,0,0,0,50.549,3.1,5,5,0,0,0,46.107,0a4.873,4.873,0,0,0-4.16,2.5A4.873,4.873,0,0,0,37.787,0a5,5,0,0,0-4.441,3.1A4.155,4.155,0,0,0,30.19,7.632a5.168,5.168,0,0,0-2.8,4.571,4.687,4.687,0,0,0,.37,1.821A4.816,4.816,0,0,0,26,17.75a5.544,5.544,0,0,0,.893,2.973,4.787,4.787,0,0,0,.556,6.215,5.033,5.033,0,0,0,4.791,5.788H32.3a5.466,5.466,0,0,0,9.644-.241,5.466,5.466,0,0,0,9.644.241h.063a5.027,5.027,0,0,0,4.854-5.062,4.439,4.439,0,0,0-.062-.727A4.787,4.787,0,0,0,57,20.723ZM41.254,10.5a2.755,2.755,0,0,0-1.387-.373.693.693,0,0,0,0,1.387A1.388,1.388,0,0,1,41.254,12.9V26.082a5.534,5.534,0,0,0-4.16-1.884.693.693,0,0,0,0,1.387,4.165,4.165,0,0,1,4.16,4.16,4.325,4.325,0,0,1-4.16,4.368,4.172,4.172,0,0,1-3.765-2.418.694.694,0,0,0-.707-.4l-.147.019c-1.973.27-4.2-1.965-3.594-4.464a.693.693,0,0,0-.231-.7A3.452,3.452,0,0,1,27.387,23.5a3.412,3.412,0,0,1,.509-1.784,4.678,4.678,0,0,0,2.958,1.091.693.693,0,0,0,0-1.387,3.645,3.645,0,0,1-3.467-3.675,3.447,3.447,0,0,1,1.619-2.922.693.693,0,0,0,.232-.928,3.412,3.412,0,0,1-.464-1.7A3.661,3.661,0,0,1,32.24,8.528,3.669,3.669,0,0,1,35.707,12.2a.693.693,0,0,0,1.387,0A5.027,5.027,0,0,0,32.24,7.142a4.5,4.5,0,0,0-.692.054c0-.018,0-.036,0-.054A2.774,2.774,0,0,1,36.282,5.18a.693.693,0,0,0,.98-.981,4.132,4.132,0,0,0-2.3-1.168,3.5,3.5,0,0,1,2.825-1.644,3.669,3.669,0,0,1,3.467,3.675ZM53.041,22.812A4.68,4.68,0,0,0,56,21.721a3.412,3.412,0,0,1,.509,1.784,3.452,3.452,0,0,1-1.264,2.652.693.693,0,0,0-.231.7,3.421,3.421,0,0,1,.108.813,3.612,3.612,0,0,1-3.7,3.652l-.147-.019a.693.693,0,0,0-.707.4A4.172,4.172,0,0,1,46.8,34.113a4.325,4.325,0,0,1-4.16-4.368,4.165,4.165,0,0,1,4.16-4.16.693.693,0,0,0,0-1.387,5.534,5.534,0,0,0-4.16,1.884V12.9a1.388,1.388,0,0,1,1.387-1.387.693.693,0,0,0,0-1.387,2.755,2.755,0,0,0-1.387.373V5.062a3.669,3.669,0,0,1,3.467-3.675,3.5,3.5,0,0,1,2.825,1.644,4.132,4.132,0,0,0-2.3,1.168.693.693,0,1,0,.98.981,2.774,2.774,0,0,1,4.735,1.961c0,.018,0,.036,0,.054a4.5,4.5,0,0,0-.692-.054A5.027,5.027,0,0,0,46.8,12.2a.693.693,0,0,0,1.387,0,3.473,3.473,0,1,1,6.934,0,3.412,3.412,0,0,1-.464,1.7.693.693,0,0,0,.232.928,3.448,3.448,0,0,1,1.619,2.922,3.644,3.644,0,0,1-3.467,3.675.693.693,0,0,0,0,1.387Z" transform="translate(-26)"/><path class="b" d="M3.308-.782c1.373-.6,2.534-1.638,4.827.567a19.521,19.521,0,0,0,3.517,3.36c.387.476-.021.793.72,2.21.472.9,2.028,1.793,2.6,3.434.26.737-.461,2.215,0,3.578.15.437,1,.719,1.3,1.631a7.728,7.728,0,0,1-.4,3.758c0,1.633.514,2.636.4,4.182-.695,1.312-.97,3.077-1.963,5.281-1.29,2.891-1.812,2.66-4.153,2.66-1.686,2.917-6.31,3.673-8.387.671C.728,29.072.828,21.958.828,18.059,2,8.58-1.068.731,3.308-.782Z" transform="translate(14.864 2.211)"/></g><g transform="translate(5.547 11.51)"><g transform="translate(0)"><path class="a" d="M114.144,169.332a.693.693,0,0,0-.979-.055,3.473,3.473,0,0,1-5.778-2.584.693.693,0,0,0-1.387,0,4.861,4.861,0,0,0,4.063,4.788,2.084,2.084,0,0,1-1.983,1.452.693.693,0,1,0,0,1.387,3.472,3.472,0,0,0,3.4-2.815,4.845,4.845,0,0,0,2.6-1.194A.693.693,0,0,0,114.144,169.332Z" transform="translate(-106 -166)"/></g></g><g transform="translate(5.547 26.972)"><g transform="translate(0)"><path class="a" d="M106.693,389a.693.693,0,1,0,0,1.387,3.669,3.669,0,0,1,3.467,3.675.693.693,0,0,0,1.387,0A5.027,5.027,0,0,0,106.693,389Z" transform="translate(-106 -389)"/></g></g><g transform="translate(6.268 21.425)"><g transform="translate(0)"><path class="a" d="M121.917,309a6.227,6.227,0,0,0-5.429,3.162.693.693,0,1,0,1.206.684,4.843,4.843,0,0,1,4.223-2.459.693.693,0,1,0,0-1.387Z" transform="translate(-116.398 -309)"/></g></g><g transform="translate(18.027 11.51)"><path class="a" d="M292.24,172.934a2.084,2.084,0,0,1-1.983-1.452,4.861,4.861,0,0,0,4.063-4.788.693.693,0,0,0-1.387,0,3.467,3.467,0,0,1-5.778,2.584.693.693,0,1,0-.925,1.034,4.846,4.846,0,0,0,2.6,1.194,3.472,3.472,0,0,0,3.4,2.815.693.693,0,0,0,0-1.387Z" transform="translate(-286 -166)"/></g><g transform="translate(20.801 26.972)"><path class="a" d="M330.854,389A5.027,5.027,0,0,0,326,394.062a.693.693,0,0,0,1.387,0,3.669,3.669,0,0,1,3.467-3.675.693.693,0,0,0,0-1.387Z" transform="translate(-326 -389)"/></g><g transform="translate(19.414 21.425)"><path class="a" d="M312.122,312.162A6.227,6.227,0,0,0,306.693,309a.693.693,0,0,0,0,1.387,4.843,4.843,0,0,1,4.222,2.459.693.693,0,0,0,1.207-.684Z" transform="translate(-306 -309)"/></g></svg>