<svg xmlns="http://www.w3.org/2000/svg" width="22.48" height="30" viewBox="0 0 22.48 30"><defs><style>.a,.b{fill:#02911c;}.b{opacity:0.18;}</style></defs><g transform="translate(-22.908 -9.25)"><path class="a" d="M45.241,36.272,40.483,24.1l-1.076-2.75A16.5,16.5,0,0,1,38.27,15.32V12.9h.583a.479.479,0,0,0,.479-.479v-2.7a.479.479,0,0,0-.479-.479h-9.41a.479.479,0,0,0-.48.479v2.7a.479.479,0,0,0,.479.479h.584v2.414a16.5,16.5,0,0,1-1.138,6.035l-.421,1.077L23.055,36.272a2.148,2.148,0,0,0,2,2.93H43.241a2.148,2.148,0,0,0,2-2.93ZM29.921,10.207h8.454v1.74H29.921Zm1.063,5.112V12.9h6.329v2.414A17.449,17.449,0,0,0,38.371,21.3a17.165,17.165,0,0,0-6.258.869,4.843,4.843,0,0,1-2.567.125l.234-.6a17.455,17.455,0,0,0,1.2-6.382ZM44.222,37.726a1.174,1.174,0,0,1-.983.52H25.055a1.19,1.19,0,0,1-1.108-1.624L29.194,23.2a5.018,5.018,0,0,0,1.34.179,6.476,6.476,0,0,0,1.851-.287,15.291,15.291,0,0,1,6.368-.776l.585,1.5H37.753a.479.479,0,1,0,0,.957h1.962l.728,1.862H38.734a.479.479,0,1,0,0,.957h2.084l.728,1.861H39.877a.479.479,0,0,0,0,.957h2.042l.728,1.862H40.784a.479.479,0,0,0,0,.957h2.239l.728,1.862H41.928a.479.479,0,0,0,0,.957h2.2l.224.574a1.174,1.174,0,0,1-.126,1.1Z" transform="translate(0 0)"/><path class="b" d="M9.4-2.272c2.336,0,2.744.4,3.921,2.791.9,1.808,2.579,5.6,2.579,7.771,0,2.194,3.609,4.717,1.907,6.04-1.207.953-6.836.318-9.149.318-4.645,0-12.044,2.64-12.044-1.731,0-2.57,2.143-10,5.616-13.74.93-1,2-.3,3.461-.459C6.819-1.415,8.348-2.272,9.4-2.272Z" transform="translate(26.902 23.813)"/></g></svg>