<svg xmlns="http://www.w3.org/2000/svg" width="39.89" height="29.512" viewBox="0 0 39.89 29.512"><defs><style>.a{fill:rgba(2,145,28,0.18);}.b{fill:#02911c;stroke:#fff;stroke-width:0.2px;}</style></defs><g transform="translate(0.1 -0.898)"><ellipse class="a" cx="6.163" cy="13.559" rx="6.163" ry="13.559" transform="matrix(0.978, -0.208, 0.208, 0.978, 22.096, 3.525)"/><path class="b" d="M0,26.479C0,29.929,10.245,30.3,14.651,30.3c5.456,0,9.894-.53,12.311-1.46a5.117,5.117,0,0,0,3.285,1.46c.518,0,.5-.027,3.858-.782,1.838-.414,3.179-2.315,3.779-5.351a25.333,25.333,0,0,0-.4-10.1C35.714,6.228,31.467.728,27.806,1.555l-3.107.7a4.642,4.642,0,0,0-3.032,2.951C17.089,3.962,16.6,7.37,12.193,6.739c-3.849-.55-3.912-4.918-3.912-5.1a.637.637,0,0,0-1.138-.394c-.133.169-3.115,4.033-2.512,8.675C1.142,10.47.637,11.16.637,11.829v2.166A1.218,1.218,0,0,0,0,15.014ZM6.33,13.965a85.162,85.162,0,0,0,14.411.2c.068.637.152,1.287.267,1.949-4.239.246-15.415.386-19.1-.882V13.1a19.433,19.433,0,0,0,4.419.862ZM1.274,26.479V18.871a35.852,35.852,0,0,0,8.241,1.239.638.638,0,1,0,.08-1.274,30.841,30.841,0,0,1-8.32-1.31V16.351c3.828,1.47,15.633,1.287,19.982,1.025.769,3.586,2.293,7.7,4.71,10.468a41.467,41.467,0,0,1-11.315,1.183c-9.227,0-13.377-1.49-13.377-2.548ZM36.237,14.347a24.031,24.031,0,0,1,.395,9.574c-.488,2.475-1.511,4.063-2.808,4.355-2.552.573-6.434-3.931-8.154-11.55S25.535,3.372,28.086,2.8a2.066,2.066,0,0,1,.45-.049C31.074,2.748,34.619,7.163,36.237,14.347ZM24.979,3.5l.386-.087c-3.974,6.014-.432,21.749,5.739,25.48l-.387.087c-1.3.292-2.9-.7-4.4-2.73a24.041,24.041,0,0,1-3.747-8.819,31.04,31.04,0,0,1-.63-4.04c-.463-5.539.968-9.423,3.044-9.891ZM6.446,5.271a5.87,5.87,0,0,0,4.182,5.888.638.638,0,0,0,.4-1.21C8.291,9.035,7.654,6.807,7.722,4.757A5.427,5.427,0,0,0,12.012,8c4.825.691,5.332-2.557,9.209-1.592a19.173,19.173,0,0,0-.586,6.488A84.308,84.308,0,0,1,6.82,12.734a9.018,9.018,0,0,1-.375-7.463Zm-1.571,5.9a11.219,11.219,0,0,0,.47,1.386,13.53,13.53,0,0,1-3.185-.725A11.441,11.441,0,0,1,4.874,11.169Z" transform="translate(0 0.009)"/></g></svg>