<svg xmlns="http://www.w3.org/2000/svg" width="23.263" height="31.648" viewBox="0 0 23.263 31.648"><defs><style>.a{fill:#fff;}.b{fill:rgba(2,145,28,0.18);}.c,.d{fill:#02911c;}.d{stroke:#02911c;stroke-width:0.3px;}</style></defs><g transform="translate(-18.999 -3.35)"><g transform="translate(19.149 3.5)"><g transform="translate(18.934 17.36)"><path class="a" d="M90.35,76.182a.536.536,0,0,1-.455-.819,9.68,9.68,0,0,0,1.1-6.467.536.536,0,1,1,1.063-.136A10.712,10.712,0,0,1,90.8,75.929.535.535,0,0,1,90.35,76.182Z" transform="translate(-89.814 -68.292)"/></g><g transform="translate(8.046 11.592)"><path class="b" d="M58.8,48.986H53.482a.4.4,0,0,1-.4-.4V43.268a.4.4,0,0,1,.4-.4H58.8a.4.4,0,0,1,.4.4v5.316A.4.4,0,0,1,58.8,48.986Z" transform="translate(-53.08 -42.866)"/><path class="a" d="M72.224,42.866h-.8a.4.4,0,0,1,.4.4v5.316a.4.4,0,0,1-.4.4h.8a.4.4,0,0,0,.4-.4V43.268A.4.4,0,0,0,72.224,42.866Z" transform="translate(-66.506 -42.866)"/></g><path class="b" d="M47.377,71.827H42.061a.4.4,0,0,1-.4-.4V66.109a.4.4,0,0,1,.4-.4h5.316a.4.4,0,0,1,.4.4v5.316A.4.4,0,0,1,47.377,71.827Z" transform="translate(-36.673 -47.995)"/><path class="b" d="M70.218,71.827H64.9a.4.4,0,0,1-.4-.4V66.109a.4.4,0,0,1,.4-.4h5.316a.4.4,0,0,1,.4.4v5.316A.4.4,0,0,1,70.218,71.827Z" transform="translate(-53.394 -47.995)"/><path class="c" d="M40.925,24.481a.267.267,0,0,0,.22-.115c.483-.693,1-1.407,1.53-2.122a.268.268,0,0,0-.43-.32c-.535.719-1.053,1.437-1.54,2.136a.268.268,0,0,0,.22.421Z" transform="translate(-34.894 -16.909)"/><path class="d" d="M30.832,3.591a.268.268,0,0,0-.2-.091h0a.267.267,0,0,0-.2.092c-.014.016-1.4,1.6-3.164,3.91a.268.268,0,1,0,.425.325c1.364-1.781,2.5-3.129,2.94-3.648C32.14,5.94,41.576,17.205,41.576,23.367a10.945,10.945,0,1,1-21.891,0c0-2.56,1.724-6.483,4.987-11.345a.268.268,0,0,0-.445-.3c-3.369,5.021-5.077,8.939-5.077,11.644a11.481,11.481,0,1,0,22.963,0c0-6.865-10.819-19.252-11.28-19.776Z" transform="translate(-19.149 -3.5)"/><path class="c" d="M41.33,54.641h5.316a.662.662,0,0,0,.4-.137.664.664,0,0,0,.4.137h5.316a.67.67,0,0,0,.67-.67V48.655a.67.67,0,0,0-.67-.67h-2.4a.67.67,0,0,0,.014-.134V42.536a.67.67,0,0,0-.67-.67H44.39a.671.671,0,0,0-.67.67v5.316a.67.67,0,0,0,.014.134h-2.4a.671.671,0,0,0-.67.67v5.316A.67.67,0,0,0,41.33,54.641ZM52.9,48.655v5.316a.134.134,0,0,1-.134.134H47.449a.134.134,0,0,1-.134-.134V48.655a.134.134,0,0,1,.134-.134h5.316A.134.134,0,0,1,52.9,48.655Zm-8.644-.8V42.536a.134.134,0,0,1,.134-.134h5.316a.134.134,0,0,1,.134.134v5.316a.134.134,0,0,1-.134.134H44.39A.134.134,0,0,1,44.256,47.852Zm-3.06.8a.134.134,0,0,1,.134-.134h5.316a.134.134,0,0,1,.134.134v5.316a.134.134,0,0,1-.134.134H41.33a.134.134,0,0,1-.134-.134Z" transform="translate(-35.941 -30.541)"/></g></g></svg>