<svg xmlns="http://www.w3.org/2000/svg" width="127.447" height="41.504" viewBox="0 0 127.447 41.504"><defs><style>.a{fill:#02911c;}.b{fill:none;}.c{fill:#e23744;stroke:#e23744;stroke-width:12px;}</style></defs><g transform="translate(0 5.286)"><g transform="translate(0 6.309)"><path class="a" d="M234.252,431.756q4.587,0,6.73,1.348l.643,5.434h-.472a10.466,10.466,0,0,0-6.13-1.552,9.394,9.394,0,0,0-6.623,2.308,8.469,8.469,0,0,0,.086,12.115,11.341,11.341,0,0,0,13.139.449h.472l-.643,5.557q-2.444,1.51-7.116,1.511a15.466,15.466,0,0,1-10.717-3.759,12.4,12.4,0,0,1-4.2-9.683,12.806,12.806,0,0,1,4.2-9.867A15.1,15.1,0,0,1,234.252,431.756Z" transform="translate(-219.419 -429.06)"/><path class="a" d="M343.432,465.2a8.551,8.551,0,0,1-.472,2.984H328.771q.9,5.148,7.2,5.148,4.072,0,6.13-1.552h.471l-.729,4.291a9.271,9.271,0,0,1-2.722,1.1,15.048,15.048,0,0,1-3.921.49,13.119,13.119,0,0,1-8.574-2.8,9.53,9.53,0,0,1-3.428-7.825,10.034,10.034,0,0,1,2.958-7.558,10.521,10.521,0,0,1,7.631-2.861,10.129,10.129,0,0,1,6.966,2.369A7.879,7.879,0,0,1,343.432,465.2Zm-14.661-.326h9.3a4.228,4.228,0,0,0-1.136-3.208,4.383,4.383,0,0,0-3.151-1.083,5.119,5.119,0,0,0-3.344,1.083,4.979,4.979,0,0,0-1.672,3.207Z" transform="translate(-297.606 -447.789)"/><path class="a" d="M423.313,450.158V421.639l5.658-.817v29.336Z" transform="translate(-373.029 -420.822)"/><path class="a" d="M470.244,450.158V421.639l5.658-.817v29.336Z" transform="translate(-408.386 -420.822)"/><path class="a" d="M523.592,479.272a7.487,7.487,0,0,1-5.423-1.961q-2.035-1.961-2.036-5.925V458.762h5.7v12.217q0,3.676,3.686,3.677a5.7,5.7,0,0,0,2.722-.674,4.432,4.432,0,0,0,1.779-1.532V458.762h5.7v19.98h-4.93v-3.228a7.426,7.426,0,0,1-2.722,2.636A8.531,8.531,0,0,1,523.592,479.272Z" transform="translate(-442.957 -449.405)"/><path class="a" d="M619.384,450.158V421.639l5.658-.817v29.336Z" transform="translate(-520.745 -420.822)"/><path class="a" d="M669.179,456.6a10.366,10.366,0,0,1,6.9,2.1,7.449,7.449,0,0,1,2.486,6.026v12.38h-5.1v-2.861a5.948,5.948,0,0,1-2.465,2.37,8.583,8.583,0,0,1-4.393,1.063,7.571,7.571,0,0,1-4.951-1.593,5.164,5.164,0,0,1-1.95-4.208,5.612,5.612,0,0,1,2.208-4.617,9.2,9.2,0,0,1,5.894-1.757,11.414,11.414,0,0,1,5.1,1.021v-1.471q0-4.085-4.887-4.086a11.206,11.206,0,0,0-6.6,1.839h-.471l.814-4.209a8.545,8.545,0,0,1,2.958-1.409A15.5,15.5,0,0,1,669.179,456.6Zm.215,12.134a4.961,4.961,0,0,0-2.894.715,2.221,2.221,0,0,0-1.007,1.9,2.3,2.3,0,0,0,.9,1.9,3.749,3.749,0,0,0,2.4.715,4.953,4.953,0,0,0,2.614-.674,3.786,3.786,0,0,0,1.5-1.45v-2.411a7.466,7.466,0,0,0-3.515-.693Z" transform="translate(-551.121 -447.779)"/></g><g transform="translate(79.981)"><path class="b" d="M528.447,377.545c.076,0,.132-.009.188-.009,1.2,0,2.4,0,3.6,0a3.752,3.752,0,1,1-3.754,4.233,3.164,3.164,0,0,1-.031-.4q0-1.835,0-3.669Zm.715.706v.183c0,.946,0,1.892,0,2.838a3.268,3.268,0,0,0,.053.584,3.038,3.038,0,1,0,2.909-3.6h-2.962Z" transform="translate(-528.447 -377.535)"/><path class="c" d="M534.243,383.346H537.2a3.042,3.042,0,1,1-2.909,3.6,3.278,3.278,0,0,1-.053-.584c0-.946,0-1.892,0-2.838Z" transform="translate(-533.528 -382.63)"/></g></g></svg>