<svg xmlns="http://www.w3.org/2000/svg" width="19.497" height="25.279" viewBox="0 0 19.497 25.279"><defs><style>.a,.c{fill:#02911c;}.a{stroke:#02911c;stroke-width:0.5px;}.b{fill:rgba(2,145,28,0.25);}</style></defs><g transform="translate(0.25 0.25)"><g transform="translate(0)"><g transform="translate(0)"><path class="a" d="M74.584,0H56.413A.413.413,0,0,0,56,.413V24.366a.413.413,0,0,0,.413.413H69.628a.413.413,0,0,0,.292-.121L74.876,19.7A.413.413,0,0,0,75,19.41v-19A.413.413,0,0,0,74.584,0ZM70.041,23.369V19.823h3.546ZM74.171,19H69.628a.413.413,0,0,0-.413.413v4.543H56.826V.826H74.171Z" transform="translate(-56)"/></g></g><g transform="translate(2.478 11.563)"><g transform="translate(0)"><path class="b" d="M106.065,224h-1.652a.413.413,0,1,0,0,.826h1.652a.413.413,0,1,0,0-.826Z" transform="translate(-104 -224)"/></g></g><g transform="translate(5.782 11.563)"><g transform="translate(0)"><path class="b" d="M178.324,224h-9.911a.413.413,0,0,0,0,.826h9.911a.413.413,0,0,0,0-.826Z" transform="translate(-168 -224)"/></g></g><g transform="translate(2.478 14.041)"><g transform="translate(0)"><path class="b" d="M106.065,272h-1.652a.413.413,0,0,0,0,.826h1.652a.413.413,0,0,0,0-.826Z" transform="translate(-104 -272)"/></g></g><g transform="translate(5.782 14.041)"><g transform="translate(0)"><path class="b" d="M178.324,272h-9.911a.413.413,0,0,0,0,.826h9.911a.413.413,0,0,0,0-.826Z" transform="translate(-168 -272)"/></g></g><g transform="translate(2.478 16.519)"><g transform="translate(0)"><path class="b" d="M106.065,320h-1.652a.413.413,0,0,0,0,.826h1.652a.413.413,0,1,0,0-.826Z" transform="translate(-104 -320)"/></g></g><g transform="translate(5.782 16.519)"><g transform="translate(0)"><path class="b" d="M178.324,320h-9.911a.413.413,0,0,0,0,.826h9.911a.413.413,0,0,0,0-.826Z" transform="translate(-168 -320)"/></g></g><g transform="translate(2.478 2.478)"><g transform="translate(0)"><path class="c" d="M108.935,54l-1.46-1.46,1.46-1.46a.413.413,0,1,0-.574-.594l-.01.01-1.46,1.46-1.481-1.481h.655a1.239,1.239,0,1,0,0-2.478h-1.652a.413.413,0,0,0-.413.413v4.543a.413.413,0,1,0,.826,0V51.062l1.481,1.481L104.847,54a.413.413,0,1,0,.574.594l.01-.01,1.46-1.46,1.46,1.46a.413.413,0,0,0,.594-.574Zm-4.109-5.177h1.239a.413.413,0,1,1,0,.826h-1.239Z" transform="translate(-104 -48)"/></g></g></g></svg>