<svg xmlns="http://www.w3.org/2000/svg" width="11.211" height="10.721" viewBox="0 0 11.211 10.721"><defs><style>.a{fill:#ffb31a;}</style></defs><path class="a" d="M6.147,1.383,7.412,3.945a.6.6,0,0,0,.455.33l2.828.411a.6.6,0,0,1,.335,1.03L8.983,7.71a.6.6,0,0,0-.174.534l.483,2.816a.6.6,0,0,1-.876.637L5.887,10.367a.6.6,0,0,0-.562,0L2.8,11.7a.6.6,0,0,1-.876-.637L2.4,8.244A.6.6,0,0,0,2.23,7.71L.184,5.716a.6.6,0,0,1,.335-1.03l2.828-.411a.6.6,0,0,0,.455-.33L5.065,1.383A.6.6,0,0,1,6.147,1.383Z" transform="translate(-0.001 -1.047)"/></svg>