<svg xmlns="http://www.w3.org/2000/svg" width="19.436" height="30.4" viewBox="0 0 19.436 30.4"><defs><style>.a{fill:rgba(2,145,28,0.18);}.b,.c{fill:#02911c;stroke:#fff;}.b{stroke-width:0.4px;}.c{stroke-width:0.3px;}</style></defs><g transform="translate(-93.358 0.2)"><path class="a" d="M0,0H15l-.193,8.181L13.214,9.252,11.841,11.2,0,11Z" transform="translate(94.558 11)"/><g transform="translate(93.558)"><g transform="translate(0)"><path class="b" d="M109.759,18.93V9.719a3.973,3.973,0,0,0-.79-2.264,2.712,2.712,0,0,0-1.935-1.2v-.9h.139a1.006,1.006,0,0,0,1-1V1a1.006,1.006,0,0,0-1-1H96.143a1.006,1.006,0,0,0-1,1v3.35a1.006,1.006,0,0,0,1,1h.051v.906a2.749,2.749,0,0,0-1.847,1.191,3.973,3.973,0,0,0-.79,2.264V26.844a2.662,2.662,0,0,0,2.616,2.868l11.918.013a3.2,3.2,0,0,0,4.5-2.929V22.113A3.209,3.209,0,0,0,109.759,18.93ZM104.347,1.172h2.66V4.187h-2.66Zm-4.1,0h2.93V4.187h-2.93Zm-3.934,0h2.762V4.187H96.311ZM94.73,9.719c0-1,.83-2.3,1.711-2.3h.339a.586.586,0,0,0,.586-.586V5.359h8.5V6.836a.586.586,0,0,0,.586.586h.427c.881,0,1.711,1.294,1.711,2.3v.4H94.73ZM96.175,28.54a1.512,1.512,0,0,1-1.445-1.7V25.468h4.09a.586.586,0,1,0,0-1.172H94.73V22.685h11.455V26.8a3.186,3.186,0,0,0,.526,1.756Zm10.067-7.027H94.73V13.356h1.3a.586.586,0,1,0,0-1.172h-1.3v-.894h13.857V19.01A3.214,3.214,0,0,0,106.242,21.513Zm5.18,5.282a2.032,2.032,0,0,1-2.91,1.833l-.04-.02a2.035,2.035,0,0,1-1.115-1.813V25.04h4.065Zm0-2.927h-4.065V22.112a2.033,2.033,0,0,1,4.065,0Z" transform="translate(-93.558)"/></g></g><g transform="translate(99.377 14.348)"><g transform="translate(0)"><path class="c" d="M197.145,244.953a.586.586,0,0,0-.8.214l-1.188,2.057-1.188-2.057a.586.586,0,1,0-1.015.586l1.7,2.936a.586.586,0,0,0,1.015,0l1.695-2.936A.586.586,0,0,0,197.145,244.953Z" transform="translate(-192.876 -244.875)"/></g></g></g></svg>