<svg xmlns="http://www.w3.org/2000/svg" width="45.487" height="38.162" viewBox="0 0 45.487 38.162">
  <g id="Group_11275" data-name="Group 11275" transform="translate(0 20.312) rotate(-30)">
    <path id="Path_7791" data-name="Path 7791" d="M5.34.451c2.969,0,5.51-1.531,6.133,2.1,0,1.8,1.139,1.008-.321,2.158-.876.715.6-.224-.9-.224-.5,0,.554.764-1.841,0-.819,2.462-.58-.334-1.69.905-.234.262-.457-.29-1.073-.136a2.53,2.53,0,0,1-2.308-.545C2.854,4.185-.734,6.94.135,2.553.653-.062.989,1.277.989.451c.317-.421.745.127,1.282-.228C2.948-.388,2.885.451,5.34.451Z" transform="translate(14.244 7.59)" fill="#02911c" opacity="0.18"/>
    <path id="Path_7790" data-name="Path 7790" d="M37.855,7.54h-.4V4.984a2.975,2.975,0,0,0-2.975-2.975h0a2.959,2.959,0,0,0-2.009.779A3.62,3.62,0,0,0,28.961,0h-.048A3.62,3.62,0,0,0,25.3,3.614V7.54H15.443V3.614a3.631,3.631,0,0,0-7.154-.827,2.975,2.975,0,0,0-4.984,2.2V7.54H2.769a2.769,2.769,0,1,0,0,5.537h.537v2.556a2.975,2.975,0,0,0,2.975,2.975h0a2.959,2.959,0,0,0,2.009-.784A3.614,3.614,0,0,0,11.8,20.612h.032A3.62,3.62,0,0,0,15.448,17V13.077h9.866V17a3.631,3.631,0,0,0,7.159.822,2.975,2.975,0,0,0,4.984-2.2V13.077h.4a2.769,2.769,0,0,0,0-5.537ZM3.3,12H2.763a1.694,1.694,0,1,1,0-3.389H3.3Zm4.887,3.631a1.9,1.9,0,0,1-1.9,1.9h0a1.9,1.9,0,0,1-1.9-1.9V12.562h0V8.1h0V4.984a1.907,1.907,0,0,1,3.813,0V15.628Zm6.182-7.573h0v4.425h0v4.441a2.54,2.54,0,0,1-2.54,2.54H11.8a2.54,2.54,0,0,1-2.54-2.54V3.614a2.556,2.556,0,0,1,5.107,0ZM25.314,12H15.443V8.614h9.871ZM31.5,4.984V17a2.556,2.556,0,0,1-5.107,0V3.614a2.54,2.54,0,0,1,2.524-2.54h.032a2.54,2.54,0,0,1,2.54,2.54V4.984Zm4.887,10.65a1.907,1.907,0,1,1-3.813,0V4.984a1.9,1.9,0,0,1,1.9-1.9h0a1.9,1.9,0,0,1,1.9,1.9V15.628Zm2.685-4.125a1.676,1.676,0,0,1-1.2.5h-.414V8.614h.4a1.694,1.694,0,0,1,1.2,2.889Z" transform="translate(0)" fill="#02911c"/>
  </g>
</svg>
