<svg id="fruit" xmlns="http://www.w3.org/2000/svg" width="30.392" height="32.679" viewBox="0 0 30.392 32.679">
  <path id="Path_7942" data-name="Path 7942" d="M31.036,33.38a1.61,1.61,0,0,0,.1-.543V22.3a2.7,2.7,0,0,0,1.574-1.941h.6a.543.543,0,0,0,.543-.543,10.25,10.25,0,0,0-5.976-9.345,8.678,8.678,0,1,0-17.355,0,10.277,10.277,0,0,0-5.976,9.35.543.543,0,0,0,.543.543h.6A2.7,2.7,0,0,0,7.256,22.3V32.837a1.61,1.61,0,0,0,.1.543H4v1.085H34.392V33.38Zm1.713-14.111h-.528a.543.543,0,0,0-.543.543,1.625,1.625,0,0,1-1.233,1.578,1.429,1.429,0,0,1-.4.05,1.628,1.628,0,0,1-1.628-1.628V17.641a8.111,8.111,0,0,0-1.086-4.056,8.575,8.575,0,0,0,.476-1.947,9.192,9.192,0,0,1,4.937,7.631Zm-18.437-1.51v2.053a1.628,1.628,0,1,1-3.256,0V17.641a7.035,7.035,0,0,1,.581-2.8,8.733,8.733,0,0,0,2.676,2.917Zm1.085.622a8.6,8.6,0,0,0,3.256.86v.57a1.628,1.628,0,1,1-3.256,0Zm4.342.86A8.6,8.6,0,0,0,23,18.382v1.43a1.628,1.628,0,1,1-3.256,0Zm4.342-1.482a8.733,8.733,0,0,0,2.676-2.917,7.035,7.035,0,0,1,.581,2.8v2.171a1.628,1.628,0,1,1-3.256,0ZM19.2,2.988a7.6,7.6,0,1,1-7.6,7.6,7.6,7.6,0,0,1,7.6-7.6ZM6.714,19.812a.543.543,0,0,0-.543-.543H5.644a9.194,9.194,0,0,1,4.939-7.634,8.6,8.6,0,0,0,.475,1.951A8.11,8.11,0,0,0,9.97,17.641v2.171A1.628,1.628,0,0,1,8.342,21.44a1.472,1.472,0,0,1-.409-.054A1.621,1.621,0,0,1,6.714,19.812ZM15.94,33.38H11.6V26.325a.543.543,0,0,1,.543-.543H15.4a.543.543,0,0,1,.543.543Zm1.085,0V26.325A1.628,1.628,0,0,0,15.4,24.7H12.141a1.628,1.628,0,0,0-1.628,1.628V33.38H8.884a.543.543,0,0,1-.543-.543V22.526a2.7,2.7,0,0,0,2.171-1.1,2.689,2.689,0,0,0,4.342,0,2.689,2.689,0,0,0,4.342,0,2.689,2.689,0,0,0,4.342,0,2.689,2.689,0,0,0,4.342,0,2.7,2.7,0,0,0,2.171,1.1V32.837a.543.543,0,0,1-.543.543Z" transform="translate(-4 -1.786)" fill="#02911c"/>
  <rect id="Rectangle_17637" data-name="Rectangle 17637" width="1.085" height="2.171" transform="translate(10.312 26.709)" fill="#02911c"/>
  <ellipse id="Ellipse_138" data-name="Ellipse 138" cx="8.5" cy="8" rx="8.5" ry="8" transform="translate(7.095 0.465)" fill="#02911c" opacity="0.18"/>
</svg>
