<svg id="noun_Nutrition_Finder_1797200" data-name="noun_Nutrition Finder_1797200" xmlns="http://www.w3.org/2000/svg" width="30.577" height="35" viewBox="0 0 30.577 35">
  <g id="Group_11212" data-name="Group 11212">
    <path id="Path_7794" data-name="Path 7794" d="M36.747,16.7a8.312,8.312,0,0,0-5.117-4.053,8.977,8.977,0,0,0-7.778,1.883,21.622,21.622,0,0,1,3.4-7.614l-.982-.737a22.78,22.78,0,0,0-3.234,6.672,20.677,20.677,0,0,0-4.789-8.187,13.257,13.257,0,0,0-2.579-2.047c-.327-.164-1.023-.327-1.76.655a4.743,4.743,0,0,0-.123,5.444c.941,1.351,2.988,2.865,7.368,2.743a30.5,30.5,0,0,1,.982,2.906,8.955,8.955,0,0,0-7.614-1.76A8.343,8.343,0,0,0,9.4,16.662,13.931,13.931,0,0,0,8.38,27.182c1.842,6.672,7.573,11.011,12.813,9.661a6.793,6.793,0,0,0,1.883-.778,10.738,10.738,0,0,0,1.883.778,8.074,8.074,0,0,0,1.965.246A8.995,8.995,0,0,0,32,35.451a.654.654,0,0,0,.164-.9h0a.644.644,0,0,0-.819-.164,7.6,7.6,0,0,1-6.1,1.228A6.19,6.19,0,0,1,23.4,34.8l-.327-.2-.327.2a6.19,6.19,0,0,1-1.842.819c-4.585,1.187-9.661-2.743-11.3-8.8a12.684,12.684,0,0,1,.9-9.579,7.156,7.156,0,0,1,4.38-3.479c2.62-.655,5.444.287,7.778,2.62l.45.409.45-.409c2.333-2.333,5.158-3.275,7.778-2.62a7.156,7.156,0,0,1,4.38,3.479,12.684,12.684,0,0,1,.9,9.579,14.033,14.033,0,0,1-2.21,4.667.591.591,0,0,0,.123.819h0a.646.646,0,0,0,.9-.123,16.38,16.38,0,0,0,2.415-5.035A13.77,13.77,0,0,0,36.747,16.7Zm-21.9-8.678a3.511,3.511,0,0,1,.082-4.012,2.451,2.451,0,0,1,.246-.287,14.892,14.892,0,0,1,2.21,1.76,16.5,16.5,0,0,1,3.275,4.748C17.877,10.235,15.871,9.5,14.847,8.025Z" transform="translate(-7.811 -2.498)" fill="#02911c"/>
    <path id="Path_7795" data-name="Path 7795" d="M50.836,50.568A7.377,7.377,0,1,0,48.094,56.3l4.871,5.24.9-.819-4.912-5.24A7.267,7.267,0,0,0,50.836,50.568Zm-13.508,0a6.14,6.14,0,1,1,6.14,6.14A6.132,6.132,0,0,1,37.328,50.568Z" transform="translate(-24.52 -26.539)" fill="#02911c"/>
    <path id="Path_7796" data-name="Path 7796" d="M-5.641-.765c1.017,0,3.083,1.123,3.3,2.368,0,.617,2.451,1.71,1.951,2.1-.3.245-.7,6.346-1.212,6.346-.17,0-3.555,3.222-4.815,2.2-.28.843-5.226-1.943-5.606-1.519-.436.488-1.028-4.491-1.186-4.668s.567-2.957.865-4.46c.178-.9,3.26-1.555,3.26-1.838C-8.459-1.068-6.659-.765-5.641-.765Z" transform="translate(25.907 18.085)" fill="#02911c" opacity="0.18"/>
  </g>
</svg>
