<svg id="calendar-icon" xmlns="http://www.w3.org/2000/svg" width="23.21" height="25.792" viewBox="0 0 23.21 25.792">
  <g id="calendar">
    <path id="Path_8364" data-name="Path 8364" d="M44.033,12.667h1.8a.738.738,0,0,0,.738-.738v-1.8a.738.738,0,0,0-.738-.738h-1.8a.738.738,0,0,0-.738.738v1.8A.738.738,0,0,0,44.033,12.667Zm.018-2.519h1.763v1.763H44.051Zm-.018,7.3h1.8a.738.738,0,0,0,.738-.738v-1.8a.738.738,0,0,0-.738-.738h-1.8a.738.738,0,0,0-.738.738v1.8A.738.738,0,0,0,44.033,17.452Zm.018-2.519h1.763V16.7H44.051ZM38.9,12.667h1.8a.738.738,0,0,0,.738-.738v-1.8a.738.738,0,0,0-.738-.738H38.9a.738.738,0,0,0-.738.738v1.8A.738.738,0,0,0,38.9,12.667Zm.018-2.519H40.68v1.763H38.917ZM30.43,18.739h-1.8a.738.738,0,0,0-.738.738v1.8a.738.738,0,0,0,.738.738h1.8a.738.738,0,0,0,.738-.738v-1.8A.738.738,0,0,0,30.43,18.739Zm-.018,2.519H28.649V19.495h1.763ZM30.43,9.393h-1.8a.738.738,0,0,0-.738.738v1.8a.738.738,0,0,0,.738.738h1.8a.738.738,0,0,0,.738-.738v-1.8A.738.738,0,0,0,30.43,9.393Zm-.018,2.519H28.649V10.148h1.763ZM38.9,17.34h1.8a.738.738,0,0,0,.738-.738V14.8a.738.738,0,0,0-.738-.738H38.9a.738.738,0,0,0-.738.738v1.8A.738.738,0,0,0,38.9,17.34Zm.018-2.519H40.68v1.763H38.917ZM46.945,1.727H45.33V1.149A1.15,1.15,0,0,0,44.181,0h-.173a1.15,1.15,0,0,0-1.149,1.149v.578H31.605V1.149A1.15,1.15,0,0,0,30.456,0h-.173a1.15,1.15,0,0,0-1.149,1.149v.578H27.519a1.894,1.894,0,0,0-1.892,1.892V23.9a1.891,1.891,0,0,0,1.889,1.889H46.948A1.891,1.891,0,0,0,48.837,23.9V3.618a1.894,1.894,0,0,0-1.892-1.892Zm-3.331-.578a.394.394,0,0,1,.393-.393h.173a.394.394,0,0,1,.393.393v.578h-.96Zm-13.725,0a.394.394,0,0,1,.393-.393h.173a.394.394,0,0,1,.393.393v.578h-.96V1.149ZM48.081,23.9a1.135,1.135,0,0,1-1.133,1.133H27.516A1.135,1.135,0,0,1,26.383,23.9v0a1.882,1.882,0,0,0,1.136.38H42.837a1.879,1.879,0,0,0,1.338-.554l3.907-3.907Zm-4.293-.859a1.616,1.616,0,0,0,.046-.381V20.14a.863.863,0,0,1,.863-.862h2.522a1.616,1.616,0,0,0,.381-.046ZM48.081,7.126h-16.1a.378.378,0,0,0,0,.756h16.1V17.66a.863.863,0,0,1-.863.863H44.7a1.62,1.62,0,0,0-1.618,1.618v2.522a.863.863,0,0,1-.862.863h-14.7a1.137,1.137,0,0,1-1.136-1.136V7.881h4.089a.378.378,0,0,0,0-.756H26.383V3.618a1.137,1.137,0,0,1,1.136-1.136h1.615V3.593a1.15,1.15,0,0,0,1.149,1.149.378.378,0,0,0,0-.756.394.394,0,0,1-.393-.393V2.482H42.859V3.593a1.15,1.15,0,0,0,1.149,1.149.378.378,0,0,0,0-.756.394.394,0,0,1-.393-.393V2.482h3.331a1.137,1.137,0,0,1,1.136,1.136ZM30.43,14.066h-1.8a.738.738,0,0,0-.738.738v1.8a.738.738,0,0,0,.738.738h1.8a.738.738,0,0,0,.738-.738V14.8A.738.738,0,0,0,30.43,14.066Zm-.018,2.519H28.649V14.822h1.763Zm3.353-3.918h1.8a.738.738,0,0,0,.738-.738v-1.8a.738.738,0,0,0-.738-.738h-1.8a.738.738,0,0,0-.738.738v1.8A.738.738,0,0,0,33.765,12.667Zm.018-2.519h1.763v1.763H33.783Zm5.134,11.11a.378.378,0,0,0-.755.018.738.738,0,0,0,.738.738h1.8a.738.738,0,0,0,.738-.738v-1.8a.738.738,0,0,0-.738-.738H38.9a.738.738,0,0,0-.738.738V20a.378.378,0,0,0,.756,0v-.5H40.68v1.763ZM33.765,17.34h1.8A.738.738,0,0,0,36.3,16.6V14.8a.738.738,0,0,0-.738-.738h-1.8a.738.738,0,0,0-.738.738v1.8A.738.738,0,0,0,33.765,17.34Zm.018-2.519h1.763v1.763H33.783Zm-.018,7.192h1.8a.738.738,0,0,0,.738-.738v-1.8a.738.738,0,0,0-.738-.738h-1.8a.738.738,0,0,0-.738.738v1.8A.738.738,0,0,0,33.765,22.014Zm.018-2.519h1.763v1.763H33.783Z" transform="translate(-25.627 0)" fill="#02911c"/>
    <rect id="Rectangle_17774" data-name="Rectangle 17774" width="2" height="2" transform="translate(3.058 9.981)" fill="rgba(2,145,28,0.25)"/>
    <rect id="Rectangle_17775" data-name="Rectangle 17775" height="2" transform="translate(20.058 9.981)" fill="rgba(2,145,28,0.25)"/>
    <path id="Path_8367" data-name="Path 8367" d="M0,.008l2.43-.15V2.33L0,2.125Z" transform="translate(12.894 10.006)" fill="rgba(2,145,28,0.25)"/>
    <path id="Path_8366" data-name="Path 8366" d="M.218.173h2.2l.312,2.541L.218,2.534Z" transform="translate(7.615 14.258)" fill="rgba(2,145,28,0.25)"/>
    <path id="Path_8365" data-name="Path 8365" d="M1.04-.283H21.147a1.661,1.661,0,0,1,1.375,1.358V4.99H0V1.075C0,.49.456-.283,1.04-.283Z" transform="translate(0.195 2.59)" fill="rgba(2,145,28,0.25)"/>
  </g>
</svg>
