<svg id="scooter" xmlns="http://www.w3.org/2000/svg" width="32.143" height="29.274" viewBox="0 0 32.143 29.274">
  <g id="Group_11970" data-name="Group 11970" transform="translate(0)">
    <g id="Group_11969" data-name="Group 11969" transform="translate(0)">
      <path id="Path_8303" data-name="Path 8303" d="M28.471,51.256a23.469,23.469,0,0,0-.013-5.392.475.475,0,0,0-.532-.419.488.488,0,0,0-.4.554,22.685,22.685,0,0,1,.024,5.009,5.3,5.3,0,0,0-3,.353,17.158,17.158,0,0,0,.783-4.669,12.546,12.546,0,0,0-1.144-5.782h.395l.336.07a4.819,4.819,0,0,1,2.109,2.809.467.467,0,0,0,.6.3.5.5,0,0,0,.285-.628,7.115,7.115,0,0,0-1.09-2.081l.228.047a.482.482,0,0,0,.564-.482V37.8a.482.482,0,0,0-.564-.482l-1.952.406V35.179a.492.492,0,0,0-.3-.456l-2.248-.936a2.057,2.057,0,1,0-.083,1.024l1.683.7v2.32h-4.56a.492.492,0,0,0,0,.982h3.051v1.6a.482.482,0,0,0,.467.491c2.16,3.858,1.144,8.785.183,11.126a.508.508,0,0,0-.029.1q-.214.173-.41.367l-.037,0H18.552a9.638,9.638,0,0,0,.468-4.189,4.619,4.619,0,0,0-2.476-3.534V41.99a.482.482,0,0,0-.472-.491H10.537a3.055,3.055,0,0,0-2.988,3.111v.034l-.031,0H7.486V41.433h.535a.482.482,0,0,0,.472-.491v-2.62a.482.482,0,0,0-.472-.491H.473A.482.482,0,0,0,0,38.322v2.62a.482.482,0,0,0,.472.491h.535v3.209H.473a.492.492,0,0,0,0,.982H5.778a10.451,10.451,0,0,0-1.035.62A11.035,11.035,0,0,0,0,56.133c0,.116,0,.232,0,.348a.9.9,0,0,0,.011.262.48.48,0,0,0,.454.359H1.531a4.578,4.578,0,0,0,4.477,4.241A4.578,4.578,0,0,0,10.485,57.1h5.587a.462.462,0,0,0,.332-.142,8.4,8.4,0,0,0,.852-1.38h3.978a5.968,5.968,0,0,0-.1,1.081.482.482,0,0,0,.472.491h.56a4.482,4.482,0,0,0,8.945,0h.56a.482.482,0,0,0,.472-.491A5.73,5.73,0,0,0,28.471,51.256ZM25.1,38.725l1.572-.327v1.945l-1.445-.3c-.042-.021-.084-.043-.127-.063Zm-4.5-3.513a1.081,1.081,0,1,1,1.038-1.081A1.061,1.061,0,0,1,20.6,35.211Zm3.554,4.715h-.566V38.813h.566ZM8.492,44.609a2.09,2.09,0,0,1,2.044-2.128H15.6v2.161H8.492ZM.944,40.451V38.813h6.6v1.637Zm1.006,4.191V41.433H6.542v3.209ZM6.008,60.359A3.613,3.613,0,0,1,2.48,57.1H3.56a2.519,2.519,0,0,0,2.448,2.145A2.519,2.519,0,0,0,8.455,57.1h1.08A3.613,3.613,0,0,1,6.008,60.359ZM4.526,57.1H7.489a1.525,1.525,0,0,1-2.962,0Zm12.711-3.734a16.788,16.788,0,0,1-1.4,2.752H.948s0,0,0,0a9.97,9.97,0,0,1,4.312-9.05,10.46,10.46,0,0,1,2.761-1.315.466.466,0,0,0,.2-.127h7.843a3.631,3.631,0,0,1,2,2.71A9.832,9.832,0,0,1,17.238,53.367ZM21.5,54.6H17.741c.106-.23.211-.47.312-.716.052-.128.105-.261.158-.4h3.849A5.808,5.808,0,0,0,21.5,54.6Zm5.135,5.763a3.627,3.627,0,0,1-3.551-3.577,4.341,4.341,0,0,1,1.673-1.814,2.637,2.637,0,0,0-.607,1.691,2.487,2.487,0,1,0,4.969,0,2.644,2.644,0,0,0-.492-1.544,5.171,5.171,0,0,1,1.559,1.657A3.628,3.628,0,0,1,26.639,60.359Zm-1.541-3.7a1.542,1.542,0,1,1,1.541,1.6A1.575,1.575,0,0,1,25.1,56.659Zm5.84-.491a5.071,5.071,0,0,0-4.3-2.62,4.655,4.655,0,0,0-4.3,2.62H22.1a4.545,4.545,0,0,1,9.072,0Z" transform="translate(0 -32.068)" fill="#02911c"/>
      <path id="Path_8304" data-name="Path 8304" d="M6.179,5.4c4.177-2.792,12.66-1.953,12.66-1.953a5,5,0,0,1,1.707,4.023c0,2.792-1.707,7.147-1.707,7.147H2.8S2,8.2,6.179,5.4Z" transform="translate(-2.068 9.814)" fill="#02911c" opacity="0.18"/>
    </g>
  </g>
</svg>
