<svg id="Group_11991" data-name="Group 11991" xmlns="http://www.w3.org/2000/svg" width="26.159" height="23.273" viewBox="0 0 26.159 23.273">
  <path id="heart" d="M13.08,23.273a1.534,1.534,0,0,1-1.011-.38c-1.057-.924-2.076-1.792-2.975-2.558l0,0a55.319,55.319,0,0,1-6.495-6.1A9.737,9.737,0,0,1,0,7.862,8.176,8.176,0,0,1,2.075,2.278,7.034,7.034,0,0,1,7.308,0a6.58,6.58,0,0,1,4.11,1.419A8.409,8.409,0,0,1,13.08,3.154a8.41,8.41,0,0,1,1.662-1.735A6.58,6.58,0,0,1,18.852,0a7.035,7.035,0,0,1,5.233,2.278,8.176,8.176,0,0,1,2.075,5.584,9.735,9.735,0,0,1-2.594,6.373,55.313,55.313,0,0,1-6.494,6.1c-.9.767-1.921,1.637-2.98,2.563a1.535,1.535,0,0,1-1.011.38ZM7.308,1.532A5.519,5.519,0,0,0,3.2,3.316,6.651,6.651,0,0,0,1.532,7.862a8.192,8.192,0,0,0,2.242,5.4,54.437,54.437,0,0,0,6.309,5.907l0,0c.9.769,1.925,1.641,2.99,2.572,1.071-.933,2.1-1.806,3-2.576a54.452,54.452,0,0,0,6.308-5.907,8.193,8.193,0,0,0,2.242-5.4,6.651,6.651,0,0,0-1.669-4.545,5.518,5.518,0,0,0-4.106-1.784,5.082,5.082,0,0,0-3.173,1.1A7.436,7.436,0,0,0,13.91,4.677a.967.967,0,0,1-1.662,0A7.429,7.429,0,0,0,10.48,2.631a5.082,5.082,0,0,0-3.173-1.1Zm0,0" transform="translate(0 0)" fill="#d3d3d3"/>
</svg>
