<svg xmlns="http://www.w3.org/2000/svg" width="119" height="119" viewBox="0 0 119 119">
  <g id="Group_12234" data-name="Group 12234" transform="translate(-19.043 -0.062)">
    <g id="Ellipse_111" data-name="Ellipse 111" transform="translate(19.043 0.062)" fill="#229f39" stroke="#fff" stroke-width="2">
      <circle cx="59.5" cy="59.5" r="59.5" stroke="none"/>
      <circle cx="59.5" cy="59.5" r="58.5" fill="none"/>
    </g>
    <g id="discount" transform="translate(54.655 34.582)">
      <g id="Group_9905" data-name="Group 9905" transform="translate(0 0)">
        <g id="Group_9904" data-name="Group 9904">
          <path id="Path_1223" data-name="Path 1223" d="M56.48,25.9a1.48,1.48,0,0,1,0-1.308l1.884-3.853a4.384,4.384,0,0,0-1.892-5.822l-3.789-2.01a1.48,1.48,0,0,1-.769-1.058l-.741-4.224a4.384,4.384,0,0,0-4.952-3.6l-4.246.6a1.48,1.48,0,0,1-1.244-.4L37.648,1.243a4.384,4.384,0,0,0-6.121,0L28.445,4.226a1.48,1.48,0,0,1-1.244.4l-4.246-.6A4.384,4.384,0,0,0,18,7.627l-.741,4.224a1.48,1.48,0,0,1-.769,1.058L12.7,14.92a4.384,4.384,0,0,0-1.892,5.822L12.7,24.595a1.48,1.48,0,0,1,0,1.308l-1.884,3.853A4.384,4.384,0,0,0,12.7,35.578l3.789,2.01a1.48,1.48,0,0,1,.769,1.058L18,42.87a4.381,4.381,0,0,0,4.322,3.643,4.5,4.5,0,0,0,.631-.045l4.246-.6a1.479,1.479,0,0,1,1.244.4l3.082,2.982a4.384,4.384,0,0,0,6.121,0l3.083-2.982a1.481,1.481,0,0,1,1.244-.4l4.246.6a4.384,4.384,0,0,0,4.952-3.6l.741-4.224a1.48,1.48,0,0,1,.769-1.058l3.789-2.01a4.384,4.384,0,0,0,1.892-5.822ZM55.107,33l-3.789,2.01a4.374,4.374,0,0,0-2.273,3.128L48.3,42.367a1.483,1.483,0,0,1-1.675,1.217l-4.246-.6a4.373,4.373,0,0,0-3.677,1.195L35.623,47.16a1.483,1.483,0,0,1-2.071,0L30.47,44.178a4.37,4.37,0,0,0-3.05-1.239,4.47,4.47,0,0,0-.627.044l-4.246.6a1.484,1.484,0,0,1-1.675-1.217l-.741-4.224a4.374,4.374,0,0,0-2.273-3.128L14.068,33a1.483,1.483,0,0,1-.64-1.97l1.884-3.853a4.374,4.374,0,0,0,0-3.866l-1.884-3.853a1.483,1.483,0,0,1,.64-1.97l3.789-2.01a4.374,4.374,0,0,0,2.273-3.128L20.87,8.13a1.483,1.483,0,0,1,1.675-1.217l4.246.6a4.374,4.374,0,0,0,3.677-1.195l3.082-2.982a1.483,1.483,0,0,1,2.071,0l3.082,2.982a4.373,4.373,0,0,0,3.677,1.195l4.246-.6A1.483,1.483,0,0,1,48.3,8.13l.741,4.224a4.374,4.374,0,0,0,2.273,3.128l3.789,2.01a1.483,1.483,0,0,1,.64,1.97l-1.884,3.853a4.374,4.374,0,0,0,0,3.866l1.884,3.853A1.483,1.483,0,0,1,55.107,33Z" transform="translate(-10.359 0.002)" fill="#fff"/>
        </g>
      </g>
      <g id="Group_9907" data-name="Group 9907" transform="translate(13.824 14.846)">
        <g id="Group_9906" data-name="Group 9906" transform="translate(0)">
          <path id="Path_1224" data-name="Path 1224" d="M164.2,144.192a1.369,1.369,0,0,0-1.936,0l-18.07,18.07a1.369,1.369,0,1,0,1.936,1.936l18.07-18.07A1.369,1.369,0,0,0,164.2,144.192Z" transform="translate(-143.792 -143.792)" fill="#fff"/>
        </g>
      </g>
      <g id="Group_9909" data-name="Group 9909" transform="translate(13.285 12.339)">
        <g id="Group_9908" data-name="Group 9908" transform="translate(0)">
          <path id="Path_1225" data-name="Path 1225" d="M147.822,123.116a5.02,5.02,0,1,0,5.02,5.02A5.026,5.026,0,0,0,147.822,123.116Zm0,7.3a2.282,2.282,0,1,1,2.282-2.282A2.284,2.284,0,0,1,147.822,130.417Z" transform="translate(-142.802 -123.116)" fill="#fff"/>
        </g>
      </g>
      <g id="Group_9911" data-name="Group 9911" transform="translate(25.133 28.123)">
        <g id="Group_9910" data-name="Group 9910" transform="translate(0)">
          <path id="Path_1226" data-name="Path 1226" d="M265.942,280.61a5.02,5.02,0,1,0,5.02,5.02A5.025,5.025,0,0,0,265.942,280.61Zm0,7.3a2.282,2.282,0,1,1,2.282-2.282A2.284,2.284,0,0,1,265.942,287.911Z" transform="translate(-260.922 -280.61)" fill="#fff"/>
        </g>
      </g>
    </g>
  </g>
</svg>
