<svg id="Product_Share" data-name="Product Share" xmlns="http://www.w3.org/2000/svg" width="22.579" height="22.579" viewBox="0 0 22.579 22.579">
  <path id="share_2_" data-name="share (2)" d="M17.74,12.9a4.822,4.822,0,0,0-3.892,1.991l-4.4-2.2a4.773,4.773,0,0,0,.231-1.4,4.773,4.773,0,0,0-.231-1.4l4.4-2.2A4.818,4.818,0,1,0,12.9,4.838a4.772,4.772,0,0,0,.232,1.4l-4.4,2.2a4.838,4.838,0,1,0,0,5.695l4.4,2.2a4.772,4.772,0,0,0-.231,1.4A4.838,4.838,0,1,0,17.74,12.9Zm0-11.289a3.225,3.225,0,1,1-3.225,3.225A3.229,3.229,0,0,1,17.74,1.613Zm-12.9,12.9a3.225,3.225,0,1,1,3.225-3.225A3.229,3.229,0,0,1,4.838,14.515Zm12.9,6.451a3.225,3.225,0,1,1,3.225-3.225A3.229,3.229,0,0,1,17.74,20.966Z" transform="translate(0 0)" fill="#c7c7c7"/>
</svg>
