<svg id="logo" xmlns="http://www.w3.org/2000/svg" width="103.388" height="31.547" viewBox="0 0 103.388 31.547">
  <g id="Group_1" data-name="Group 1" transform="translate(0 7.285)">
    <path id="Path_1" data-name="Path 1" d="M231.452,431.756a10.54,10.54,0,0,1,5.46,1.094l.522,4.408h-.382A8.491,8.491,0,0,0,232.077,436a7.621,7.621,0,0,0-5.373,1.872,6.871,6.871,0,0,0,.069,9.828,9.2,9.2,0,0,0,10.659.364h.383l-.522,4.508a11.09,11.09,0,0,1-5.773,1.226,12.547,12.547,0,0,1-8.694-3.049,10.061,10.061,0,0,1-3.408-7.855,10.389,10.389,0,0,1,3.408-8A12.253,12.253,0,0,1,231.452,431.756Z" transform="translate(-219.419 -429.569)" fill="#02911c"/>
    <path id="Path_2" data-name="Path 2" d="M339.613,463.576A6.938,6.938,0,0,1,339.23,466H327.719q.73,4.177,5.842,4.176a8.2,8.2,0,0,0,4.973-1.259h.383l-.591,3.481a7.523,7.523,0,0,1-2.208.895,12.206,12.206,0,0,1-3.181.4,10.642,10.642,0,0,1-6.955-2.27,7.731,7.731,0,0,1-2.781-6.347,8.14,8.14,0,0,1,2.4-6.132,8.535,8.535,0,0,1,6.19-2.321,8.217,8.217,0,0,1,5.651,1.922A6.392,6.392,0,0,1,339.613,463.576Zm-11.893-.265h7.547a3.43,3.43,0,0,0-.922-2.6,3.555,3.555,0,0,0-2.556-.879,4.152,4.152,0,0,0-2.713.879,4.04,4.04,0,0,0-1.356,2.6Z" transform="translate(-302.437 -449.456)" fill="#02911c"/>
    <path id="Path_3" data-name="Path 3" d="M423.313,444.62V421.485l4.59-.663v23.8Z" transform="translate(-382.521 -420.822)" fill="#02911c"/>
    <path id="Path_4" data-name="Path 4" d="M470.244,444.62V421.485l4.59-.663v23.8Z" transform="translate(-420.063 -420.822)" fill="#02911c"/>
    <path id="Path_5" data-name="Path 5" d="M522.184,475.4a6.073,6.073,0,0,1-4.4-1.591A6.388,6.388,0,0,1,516.133,469V458.762h4.625v9.911q0,2.982,2.991,2.983a4.625,4.625,0,0,0,2.208-.547,3.6,3.6,0,0,0,1.443-1.243v-11.1h4.625V474.97h-4v-2.619a6.024,6.024,0,0,1-2.208,2.138A6.923,6.923,0,0,1,522.184,475.4Z" transform="translate(-456.771 -451.172)" fill="#02911c"/>
    <path id="Path_6" data-name="Path 6" d="M619.384,444.62V421.485l4.59-.663v23.8Z" transform="translate(-539.365 -420.822)" fill="#02911c"/>
    <path id="Path_7" data-name="Path 7" d="M667.391,456.6a8.409,8.409,0,0,1,5.6,1.707,6.044,6.044,0,0,1,2.017,4.889v10.043h-4.139v-2.321a4.824,4.824,0,0,1-2,1.922,6.962,6.962,0,0,1-3.564.862,6.141,6.141,0,0,1-4.017-1.293A4.189,4.189,0,0,1,659.707,469a4.553,4.553,0,0,1,1.791-3.745,7.463,7.463,0,0,1,4.781-1.426,9.261,9.261,0,0,1,4.138.828v-1.193q0-3.313-3.964-3.315a9.09,9.09,0,0,0-5.355,1.492h-.383l.66-3.414a6.932,6.932,0,0,1,2.4-1.143A12.57,12.57,0,0,1,667.391,456.6Zm.174,9.843a4.025,4.025,0,0,0-2.348.58,1.8,1.8,0,0,0-.817,1.54,1.869,1.869,0,0,0,.73,1.542,3.042,3.042,0,0,0,1.948.58,4.019,4.019,0,0,0,2.121-.547,3.071,3.071,0,0,0,1.217-1.177v-1.956a6.056,6.056,0,0,0-2.851-.562Z" transform="translate(-571.619 -449.445)" fill="#02911c"/>
  </g>
  <g id="Group_2" data-name="Group 2" transform="translate(61.975 0)">
    <path id="Path_9" data-name="Path 9" d="M0,0h5.5a5.622,5.622,0,0,1,5.7,4.464,5.482,5.482,0,0,1-4.738,6.324A5.65,5.65,0,0,1,.1,6.427,5.589,5.589,0,0,1,0,5.386C0,3.7,0,2.013,0,.327Z" transform="translate(0 0)" fill="#e23744"/>
  </g>
</svg>
